<?xml version="1.0" encoding="UTF-8" standalone="no"?>
<!DOCTYPE svg PUBLIC "-//W3C//DTD SVG 1.1//EN"
 "http://www.w3.org/Graphics/SVG/1.1/DTD/svg11.dtd">
<!-- Generated by graphviz version 12.1.2 (20240928.0832)
 -->
<!-- Title: api.recipes Pages: 1 -->
<svg width="1543pt" height="1006pt"
 viewBox="0.00 0.00 1543.32 1006.40" xmlns="http://www.w3.org/2000/svg" xmlns:xlink="http://www.w3.org/1999/xlink">
<g id="graph0" class="graph" transform="scale(1 1) rotate(0) translate(4 1002.4)">
<title>api.recipes</title>
<polygon fill="white" stroke="none" points="-4,4 -4,-1002.4 1539.32,-1002.4 1539.32,4 -4,4"/>
<!-- api.recipes -->
<g id="node1" class="node">
<title>api.recipes</title>
<polygon fill="#efefef" stroke="none" points="656.69,-604.6 656.69,-640.2 872.64,-640.2 872.64,-604.6 656.69,-604.6"/>
<polygon fill="none" stroke="black" points="656.69,-604.6 656.69,-640.2 872.64,-640.2 872.64,-604.6 656.69,-604.6"/>
<text text-anchor="start" x="663.69" y="-618" font-family="Arial Bold" font-size="18.00">api.recipes</text>
<text text-anchor="start" x="741.15" y="-618" font-family="Arial" font-size="14.00">    </text>
<text text-anchor="start" x="772.27" y="-618" font-family="Arial" font-size="14.00" fill="#666666">[BASE TABLE]</text>
<polygon fill="none" stroke="black" points="656.69,-573.8 656.69,-604.6 872.64,-604.6 872.64,-573.8 656.69,-573.8"/>
<text text-anchor="start" x="663.69" y="-586" font-family="Arial" font-size="14.00">recipe_id </text>
<text text-anchor="start" x="724.4" y="-586" font-family="Arial" font-size="14.00" fill="#666666">[uuid]</text>
<polygon fill="none" stroke="black" points="656.69,-543 656.69,-573.8 872.64,-573.8 872.64,-543 656.69,-543"/>
<text text-anchor="start" x="663.69" y="-555.2" font-family="Arial" font-size="14.00">user_id </text>
<text text-anchor="start" x="713.5" y="-555.2" font-family="Arial" font-size="14.00" fill="#666666">[uuid]</text>
<polygon fill="none" stroke="black" points="656.69,-512.2 656.69,-543 872.64,-543 872.64,-512.2 656.69,-512.2"/>
<text text-anchor="start" x="663.69" y="-524.4" font-family="Arial" font-size="14.00">title </text>
<text text-anchor="start" x="689.37" y="-524.4" font-family="Arial" font-size="14.00" fill="#666666">[varchar(255)]</text>
<polygon fill="none" stroke="black" points="656.69,-481.4 656.69,-512.2 872.64,-512.2 872.64,-481.4 656.69,-481.4"/>
<text text-anchor="start" x="663.69" y="-493.6" font-family="Arial" font-size="14.00">content </text>
<text text-anchor="start" x="713.51" y="-493.6" font-family="Arial" font-size="14.00" fill="#666666">[text]</text>
<polygon fill="none" stroke="black" points="656.69,-450.6 656.69,-481.4 872.64,-481.4 872.64,-450.6 656.69,-450.6"/>
<text text-anchor="start" x="663.69" y="-462.8" font-family="Arial" font-size="14.00">difficulty </text>
<text text-anchor="start" x="718.16" y="-462.8" font-family="Arial" font-size="14.00" fill="#666666">[api.difficulty_level]</text>
<polygon fill="none" stroke="black" points="656.69,-419.8 656.69,-450.6 872.64,-450.6 872.64,-419.8 656.69,-419.8"/>
<text text-anchor="start" x="663.69" y="-432" font-family="Arial" font-size="14.00">thumbnail_image_hash </text>
<text text-anchor="start" x="812.35" y="-432" font-family="Arial" font-size="14.00" fill="#666666">[text]</text>
<polygon fill="none" stroke="black" stroke-width="3" points="655.19,-418.3 655.19,-641.7 874.14,-641.7 874.14,-418.3 655.19,-418.3"/>
</g>
<!-- public.users -->
<g id="node6" class="node">
<title>public.users</title>
<polygon fill="#efefef" stroke="none" points="652.18,-258.8 652.18,-294.4 877.15,-294.4 877.15,-258.8 652.18,-258.8"/>
<polygon fill="none" stroke="black" points="652.18,-258.8 652.18,-294.4 877.15,-294.4 877.15,-258.8 652.18,-258.8"/>
<text text-anchor="start" x="659.18" y="-272.2" font-family="Arial Bold" font-size="18.00">public.users</text>
<text text-anchor="start" x="745.66" y="-272.2" font-family="Arial" font-size="14.00">    </text>
<text text-anchor="start" x="776.78" y="-272.2" font-family="Arial" font-size="14.00" fill="#666666">[BASE TABLE]</text>
<polygon fill="none" stroke="black" points="652.18,-228 652.18,-258.8 877.15,-258.8 877.15,-228 652.18,-228"/>
<text text-anchor="start" x="659.18" y="-240.2" font-family="Arial" font-size="14.00">user_id </text>
<text text-anchor="start" x="708.99" y="-240.2" font-family="Arial" font-size="14.00" fill="#666666">[uuid]</text>
<polygon fill="none" stroke="black" points="652.18,-197.2 652.18,-228 877.15,-228 877.15,-197.2 652.18,-197.2"/>
<text text-anchor="start" x="659.18" y="-209.4" font-family="Arial" font-size="14.00">email </text>
<text text-anchor="start" x="696.52" y="-209.4" font-family="Arial" font-size="14.00" fill="#666666">[varchar(320)]</text>
<polygon fill="none" stroke="black" points="652.18,-166.4 652.18,-197.2 877.15,-197.2 877.15,-166.4 652.18,-166.4"/>
<text text-anchor="start" x="659.18" y="-178.6" font-family="Arial" font-size="14.00">first_name </text>
<text text-anchor="start" x="728.43" y="-178.6" font-family="Arial" font-size="14.00" fill="#666666">[varchar(255)]</text>
<polygon fill="none" stroke="black" points="652.18,-135.6 652.18,-166.4 877.15,-166.4 877.15,-135.6 652.18,-135.6"/>
<text text-anchor="start" x="659.18" y="-147.8" font-family="Arial" font-size="14.00">last_name </text>
<text text-anchor="start" x="727.66" y="-147.8" font-family="Arial" font-size="14.00" fill="#666666">[varchar(255)]</text>
<polygon fill="none" stroke="black" points="652.18,-104.8 652.18,-135.6 877.15,-135.6 877.15,-104.8 652.18,-104.8"/>
<text text-anchor="start" x="659.18" y="-117" font-family="Arial" font-size="14.00">password_hash </text>
<text text-anchor="start" x="761.13" y="-117" font-family="Arial" font-size="14.00" fill="#666666">[text]</text>
<polygon fill="none" stroke="black" points="652.18,-74 652.18,-104.8 877.15,-104.8 877.15,-74 652.18,-74"/>
<text text-anchor="start" x="659.18" y="-86.2" font-family="Arial" font-size="14.00">middle_name </text>
<text text-anchor="start" x="747.12" y="-86.2" font-family="Arial" font-size="14.00" fill="#666666">[varchar(255)]</text>
<polygon fill="none" stroke="black" points="652.18,-43.2 652.18,-74 877.15,-74 877.15,-43.2 652.18,-43.2"/>
<text text-anchor="start" x="659.18" y="-55.4" font-family="Arial" font-size="14.00">is_admin </text>
<text text-anchor="start" x="719.1" y="-55.4" font-family="Arial" font-size="14.00" fill="#666666">[boolean]</text>
</g>
<!-- api.recipes&#45;&gt;public.users -->
<g id="edge5" class="edge">
<title>api.recipes:user_id&#45;&gt;public.users:user_id</title>
<path fill="none" stroke="black" d="M884.04,-557.8C1013.79,-542.61 1014.61,-243.4 878.15,-243.4"/>
<polygon fill="black" stroke="black" points="883.96,-557.81 873.72,-553.89 878.63,-558.11 874.31,-558.36 874.31,-558.36 874.31,-558.36 878.63,-558.11 874.23,-562.87 883.96,-557.81"/>
</g>
<!-- api.recipes_comments -->
<g id="node2" class="node">
<title>api.recipes_comments</title>
<polygon fill="#efefef" stroke="none" points="43.2,-919.6 43.2,-955.2 342.13,-955.2 342.13,-919.6 43.2,-919.6"/>
<polygon fill="none" stroke="black" points="43.2,-919.6 43.2,-955.2 342.13,-955.2 342.13,-919.6 43.2,-919.6"/>
<text text-anchor="start" x="50.2" y="-933" font-family="Arial Bold" font-size="18.00">api.recipes_comments</text>
<text text-anchor="start" x="210.64" y="-933" font-family="Arial" font-size="14.00">    </text>
<text text-anchor="start" x="241.76" y="-933" font-family="Arial" font-size="14.00" fill="#666666">[BASE TABLE]</text>
<polygon fill="none" stroke="black" points="43.2,-888.8 43.2,-919.6 342.13,-919.6 342.13,-888.8 43.2,-888.8"/>
<text text-anchor="start" x="50.2" y="-901" font-family="Arial" font-size="14.00">comment_id </text>
<text text-anchor="start" x="130.34" y="-901" font-family="Arial" font-size="14.00" fill="#666666">[uuid]</text>
<polygon fill="none" stroke="black" points="43.2,-858 43.2,-888.8 342.13,-888.8 342.13,-858 43.2,-858"/>
<text text-anchor="start" x="50.2" y="-870.2" font-family="Arial" font-size="14.00">recipe_id </text>
<text text-anchor="start" x="110.9" y="-870.2" font-family="Arial" font-size="14.00" fill="#666666">[uuid]</text>
<polygon fill="none" stroke="black" points="43.2,-827.2 43.2,-858 342.13,-858 342.13,-827.2 43.2,-827.2"/>
<text text-anchor="start" x="50.2" y="-839.4" font-family="Arial" font-size="14.00">user_id </text>
<text text-anchor="start" x="100.01" y="-839.4" font-family="Arial" font-size="14.00" fill="#666666">[uuid]</text>
<polygon fill="none" stroke="black" points="43.2,-796.4 43.2,-827.2 342.13,-827.2 342.13,-796.4 43.2,-796.4"/>
<text text-anchor="start" x="50.2" y="-808.6" font-family="Arial" font-size="14.00">parent_comment_id </text>
<text text-anchor="start" x="177.83" y="-808.6" font-family="Arial" font-size="14.00" fill="#666666">[uuid]</text>
<polygon fill="none" stroke="black" points="43.2,-765.6 43.2,-796.4 342.13,-796.4 342.13,-765.6 43.2,-765.6"/>
<text text-anchor="start" x="50.2" y="-777.8" font-family="Arial" font-size="14.00">content </text>
<text text-anchor="start" x="100.01" y="-777.8" font-family="Arial" font-size="14.00" fill="#666666">[text]</text>
</g>
<!-- api.recipes_comments&#45;&gt;api.recipes -->
<g id="edge1" class="edge">
<title>api.recipes_comments:recipe_id&#45;&gt;api.recipes:recipe_id</title>
<path fill="none" stroke="black" d="M353.25,-872.61C407.42,-863.25 350.68,-773.17 394.67,-722.4 479.95,-623.96 525.45,-589.2 655.69,-589.2"/>
<polygon fill="black" stroke="black" points="353.44,-872.59 343.12,-868.89 348.12,-873.01 343.8,-873.35 343.8,-873.35 343.8,-873.35 348.12,-873.01 343.82,-877.86 353.44,-872.59"/>
</g>
<!-- api.recipes_tags -->
<g id="node3" class="node">
<title>api.recipes_tags</title>
<polygon fill="#efefef" stroke="none" points="446.7,-873.4 446.7,-909 700.64,-909 700.64,-873.4 446.7,-873.4"/>
<polygon fill="none" stroke="black" points="446.7,-873.4 446.7,-909 700.64,-909 700.64,-873.4 446.7,-873.4"/>
<text text-anchor="start" x="453.7" y="-886.8" font-family="Arial Bold" font-size="18.00">api.recipes_tags</text>
<text text-anchor="start" x="569.15" y="-886.8" font-family="Arial" font-size="14.00">    </text>
<text text-anchor="start" x="600.27" y="-886.8" font-family="Arial" font-size="14.00" fill="#666666">[BASE TABLE]</text>
<polygon fill="none" stroke="black" points="446.7,-842.6 446.7,-873.4 700.64,-873.4 700.64,-842.6 446.7,-842.6"/>
<text text-anchor="start" x="453.7" y="-854.8" font-family="Arial" font-size="14.00">recipe_id </text>
<text text-anchor="start" x="514.4" y="-854.8" font-family="Arial" font-size="14.00" fill="#666666">[uuid]</text>
<polygon fill="none" stroke="black" points="446.7,-811.8 446.7,-842.6 700.64,-842.6 700.64,-811.8 446.7,-811.8"/>
<text text-anchor="start" x="453.7" y="-824" font-family="Arial" font-size="14.00">tag_id </text>
<text text-anchor="start" x="495.73" y="-824" font-family="Arial" font-size="14.00" fill="#666666">[uuid]</text>
</g>
<!-- api.recipes_tags&#45;&gt;api.recipes -->
<g id="edge2" class="edge">
<title>api.recipes_tags:recipe_id&#45;&gt;api.recipes:recipe_id</title>
<path fill="none" stroke="black" d="M711.83,-857.23C805.22,-841.46 538.28,-589.2 655.69,-589.2"/>
<polygon fill="black" stroke="black" points="711.94,-857.22 701.63,-853.49 706.62,-857.62 702.31,-857.95 702.31,-857.95 702.31,-857.95 706.62,-857.62 702.31,-862.46 711.94,-857.22"/>
</g>
<!-- api.users_recipe_votes -->
<g id="node4" class="node">
<title>api.users_recipe_votes</title>
<polygon fill="#efefef" stroke="none" points="804.7,-888.8 804.7,-924.4 1106.63,-924.4 1106.63,-888.8 804.7,-888.8"/>
<polygon fill="none" stroke="black" points="804.7,-888.8 804.7,-924.4 1106.63,-924.4 1106.63,-888.8 804.7,-888.8"/>
<text text-anchor="start" x="811.7" y="-902.2" font-family="Arial Bold" font-size="18.00">api.users_recipe_votes</text>
<text text-anchor="start" x="975.14" y="-902.2" font-family="Arial" font-size="14.00">    </text>
<text text-anchor="start" x="1006.26" y="-902.2" font-family="Arial" font-size="14.00" fill="#666666">[BASE TABLE]</text>
<polygon fill="none" stroke="black" points="804.7,-858 804.7,-888.8 1106.63,-888.8 1106.63,-858 804.7,-858"/>
<text text-anchor="start" x="811.7" y="-870.2" font-family="Arial" font-size="14.00">user_id </text>
<text text-anchor="start" x="861.51" y="-870.2" font-family="Arial" font-size="14.00" fill="#666666">[uuid]</text>
<polygon fill="none" stroke="black" points="804.7,-827.2 804.7,-858 1106.63,-858 1106.63,-827.2 804.7,-827.2"/>
<text text-anchor="start" x="811.7" y="-839.4" font-family="Arial" font-size="14.00">recipe_id </text>
<text text-anchor="start" x="872.4" y="-839.4" font-family="Arial" font-size="14.00" fill="#666666">[uuid]</text>
<polygon fill="none" stroke="black" points="804.7,-796.4 804.7,-827.2 1106.63,-827.2 1106.63,-796.4 804.7,-796.4"/>
<text text-anchor="start" x="811.7" y="-808.6" font-family="Arial" font-size="14.00">upvote </text>
<text text-anchor="start" x="857.63" y="-808.6" font-family="Arial" font-size="14.00" fill="#666666">[boolean]</text>
</g>
<!-- api.users_recipe_votes&#45;&gt;api.recipes -->
<g id="edge3" class="edge">
<title>api.users_recipe_votes:recipe_id&#45;&gt;api.recipes:recipe_id</title>
<path fill="none" stroke="black" d="M793.52,-841.04C768.98,-832.03 790.72,-786.05 804.7,-753.2 821.29,-714.24 856.07,-725.37 872.64,-686.4 889.55,-646.64 916.84,-589.2 873.64,-589.2"/>
<polygon fill="black" stroke="black" points="793.49,-841.03 802.69,-847 798.76,-841.84 803.04,-842.5 803.04,-842.5 803.04,-842.5 798.76,-841.84 804.05,-838.1 793.49,-841.03"/>
</g>
<!-- api.favorite_recipes -->
<g id="node5" class="node">
<title>api.favorite_recipes</title>
<polygon fill="#efefef" stroke="none" points="1211.21,-873.4 1211.21,-909 1492.12,-909 1492.12,-873.4 1211.21,-873.4"/>
<polygon fill="none" stroke="black" points="1211.21,-873.4 1211.21,-909 1492.12,-909 1492.12,-873.4 1211.21,-873.4"/>
<text text-anchor="start" x="1218.21" y="-886.8" font-family="Arial Bold" font-size="18.00">api.favorite_recipes</text>
<text text-anchor="start" x="1360.64" y="-886.8" font-family="Arial" font-size="14.00">    </text>
<text text-anchor="start" x="1391.75" y="-886.8" font-family="Arial" font-size="14.00" fill="#666666">[BASE TABLE]</text>
<polygon fill="none" stroke="black" points="1211.21,-842.6 1211.21,-873.4 1492.12,-873.4 1492.12,-842.6 1211.21,-842.6"/>
<text text-anchor="start" x="1218.21" y="-854.8" font-family="Arial" font-size="14.00">user_id </text>
<text text-anchor="start" x="1268.02" y="-854.8" font-family="Arial" font-size="14.00" fill="#666666">[uuid]</text>
<polygon fill="none" stroke="black" points="1211.21,-811.8 1211.21,-842.6 1492.12,-842.6 1492.12,-811.8 1211.21,-811.8"/>
<text text-anchor="start" x="1218.21" y="-824" font-family="Arial" font-size="14.00">recipe_id </text>
<text text-anchor="start" x="1278.91" y="-824" font-family="Arial" font-size="14.00" fill="#666666">[uuid]</text>
</g>
<!-- api.favorite_recipes&#45;&gt;api.recipes -->
<g id="edge4" class="edge">
<title>api.favorite_recipes:recipe_id&#45;&gt;api.recipes:recipe_id</title>
<path fill="none" stroke="black" d="M1200.06,-826.11C1163.45,-817.21 1192.98,-756.04 1158.67,-722.4 1058.81,-624.52 1013.47,-589.2 873.64,-589.2"/>
<polygon fill="black" stroke="black" points="1199.93,-826.1 1209.4,-831.64 1205.24,-826.67 1209.54,-827.13 1209.54,-827.13 1209.54,-827.13 1205.24,-826.67 1210.36,-822.69 1199.93,-826.1"/>
</g>
</g>
</svg>
