<?xml version="1.0" encoding="UTF-8" standalone="no"?>
<!DOCTYPE svg PUBLIC "-//W3C//DTD SVG 1.1//EN"
 "http://www.w3.org/Graphics/SVG/1.1/DTD/svg11.dtd">
<!-- Generated by graphviz version 12.1.2 (20240928.0832)
 -->
<!-- Title: api.recipes_votes Pages: 1 -->
<svg width="674pt" height="694pt"
 viewBox="0.00 0.00 673.77 694.40" xmlns="http://www.w3.org/2000/svg" xmlns:xlink="http://www.w3.org/1999/xlink">
<g id="graph0" class="graph" transform="scale(1 1) rotate(0) translate(4 690.4)">
<title>api.recipes_votes</title>
<polygon fill="white" stroke="none" points="-4,4 -4,-690.4 669.77,-690.4 669.77,4 -4,4"/>
<!-- api.recipes_votes -->
<g id="node1" class="node">
<title>api.recipes_votes</title>
<polygon fill="#efefef" stroke="none" points="195.22,-604.6 195.22,-640.2 458.16,-640.2 458.16,-604.6 195.22,-604.6"/>
<polygon fill="none" stroke="black" points="195.22,-604.6 195.22,-640.2 458.16,-640.2 458.16,-604.6 195.22,-604.6"/>
<text text-anchor="start" x="202.22" y="-618" font-family="Arial Bold" font-size="18.00">api.recipes_votes</text>
<text text-anchor="start" x="326.67" y="-618" font-family="Arial" font-size="14.00">    </text>
<text text-anchor="start" x="357.79" y="-618" font-family="Arial" font-size="14.00" fill="#666666">[BASE TABLE]</text>
<polygon fill="none" stroke="black" points="195.22,-573.8 195.22,-604.6 458.16,-604.6 458.16,-573.8 195.22,-573.8"/>
<text text-anchor="start" x="202.22" y="-586" font-family="Arial" font-size="14.00">user_id </text>
<text text-anchor="start" x="252.02" y="-586" font-family="Arial" font-size="14.00" fill="#666666">[uuid]</text>
<polygon fill="none" stroke="black" points="195.22,-543 195.22,-573.8 458.16,-573.8 458.16,-543 195.22,-543"/>
<text text-anchor="start" x="202.22" y="-555.2" font-family="Arial" font-size="14.00">recipe_id </text>
<text text-anchor="start" x="262.92" y="-555.2" font-family="Arial" font-size="14.00" fill="#666666">[uuid]</text>
<polygon fill="none" stroke="black" points="195.22,-512.2 195.22,-543 458.16,-543 458.16,-512.2 195.22,-512.2"/>
<text text-anchor="start" x="202.22" y="-524.4" font-family="Arial" font-size="14.00">upvote </text>
<text text-anchor="start" x="248.14" y="-524.4" font-family="Arial" font-size="14.00" fill="#666666">[boolean]</text>
<polygon fill="none" stroke="black" stroke-width="3" points="193.72,-510.7 193.72,-641.7 459.66,-641.7 459.66,-510.7 193.72,-510.7"/>
</g>
<!-- public.users -->
<g id="node2" class="node">
<title>public.users</title>
<polygon fill="#efefef" stroke="none" points="43.2,-320.4 43.2,-356 268.17,-356 268.17,-320.4 43.2,-320.4"/>
<polygon fill="none" stroke="black" points="43.2,-320.4 43.2,-356 268.17,-356 268.17,-320.4 43.2,-320.4"/>
<text text-anchor="start" x="50.2" y="-333.8" font-family="Arial Bold" font-size="18.00">public.users</text>
<text text-anchor="start" x="136.68" y="-333.8" font-family="Arial" font-size="14.00">    </text>
<text text-anchor="start" x="167.8" y="-333.8" font-family="Arial" font-size="14.00" fill="#666666">[BASE TABLE]</text>
<polygon fill="none" stroke="black" points="43.2,-289.6 43.2,-320.4 268.17,-320.4 268.17,-289.6 43.2,-289.6"/>
<text text-anchor="start" x="50.2" y="-301.8" font-family="Arial" font-size="14.00">user_id </text>
<text text-anchor="start" x="100.01" y="-301.8" font-family="Arial" font-size="14.00" fill="#666666">[uuid]</text>
<polygon fill="none" stroke="black" points="43.2,-258.8 43.2,-289.6 268.17,-289.6 268.17,-258.8 43.2,-258.8"/>
<text text-anchor="start" x="50.2" y="-271" font-family="Arial" font-size="14.00">email </text>
<text text-anchor="start" x="87.54" y="-271" font-family="Arial" font-size="14.00" fill="#666666">[varchar(320)]</text>
<polygon fill="none" stroke="black" points="43.2,-228 43.2,-258.8 268.17,-258.8 268.17,-228 43.2,-228"/>
<text text-anchor="start" x="50.2" y="-240.2" font-family="Arial" font-size="14.00">first_name </text>
<text text-anchor="start" x="119.45" y="-240.2" font-family="Arial" font-size="14.00" fill="#666666">[varchar(255)]</text>
<polygon fill="none" stroke="black" points="43.2,-197.2 43.2,-228 268.17,-228 268.17,-197.2 43.2,-197.2"/>
<text text-anchor="start" x="50.2" y="-209.4" font-family="Arial" font-size="14.00">last_name </text>
<text text-anchor="start" x="118.68" y="-209.4" font-family="Arial" font-size="14.00" fill="#666666">[varchar(255)]</text>
<polygon fill="none" stroke="black" points="43.2,-166.4 43.2,-197.2 268.17,-197.2 268.17,-166.4 43.2,-166.4"/>
<text text-anchor="start" x="50.2" y="-178.6" font-family="Arial" font-size="14.00">password_hash </text>
<text text-anchor="start" x="152.15" y="-178.6" font-family="Arial" font-size="14.00" fill="#666666">[text]</text>
<polygon fill="none" stroke="black" points="43.2,-135.6 43.2,-166.4 268.17,-166.4 268.17,-135.6 43.2,-135.6"/>
<text text-anchor="start" x="50.2" y="-147.8" font-family="Arial" font-size="14.00">middle_name </text>
<text text-anchor="start" x="138.14" y="-147.8" font-family="Arial" font-size="14.00" fill="#666666">[varchar(255)]</text>
<polygon fill="none" stroke="black" points="43.2,-104.8 43.2,-135.6 268.17,-135.6 268.17,-104.8 43.2,-104.8"/>
<text text-anchor="start" x="50.2" y="-117" font-family="Arial" font-size="14.00">is_admin </text>
<text text-anchor="start" x="110.12" y="-117" font-family="Arial" font-size="14.00" fill="#666666">[boolean]</text>
<polygon fill="none" stroke="black" points="43.2,-74 43.2,-104.8 268.17,-104.8 268.17,-74 43.2,-74"/>
<text text-anchor="start" x="50.2" y="-86.2" font-family="Arial" font-size="14.00">profile_picture_hash </text>
<text text-anchor="start" x="180.17" y="-86.2" font-family="Arial" font-size="14.00" fill="#666666">[text]</text>
</g>
<!-- api.recipes_votes&#45;&gt;public.users -->
<g id="edge1" class="edge">
<title>api.recipes_votes:user_id&#45;&gt;public.users:user_id</title>
<path fill="none" stroke="black" d="M183.94,-588.15C144.11,-579.02 174.51,-512.51 195.22,-466 213.09,-425.83 250.25,-439.34 268.17,-399.2 285.25,-360.97 311.04,-305 269.17,-305"/>
<polygon fill="black" stroke="black" points="183.93,-588.15 193.42,-593.64 189.24,-588.69 193.55,-589.13 193.55,-589.13 193.55,-589.13 189.24,-588.69 194.34,-584.69 183.93,-588.15"/>
</g>
<!-- api.recipes -->
<g id="node3" class="node">
<title>api.recipes</title>
<polygon fill="#efefef" stroke="none" points="372.8,-351.2 372.8,-386.8 622.57,-386.8 622.57,-351.2 372.8,-351.2"/>
<polygon fill="none" stroke="black" points="372.8,-351.2 372.8,-386.8 622.57,-386.8 622.57,-351.2 372.8,-351.2"/>
<text text-anchor="start" x="396.71" y="-364.6" font-family="Arial Bold" font-size="18.00">api.recipes</text>
<text text-anchor="start" x="474.17" y="-364.6" font-family="Arial" font-size="14.00">    </text>
<text text-anchor="start" x="505.29" y="-364.6" font-family="Arial" font-size="14.00" fill="#666666">[BASE TABLE]</text>
<polygon fill="none" stroke="black" points="372.8,-320.4 372.8,-351.2 622.57,-351.2 622.57,-320.4 372.8,-320.4"/>
<text text-anchor="start" x="379.8" y="-332.6" font-family="Arial" font-size="14.00">recipe_id </text>
<text text-anchor="start" x="440.5" y="-332.6" font-family="Arial" font-size="14.00" fill="#666666">[uuid]</text>
<polygon fill="none" stroke="black" points="372.8,-289.6 372.8,-320.4 622.57,-320.4 622.57,-289.6 372.8,-289.6"/>
<text text-anchor="start" x="379.8" y="-301.8" font-family="Arial" font-size="14.00">user_id </text>
<text text-anchor="start" x="429.61" y="-301.8" font-family="Arial" font-size="14.00" fill="#666666">[uuid]</text>
<polygon fill="none" stroke="black" points="372.8,-258.8 372.8,-289.6 622.57,-289.6 622.57,-258.8 372.8,-258.8"/>
<text text-anchor="start" x="379.8" y="-271" font-family="Arial" font-size="14.00">title </text>
<text text-anchor="start" x="405.48" y="-271" font-family="Arial" font-size="14.00" fill="#666666">[varchar(255)]</text>
<polygon fill="none" stroke="black" points="372.8,-228 372.8,-258.8 622.57,-258.8 622.57,-228 372.8,-228"/>
<text text-anchor="start" x="379.8" y="-240.2" font-family="Arial" font-size="14.00">description </text>
<text text-anchor="start" x="451.39" y="-240.2" font-family="Arial" font-size="14.00" fill="#666666">[text]</text>
<polygon fill="none" stroke="black" points="372.8,-197.2 372.8,-228 622.57,-228 622.57,-197.2 372.8,-197.2"/>
<text text-anchor="start" x="379.8" y="-209.4" font-family="Arial" font-size="14.00">difficulty </text>
<text text-anchor="start" x="434.26" y="-209.4" font-family="Arial" font-size="14.00" fill="#666666">[api.difficulty_level]</text>
<polygon fill="none" stroke="black" points="372.8,-166.4 372.8,-197.2 622.57,-197.2 622.57,-166.4 372.8,-166.4"/>
<text text-anchor="start" x="379.8" y="-178.6" font-family="Arial" font-size="14.00">serving </text>
<text text-anchor="start" x="428.82" y="-178.6" font-family="Arial" font-size="14.00" fill="#666666">[integer]</text>
<polygon fill="none" stroke="black" points="372.8,-135.6 372.8,-166.4 622.57,-166.4 622.57,-135.6 372.8,-135.6"/>
<text text-anchor="start" x="379.8" y="-147.8" font-family="Arial" font-size="14.00">prep_mins </text>
<text text-anchor="start" x="449.06" y="-147.8" font-family="Arial" font-size="14.00" fill="#666666">[integer]</text>
<polygon fill="none" stroke="black" points="372.8,-104.8 372.8,-135.6 622.57,-135.6 622.57,-104.8 372.8,-104.8"/>
<text text-anchor="start" x="379.8" y="-117" font-family="Arial" font-size="14.00">cook_mins </text>
<text text-anchor="start" x="450.61" y="-117" font-family="Arial" font-size="14.00" fill="#666666">[integer]</text>
<polygon fill="none" stroke="black" points="372.8,-74 372.8,-104.8 622.57,-104.8 622.57,-74 372.8,-74"/>
<text text-anchor="start" x="379.8" y="-86.2" font-family="Arial" font-size="14.00">created_at </text>
<text text-anchor="start" x="449.85" y="-86.2" font-family="Arial" font-size="14.00" fill="#666666">[timestamp with time zone]</text>
<polygon fill="none" stroke="black" points="372.8,-43.2 372.8,-74 622.57,-74 622.57,-43.2 372.8,-43.2"/>
<text text-anchor="start" x="379.8" y="-55.4" font-family="Arial" font-size="14.00">thumbnail_image_hash </text>
<text text-anchor="start" x="528.46" y="-55.4" font-family="Arial" font-size="14.00" fill="#666666">[text]</text>
</g>
<!-- api.recipes_votes&#45;&gt;api.recipes -->
<g id="edge2" class="edge">
<title>api.recipes_votes:recipe_id&#45;&gt;api.recipes:recipe_id</title>
<path fill="none" stroke="black" d="M469.17,-556.93C496.6,-547.68 478.9,-496.9 458.16,-466 435.21,-431.82 395.75,-464.19 372.8,-430 349.47,-395.24 329.93,-335.8 371.8,-335.8"/>
<polygon fill="black" stroke="black" points="469.38,-556.9 458.84,-553.9 464.1,-557.67 459.82,-558.3 459.82,-558.3 459.82,-558.3 464.1,-557.67 460.14,-562.8 469.38,-556.9"/>
</g>
</g>
</svg>
