<?xml version="1.0" encoding="UTF-8" standalone="no"?>
<!DOCTYPE svg PUBLIC "-//W3C//DTD SVG 1.1//EN"
 "http://www.w3.org/Graphics/SVG/1.1/DTD/svg11.dtd">
<!-- Generated by graphviz version 12.1.2 (20240928.0832)
 -->
<!-- Title: api.recipes_steps Pages: 1 -->
<svg width="361pt" height="725pt"
 viewBox="0.00 0.00 361.35 725.20" xmlns="http://www.w3.org/2000/svg" xmlns:xlink="http://www.w3.org/1999/xlink">
<g id="graph0" class="graph" transform="scale(1 1) rotate(0) translate(4 721.2)">
<title>api.recipes_steps</title>
<polygon fill="white" stroke="none" points="-4,4 -4,-721.2 357.35,-721.2 357.35,4 -4,4"/>
<!-- api.recipes_steps -->
<g id="node1" class="node">
<title>api.recipes_steps</title>
<polygon fill="#efefef" stroke="none" points="46.2,-635.4 46.2,-671 307.15,-671 307.15,-635.4 46.2,-635.4"/>
<polygon fill="none" stroke="black" points="46.2,-635.4 46.2,-671 307.15,-671 307.15,-635.4 46.2,-635.4"/>
<text text-anchor="start" x="53.2" y="-648.8" font-family="Arial Bold" font-size="18.00">api.recipes_steps</text>
<text text-anchor="start" x="175.66" y="-648.8" font-family="Arial" font-size="14.00">    </text>
<text text-anchor="start" x="206.78" y="-648.8" font-family="Arial" font-size="14.00" fill="#666666">[BASE TABLE]</text>
<polygon fill="none" stroke="black" points="46.2,-604.6 46.2,-635.4 307.15,-635.4 307.15,-604.6 46.2,-604.6"/>
<text text-anchor="start" x="53.2" y="-616.8" font-family="Arial" font-size="14.00">recipe_step_id </text>
<text text-anchor="start" x="148.15" y="-616.8" font-family="Arial" font-size="14.00" fill="#666666">[uuid]</text>
<polygon fill="none" stroke="black" points="46.2,-573.8 46.2,-604.6 307.15,-604.6 307.15,-573.8 46.2,-573.8"/>
<text text-anchor="start" x="53.2" y="-586" font-family="Arial" font-size="14.00">recipe_id </text>
<text text-anchor="start" x="113.9" y="-586" font-family="Arial" font-size="14.00" fill="#666666">[uuid]</text>
<polygon fill="none" stroke="black" points="46.2,-543 46.2,-573.8 307.15,-573.8 307.15,-543 46.2,-543"/>
<text text-anchor="start" x="53.2" y="-555.2" font-family="Arial" font-size="14.00">step </text>
<text text-anchor="start" x="83.55" y="-555.2" font-family="Arial" font-size="14.00" fill="#666666">[text]</text>
<polygon fill="none" stroke="black" points="46.2,-512.2 46.2,-543 307.15,-543 307.15,-512.2 46.2,-512.2"/>
<text text-anchor="start" x="53.2" y="-524.4" font-family="Arial" font-size="14.00">description </text>
<text text-anchor="start" x="124.79" y="-524.4" font-family="Arial" font-size="14.00" fill="#666666">[text]</text>
<polygon fill="none" stroke="black" stroke-width="3" points="44.7,-510.7 44.7,-672.5 308.65,-672.5 308.65,-510.7 44.7,-510.7"/>
</g>
<!-- api.recipes -->
<g id="node2" class="node">
<title>api.recipes</title>
<polygon fill="#efefef" stroke="none" points="51.79,-351.2 51.79,-386.8 301.56,-386.8 301.56,-351.2 51.79,-351.2"/>
<polygon fill="none" stroke="black" points="51.79,-351.2 51.79,-386.8 301.56,-386.8 301.56,-351.2 51.79,-351.2"/>
<text text-anchor="start" x="75.7" y="-364.6" font-family="Arial Bold" font-size="18.00">api.recipes</text>
<text text-anchor="start" x="153.16" y="-364.6" font-family="Arial" font-size="14.00">    </text>
<text text-anchor="start" x="184.28" y="-364.6" font-family="Arial" font-size="14.00" fill="#666666">[BASE TABLE]</text>
<polygon fill="none" stroke="black" points="51.79,-320.4 51.79,-351.2 301.56,-351.2 301.56,-320.4 51.79,-320.4"/>
<text text-anchor="start" x="58.79" y="-332.6" font-family="Arial" font-size="14.00">recipe_id </text>
<text text-anchor="start" x="119.49" y="-332.6" font-family="Arial" font-size="14.00" fill="#666666">[uuid]</text>
<polygon fill="none" stroke="black" points="51.79,-289.6 51.79,-320.4 301.56,-320.4 301.56,-289.6 51.79,-289.6"/>
<text text-anchor="start" x="58.79" y="-301.8" font-family="Arial" font-size="14.00">user_id </text>
<text text-anchor="start" x="108.59" y="-301.8" font-family="Arial" font-size="14.00" fill="#666666">[uuid]</text>
<polygon fill="none" stroke="black" points="51.79,-258.8 51.79,-289.6 301.56,-289.6 301.56,-258.8 51.79,-258.8"/>
<text text-anchor="start" x="58.79" y="-271" font-family="Arial" font-size="14.00">title </text>
<text text-anchor="start" x="84.46" y="-271" font-family="Arial" font-size="14.00" fill="#666666">[varchar(255)]</text>
<polygon fill="none" stroke="black" points="51.79,-228 51.79,-258.8 301.56,-258.8 301.56,-228 51.79,-228"/>
<text text-anchor="start" x="58.79" y="-240.2" font-family="Arial" font-size="14.00">description </text>
<text text-anchor="start" x="130.38" y="-240.2" font-family="Arial" font-size="14.00" fill="#666666">[text]</text>
<polygon fill="none" stroke="black" points="51.79,-197.2 51.79,-228 301.56,-228 301.56,-197.2 51.79,-197.2"/>
<text text-anchor="start" x="58.79" y="-209.4" font-family="Arial" font-size="14.00">difficulty </text>
<text text-anchor="start" x="113.25" y="-209.4" font-family="Arial" font-size="14.00" fill="#666666">[api.difficulty_level]</text>
<polygon fill="none" stroke="black" points="51.79,-166.4 51.79,-197.2 301.56,-197.2 301.56,-166.4 51.79,-166.4"/>
<text text-anchor="start" x="58.79" y="-178.6" font-family="Arial" font-size="14.00">serving </text>
<text text-anchor="start" x="107.81" y="-178.6" font-family="Arial" font-size="14.00" fill="#666666">[integer]</text>
<polygon fill="none" stroke="black" points="51.79,-135.6 51.79,-166.4 301.56,-166.4 301.56,-135.6 51.79,-135.6"/>
<text text-anchor="start" x="58.79" y="-147.8" font-family="Arial" font-size="14.00">prep_mins </text>
<text text-anchor="start" x="128.04" y="-147.8" font-family="Arial" font-size="14.00" fill="#666666">[integer]</text>
<polygon fill="none" stroke="black" points="51.79,-104.8 51.79,-135.6 301.56,-135.6 301.56,-104.8 51.79,-104.8"/>
<text text-anchor="start" x="58.79" y="-117" font-family="Arial" font-size="14.00">cook_mins </text>
<text text-anchor="start" x="129.59" y="-117" font-family="Arial" font-size="14.00" fill="#666666">[integer]</text>
<polygon fill="none" stroke="black" points="51.79,-74 51.79,-104.8 301.56,-104.8 301.56,-74 51.79,-74"/>
<text text-anchor="start" x="58.79" y="-86.2" font-family="Arial" font-size="14.00">created_at </text>
<text text-anchor="start" x="128.84" y="-86.2" font-family="Arial" font-size="14.00" fill="#666666">[timestamp with time zone]</text>
<polygon fill="none" stroke="black" points="51.79,-43.2 51.79,-74 301.56,-74 301.56,-43.2 51.79,-43.2"/>
<text text-anchor="start" x="58.79" y="-55.4" font-family="Arial" font-size="14.00">thumbnail_image_hash </text>
<text text-anchor="start" x="207.44" y="-55.4" font-family="Arial" font-size="14.00" fill="#666666">[text]</text>
</g>
<!-- api.recipes_steps&#45;&gt;api.recipes -->
<g id="edge1" class="edge">
<title>api.recipes_steps:recipe_id&#45;&gt;api.recipes:recipe_id</title>
<path fill="none" stroke="black" d="M317.99,-586.35C363.58,-558.51 355.36,-335.8 302.56,-335.8"/>
<polygon fill="black" stroke="black" points="318.07,-586.33 307.22,-584.78 312.95,-587.81 308.79,-589.01 308.79,-589.01 308.79,-589.01 312.95,-587.81 309.72,-593.43 318.07,-586.33"/>
</g>
</g>
</svg>
