<?xml version="1.0" encoding="UTF-8" standalone="no"?>
<!DOCTYPE svg PUBLIC "-//W3C//DTD SVG 1.1//EN"
 "http://www.w3.org/Graphics/SVG/1.1/DTD/svg11.dtd">
<!-- Generated by graphviz version 12.1.2 (20240928.0832)
 -->
<!-- Title: api.recipes Pages: 1 -->
<svg width="2637pt" height="1222pt"
 viewBox="0.00 0.00 2636.83 1222.00" xmlns="http://www.w3.org/2000/svg" xmlns:xlink="http://www.w3.org/1999/xlink">
<g id="graph0" class="graph" transform="scale(1 1) rotate(0) translate(4 1218)">
<title>api.recipes</title>
<polygon fill="white" stroke="none" points="-4,4 -4,-1218 2632.83,-1218 2632.83,4 -4,4"/>
<!-- api.recipes -->
<g id="node1" class="node">
<title>api.recipes</title>
<polygon fill="#efefef" stroke="none" points="1217.77,-758.6 1217.77,-794.2 1467.54,-794.2 1467.54,-758.6 1217.77,-758.6"/>
<polygon fill="none" stroke="black" points="1217.77,-758.6 1217.77,-794.2 1467.54,-794.2 1467.54,-758.6 1217.77,-758.6"/>
<text text-anchor="start" x="1241.68" y="-772" font-family="Arial Bold" font-size="18.00">api.recipes</text>
<text text-anchor="start" x="1319.14" y="-772" font-family="Arial" font-size="14.00">    </text>
<text text-anchor="start" x="1350.26" y="-772" font-family="Arial" font-size="14.00" fill="#666666">[BASE TABLE]</text>
<polygon fill="none" stroke="black" points="1217.77,-727.8 1217.77,-758.6 1467.54,-758.6 1467.54,-727.8 1217.77,-727.8"/>
<text text-anchor="start" x="1224.77" y="-740" font-family="Arial" font-size="14.00">recipe_id </text>
<text text-anchor="start" x="1285.48" y="-740" font-family="Arial" font-size="14.00" fill="#666666">[uuid]</text>
<polygon fill="none" stroke="black" points="1217.77,-697 1217.77,-727.8 1467.54,-727.8 1467.54,-697 1217.77,-697"/>
<text text-anchor="start" x="1224.77" y="-709.2" font-family="Arial" font-size="14.00">user_id </text>
<text text-anchor="start" x="1274.58" y="-709.2" font-family="Arial" font-size="14.00" fill="#666666">[uuid]</text>
<polygon fill="none" stroke="black" points="1217.77,-666.2 1217.77,-697 1467.54,-697 1467.54,-666.2 1217.77,-666.2"/>
<text text-anchor="start" x="1224.77" y="-678.4" font-family="Arial" font-size="14.00">title </text>
<text text-anchor="start" x="1250.45" y="-678.4" font-family="Arial" font-size="14.00" fill="#666666">[varchar(255)]</text>
<polygon fill="none" stroke="black" points="1217.77,-635.4 1217.77,-666.2 1467.54,-666.2 1467.54,-635.4 1217.77,-635.4"/>
<text text-anchor="start" x="1224.77" y="-647.6" font-family="Arial" font-size="14.00">description </text>
<text text-anchor="start" x="1296.37" y="-647.6" font-family="Arial" font-size="14.00" fill="#666666">[text]</text>
<polygon fill="none" stroke="black" points="1217.77,-604.6 1217.77,-635.4 1467.54,-635.4 1467.54,-604.6 1217.77,-604.6"/>
<text text-anchor="start" x="1224.77" y="-616.8" font-family="Arial" font-size="14.00">difficulty </text>
<text text-anchor="start" x="1279.23" y="-616.8" font-family="Arial" font-size="14.00" fill="#666666">[api.difficulty_level]</text>
<polygon fill="none" stroke="black" points="1217.77,-573.8 1217.77,-604.6 1467.54,-604.6 1467.54,-573.8 1217.77,-573.8"/>
<text text-anchor="start" x="1224.77" y="-586" font-family="Arial" font-size="14.00">serving </text>
<text text-anchor="start" x="1273.79" y="-586" font-family="Arial" font-size="14.00" fill="#666666">[integer]</text>
<polygon fill="none" stroke="black" points="1217.77,-543 1217.77,-573.8 1467.54,-573.8 1467.54,-543 1217.77,-543"/>
<text text-anchor="start" x="1224.77" y="-555.2" font-family="Arial" font-size="14.00">prep_mins </text>
<text text-anchor="start" x="1294.03" y="-555.2" font-family="Arial" font-size="14.00" fill="#666666">[integer]</text>
<polygon fill="none" stroke="black" points="1217.77,-512.2 1217.77,-543 1467.54,-543 1467.54,-512.2 1217.77,-512.2"/>
<text text-anchor="start" x="1224.77" y="-524.4" font-family="Arial" font-size="14.00">cook_mins </text>
<text text-anchor="start" x="1295.58" y="-524.4" font-family="Arial" font-size="14.00" fill="#666666">[integer]</text>
<polygon fill="none" stroke="black" points="1217.77,-481.4 1217.77,-512.2 1467.54,-512.2 1467.54,-481.4 1217.77,-481.4"/>
<text text-anchor="start" x="1224.77" y="-493.6" font-family="Arial" font-size="14.00">created_at </text>
<text text-anchor="start" x="1294.82" y="-493.6" font-family="Arial" font-size="14.00" fill="#666666">[timestamp with time zone]</text>
<polygon fill="none" stroke="black" points="1217.77,-450.6 1217.77,-481.4 1467.54,-481.4 1467.54,-450.6 1217.77,-450.6"/>
<text text-anchor="start" x="1224.77" y="-462.8" font-family="Arial" font-size="14.00">thumbnail_image_hash </text>
<text text-anchor="start" x="1373.43" y="-462.8" font-family="Arial" font-size="14.00" fill="#666666">[text]</text>
<polygon fill="none" stroke="black" stroke-width="3" points="1216.27,-449.1 1216.27,-795.7 1469.04,-795.7 1469.04,-449.1 1216.27,-449.1"/>
</g>
<!-- public.users -->
<g id="node9" class="node">
<title>public.users</title>
<polygon fill="#efefef" stroke="none" points="1062.17,-289.6 1062.17,-325.2 1287.14,-325.2 1287.14,-289.6 1062.17,-289.6"/>
<polygon fill="none" stroke="black" points="1062.17,-289.6 1062.17,-325.2 1287.14,-325.2 1287.14,-289.6 1062.17,-289.6"/>
<text text-anchor="start" x="1069.17" y="-303" font-family="Arial Bold" font-size="18.00">public.users</text>
<text text-anchor="start" x="1155.66" y="-303" font-family="Arial" font-size="14.00">    </text>
<text text-anchor="start" x="1186.77" y="-303" font-family="Arial" font-size="14.00" fill="#666666">[BASE TABLE]</text>
<polygon fill="none" stroke="black" points="1062.17,-258.8 1062.17,-289.6 1287.14,-289.6 1287.14,-258.8 1062.17,-258.8"/>
<text text-anchor="start" x="1069.17" y="-271" font-family="Arial" font-size="14.00">user_id </text>
<text text-anchor="start" x="1118.98" y="-271" font-family="Arial" font-size="14.00" fill="#666666">[uuid]</text>
<polygon fill="none" stroke="black" points="1062.17,-228 1062.17,-258.8 1287.14,-258.8 1287.14,-228 1062.17,-228"/>
<text text-anchor="start" x="1069.17" y="-240.2" font-family="Arial" font-size="14.00">email </text>
<text text-anchor="start" x="1106.52" y="-240.2" font-family="Arial" font-size="14.00" fill="#666666">[varchar(320)]</text>
<polygon fill="none" stroke="black" points="1062.17,-197.2 1062.17,-228 1287.14,-228 1287.14,-197.2 1062.17,-197.2"/>
<text text-anchor="start" x="1069.17" y="-209.4" font-family="Arial" font-size="14.00">first_name </text>
<text text-anchor="start" x="1138.42" y="-209.4" font-family="Arial" font-size="14.00" fill="#666666">[varchar(255)]</text>
<polygon fill="none" stroke="black" points="1062.17,-166.4 1062.17,-197.2 1287.14,-197.2 1287.14,-166.4 1062.17,-166.4"/>
<text text-anchor="start" x="1069.17" y="-178.6" font-family="Arial" font-size="14.00">last_name </text>
<text text-anchor="start" x="1137.65" y="-178.6" font-family="Arial" font-size="14.00" fill="#666666">[varchar(255)]</text>
<polygon fill="none" stroke="black" points="1062.17,-135.6 1062.17,-166.4 1287.14,-166.4 1287.14,-135.6 1062.17,-135.6"/>
<text text-anchor="start" x="1069.17" y="-147.8" font-family="Arial" font-size="14.00">password_hash </text>
<text text-anchor="start" x="1171.12" y="-147.8" font-family="Arial" font-size="14.00" fill="#666666">[text]</text>
<polygon fill="none" stroke="black" points="1062.17,-104.8 1062.17,-135.6 1287.14,-135.6 1287.14,-104.8 1062.17,-104.8"/>
<text text-anchor="start" x="1069.17" y="-117" font-family="Arial" font-size="14.00">middle_name </text>
<text text-anchor="start" x="1157.11" y="-117" font-family="Arial" font-size="14.00" fill="#666666">[varchar(255)]</text>
<polygon fill="none" stroke="black" points="1062.17,-74 1062.17,-104.8 1287.14,-104.8 1287.14,-74 1062.17,-74"/>
<text text-anchor="start" x="1069.17" y="-86.2" font-family="Arial" font-size="14.00">is_admin </text>
<text text-anchor="start" x="1129.09" y="-86.2" font-family="Arial" font-size="14.00" fill="#666666">[boolean]</text>
<polygon fill="none" stroke="black" points="1062.17,-43.2 1062.17,-74 1287.14,-74 1287.14,-43.2 1062.17,-43.2"/>
<text text-anchor="start" x="1069.17" y="-55.4" font-family="Arial" font-size="14.00">profile_picture_hash </text>
<text text-anchor="start" x="1199.14" y="-55.4" font-family="Arial" font-size="14.00" fill="#666666">[text]</text>
</g>
<!-- api.recipes&#45;&gt;public.users -->
<g id="edge8" class="edge">
<title>api.recipes:user_id&#45;&gt;public.users:user_id</title>
<path fill="none" stroke="black" d="M1206.36,-712.01C1083.4,-702.37 1148.37,-518.19 1217.77,-404.4 1235.86,-374.74 1268.95,-397.99 1287.14,-368.4 1309.08,-332.74 1330.01,-274.2 1288.14,-274.2"/>
<polygon fill="black" stroke="black" points="1206.45,-712.01 1216.27,-716.88 1211.78,-712.21 1216.1,-712.37 1216.1,-712.37 1216.1,-712.37 1211.78,-712.21 1216.61,-707.89 1206.45,-712.01"/>
</g>
<!-- public.images -->
<g id="node10" class="node">
<title>public.images</title>
<polygon fill="#efefef" stroke="none" points="1391.18,-197.2 1391.18,-232.8 1630.14,-232.8 1630.14,-197.2 1391.18,-197.2"/>
<polygon fill="none" stroke="black" points="1391.18,-197.2 1391.18,-232.8 1630.14,-232.8 1630.14,-197.2 1391.18,-197.2"/>
<text text-anchor="start" x="1398.18" y="-210.6" font-family="Arial Bold" font-size="18.00">public.images</text>
<text text-anchor="start" x="1498.65" y="-210.6" font-family="Arial" font-size="14.00">    </text>
<text text-anchor="start" x="1529.77" y="-210.6" font-family="Arial" font-size="14.00" fill="#666666">[BASE TABLE]</text>
<polygon fill="none" stroke="black" points="1391.18,-166.4 1391.18,-197.2 1630.14,-197.2 1630.14,-166.4 1391.18,-166.4"/>
<text text-anchor="start" x="1398.18" y="-178.6" font-family="Arial" font-size="14.00">hash </text>
<text text-anchor="start" x="1432.42" y="-178.6" font-family="Arial" font-size="14.00" fill="#666666">[text]</text>
<polygon fill="none" stroke="black" points="1391.18,-135.6 1391.18,-166.4 1630.14,-166.4 1630.14,-135.6 1391.18,-135.6"/>
<text text-anchor="start" x="1398.18" y="-147.8" font-family="Arial" font-size="14.00">data </text>
<text text-anchor="start" x="1429.31" y="-147.8" font-family="Arial" font-size="14.00" fill="#666666">[bytea]</text>
</g>
<!-- api.recipes&#45;&gt;public.images -->
<g id="edge9" class="edge">
<title>api.recipes:thumbnail_image_hash&#45;&gt;public.images:hash</title>
<path fill="none" stroke="black" d="M1478.39,-463.35C1489.43,-454.67 1473.79,-426.42 1467.54,-404.4 1449.42,-340.52 1409.12,-339.93 1391.18,-276 1379.86,-235.69 1348.31,-181.8 1390.18,-181.8"/>
<polygon fill="black" stroke="black" points="1478.52,-463.31 1467.7,-461.57 1473.37,-464.7 1469.19,-465.83 1469.19,-465.83 1469.19,-465.83 1473.37,-464.7 1470.04,-470.26 1478.52,-463.31"/>
</g>
<!-- api.favorite_recipes -->
<g id="node2" class="node">
<title>api.favorite_recipes</title>
<polygon fill="#efefef" stroke="none" points="43.2,-1058.2 43.2,-1093.8 324.12,-1093.8 324.12,-1058.2 43.2,-1058.2"/>
<polygon fill="none" stroke="black" points="43.2,-1058.2 43.2,-1093.8 324.12,-1093.8 324.12,-1058.2 43.2,-1058.2"/>
<text text-anchor="start" x="50.2" y="-1071.6" font-family="Arial Bold" font-size="18.00">api.favorite_recipes</text>
<text text-anchor="start" x="192.63" y="-1071.6" font-family="Arial" font-size="14.00">    </text>
<text text-anchor="start" x="223.74" y="-1071.6" font-family="Arial" font-size="14.00" fill="#666666">[BASE TABLE]</text>
<polygon fill="none" stroke="black" points="43.2,-1027.4 43.2,-1058.2 324.12,-1058.2 324.12,-1027.4 43.2,-1027.4"/>
<text text-anchor="start" x="50.2" y="-1039.6" font-family="Arial" font-size="14.00">user_id </text>
<text text-anchor="start" x="100.01" y="-1039.6" font-family="Arial" font-size="14.00" fill="#666666">[uuid]</text>
<polygon fill="none" stroke="black" points="43.2,-996.6 43.2,-1027.4 324.12,-1027.4 324.12,-996.6 43.2,-996.6"/>
<text text-anchor="start" x="50.2" y="-1008.8" font-family="Arial" font-size="14.00">recipe_id </text>
<text text-anchor="start" x="110.9" y="-1008.8" font-family="Arial" font-size="14.00" fill="#666666">[uuid]</text>
</g>
<!-- api.favorite_recipes&#45;&gt;api.recipes -->
<g id="edge1" class="edge">
<title>api.favorite_recipes:recipe_id&#45;&gt;api.recipes:recipe_id</title>
<path fill="none" stroke="black" d="M335.45,-1010.99C382.15,-1000.71 328.89,-914.65 375.66,-876.4 522.15,-756.59 1027.53,-743.2 1216.77,-743.2"/>
<polygon fill="black" stroke="black" points="335.4,-1010.99 325.01,-1007.49 330.09,-1011.51 325.78,-1011.93 325.78,-1011.93 325.78,-1011.93 330.09,-1011.51 325.89,-1016.45 335.4,-1010.99"/>
</g>
<!-- api.recipes_comments -->
<g id="node3" class="node">
<title>api.recipes_comments</title>
<polygon fill="#efefef" stroke="none" points="428.19,-1119.8 428.19,-1155.4 727.12,-1155.4 727.12,-1119.8 428.19,-1119.8"/>
<polygon fill="none" stroke="black" points="428.19,-1119.8 428.19,-1155.4 727.12,-1155.4 727.12,-1119.8 428.19,-1119.8"/>
<text text-anchor="start" x="435.19" y="-1133.2" font-family="Arial Bold" font-size="18.00">api.recipes_comments</text>
<text text-anchor="start" x="595.64" y="-1133.2" font-family="Arial" font-size="14.00">    </text>
<text text-anchor="start" x="626.75" y="-1133.2" font-family="Arial" font-size="14.00" fill="#666666">[BASE TABLE]</text>
<polygon fill="none" stroke="black" points="428.19,-1089 428.19,-1119.8 727.12,-1119.8 727.12,-1089 428.19,-1089"/>
<text text-anchor="start" x="435.19" y="-1101.2" font-family="Arial" font-size="14.00">comment_id </text>
<text text-anchor="start" x="515.34" y="-1101.2" font-family="Arial" font-size="14.00" fill="#666666">[uuid]</text>
<polygon fill="none" stroke="black" points="428.19,-1058.2 428.19,-1089 727.12,-1089 727.12,-1058.2 428.19,-1058.2"/>
<text text-anchor="start" x="435.19" y="-1070.4" font-family="Arial" font-size="14.00">recipe_id </text>
<text text-anchor="start" x="495.89" y="-1070.4" font-family="Arial" font-size="14.00" fill="#666666">[uuid]</text>
<polygon fill="none" stroke="black" points="428.19,-1027.4 428.19,-1058.2 727.12,-1058.2 727.12,-1027.4 428.19,-1027.4"/>
<text text-anchor="start" x="435.19" y="-1039.6" font-family="Arial" font-size="14.00">user_id </text>
<text text-anchor="start" x="485" y="-1039.6" font-family="Arial" font-size="14.00" fill="#666666">[uuid]</text>
<polygon fill="none" stroke="black" points="428.19,-996.6 428.19,-1027.4 727.12,-1027.4 727.12,-996.6 428.19,-996.6"/>
<text text-anchor="start" x="435.19" y="-1008.8" font-family="Arial" font-size="14.00">content </text>
<text text-anchor="start" x="485" y="-1008.8" font-family="Arial" font-size="14.00" fill="#666666">[text]</text>
<polygon fill="none" stroke="black" points="428.19,-965.8 428.19,-996.6 727.12,-996.6 727.12,-965.8 428.19,-965.8"/>
<text text-anchor="start" x="435.19" y="-978" font-family="Arial" font-size="14.00">created_at </text>
<text text-anchor="start" x="505.24" y="-978" font-family="Arial" font-size="14.00" fill="#666666">[timestamp with time zone]</text>
<polygon fill="none" stroke="black" points="428.19,-935 428.19,-965.8 727.12,-965.8 727.12,-935 428.19,-935"/>
<text text-anchor="start" x="435.19" y="-947.2" font-family="Arial" font-size="14.00">parent_comment_id </text>
<text text-anchor="start" x="562.82" y="-947.2" font-family="Arial" font-size="14.00" fill="#666666">[uuid]</text>
</g>
<!-- api.recipes_comments&#45;&gt;api.recipes -->
<g id="edge2" class="edge">
<title>api.recipes_comments:recipe_id&#45;&gt;api.recipes:recipe_id</title>
<path fill="none" stroke="black" d="M738.31,-1072.95C810.47,-1062.9 718.68,-939.1 778.66,-876.4 849,-802.87 1115.01,-743.2 1216.77,-743.2"/>
<polygon fill="black" stroke="black" points="738.44,-1072.94 728.17,-1069.09 733.11,-1073.28 728.79,-1073.56 728.79,-1073.56 728.79,-1073.56 733.11,-1073.28 728.75,-1078.07 738.44,-1072.94"/>
</g>
<!-- api.notifications -->
<g id="node4" class="node">
<title>api.notifications</title>
<polygon fill="#efefef" stroke="none" points="831.18,-1135.2 831.18,-1170.8 1086.14,-1170.8 1086.14,-1135.2 831.18,-1135.2"/>
<polygon fill="none" stroke="black" points="831.18,-1135.2 831.18,-1170.8 1086.14,-1170.8 1086.14,-1135.2 831.18,-1135.2"/>
<text text-anchor="start" x="838.18" y="-1148.6" font-family="Arial Bold" font-size="18.00">api.notifications</text>
<text text-anchor="start" x="954.65" y="-1148.6" font-family="Arial" font-size="14.00">    </text>
<text text-anchor="start" x="985.77" y="-1148.6" font-family="Arial" font-size="14.00" fill="#666666">[BASE TABLE]</text>
<polygon fill="none" stroke="black" points="831.18,-1104.4 831.18,-1135.2 1086.14,-1135.2 1086.14,-1104.4 831.18,-1104.4"/>
<text text-anchor="start" x="838.18" y="-1116.6" font-family="Arial" font-size="14.00">notification_id </text>
<text text-anchor="start" x="927.68" y="-1116.6" font-family="Arial" font-size="14.00" fill="#666666">[uuid]</text>
<polygon fill="none" stroke="black" points="831.18,-1073.6 831.18,-1104.4 1086.14,-1104.4 1086.14,-1073.6 831.18,-1073.6"/>
<text text-anchor="start" x="838.18" y="-1085.8" font-family="Arial" font-size="14.00">user_id </text>
<text text-anchor="start" x="887.98" y="-1085.8" font-family="Arial" font-size="14.00" fill="#666666">[uuid]</text>
<polygon fill="none" stroke="black" points="831.18,-1042.8 831.18,-1073.6 1086.14,-1073.6 1086.14,-1042.8 831.18,-1042.8"/>
<text text-anchor="start" x="838.18" y="-1055" font-family="Arial" font-size="14.00">type </text>
<text text-anchor="start" x="868.53" y="-1055" font-family="Arial" font-size="14.00" fill="#666666">[api.notification_type]</text>
<polygon fill="none" stroke="black" points="831.18,-1012 831.18,-1042.8 1086.14,-1042.8 1086.14,-1012 831.18,-1012"/>
<text text-anchor="start" x="838.18" y="-1024.2" font-family="Arial" font-size="14.00">created_at </text>
<text text-anchor="start" x="908.22" y="-1024.2" font-family="Arial" font-size="14.00" fill="#666666">[timestamp with time zone]</text>
<polygon fill="none" stroke="black" points="831.18,-981.2 831.18,-1012 1086.14,-1012 1086.14,-981.2 831.18,-981.2"/>
<text text-anchor="start" x="838.18" y="-993.4" font-family="Arial" font-size="14.00">recipe_id </text>
<text text-anchor="start" x="898.88" y="-993.4" font-family="Arial" font-size="14.00" fill="#666666">[uuid]</text>
<polygon fill="none" stroke="black" points="831.18,-950.4 831.18,-981.2 1086.14,-981.2 1086.14,-950.4 831.18,-950.4"/>
<text text-anchor="start" x="838.18" y="-962.6" font-family="Arial" font-size="14.00">comment_id </text>
<text text-anchor="start" x="918.32" y="-962.6" font-family="Arial" font-size="14.00" fill="#666666">[uuid]</text>
<polygon fill="none" stroke="black" points="831.18,-919.6 831.18,-950.4 1086.14,-950.4 1086.14,-919.6 831.18,-919.6"/>
<text text-anchor="start" x="838.18" y="-931.8" font-family="Arial" font-size="14.00">actor_user_id </text>
<text text-anchor="start" x="926.89" y="-931.8" font-family="Arial" font-size="14.00" fill="#666666">[uuid]</text>
</g>
<!-- api.notifications&#45;&gt;api.recipes -->
<g id="edge3" class="edge">
<title>api.notifications:recipe_id&#45;&gt;api.recipes:recipe_id</title>
<path fill="none" stroke="black" d="M1097.52,-995.72C1140.9,-987.58 1113.31,-924.71 1137.66,-876.4 1168.65,-814.92 1147.92,-743.2 1216.77,-743.2"/>
<polygon fill="black" stroke="black" points="1097.44,-995.73 1087.09,-992.09 1092.12,-996.18 1087.81,-996.54 1087.81,-996.54 1087.81,-996.54 1092.12,-996.18 1087.85,-1001.06 1097.44,-995.73"/>
</g>
<!-- api.recipes_ingredients -->
<g id="node5" class="node">
<title>api.recipes_ingredients</title>
<polygon fill="#efefef" stroke="none" points="1190.19,-1104.4 1190.19,-1140 1495.12,-1140 1495.12,-1104.4 1190.19,-1104.4"/>
<polygon fill="none" stroke="black" points="1190.19,-1104.4 1190.19,-1140 1495.12,-1140 1495.12,-1104.4 1190.19,-1104.4"/>
<text text-anchor="start" x="1197.19" y="-1117.8" font-family="Arial Bold" font-size="18.00">api.recipes_ingredients</text>
<text text-anchor="start" x="1363.63" y="-1117.8" font-family="Arial" font-size="14.00">    </text>
<text text-anchor="start" x="1394.75" y="-1117.8" font-family="Arial" font-size="14.00" fill="#666666">[BASE TABLE]</text>
<polygon fill="none" stroke="black" points="1190.19,-1073.6 1190.19,-1104.4 1495.12,-1104.4 1495.12,-1073.6 1190.19,-1073.6"/>
<text text-anchor="start" x="1197.19" y="-1085.8" font-family="Arial" font-size="14.00">recipe_ingredient_id </text>
<text text-anchor="start" x="1327.17" y="-1085.8" font-family="Arial" font-size="14.00" fill="#666666">[uuid]</text>
<polygon fill="none" stroke="black" points="1190.19,-1042.8 1190.19,-1073.6 1495.12,-1073.6 1495.12,-1042.8 1190.19,-1042.8"/>
<text text-anchor="start" x="1197.19" y="-1055" font-family="Arial" font-size="14.00">recipe_id </text>
<text text-anchor="start" x="1257.9" y="-1055" font-family="Arial" font-size="14.00" fill="#666666">[uuid]</text>
<polygon fill="none" stroke="black" points="1190.19,-1012 1190.19,-1042.8 1495.12,-1042.8 1495.12,-1012 1190.19,-1012"/>
<text text-anchor="start" x="1197.19" y="-1024.2" font-family="Arial" font-size="14.00">name </text>
<text text-anchor="start" x="1236.1" y="-1024.2" font-family="Arial" font-size="14.00" fill="#666666">[text]</text>
<polygon fill="none" stroke="black" points="1190.19,-981.2 1190.19,-1012 1495.12,-1012 1495.12,-981.2 1190.19,-981.2"/>
<text text-anchor="start" x="1197.19" y="-993.4" font-family="Arial" font-size="14.00">unit </text>
<text text-anchor="start" x="1223.66" y="-993.4" font-family="Arial" font-size="14.00" fill="#666666">[text]</text>
<polygon fill="none" stroke="black" points="1190.19,-950.4 1190.19,-981.2 1495.12,-981.2 1495.12,-950.4 1190.19,-950.4"/>
<text text-anchor="start" x="1197.19" y="-962.6" font-family="Arial" font-size="14.00">amount </text>
<text text-anchor="start" x="1247.78" y="-962.6" font-family="Arial" font-size="14.00" fill="#666666">[numeric]</text>
</g>
<!-- api.recipes_ingredients&#45;&gt;api.recipes -->
<g id="edge4" class="edge">
<title>api.recipes_ingredients:recipe_id&#45;&gt;api.recipes:recipe_id</title>
<path fill="none" stroke="black" d="M1506.08,-1055.85C1563.48,-1027.02 1535.24,-743.2 1468.54,-743.2"/>
<polygon fill="black" stroke="black" points="1506.18,-1055.82 1495.41,-1053.74 1500.99,-1057.05 1496.77,-1058.05 1496.77,-1058.05 1496.77,-1058.05 1500.99,-1057.05 1497.48,-1062.5 1506.18,-1055.82"/>
</g>
<!-- api.recipes_steps -->
<g id="node6" class="node">
<title>api.recipes_steps</title>
<polygon fill="#efefef" stroke="none" points="1599.18,-1089 1599.18,-1124.6 1860.13,-1124.6 1860.13,-1089 1599.18,-1089"/>
<polygon fill="none" stroke="black" points="1599.18,-1089 1599.18,-1124.6 1860.13,-1124.6 1860.13,-1089 1599.18,-1089"/>
<text text-anchor="start" x="1606.18" y="-1102.4" font-family="Arial Bold" font-size="18.00">api.recipes_steps</text>
<text text-anchor="start" x="1728.64" y="-1102.4" font-family="Arial" font-size="14.00">    </text>
<text text-anchor="start" x="1759.76" y="-1102.4" font-family="Arial" font-size="14.00" fill="#666666">[BASE TABLE]</text>
<polygon fill="none" stroke="black" points="1599.18,-1058.2 1599.18,-1089 1860.13,-1089 1860.13,-1058.2 1599.18,-1058.2"/>
<text text-anchor="start" x="1606.18" y="-1070.4" font-family="Arial" font-size="14.00">recipe_step_id </text>
<text text-anchor="start" x="1701.14" y="-1070.4" font-family="Arial" font-size="14.00" fill="#666666">[uuid]</text>
<polygon fill="none" stroke="black" points="1599.18,-1027.4 1599.18,-1058.2 1860.13,-1058.2 1860.13,-1027.4 1599.18,-1027.4"/>
<text text-anchor="start" x="1606.18" y="-1039.6" font-family="Arial" font-size="14.00">recipe_id </text>
<text text-anchor="start" x="1666.89" y="-1039.6" font-family="Arial" font-size="14.00" fill="#666666">[uuid]</text>
<polygon fill="none" stroke="black" points="1599.18,-996.6 1599.18,-1027.4 1860.13,-1027.4 1860.13,-996.6 1599.18,-996.6"/>
<text text-anchor="start" x="1606.18" y="-1008.8" font-family="Arial" font-size="14.00">step </text>
<text text-anchor="start" x="1636.54" y="-1008.8" font-family="Arial" font-size="14.00" fill="#666666">[text]</text>
<polygon fill="none" stroke="black" points="1599.18,-965.8 1599.18,-996.6 1860.13,-996.6 1860.13,-965.8 1599.18,-965.8"/>
<text text-anchor="start" x="1606.18" y="-978" font-family="Arial" font-size="14.00">description </text>
<text text-anchor="start" x="1677.78" y="-978" font-family="Arial" font-size="14.00" fill="#666666">[text]</text>
</g>
<!-- api.recipes_steps&#45;&gt;api.recipes -->
<g id="edge5" class="edge">
<title>api.recipes_steps:recipe_id&#45;&gt;api.recipes:recipe_id</title>
<path fill="none" stroke="black" d="M1587.8,-1042.13C1526.34,-1033.52 1577.32,-943.66 1547.66,-876.4 1519.87,-813.4 1537.4,-743.2 1468.54,-743.2"/>
<polygon fill="black" stroke="black" points="1587.87,-1042.13 1597.56,-1047.27 1593.19,-1042.48 1597.52,-1042.76 1597.52,-1042.76 1597.52,-1042.76 1593.19,-1042.48 1598.14,-1038.29 1587.87,-1042.13"/>
</g>
<!-- api.recipes_votes -->
<g id="node7" class="node">
<title>api.recipes_votes</title>
<polygon fill="#efefef" stroke="none" points="1964.19,-1073.6 1964.19,-1109.2 2227.13,-1109.2 2227.13,-1073.6 1964.19,-1073.6"/>
<polygon fill="none" stroke="black" points="1964.19,-1073.6 1964.19,-1109.2 2227.13,-1109.2 2227.13,-1073.6 1964.19,-1073.6"/>
<text text-anchor="start" x="1971.19" y="-1087" font-family="Arial Bold" font-size="18.00">api.recipes_votes</text>
<text text-anchor="start" x="2095.64" y="-1087" font-family="Arial" font-size="14.00">    </text>
<text text-anchor="start" x="2126.76" y="-1087" font-family="Arial" font-size="14.00" fill="#666666">[BASE TABLE]</text>
<polygon fill="none" stroke="black" points="1964.19,-1042.8 1964.19,-1073.6 2227.13,-1073.6 2227.13,-1042.8 1964.19,-1042.8"/>
<text text-anchor="start" x="1971.19" y="-1055" font-family="Arial" font-size="14.00">user_id </text>
<text text-anchor="start" x="2020.99" y="-1055" font-family="Arial" font-size="14.00" fill="#666666">[uuid]</text>
<polygon fill="none" stroke="black" points="1964.19,-1012 1964.19,-1042.8 2227.13,-1042.8 2227.13,-1012 1964.19,-1012"/>
<text text-anchor="start" x="1971.19" y="-1024.2" font-family="Arial" font-size="14.00">recipe_id </text>
<text text-anchor="start" x="2031.89" y="-1024.2" font-family="Arial" font-size="14.00" fill="#666666">[uuid]</text>
<polygon fill="none" stroke="black" points="1964.19,-981.2 1964.19,-1012 2227.13,-1012 2227.13,-981.2 1964.19,-981.2"/>
<text text-anchor="start" x="1971.19" y="-993.4" font-family="Arial" font-size="14.00">upvote </text>
<text text-anchor="start" x="2017.11" y="-993.4" font-family="Arial" font-size="14.00" fill="#666666">[boolean]</text>
</g>
<!-- api.recipes_votes&#45;&gt;api.recipes -->
<g id="edge6" class="edge">
<title>api.recipes_votes:recipe_id&#45;&gt;api.recipes:recipe_id</title>
<path fill="none" stroke="black" d="M1952.81,-1026.51C1899.83,-1016.43 1960.7,-922.95 1912.66,-876.4 1838.66,-804.7 1571.58,-743.2 1468.54,-743.2"/>
<polygon fill="black" stroke="black" points="1952.89,-1026.52 1962.47,-1031.86 1958.2,-1026.97 1962.52,-1027.34 1962.52,-1027.34 1962.52,-1027.34 1958.2,-1026.97 1963.24,-1022.89 1952.89,-1026.52"/>
</g>
<!-- api.recipes_tags -->
<g id="node8" class="node">
<title>api.recipes_tags</title>
<polygon fill="#efefef" stroke="none" points="2331.69,-1058.2 2331.69,-1093.8 2585.63,-1093.8 2585.63,-1058.2 2331.69,-1058.2"/>
<polygon fill="none" stroke="black" points="2331.69,-1058.2 2331.69,-1093.8 2585.63,-1093.8 2585.63,-1058.2 2331.69,-1058.2"/>
<text text-anchor="start" x="2338.69" y="-1071.6" font-family="Arial Bold" font-size="18.00">api.recipes_tags</text>
<text text-anchor="start" x="2454.14" y="-1071.6" font-family="Arial" font-size="14.00">    </text>
<text text-anchor="start" x="2485.26" y="-1071.6" font-family="Arial" font-size="14.00" fill="#666666">[BASE TABLE]</text>
<polygon fill="none" stroke="black" points="2331.69,-1027.4 2331.69,-1058.2 2585.63,-1058.2 2585.63,-1027.4 2331.69,-1027.4"/>
<text text-anchor="start" x="2338.69" y="-1039.6" font-family="Arial" font-size="14.00">recipe_id </text>
<text text-anchor="start" x="2399.39" y="-1039.6" font-family="Arial" font-size="14.00" fill="#666666">[uuid]</text>
<polygon fill="none" stroke="black" points="2331.69,-996.6 2331.69,-1027.4 2585.63,-1027.4 2585.63,-996.6 2331.69,-996.6"/>
<text text-anchor="start" x="2338.69" y="-1008.8" font-family="Arial" font-size="14.00">tag_id </text>
<text text-anchor="start" x="2380.72" y="-1008.8" font-family="Arial" font-size="14.00" fill="#666666">[uuid]</text>
</g>
<!-- api.recipes_tags&#45;&gt;api.recipes -->
<g id="edge7" class="edge">
<title>api.recipes_tags:recipe_id&#45;&gt;api.recipes:recipe_id</title>
<path fill="none" stroke="black" d="M2320.48,-1041.99C2261.25,-1031.67 2335.07,-924.81 2279.66,-876.4 2142.09,-756.23 1651.21,-743.2 1468.54,-743.2"/>
<polygon fill="black" stroke="black" points="2320.38,-1041.99 2330,-1047.26 2325.7,-1042.41 2330.02,-1042.75 2330.02,-1042.75 2330.02,-1042.75 2325.7,-1042.41 2330.71,-1038.29 2320.38,-1041.99"/>
</g>
</g>
</svg>
