<?xml version="1.0" encoding="UTF-8" standalone="no"?>
<!DOCTYPE svg PUBLIC "-//W3C//DTD SVG 1.1//EN"
 "http://www.w3.org/Graphics/SVG/1.1/DTD/svg11.dtd">
<!-- Generated by graphviz version 12.1.2 (20240928.0832)
 -->
<!-- Title: api.users_recipe_votes Pages: 1 -->
<svg width="640pt" height="602pt"
 viewBox="0.00 0.00 639.86 602.00" xmlns="http://www.w3.org/2000/svg" xmlns:xlink="http://www.w3.org/1999/xlink">
<g id="graph0" class="graph" transform="scale(1 1) rotate(0) translate(4 598)">
<title>api.users_recipe_votes</title>
<polygon fill="white" stroke="none" points="-4,4 -4,-598 635.86,-598 635.86,4 -4,4"/>
<!-- api.users_recipe_votes -->
<g id="node1" class="node">
<title>api.users_recipe_votes</title>
<polygon fill="#efefef" stroke="none" points="166.72,-512.2 166.72,-547.8 468.65,-547.8 468.65,-512.2 166.72,-512.2"/>
<polygon fill="none" stroke="black" points="166.72,-512.2 166.72,-547.8 468.65,-547.8 468.65,-512.2 166.72,-512.2"/>
<text text-anchor="start" x="173.72" y="-525.6" font-family="Arial Bold" font-size="18.00">api.users_recipe_votes</text>
<text text-anchor="start" x="337.16" y="-525.6" font-family="Arial" font-size="14.00">    </text>
<text text-anchor="start" x="368.28" y="-525.6" font-family="Arial" font-size="14.00" fill="#666666">[BASE TABLE]</text>
<polygon fill="none" stroke="black" points="166.72,-481.4 166.72,-512.2 468.65,-512.2 468.65,-481.4 166.72,-481.4"/>
<text text-anchor="start" x="173.72" y="-493.6" font-family="Arial" font-size="14.00">user_id </text>
<text text-anchor="start" x="223.53" y="-493.6" font-family="Arial" font-size="14.00" fill="#666666">[uuid]</text>
<polygon fill="none" stroke="black" points="166.72,-450.6 166.72,-481.4 468.65,-481.4 468.65,-450.6 166.72,-450.6"/>
<text text-anchor="start" x="173.72" y="-462.8" font-family="Arial" font-size="14.00">recipe_id </text>
<text text-anchor="start" x="234.42" y="-462.8" font-family="Arial" font-size="14.00" fill="#666666">[uuid]</text>
<polygon fill="none" stroke="black" points="166.72,-419.8 166.72,-450.6 468.65,-450.6 468.65,-419.8 166.72,-419.8"/>
<text text-anchor="start" x="173.72" y="-432" font-family="Arial" font-size="14.00">upvote </text>
<text text-anchor="start" x="219.65" y="-432" font-family="Arial" font-size="14.00" fill="#666666">[boolean]</text>
<polygon fill="none" stroke="black" stroke-width="3" points="165.22,-418.3 165.22,-549.3 470.15,-549.3 470.15,-418.3 165.22,-418.3"/>
</g>
<!-- public.users -->
<g id="node2" class="node">
<title>public.users</title>
<polygon fill="#efefef" stroke="none" points="43.2,-258.8 43.2,-294.4 268.17,-294.4 268.17,-258.8 43.2,-258.8"/>
<polygon fill="none" stroke="black" points="43.2,-258.8 43.2,-294.4 268.17,-294.4 268.17,-258.8 43.2,-258.8"/>
<text text-anchor="start" x="50.2" y="-272.2" font-family="Arial Bold" font-size="18.00">public.users</text>
<text text-anchor="start" x="136.68" y="-272.2" font-family="Arial" font-size="14.00">    </text>
<text text-anchor="start" x="167.8" y="-272.2" font-family="Arial" font-size="14.00" fill="#666666">[BASE TABLE]</text>
<polygon fill="none" stroke="black" points="43.2,-228 43.2,-258.8 268.17,-258.8 268.17,-228 43.2,-228"/>
<text text-anchor="start" x="50.2" y="-240.2" font-family="Arial" font-size="14.00">user_id </text>
<text text-anchor="start" x="100.01" y="-240.2" font-family="Arial" font-size="14.00" fill="#666666">[uuid]</text>
<polygon fill="none" stroke="black" points="43.2,-197.2 43.2,-228 268.17,-228 268.17,-197.2 43.2,-197.2"/>
<text text-anchor="start" x="50.2" y="-209.4" font-family="Arial" font-size="14.00">email </text>
<text text-anchor="start" x="87.54" y="-209.4" font-family="Arial" font-size="14.00" fill="#666666">[varchar(320)]</text>
<polygon fill="none" stroke="black" points="43.2,-166.4 43.2,-197.2 268.17,-197.2 268.17,-166.4 43.2,-166.4"/>
<text text-anchor="start" x="50.2" y="-178.6" font-family="Arial" font-size="14.00">first_name </text>
<text text-anchor="start" x="119.45" y="-178.6" font-family="Arial" font-size="14.00" fill="#666666">[varchar(255)]</text>
<polygon fill="none" stroke="black" points="43.2,-135.6 43.2,-166.4 268.17,-166.4 268.17,-135.6 43.2,-135.6"/>
<text text-anchor="start" x="50.2" y="-147.8" font-family="Arial" font-size="14.00">last_name </text>
<text text-anchor="start" x="118.68" y="-147.8" font-family="Arial" font-size="14.00" fill="#666666">[varchar(255)]</text>
<polygon fill="none" stroke="black" points="43.2,-104.8 43.2,-135.6 268.17,-135.6 268.17,-104.8 43.2,-104.8"/>
<text text-anchor="start" x="50.2" y="-117" font-family="Arial" font-size="14.00">password_hash </text>
<text text-anchor="start" x="152.15" y="-117" font-family="Arial" font-size="14.00" fill="#666666">[text]</text>
<polygon fill="none" stroke="black" points="43.2,-74 43.2,-104.8 268.17,-104.8 268.17,-74 43.2,-74"/>
<text text-anchor="start" x="50.2" y="-86.2" font-family="Arial" font-size="14.00">middle_name </text>
<text text-anchor="start" x="138.14" y="-86.2" font-family="Arial" font-size="14.00" fill="#666666">[varchar(255)]</text>
<polygon fill="none" stroke="black" points="43.2,-43.2 43.2,-74 268.17,-74 268.17,-43.2 43.2,-43.2"/>
<text text-anchor="start" x="50.2" y="-55.4" font-family="Arial" font-size="14.00">is_admin </text>
<text text-anchor="start" x="110.12" y="-55.4" font-family="Arial" font-size="14.00" fill="#666666">[boolean]</text>
</g>
<!-- api.users_recipe_votes&#45;&gt;public.users -->
<g id="edge1" class="edge">
<title>api.users_recipe_votes:user_id&#45;&gt;public.users:user_id</title>
<path fill="none" stroke="black" d="M155.57,-495.73C114.28,-486.21 137.12,-415.15 166.72,-373.6 194.48,-334.63 240.37,-376.53 268.17,-337.6 292.51,-303.53 311.04,-243.4 269.17,-243.4"/>
<polygon fill="black" stroke="black" points="155.44,-495.72 164.92,-501.24 160.75,-496.28 165.06,-496.73 165.06,-496.73 165.06,-496.73 160.75,-496.28 165.86,-492.29 155.44,-495.72"/>
</g>
<!-- api.recipes -->
<g id="node3" class="node">
<title>api.recipes</title>
<polygon fill="#efefef" stroke="none" points="372.71,-243.4 372.71,-279 588.66,-279 588.66,-243.4 372.71,-243.4"/>
<polygon fill="none" stroke="black" points="372.71,-243.4 372.71,-279 588.66,-279 588.66,-243.4 372.71,-243.4"/>
<text text-anchor="start" x="379.71" y="-256.8" font-family="Arial Bold" font-size="18.00">api.recipes</text>
<text text-anchor="start" x="457.17" y="-256.8" font-family="Arial" font-size="14.00">    </text>
<text text-anchor="start" x="488.29" y="-256.8" font-family="Arial" font-size="14.00" fill="#666666">[BASE TABLE]</text>
<polygon fill="none" stroke="black" points="372.71,-212.6 372.71,-243.4 588.66,-243.4 588.66,-212.6 372.71,-212.6"/>
<text text-anchor="start" x="379.71" y="-224.8" font-family="Arial" font-size="14.00">recipe_id </text>
<text text-anchor="start" x="440.42" y="-224.8" font-family="Arial" font-size="14.00" fill="#666666">[uuid]</text>
<polygon fill="none" stroke="black" points="372.71,-181.8 372.71,-212.6 588.66,-212.6 588.66,-181.8 372.71,-181.8"/>
<text text-anchor="start" x="379.71" y="-194" font-family="Arial" font-size="14.00">user_id </text>
<text text-anchor="start" x="429.52" y="-194" font-family="Arial" font-size="14.00" fill="#666666">[uuid]</text>
<polygon fill="none" stroke="black" points="372.71,-151 372.71,-181.8 588.66,-181.8 588.66,-151 372.71,-151"/>
<text text-anchor="start" x="379.71" y="-163.2" font-family="Arial" font-size="14.00">title </text>
<text text-anchor="start" x="405.39" y="-163.2" font-family="Arial" font-size="14.00" fill="#666666">[varchar(255)]</text>
<polygon fill="none" stroke="black" points="372.71,-120.2 372.71,-151 588.66,-151 588.66,-120.2 372.71,-120.2"/>
<text text-anchor="start" x="379.71" y="-132.4" font-family="Arial" font-size="14.00">content </text>
<text text-anchor="start" x="429.53" y="-132.4" font-family="Arial" font-size="14.00" fill="#666666">[text]</text>
<polygon fill="none" stroke="black" points="372.71,-89.4 372.71,-120.2 588.66,-120.2 588.66,-89.4 372.71,-89.4"/>
<text text-anchor="start" x="379.71" y="-101.6" font-family="Arial" font-size="14.00">difficulty </text>
<text text-anchor="start" x="434.18" y="-101.6" font-family="Arial" font-size="14.00" fill="#666666">[api.difficulty_level]</text>
<polygon fill="none" stroke="black" points="372.71,-58.6 372.71,-89.4 588.66,-89.4 588.66,-58.6 372.71,-58.6"/>
<text text-anchor="start" x="379.71" y="-70.8" font-family="Arial" font-size="14.00">thumbnail_image_hash </text>
<text text-anchor="start" x="528.37" y="-70.8" font-family="Arial" font-size="14.00" fill="#666666">[text]</text>
</g>
<!-- api.users_recipe_votes&#45;&gt;api.recipes -->
<g id="edge2" class="edge">
<title>api.users_recipe_votes:recipe_id&#45;&gt;api.recipes:recipe_id</title>
<path fill="none" stroke="black" d="M479.97,-464.44C506.66,-455.02 487.86,-405.29 468.65,-373.6 443.58,-332.23 397.78,-363.57 372.71,-322.2 351.02,-286.39 329.84,-228 371.71,-228"/>
<polygon fill="black" stroke="black" points="479.87,-464.45 469.31,-461.5 474.6,-465.25 470.31,-465.9 470.31,-465.9 470.31,-465.9 474.6,-465.25 470.66,-470.4 479.87,-464.45"/>
</g>
</g>
</svg>
