<?xml version="1.0" encoding="UTF-8" standalone="no"?>
<!DOCTYPE svg PUBLIC "-//W3C//DTD SVG 1.1//EN"
 "http://www.w3.org/Graphics/SVG/1.1/DTD/svg11.dtd">
<!-- Generated by graphviz version 12.1.2 (20240928.0832)
 -->
<!-- Title: api.tags Pages: 1 -->
<svg width="348pt" height="417pt"
 viewBox="0.00 0.00 348.34 417.20" xmlns="http://www.w3.org/2000/svg" xmlns:xlink="http://www.w3.org/1999/xlink">
<g id="graph0" class="graph" transform="scale(1 1) rotate(0) translate(4 413.2)">
<title>api.tags</title>
<polygon fill="white" stroke="none" points="-4,4 -4,-413.2 344.34,-413.2 344.34,4 -4,4"/>
<!-- api.tags -->
<g id="node1" class="node">
<title>api.tags</title>
<polygon fill="#efefef" stroke="none" points="73.18,-107.8 73.18,-143.4 267.16,-143.4 267.16,-107.8 73.18,-107.8"/>
<polygon fill="none" stroke="black" points="73.18,-107.8 73.18,-143.4 267.16,-143.4 267.16,-107.8 73.18,-107.8"/>
<text text-anchor="start" x="80.18" y="-121.2" font-family="Arial Bold" font-size="18.00">api.tags</text>
<text text-anchor="start" x="135.67" y="-121.2" font-family="Arial" font-size="14.00">    </text>
<text text-anchor="start" x="166.79" y="-121.2" font-family="Arial" font-size="14.00" fill="#666666">[BASE TABLE]</text>
<polygon fill="none" stroke="black" points="73.18,-77 73.18,-107.8 267.16,-107.8 267.16,-77 73.18,-77"/>
<text text-anchor="start" x="80.18" y="-89.2" font-family="Arial" font-size="14.00">tag_id </text>
<text text-anchor="start" x="122.22" y="-89.2" font-family="Arial" font-size="14.00" fill="#666666">[uuid]</text>
<polygon fill="none" stroke="black" points="73.18,-46.2 73.18,-77 267.16,-77 267.16,-46.2 73.18,-46.2"/>
<text text-anchor="start" x="80.18" y="-58.4" font-family="Arial" font-size="14.00">name </text>
<text text-anchor="start" x="119.09" y="-58.4" font-family="Arial" font-size="14.00" fill="#666666">[varchar(255)]</text>
<polygon fill="none" stroke="black" stroke-width="3" points="71.68,-44.7 71.68,-144.9 268.66,-144.9 268.66,-44.7 71.68,-44.7"/>
</g>
<!-- api.recipes_tags -->
<g id="node2" class="node">
<title>api.recipes_tags</title>
<polygon fill="#efefef" stroke="none" points="43.2,-330.4 43.2,-366 297.14,-366 297.14,-330.4 43.2,-330.4"/>
<polygon fill="none" stroke="black" points="43.2,-330.4 43.2,-366 297.14,-366 297.14,-330.4 43.2,-330.4"/>
<text text-anchor="start" x="50.2" y="-343.8" font-family="Arial Bold" font-size="18.00">api.recipes_tags</text>
<text text-anchor="start" x="165.65" y="-343.8" font-family="Arial" font-size="14.00">    </text>
<text text-anchor="start" x="196.77" y="-343.8" font-family="Arial" font-size="14.00" fill="#666666">[BASE TABLE]</text>
<polygon fill="none" stroke="black" points="43.2,-299.6 43.2,-330.4 297.14,-330.4 297.14,-299.6 43.2,-299.6"/>
<text text-anchor="start" x="50.2" y="-311.8" font-family="Arial" font-size="14.00">recipe_id </text>
<text text-anchor="start" x="110.9" y="-311.8" font-family="Arial" font-size="14.00" fill="#666666">[uuid]</text>
<polygon fill="none" stroke="black" points="43.2,-268.8 43.2,-299.6 297.14,-299.6 297.14,-268.8 43.2,-268.8"/>
<text text-anchor="start" x="50.2" y="-281" font-family="Arial" font-size="14.00">tag_id </text>
<text text-anchor="start" x="92.23" y="-281" font-family="Arial" font-size="14.00" fill="#666666">[uuid]</text>
</g>
<!-- api.recipes_tags&#45;&gt;api.tags -->
<g id="edge1" class="edge">
<title>api.recipes_tags:tag_id&#45;&gt;api.tags:tag_id</title>
<path fill="none" stroke="black" d="M171.15,-257.55C179.9,-215.76 244.66,-236.02 267.16,-189.6 286,-150.72 311.36,-92.4 268.16,-92.4"/>
<polygon fill="black" stroke="black" points="171.16,-257.51 165.72,-267.04 170.65,-262.82 170.24,-267.13 170.24,-267.13 170.24,-267.13 170.65,-262.82 174.68,-267.9 171.16,-257.51"/>
</g>
</g>
</svg>
