<?xml version="1.0" encoding="UTF-8" standalone="no"?>
<!DOCTYPE svg PUBLIC "-//W3C//DTD SVG 1.1//EN"
 "http://www.w3.org/Graphics/SVG/1.1/DTD/svg11.dtd">
<!-- Generated by graphviz version 12.1.2 (20240928.0832)
 -->
<!-- Title: api.recipes_ingredients Pages: 1 -->
<svg width="405pt" height="756pt"
 viewBox="0.00 0.00 405.33 756.00" xmlns="http://www.w3.org/2000/svg" xmlns:xlink="http://www.w3.org/1999/xlink">
<g id="graph0" class="graph" transform="scale(1 1) rotate(0) translate(4 752)">
<title>api.recipes_ingredients</title>
<polygon fill="white" stroke="none" points="-4,4 -4,-752 401.33,-752 401.33,4 -4,4"/>
<!-- api.recipes_ingredients -->
<g id="node1" class="node">
<title>api.recipes_ingredients</title>
<polygon fill="#efefef" stroke="none" points="46.2,-666.2 46.2,-701.8 351.13,-701.8 351.13,-666.2 46.2,-666.2"/>
<polygon fill="none" stroke="black" points="46.2,-666.2 46.2,-701.8 351.13,-701.8 351.13,-666.2 46.2,-666.2"/>
<text text-anchor="start" x="53.2" y="-679.6" font-family="Arial Bold" font-size="18.00">api.recipes_ingredients</text>
<text text-anchor="start" x="219.64" y="-679.6" font-family="Arial" font-size="14.00">    </text>
<text text-anchor="start" x="250.76" y="-679.6" font-family="Arial" font-size="14.00" fill="#666666">[BASE TABLE]</text>
<polygon fill="none" stroke="black" points="46.2,-635.4 46.2,-666.2 351.13,-666.2 351.13,-635.4 46.2,-635.4"/>
<text text-anchor="start" x="53.2" y="-647.6" font-family="Arial" font-size="14.00">recipe_ingredient_id </text>
<text text-anchor="start" x="183.18" y="-647.6" font-family="Arial" font-size="14.00" fill="#666666">[uuid]</text>
<polygon fill="none" stroke="black" points="46.2,-604.6 46.2,-635.4 351.13,-635.4 351.13,-604.6 46.2,-604.6"/>
<text text-anchor="start" x="53.2" y="-616.8" font-family="Arial" font-size="14.00">recipe_id </text>
<text text-anchor="start" x="113.9" y="-616.8" font-family="Arial" font-size="14.00" fill="#666666">[uuid]</text>
<polygon fill="none" stroke="black" points="46.2,-573.8 46.2,-604.6 351.13,-604.6 351.13,-573.8 46.2,-573.8"/>
<text text-anchor="start" x="53.2" y="-586" font-family="Arial" font-size="14.00">name </text>
<text text-anchor="start" x="92.11" y="-586" font-family="Arial" font-size="14.00" fill="#666666">[text]</text>
<polygon fill="none" stroke="black" points="46.2,-543 46.2,-573.8 351.13,-573.8 351.13,-543 46.2,-543"/>
<text text-anchor="start" x="53.2" y="-555.2" font-family="Arial" font-size="14.00">unit </text>
<text text-anchor="start" x="79.66" y="-555.2" font-family="Arial" font-size="14.00" fill="#666666">[text]</text>
<polygon fill="none" stroke="black" points="46.2,-512.2 46.2,-543 351.13,-543 351.13,-512.2 46.2,-512.2"/>
<text text-anchor="start" x="53.2" y="-524.4" font-family="Arial" font-size="14.00">amount </text>
<text text-anchor="start" x="103.79" y="-524.4" font-family="Arial" font-size="14.00" fill="#666666">[numeric]</text>
<polygon fill="none" stroke="black" stroke-width="3" points="44.7,-510.7 44.7,-703.3 352.63,-703.3 352.63,-510.7 44.7,-510.7"/>
</g>
<!-- api.recipes -->
<g id="node2" class="node">
<title>api.recipes</title>
<polygon fill="#efefef" stroke="none" points="73.78,-351.2 73.78,-386.8 323.55,-386.8 323.55,-351.2 73.78,-351.2"/>
<polygon fill="none" stroke="black" points="73.78,-351.2 73.78,-386.8 323.55,-386.8 323.55,-351.2 73.78,-351.2"/>
<text text-anchor="start" x="97.69" y="-364.6" font-family="Arial Bold" font-size="18.00">api.recipes</text>
<text text-anchor="start" x="175.15" y="-364.6" font-family="Arial" font-size="14.00">    </text>
<text text-anchor="start" x="206.27" y="-364.6" font-family="Arial" font-size="14.00" fill="#666666">[BASE TABLE]</text>
<polygon fill="none" stroke="black" points="73.78,-320.4 73.78,-351.2 323.55,-351.2 323.55,-320.4 73.78,-320.4"/>
<text text-anchor="start" x="80.78" y="-332.6" font-family="Arial" font-size="14.00">recipe_id </text>
<text text-anchor="start" x="141.48" y="-332.6" font-family="Arial" font-size="14.00" fill="#666666">[uuid]</text>
<polygon fill="none" stroke="black" points="73.78,-289.6 73.78,-320.4 323.55,-320.4 323.55,-289.6 73.78,-289.6"/>
<text text-anchor="start" x="80.78" y="-301.8" font-family="Arial" font-size="14.00">user_id </text>
<text text-anchor="start" x="130.58" y="-301.8" font-family="Arial" font-size="14.00" fill="#666666">[uuid]</text>
<polygon fill="none" stroke="black" points="73.78,-258.8 73.78,-289.6 323.55,-289.6 323.55,-258.8 73.78,-258.8"/>
<text text-anchor="start" x="80.78" y="-271" font-family="Arial" font-size="14.00">title </text>
<text text-anchor="start" x="106.45" y="-271" font-family="Arial" font-size="14.00" fill="#666666">[varchar(255)]</text>
<polygon fill="none" stroke="black" points="73.78,-228 73.78,-258.8 323.55,-258.8 323.55,-228 73.78,-228"/>
<text text-anchor="start" x="80.78" y="-240.2" font-family="Arial" font-size="14.00">description </text>
<text text-anchor="start" x="152.37" y="-240.2" font-family="Arial" font-size="14.00" fill="#666666">[text]</text>
<polygon fill="none" stroke="black" points="73.78,-197.2 73.78,-228 323.55,-228 323.55,-197.2 73.78,-197.2"/>
<text text-anchor="start" x="80.78" y="-209.4" font-family="Arial" font-size="14.00">difficulty </text>
<text text-anchor="start" x="135.24" y="-209.4" font-family="Arial" font-size="14.00" fill="#666666">[api.difficulty_level]</text>
<polygon fill="none" stroke="black" points="73.78,-166.4 73.78,-197.2 323.55,-197.2 323.55,-166.4 73.78,-166.4"/>
<text text-anchor="start" x="80.78" y="-178.6" font-family="Arial" font-size="14.00">serving </text>
<text text-anchor="start" x="129.8" y="-178.6" font-family="Arial" font-size="14.00" fill="#666666">[integer]</text>
<polygon fill="none" stroke="black" points="73.78,-135.6 73.78,-166.4 323.55,-166.4 323.55,-135.6 73.78,-135.6"/>
<text text-anchor="start" x="80.78" y="-147.8" font-family="Arial" font-size="14.00">prep_mins </text>
<text text-anchor="start" x="150.03" y="-147.8" font-family="Arial" font-size="14.00" fill="#666666">[integer]</text>
<polygon fill="none" stroke="black" points="73.78,-104.8 73.78,-135.6 323.55,-135.6 323.55,-104.8 73.78,-104.8"/>
<text text-anchor="start" x="80.78" y="-117" font-family="Arial" font-size="14.00">cook_mins </text>
<text text-anchor="start" x="151.58" y="-117" font-family="Arial" font-size="14.00" fill="#666666">[integer]</text>
<polygon fill="none" stroke="black" points="73.78,-74 73.78,-104.8 323.55,-104.8 323.55,-74 73.78,-74"/>
<text text-anchor="start" x="80.78" y="-86.2" font-family="Arial" font-size="14.00">created_at </text>
<text text-anchor="start" x="150.83" y="-86.2" font-family="Arial" font-size="14.00" fill="#666666">[timestamp with time zone]</text>
<polygon fill="none" stroke="black" points="73.78,-43.2 73.78,-74 323.55,-74 323.55,-43.2 73.78,-43.2"/>
<text text-anchor="start" x="80.78" y="-55.4" font-family="Arial" font-size="14.00">thumbnail_image_hash </text>
<text text-anchor="start" x="229.43" y="-55.4" font-family="Arial" font-size="14.00" fill="#666666">[text]</text>
</g>
<!-- api.recipes_ingredients&#45;&gt;api.recipes -->
<g id="edge1" class="edge">
<title>api.recipes_ingredients:recipe_id&#45;&gt;api.recipes:recipe_id</title>
<path fill="none" stroke="black" d="M362.04,-617.37C412.34,-588.72 384.41,-335.8 324.55,-335.8"/>
<polygon fill="black" stroke="black" points="362.12,-617.35 351.3,-615.56 356.96,-618.72 352.77,-619.83 352.77,-619.83 352.77,-619.83 356.96,-618.72 353.61,-624.26 362.12,-617.35"/>
</g>
</g>
</svg>
