<?xml version="1.0" encoding="UTF-8" standalone="no"?>
<!DOCTYPE svg PUBLIC "-//W3C//DTD SVG 1.1//EN"
 "http://www.w3.org/Graphics/SVG/1.1/DTD/svg11.dtd">
<!-- Generated by graphviz version 12.1.2 (20240928.0832)
 -->
<!-- Title: api.recipes_tags Pages: 1 -->
<svg width="608pt" height="540pt"
 viewBox="0.00 0.00 608.36 540.40" xmlns="http://www.w3.org/2000/svg" xmlns:xlink="http://www.w3.org/1999/xlink">
<g id="graph0" class="graph" transform="scale(1 1) rotate(0) translate(4 536.4)">
<title>api.recipes_tags</title>
<polygon fill="white" stroke="none" points="-4,4 -4,-536.4 604.36,-536.4 604.36,4 -4,4"/>
<!-- api.recipes_tags -->
<g id="node1" class="node">
<title>api.recipes_tags</title>
<polygon fill="#efefef" stroke="none" points="178.2,-450.6 178.2,-486.2 432.14,-486.2 432.14,-450.6 178.2,-450.6"/>
<polygon fill="none" stroke="black" points="178.2,-450.6 178.2,-486.2 432.14,-486.2 432.14,-450.6 178.2,-450.6"/>
<text text-anchor="start" x="185.2" y="-464" font-family="Arial Bold" font-size="18.00">api.recipes_tags</text>
<text text-anchor="start" x="300.66" y="-464" font-family="Arial" font-size="14.00">    </text>
<text text-anchor="start" x="331.77" y="-464" font-family="Arial" font-size="14.00" fill="#666666">[BASE TABLE]</text>
<polygon fill="none" stroke="black" points="178.2,-419.8 178.2,-450.6 432.14,-450.6 432.14,-419.8 178.2,-419.8"/>
<text text-anchor="start" x="185.2" y="-432" font-family="Arial" font-size="14.00">recipe_id </text>
<text text-anchor="start" x="245.91" y="-432" font-family="Arial" font-size="14.00" fill="#666666">[uuid]</text>
<polygon fill="none" stroke="black" points="178.2,-389 178.2,-419.8 432.14,-419.8 432.14,-389 178.2,-389"/>
<text text-anchor="start" x="185.2" y="-401.2" font-family="Arial" font-size="14.00">tag_id </text>
<text text-anchor="start" x="227.24" y="-401.2" font-family="Arial" font-size="14.00" fill="#666666">[uuid]</text>
<polygon fill="none" stroke="black" stroke-width="3" points="176.7,-387.5 176.7,-487.7 433.64,-487.7 433.64,-387.5 176.7,-387.5"/>
</g>
<!-- api.recipes -->
<g id="node2" class="node">
<title>api.recipes</title>
<polygon fill="#efefef" stroke="none" points="43.2,-228 43.2,-263.6 259.15,-263.6 259.15,-228 43.2,-228"/>
<polygon fill="none" stroke="black" points="43.2,-228 43.2,-263.6 259.15,-263.6 259.15,-228 43.2,-228"/>
<text text-anchor="start" x="50.2" y="-241.4" font-family="Arial Bold" font-size="18.00">api.recipes</text>
<text text-anchor="start" x="127.66" y="-241.4" font-family="Arial" font-size="14.00">    </text>
<text text-anchor="start" x="158.78" y="-241.4" font-family="Arial" font-size="14.00" fill="#666666">[BASE TABLE]</text>
<polygon fill="none" stroke="black" points="43.2,-197.2 43.2,-228 259.15,-228 259.15,-197.2 43.2,-197.2"/>
<text text-anchor="start" x="50.2" y="-209.4" font-family="Arial" font-size="14.00">recipe_id </text>
<text text-anchor="start" x="110.9" y="-209.4" font-family="Arial" font-size="14.00" fill="#666666">[uuid]</text>
<polygon fill="none" stroke="black" points="43.2,-166.4 43.2,-197.2 259.15,-197.2 259.15,-166.4 43.2,-166.4"/>
<text text-anchor="start" x="50.2" y="-178.6" font-family="Arial" font-size="14.00">user_id </text>
<text text-anchor="start" x="100.01" y="-178.6" font-family="Arial" font-size="14.00" fill="#666666">[uuid]</text>
<polygon fill="none" stroke="black" points="43.2,-135.6 43.2,-166.4 259.15,-166.4 259.15,-135.6 43.2,-135.6"/>
<text text-anchor="start" x="50.2" y="-147.8" font-family="Arial" font-size="14.00">title </text>
<text text-anchor="start" x="75.88" y="-147.8" font-family="Arial" font-size="14.00" fill="#666666">[varchar(255)]</text>
<polygon fill="none" stroke="black" points="43.2,-104.8 43.2,-135.6 259.15,-135.6 259.15,-104.8 43.2,-104.8"/>
<text text-anchor="start" x="50.2" y="-117" font-family="Arial" font-size="14.00">content </text>
<text text-anchor="start" x="100.01" y="-117" font-family="Arial" font-size="14.00" fill="#666666">[text]</text>
<polygon fill="none" stroke="black" points="43.2,-74 43.2,-104.8 259.15,-104.8 259.15,-74 43.2,-74"/>
<text text-anchor="start" x="50.2" y="-86.2" font-family="Arial" font-size="14.00">difficulty </text>
<text text-anchor="start" x="104.66" y="-86.2" font-family="Arial" font-size="14.00" fill="#666666">[api.difficulty_level]</text>
<polygon fill="none" stroke="black" points="43.2,-43.2 43.2,-74 259.15,-74 259.15,-43.2 43.2,-43.2"/>
<text text-anchor="start" x="50.2" y="-55.4" font-family="Arial" font-size="14.00">thumbnail_image_hash </text>
<text text-anchor="start" x="198.85" y="-55.4" font-family="Arial" font-size="14.00" fill="#666666">[text]</text>
</g>
<!-- api.recipes_tags&#45;&gt;api.recipes -->
<g id="edge1" class="edge">
<title>api.recipes_tags:recipe_id&#45;&gt;api.recipes:recipe_id</title>
<path fill="none" stroke="black" d="M167.2,-433.74C139.82,-424.52 157.76,-373.9 178.2,-342.8 199.83,-309.9 237.52,-339.7 259.15,-306.8 282.14,-271.81 302.02,-212.6 260.15,-212.6"/>
<polygon fill="black" stroke="black" points="166.98,-433.7 176.22,-439.6 172.26,-434.48 176.54,-435.1 176.54,-435.1 176.54,-435.1 172.26,-434.48 177.52,-430.7 166.98,-433.7"/>
</g>
<!-- api.tags -->
<g id="node3" class="node">
<title>api.tags</title>
<polygon fill="#efefef" stroke="none" points="363.19,-166.4 363.19,-202 557.16,-202 557.16,-166.4 363.19,-166.4"/>
<polygon fill="none" stroke="black" points="363.19,-166.4 363.19,-202 557.16,-202 557.16,-166.4 363.19,-166.4"/>
<text text-anchor="start" x="370.19" y="-179.8" font-family="Arial Bold" font-size="18.00">api.tags</text>
<text text-anchor="start" x="425.67" y="-179.8" font-family="Arial" font-size="14.00">    </text>
<text text-anchor="start" x="456.79" y="-179.8" font-family="Arial" font-size="14.00" fill="#666666">[BASE TABLE]</text>
<polygon fill="none" stroke="black" points="363.19,-135.6 363.19,-166.4 557.16,-166.4 557.16,-135.6 363.19,-135.6"/>
<text text-anchor="start" x="370.19" y="-147.8" font-family="Arial" font-size="14.00">tag_id </text>
<text text-anchor="start" x="412.22" y="-147.8" font-family="Arial" font-size="14.00" fill="#666666">[uuid]</text>
<polygon fill="none" stroke="black" points="363.19,-104.8 363.19,-135.6 557.16,-135.6 557.16,-104.8 363.19,-104.8"/>
<text text-anchor="start" x="370.19" y="-117" font-family="Arial" font-size="14.00">name </text>
<text text-anchor="start" x="409.1" y="-117" font-family="Arial" font-size="14.00" fill="#666666">[varchar(255)]</text>
</g>
<!-- api.recipes_tags&#45;&gt;api.tags -->
<g id="edge2" class="edge">
<title>api.recipes_tags:tag_id&#45;&gt;api.tags:tag_id</title>
<path fill="none" stroke="black" d="M443.06,-401.73C454.31,-392.98 439.25,-364.56 432.14,-342.8 415.66,-292.31 379.53,-295.73 363.19,-245.2 350.3,-205.36 320.32,-151 362.19,-151"/>
<polygon fill="black" stroke="black" points="443.12,-401.71 432.3,-399.97 437.97,-403.1 433.79,-404.23 433.79,-404.23 433.79,-404.23 437.97,-403.1 434.64,-408.66 443.12,-401.71"/>
</g>
</g>
</svg>
