<?xml version="1.0" encoding="UTF-8" standalone="no"?>
<!DOCTYPE svg PUBLIC "-//W3C//DTD SVG 1.1//EN"
 "http://www.w3.org/Graphics/SVG/1.1/DTD/svg11.dtd">
<!-- Generated by graphviz version 12.1.2 (20240928.0832)
 -->
<!-- Title: api.recipes_comments Pages: 1 -->
<svg width="640pt" height="914pt"
 viewBox="0.00 0.00 639.86 914.00" xmlns="http://www.w3.org/2000/svg" xmlns:xlink="http://www.w3.org/1999/xlink">
<g id="graph0" class="graph" transform="scale(1 1) rotate(0) translate(4 910)">
<title>api.recipes_comments</title>
<polygon fill="white" stroke="none" points="-4,4 -4,-910 635.86,-910 635.86,4 -4,4"/>
<!-- api.recipes_comments -->
<g id="node1" class="node">
<title>api.recipes_comments</title>
<polygon fill="#efefef" stroke="none" points="163.71,-573.8 163.71,-609.4 462.64,-609.4 462.64,-573.8 163.71,-573.8"/>
<polygon fill="none" stroke="black" points="163.71,-573.8 163.71,-609.4 462.64,-609.4 462.64,-573.8 163.71,-573.8"/>
<text text-anchor="start" x="170.71" y="-587.2" font-family="Arial Bold" font-size="18.00">api.recipes_comments</text>
<text text-anchor="start" x="331.15" y="-587.2" font-family="Arial" font-size="14.00">    </text>
<text text-anchor="start" x="362.27" y="-587.2" font-family="Arial" font-size="14.00" fill="#666666">[BASE TABLE]</text>
<polygon fill="none" stroke="black" points="163.71,-543 163.71,-573.8 462.64,-573.8 462.64,-543 163.71,-543"/>
<text text-anchor="start" x="170.71" y="-555.2" font-family="Arial" font-size="14.00">comment_id </text>
<text text-anchor="start" x="250.85" y="-555.2" font-family="Arial" font-size="14.00" fill="#666666">[uuid]</text>
<polygon fill="none" stroke="black" points="163.71,-512.2 163.71,-543 462.64,-543 462.64,-512.2 163.71,-512.2"/>
<text text-anchor="start" x="170.71" y="-524.4" font-family="Arial" font-size="14.00">recipe_id </text>
<text text-anchor="start" x="231.41" y="-524.4" font-family="Arial" font-size="14.00" fill="#666666">[uuid]</text>
<polygon fill="none" stroke="black" points="163.71,-481.4 163.71,-512.2 462.64,-512.2 462.64,-481.4 163.71,-481.4"/>
<text text-anchor="start" x="170.71" y="-493.6" font-family="Arial" font-size="14.00">user_id </text>
<text text-anchor="start" x="220.51" y="-493.6" font-family="Arial" font-size="14.00" fill="#666666">[uuid]</text>
<polygon fill="none" stroke="black" points="163.71,-450.6 163.71,-481.4 462.64,-481.4 462.64,-450.6 163.71,-450.6"/>
<text text-anchor="start" x="170.71" y="-462.8" font-family="Arial" font-size="14.00">parent_comment_id </text>
<text text-anchor="start" x="298.33" y="-462.8" font-family="Arial" font-size="14.00" fill="#666666">[uuid]</text>
<polygon fill="none" stroke="black" points="163.71,-419.8 163.71,-450.6 462.64,-450.6 462.64,-419.8 163.71,-419.8"/>
<text text-anchor="start" x="170.71" y="-432" font-family="Arial" font-size="14.00">content </text>
<text text-anchor="start" x="220.52" y="-432" font-family="Arial" font-size="14.00" fill="#666666">[text]</text>
<polygon fill="none" stroke="black" stroke-width="3" points="162.21,-418.3 162.21,-610.9 464.14,-610.9 464.14,-418.3 162.21,-418.3"/>
</g>
<!-- api.recipes_comments&#45;&gt;api.recipes_comments -->
<g id="edge1" class="edge">
<title>api.recipes_comments:parent_comment_id&#45;&gt;api.recipes_comments:comment_id</title>
<path fill="none" stroke="black" d="M315.17,-491.35C322.12,-597.01 321.45,-797.7 313.17,-797.7 304.65,-797.7 304.2,-667.65 311.82,-573.72"/>
<polygon fill="black" stroke="black" points="315.18,-491.43 318.96,-481.13 314.8,-486.1 314.5,-481.78 314.5,-481.78 314.5,-481.78 314.8,-486.1 309.99,-481.77 315.18,-491.43"/>
</g>
<!-- api.recipes -->
<g id="node3" class="node">
<title>api.recipes</title>
<polygon fill="#efefef" stroke="none" points="43.2,-243.4 43.2,-279 259.15,-279 259.15,-243.4 43.2,-243.4"/>
<polygon fill="none" stroke="black" points="43.2,-243.4 43.2,-279 259.15,-279 259.15,-243.4 43.2,-243.4"/>
<text text-anchor="start" x="50.2" y="-256.8" font-family="Arial Bold" font-size="18.00">api.recipes</text>
<text text-anchor="start" x="127.66" y="-256.8" font-family="Arial" font-size="14.00">    </text>
<text text-anchor="start" x="158.78" y="-256.8" font-family="Arial" font-size="14.00" fill="#666666">[BASE TABLE]</text>
<polygon fill="none" stroke="black" points="43.2,-212.6 43.2,-243.4 259.15,-243.4 259.15,-212.6 43.2,-212.6"/>
<text text-anchor="start" x="50.2" y="-224.8" font-family="Arial" font-size="14.00">recipe_id </text>
<text text-anchor="start" x="110.9" y="-224.8" font-family="Arial" font-size="14.00" fill="#666666">[uuid]</text>
<polygon fill="none" stroke="black" points="43.2,-181.8 43.2,-212.6 259.15,-212.6 259.15,-181.8 43.2,-181.8"/>
<text text-anchor="start" x="50.2" y="-194" font-family="Arial" font-size="14.00">user_id </text>
<text text-anchor="start" x="100.01" y="-194" font-family="Arial" font-size="14.00" fill="#666666">[uuid]</text>
<polygon fill="none" stroke="black" points="43.2,-151 43.2,-181.8 259.15,-181.8 259.15,-151 43.2,-151"/>
<text text-anchor="start" x="50.2" y="-163.2" font-family="Arial" font-size="14.00">title </text>
<text text-anchor="start" x="75.88" y="-163.2" font-family="Arial" font-size="14.00" fill="#666666">[varchar(255)]</text>
<polygon fill="none" stroke="black" points="43.2,-120.2 43.2,-151 259.15,-151 259.15,-120.2 43.2,-120.2"/>
<text text-anchor="start" x="50.2" y="-132.4" font-family="Arial" font-size="14.00">content </text>
<text text-anchor="start" x="100.01" y="-132.4" font-family="Arial" font-size="14.00" fill="#666666">[text]</text>
<polygon fill="none" stroke="black" points="43.2,-89.4 43.2,-120.2 259.15,-120.2 259.15,-89.4 43.2,-89.4"/>
<text text-anchor="start" x="50.2" y="-101.6" font-family="Arial" font-size="14.00">difficulty </text>
<text text-anchor="start" x="104.66" y="-101.6" font-family="Arial" font-size="14.00" fill="#666666">[api.difficulty_level]</text>
<polygon fill="none" stroke="black" points="43.2,-58.6 43.2,-89.4 259.15,-89.4 259.15,-58.6 43.2,-58.6"/>
<text text-anchor="start" x="50.2" y="-70.8" font-family="Arial" font-size="14.00">thumbnail_image_hash </text>
<text text-anchor="start" x="198.85" y="-70.8" font-family="Arial" font-size="14.00" fill="#666666">[text]</text>
</g>
<!-- api.recipes_comments&#45;&gt;api.recipes -->
<g id="edge3" class="edge">
<title>api.recipes_comments:recipe_id&#45;&gt;api.recipes:recipe_id</title>
<path fill="none" stroke="black" d="M152.38,-526.77C98,-517.28 130.35,-429.04 163.71,-373.6 188.54,-332.32 234.22,-363.43 259.15,-322.2 280.81,-286.37 302.02,-228 260.15,-228"/>
<polygon fill="black" stroke="black" points="152.41,-526.77 162.01,-532.06 157.72,-527.2 162.04,-527.55 162.04,-527.55 162.04,-527.55 157.72,-527.2 162.74,-523.09 152.41,-526.77"/>
</g>
<!-- public.users -->
<g id="node4" class="node">
<title>public.users</title>
<polygon fill="#efefef" stroke="none" points="363.69,-258.8 363.69,-294.4 588.66,-294.4 588.66,-258.8 363.69,-258.8"/>
<polygon fill="none" stroke="black" points="363.69,-258.8 363.69,-294.4 588.66,-294.4 588.66,-258.8 363.69,-258.8"/>
<text text-anchor="start" x="370.69" y="-272.2" font-family="Arial Bold" font-size="18.00">public.users</text>
<text text-anchor="start" x="457.17" y="-272.2" font-family="Arial" font-size="14.00">    </text>
<text text-anchor="start" x="488.29" y="-272.2" font-family="Arial" font-size="14.00" fill="#666666">[BASE TABLE]</text>
<polygon fill="none" stroke="black" points="363.69,-228 363.69,-258.8 588.66,-258.8 588.66,-228 363.69,-228"/>
<text text-anchor="start" x="370.69" y="-240.2" font-family="Arial" font-size="14.00">user_id </text>
<text text-anchor="start" x="420.49" y="-240.2" font-family="Arial" font-size="14.00" fill="#666666">[uuid]</text>
<polygon fill="none" stroke="black" points="363.69,-197.2 363.69,-228 588.66,-228 588.66,-197.2 363.69,-197.2"/>
<text text-anchor="start" x="370.69" y="-209.4" font-family="Arial" font-size="14.00">email </text>
<text text-anchor="start" x="408.03" y="-209.4" font-family="Arial" font-size="14.00" fill="#666666">[varchar(320)]</text>
<polygon fill="none" stroke="black" points="363.69,-166.4 363.69,-197.2 588.66,-197.2 588.66,-166.4 363.69,-166.4"/>
<text text-anchor="start" x="370.69" y="-178.6" font-family="Arial" font-size="14.00">first_name </text>
<text text-anchor="start" x="439.93" y="-178.6" font-family="Arial" font-size="14.00" fill="#666666">[varchar(255)]</text>
<polygon fill="none" stroke="black" points="363.69,-135.6 363.69,-166.4 588.66,-166.4 588.66,-135.6 363.69,-135.6"/>
<text text-anchor="start" x="370.69" y="-147.8" font-family="Arial" font-size="14.00">last_name </text>
<text text-anchor="start" x="439.17" y="-147.8" font-family="Arial" font-size="14.00" fill="#666666">[varchar(255)]</text>
<polygon fill="none" stroke="black" points="363.69,-104.8 363.69,-135.6 588.66,-135.6 588.66,-104.8 363.69,-104.8"/>
<text text-anchor="start" x="370.69" y="-117" font-family="Arial" font-size="14.00">password_hash </text>
<text text-anchor="start" x="472.64" y="-117" font-family="Arial" font-size="14.00" fill="#666666">[text]</text>
<polygon fill="none" stroke="black" points="363.69,-74 363.69,-104.8 588.66,-104.8 588.66,-74 363.69,-74"/>
<text text-anchor="start" x="370.69" y="-86.2" font-family="Arial" font-size="14.00">middle_name </text>
<text text-anchor="start" x="458.62" y="-86.2" font-family="Arial" font-size="14.00" fill="#666666">[varchar(255)]</text>
<polygon fill="none" stroke="black" points="363.69,-43.2 363.69,-74 588.66,-74 588.66,-43.2 363.69,-43.2"/>
<text text-anchor="start" x="370.69" y="-55.4" font-family="Arial" font-size="14.00">is_admin </text>
<text text-anchor="start" x="430.6" y="-55.4" font-family="Arial" font-size="14.00" fill="#666666">[boolean]</text>
</g>
<!-- api.recipes_comments&#45;&gt;public.users -->
<g id="edge4" class="edge">
<title>api.recipes_comments:user_id&#45;&gt;public.users:user_id</title>
<path fill="none" stroke="black" d="M473.79,-495.74C515.06,-486.23 492.07,-415.27 462.64,-373.6 435.64,-335.38 390.74,-375.79 363.69,-337.6 339.49,-303.43 320.82,-243.4 362.69,-243.4"/>
<polygon fill="black" stroke="black" points="473.92,-495.72 463.5,-492.29 468.61,-496.28 464.31,-496.73 464.31,-496.73 464.31,-496.73 468.61,-496.28 464.44,-501.24 473.92,-495.72"/>
</g>
<!-- api.recipes_comments_votes -->
<g id="node2" class="node">
<title>api.recipes_comments_votes</title>
<polygon fill="#efefef" stroke="none" points="140.21,-827.2 140.21,-862.8 486.14,-862.8 486.14,-827.2 140.21,-827.2"/>
<polygon fill="none" stroke="black" points="140.21,-827.2 140.21,-862.8 486.14,-862.8 486.14,-827.2 140.21,-827.2"/>
<text text-anchor="start" x="147.21" y="-840.6" font-family="Arial Bold" font-size="18.00">api.recipes_comments_votes</text>
<text text-anchor="start" x="354.65" y="-840.6" font-family="Arial" font-size="14.00">    </text>
<text text-anchor="start" x="385.77" y="-840.6" font-family="Arial" font-size="14.00" fill="#666666">[BASE TABLE]</text>
<polygon fill="none" stroke="black" points="140.21,-796.4 140.21,-827.2 486.14,-827.2 486.14,-796.4 140.21,-796.4"/>
<text text-anchor="start" x="147.21" y="-808.6" font-family="Arial" font-size="14.00">user_id </text>
<text text-anchor="start" x="197.02" y="-808.6" font-family="Arial" font-size="14.00" fill="#666666">[uuid]</text>
<polygon fill="none" stroke="black" points="140.21,-765.6 140.21,-796.4 486.14,-796.4 486.14,-765.6 140.21,-765.6"/>
<text text-anchor="start" x="147.21" y="-777.8" font-family="Arial" font-size="14.00">comment_id </text>
<text text-anchor="start" x="227.35" y="-777.8" font-family="Arial" font-size="14.00" fill="#666666">[uuid]</text>
<polygon fill="none" stroke="black" points="140.21,-734.8 140.21,-765.6 486.14,-765.6 486.14,-734.8 140.21,-734.8"/>
<text text-anchor="start" x="147.21" y="-747" font-family="Arial" font-size="14.00">upvote </text>
<text text-anchor="start" x="193.13" y="-747" font-family="Arial" font-size="14.00" fill="#666666">[boolean]</text>
</g>
<!-- api.recipes_comments_votes&#45;&gt;api.recipes_comments -->
<g id="edge2" class="edge">
<title>api.recipes_comments_votes:comment_id&#45;&gt;api.recipes_comments:comment_id</title>
<path fill="none" stroke="black" d="M497.44,-780.15C584.82,-765.2 559.53,-558.4 463.64,-558.4"/>
<polygon fill="black" stroke="black" points="497.44,-780.15 487.1,-776.49 492.12,-780.59 487.8,-780.94 487.8,-780.94 487.8,-780.94 492.12,-780.59 487.84,-785.46 497.44,-780.15"/>
</g>
</g>
</svg>
