<?xml version="1.0" encoding="UTF-8" standalone="no"?>
<!DOCTYPE svg PUBLIC "-//W3C//DTD SVG 1.1//EN"
 "http://www.w3.org/Graphics/SVG/1.1/DTD/svg11.dtd">
<!-- Generated by graphviz version 12.1.2 (20240928.0832)
 -->
<!-- Title: api.notifications Pages: 1 -->
<svg width="1077pt" height="818pt"
 viewBox="0.00 0.00 1077.35 817.60" xmlns="http://www.w3.org/2000/svg" xmlns:xlink="http://www.w3.org/1999/xlink">
<g id="graph0" class="graph" transform="scale(1 1) rotate(0) translate(4 813.6)">
<title>api.notifications</title>
<polygon fill="white" stroke="none" points="-4,4 -4,-813.6 1073.35,-813.6 1073.35,4 -4,4"/>
<!-- api.notifications -->
<g id="node1" class="node">
<title>api.notifications</title>
<polygon fill="#efefef" stroke="none" points="199.21,-727.8 199.21,-763.4 454.17,-763.4 454.17,-727.8 199.21,-727.8"/>
<polygon fill="none" stroke="black" points="199.21,-727.8 199.21,-763.4 454.17,-763.4 454.17,-727.8 199.21,-727.8"/>
<text text-anchor="start" x="206.21" y="-741.2" font-family="Arial Bold" font-size="18.00">api.notifications</text>
<text text-anchor="start" x="322.68" y="-741.2" font-family="Arial" font-size="14.00">    </text>
<text text-anchor="start" x="353.8" y="-741.2" font-family="Arial" font-size="14.00" fill="#666666">[BASE TABLE]</text>
<polygon fill="none" stroke="black" points="199.21,-697 199.21,-727.8 454.17,-727.8 454.17,-697 199.21,-697"/>
<text text-anchor="start" x="206.21" y="-709.2" font-family="Arial" font-size="14.00">notification_id </text>
<text text-anchor="start" x="295.71" y="-709.2" font-family="Arial" font-size="14.00" fill="#666666">[uuid]</text>
<polygon fill="none" stroke="black" points="199.21,-666.2 199.21,-697 454.17,-697 454.17,-666.2 199.21,-666.2"/>
<text text-anchor="start" x="206.21" y="-678.4" font-family="Arial" font-size="14.00">user_id </text>
<text text-anchor="start" x="256.01" y="-678.4" font-family="Arial" font-size="14.00" fill="#666666">[uuid]</text>
<polygon fill="none" stroke="black" points="199.21,-635.4 199.21,-666.2 454.17,-666.2 454.17,-635.4 199.21,-635.4"/>
<text text-anchor="start" x="206.21" y="-647.6" font-family="Arial" font-size="14.00">type </text>
<text text-anchor="start" x="236.56" y="-647.6" font-family="Arial" font-size="14.00" fill="#666666">[api.notification_type]</text>
<polygon fill="none" stroke="black" points="199.21,-604.6 199.21,-635.4 454.17,-635.4 454.17,-604.6 199.21,-604.6"/>
<text text-anchor="start" x="206.21" y="-616.8" font-family="Arial" font-size="14.00">created_at </text>
<text text-anchor="start" x="276.25" y="-616.8" font-family="Arial" font-size="14.00" fill="#666666">[timestamp with time zone]</text>
<polygon fill="none" stroke="black" points="199.21,-573.8 199.21,-604.6 454.17,-604.6 454.17,-573.8 199.21,-573.8"/>
<text text-anchor="start" x="206.21" y="-586" font-family="Arial" font-size="14.00">recipe_id </text>
<text text-anchor="start" x="266.91" y="-586" font-family="Arial" font-size="14.00" fill="#666666">[uuid]</text>
<polygon fill="none" stroke="black" points="199.21,-543 199.21,-573.8 454.17,-573.8 454.17,-543 199.21,-543"/>
<text text-anchor="start" x="206.21" y="-555.2" font-family="Arial" font-size="14.00">comment_id </text>
<text text-anchor="start" x="286.35" y="-555.2" font-family="Arial" font-size="14.00" fill="#666666">[uuid]</text>
<polygon fill="none" stroke="black" points="199.21,-512.2 199.21,-543 454.17,-543 454.17,-512.2 199.21,-512.2"/>
<text text-anchor="start" x="206.21" y="-524.4" font-family="Arial" font-size="14.00">actor_user_id </text>
<text text-anchor="start" x="294.92" y="-524.4" font-family="Arial" font-size="14.00" fill="#666666">[uuid]</text>
<polygon fill="none" stroke="black" stroke-width="3" points="197.71,-510.7 197.71,-764.9 455.67,-764.9 455.67,-510.7 197.71,-510.7"/>
</g>
<!-- public.users -->
<g id="node2" class="node">
<title>public.users</title>
<polygon fill="#efefef" stroke="none" points="43.2,-320.4 43.2,-356 268.17,-356 268.17,-320.4 43.2,-320.4"/>
<polygon fill="none" stroke="black" points="43.2,-320.4 43.2,-356 268.17,-356 268.17,-320.4 43.2,-320.4"/>
<text text-anchor="start" x="50.2" y="-333.8" font-family="Arial Bold" font-size="18.00">public.users</text>
<text text-anchor="start" x="136.68" y="-333.8" font-family="Arial" font-size="14.00">    </text>
<text text-anchor="start" x="167.8" y="-333.8" font-family="Arial" font-size="14.00" fill="#666666">[BASE TABLE]</text>
<polygon fill="none" stroke="black" points="43.2,-289.6 43.2,-320.4 268.17,-320.4 268.17,-289.6 43.2,-289.6"/>
<text text-anchor="start" x="50.2" y="-301.8" font-family="Arial" font-size="14.00">user_id </text>
<text text-anchor="start" x="100.01" y="-301.8" font-family="Arial" font-size="14.00" fill="#666666">[uuid]</text>
<polygon fill="none" stroke="black" points="43.2,-258.8 43.2,-289.6 268.17,-289.6 268.17,-258.8 43.2,-258.8"/>
<text text-anchor="start" x="50.2" y="-271" font-family="Arial" font-size="14.00">email </text>
<text text-anchor="start" x="87.54" y="-271" font-family="Arial" font-size="14.00" fill="#666666">[varchar(320)]</text>
<polygon fill="none" stroke="black" points="43.2,-228 43.2,-258.8 268.17,-258.8 268.17,-228 43.2,-228"/>
<text text-anchor="start" x="50.2" y="-240.2" font-family="Arial" font-size="14.00">first_name </text>
<text text-anchor="start" x="119.45" y="-240.2" font-family="Arial" font-size="14.00" fill="#666666">[varchar(255)]</text>
<polygon fill="none" stroke="black" points="43.2,-197.2 43.2,-228 268.17,-228 268.17,-197.2 43.2,-197.2"/>
<text text-anchor="start" x="50.2" y="-209.4" font-family="Arial" font-size="14.00">last_name </text>
<text text-anchor="start" x="118.68" y="-209.4" font-family="Arial" font-size="14.00" fill="#666666">[varchar(255)]</text>
<polygon fill="none" stroke="black" points="43.2,-166.4 43.2,-197.2 268.17,-197.2 268.17,-166.4 43.2,-166.4"/>
<text text-anchor="start" x="50.2" y="-178.6" font-family="Arial" font-size="14.00">password_hash </text>
<text text-anchor="start" x="152.15" y="-178.6" font-family="Arial" font-size="14.00" fill="#666666">[text]</text>
<polygon fill="none" stroke="black" points="43.2,-135.6 43.2,-166.4 268.17,-166.4 268.17,-135.6 43.2,-135.6"/>
<text text-anchor="start" x="50.2" y="-147.8" font-family="Arial" font-size="14.00">middle_name </text>
<text text-anchor="start" x="138.14" y="-147.8" font-family="Arial" font-size="14.00" fill="#666666">[varchar(255)]</text>
<polygon fill="none" stroke="black" points="43.2,-104.8 43.2,-135.6 268.17,-135.6 268.17,-104.8 43.2,-104.8"/>
<text text-anchor="start" x="50.2" y="-117" font-family="Arial" font-size="14.00">is_admin </text>
<text text-anchor="start" x="110.12" y="-117" font-family="Arial" font-size="14.00" fill="#666666">[boolean]</text>
<polygon fill="none" stroke="black" points="43.2,-74 43.2,-104.8 268.17,-104.8 268.17,-74 43.2,-74"/>
<text text-anchor="start" x="50.2" y="-86.2" font-family="Arial" font-size="14.00">profile_picture_hash </text>
<text text-anchor="start" x="180.17" y="-86.2" font-family="Arial" font-size="14.00" fill="#666666">[text]</text>
</g>
<!-- api.notifications&#45;&gt;public.users -->
<g id="edge1" class="edge">
<title>api.notifications:user_id&#45;&gt;public.users:user_id</title>
<path fill="none" stroke="black" d="M188.17,-681.08C106.75,-672.19 163.02,-550.88 199.21,-466 215.94,-426.75 251.32,-438.4 268.17,-399.2 284.71,-360.73 311.04,-305 269.17,-305"/>
<polygon fill="black" stroke="black" points="187.89,-681.07 197.64,-686.08 193.21,-681.34 197.54,-681.57 197.54,-681.57 197.54,-681.57 193.21,-681.34 198.1,-677.09 187.89,-681.07"/>
</g>
<!-- api.notifications&#45;&gt;public.users -->
<g id="edge4" class="edge">
<title>api.notifications:actor_user_id&#45;&gt;public.users:user_id</title>
<path fill="none" stroke="black" d="M188.46,-525.11C176.13,-516.48 190.02,-487.2 199.21,-466 216.17,-426.84 251.32,-438.4 268.17,-399.2 284.71,-360.73 311.04,-305 269.17,-305"/>
<polygon fill="black" stroke="black" points="188.19,-525.04 196.77,-531.88 193.36,-526.36 197.56,-527.43 197.56,-527.43 197.56,-527.43 193.36,-526.36 199,-523.16 188.19,-525.04"/>
</g>
<!-- api.recipes -->
<g id="node3" class="node">
<title>api.recipes</title>
<polygon fill="#efefef" stroke="none" points="372.8,-351.2 372.8,-386.8 622.57,-386.8 622.57,-351.2 372.8,-351.2"/>
<polygon fill="none" stroke="black" points="372.8,-351.2 372.8,-386.8 622.57,-386.8 622.57,-351.2 372.8,-351.2"/>
<text text-anchor="start" x="396.71" y="-364.6" font-family="Arial Bold" font-size="18.00">api.recipes</text>
<text text-anchor="start" x="474.17" y="-364.6" font-family="Arial" font-size="14.00">    </text>
<text text-anchor="start" x="505.29" y="-364.6" font-family="Arial" font-size="14.00" fill="#666666">[BASE TABLE]</text>
<polygon fill="none" stroke="black" points="372.8,-320.4 372.8,-351.2 622.57,-351.2 622.57,-320.4 372.8,-320.4"/>
<text text-anchor="start" x="379.8" y="-332.6" font-family="Arial" font-size="14.00">recipe_id </text>
<text text-anchor="start" x="440.5" y="-332.6" font-family="Arial" font-size="14.00" fill="#666666">[uuid]</text>
<polygon fill="none" stroke="black" points="372.8,-289.6 372.8,-320.4 622.57,-320.4 622.57,-289.6 372.8,-289.6"/>
<text text-anchor="start" x="379.8" y="-301.8" font-family="Arial" font-size="14.00">user_id </text>
<text text-anchor="start" x="429.61" y="-301.8" font-family="Arial" font-size="14.00" fill="#666666">[uuid]</text>
<polygon fill="none" stroke="black" points="372.8,-258.8 372.8,-289.6 622.57,-289.6 622.57,-258.8 372.8,-258.8"/>
<text text-anchor="start" x="379.8" y="-271" font-family="Arial" font-size="14.00">title </text>
<text text-anchor="start" x="405.48" y="-271" font-family="Arial" font-size="14.00" fill="#666666">[varchar(255)]</text>
<polygon fill="none" stroke="black" points="372.8,-228 372.8,-258.8 622.57,-258.8 622.57,-228 372.8,-228"/>
<text text-anchor="start" x="379.8" y="-240.2" font-family="Arial" font-size="14.00">description </text>
<text text-anchor="start" x="451.39" y="-240.2" font-family="Arial" font-size="14.00" fill="#666666">[text]</text>
<polygon fill="none" stroke="black" points="372.8,-197.2 372.8,-228 622.57,-228 622.57,-197.2 372.8,-197.2"/>
<text text-anchor="start" x="379.8" y="-209.4" font-family="Arial" font-size="14.00">difficulty </text>
<text text-anchor="start" x="434.26" y="-209.4" font-family="Arial" font-size="14.00" fill="#666666">[api.difficulty_level]</text>
<polygon fill="none" stroke="black" points="372.8,-166.4 372.8,-197.2 622.57,-197.2 622.57,-166.4 372.8,-166.4"/>
<text text-anchor="start" x="379.8" y="-178.6" font-family="Arial" font-size="14.00">serving </text>
<text text-anchor="start" x="428.82" y="-178.6" font-family="Arial" font-size="14.00" fill="#666666">[integer]</text>
<polygon fill="none" stroke="black" points="372.8,-135.6 372.8,-166.4 622.57,-166.4 622.57,-135.6 372.8,-135.6"/>
<text text-anchor="start" x="379.8" y="-147.8" font-family="Arial" font-size="14.00">prep_mins </text>
<text text-anchor="start" x="449.06" y="-147.8" font-family="Arial" font-size="14.00" fill="#666666">[integer]</text>
<polygon fill="none" stroke="black" points="372.8,-104.8 372.8,-135.6 622.57,-135.6 622.57,-104.8 372.8,-104.8"/>
<text text-anchor="start" x="379.8" y="-117" font-family="Arial" font-size="14.00">cook_mins </text>
<text text-anchor="start" x="450.61" y="-117" font-family="Arial" font-size="14.00" fill="#666666">[integer]</text>
<polygon fill="none" stroke="black" points="372.8,-74 372.8,-104.8 622.57,-104.8 622.57,-74 372.8,-74"/>
<text text-anchor="start" x="379.8" y="-86.2" font-family="Arial" font-size="14.00">created_at </text>
<text text-anchor="start" x="449.85" y="-86.2" font-family="Arial" font-size="14.00" fill="#666666">[timestamp with time zone]</text>
<polygon fill="none" stroke="black" points="372.8,-43.2 372.8,-74 622.57,-74 622.57,-43.2 372.8,-43.2"/>
<text text-anchor="start" x="379.8" y="-55.4" font-family="Arial" font-size="14.00">thumbnail_image_hash </text>
<text text-anchor="start" x="528.46" y="-55.4" font-family="Arial" font-size="14.00" fill="#666666">[text]</text>
</g>
<!-- api.notifications&#45;&gt;api.recipes -->
<g id="edge2" class="edge">
<title>api.notifications:recipe_id&#45;&gt;api.recipes:recipe_id</title>
<path fill="none" stroke="black" d="M465.29,-588.15C506.39,-578.76 482.18,-508.64 454.17,-466 432.46,-432.95 394.55,-463.02 372.8,-430 349.77,-395.03 329.93,-335.8 371.8,-335.8"/>
<polygon fill="black" stroke="black" points="465.45,-588.13 455.04,-584.69 460.14,-588.68 455.83,-589.13 455.83,-589.13 455.83,-589.13 460.14,-588.68 455.96,-593.64 465.45,-588.13"/>
</g>
<!-- api.recipes_comments -->
<g id="node4" class="node">
<title>api.recipes_comments</title>
<polygon fill="#efefef" stroke="none" points="727.22,-289.6 727.22,-325.2 1026.15,-325.2 1026.15,-289.6 727.22,-289.6"/>
<polygon fill="none" stroke="black" points="727.22,-289.6 727.22,-325.2 1026.15,-325.2 1026.15,-289.6 727.22,-289.6"/>
<text text-anchor="start" x="734.22" y="-303" font-family="Arial Bold" font-size="18.00">api.recipes_comments</text>
<text text-anchor="start" x="894.66" y="-303" font-family="Arial" font-size="14.00">    </text>
<text text-anchor="start" x="925.78" y="-303" font-family="Arial" font-size="14.00" fill="#666666">[BASE TABLE]</text>
<polygon fill="none" stroke="black" points="727.22,-258.8 727.22,-289.6 1026.15,-289.6 1026.15,-258.8 727.22,-258.8"/>
<text text-anchor="start" x="734.22" y="-271" font-family="Arial" font-size="14.00">comment_id </text>
<text text-anchor="start" x="814.36" y="-271" font-family="Arial" font-size="14.00" fill="#666666">[uuid]</text>
<polygon fill="none" stroke="black" points="727.22,-228 727.22,-258.8 1026.15,-258.8 1026.15,-228 727.22,-228"/>
<text text-anchor="start" x="734.22" y="-240.2" font-family="Arial" font-size="14.00">recipe_id </text>
<text text-anchor="start" x="794.92" y="-240.2" font-family="Arial" font-size="14.00" fill="#666666">[uuid]</text>
<polygon fill="none" stroke="black" points="727.22,-197.2 727.22,-228 1026.15,-228 1026.15,-197.2 727.22,-197.2"/>
<text text-anchor="start" x="734.22" y="-209.4" font-family="Arial" font-size="14.00">user_id </text>
<text text-anchor="start" x="784.03" y="-209.4" font-family="Arial" font-size="14.00" fill="#666666">[uuid]</text>
<polygon fill="none" stroke="black" points="727.22,-166.4 727.22,-197.2 1026.15,-197.2 1026.15,-166.4 727.22,-166.4"/>
<text text-anchor="start" x="734.22" y="-178.6" font-family="Arial" font-size="14.00">content </text>
<text text-anchor="start" x="784.03" y="-178.6" font-family="Arial" font-size="14.00" fill="#666666">[text]</text>
<polygon fill="none" stroke="black" points="727.22,-135.6 727.22,-166.4 1026.15,-166.4 1026.15,-135.6 727.22,-135.6"/>
<text text-anchor="start" x="734.22" y="-147.8" font-family="Arial" font-size="14.00">created_at </text>
<text text-anchor="start" x="804.27" y="-147.8" font-family="Arial" font-size="14.00" fill="#666666">[timestamp with time zone]</text>
<polygon fill="none" stroke="black" points="727.22,-104.8 727.22,-135.6 1026.15,-135.6 1026.15,-104.8 727.22,-104.8"/>
<text text-anchor="start" x="734.22" y="-117" font-family="Arial" font-size="14.00">parent_comment_id </text>
<text text-anchor="start" x="861.85" y="-117" font-family="Arial" font-size="14.00" fill="#666666">[uuid]</text>
</g>
<!-- api.notifications&#45;&gt;api.recipes_comments -->
<g id="edge3" class="edge">
<title>api.notifications:comment_id&#45;&gt;api.recipes_comments:comment_id</title>
<path fill="none" stroke="black" d="M465.54,-558.28C570.44,-555.82 605.79,-515.11 674.69,-430 720.57,-373.31 653.29,-274.2 726.22,-274.2"/>
<polygon fill="black" stroke="black" points="465.5,-558.28 455.45,-553.9 460.17,-558.34 455.84,-558.39 455.84,-558.39 455.84,-558.39 460.17,-558.34 455.55,-562.9 465.5,-558.28"/>
</g>
</g>
</svg>
