<?xml version="1.0" encoding="UTF-8" standalone="no"?>
<!DOCTYPE svg PUBLIC "-//W3C//DTD SVG 1.1//EN"
 "http://www.w3.org/Graphics/SVG/1.1/DTD/svg11.dtd">
<!-- Generated by graphviz version 12.1.2 (20240928.0832)
 -->
<!-- Title: api.recipes_tags Pages: 1 -->
<svg width="642pt" height="664pt"
 viewBox="0.00 0.00 642.27 663.60" xmlns="http://www.w3.org/2000/svg" xmlns:xlink="http://www.w3.org/1999/xlink">
<g id="graph0" class="graph" transform="scale(1 1) rotate(0) translate(4 659.6)">
<title>api.recipes_tags</title>
<polygon fill="white" stroke="none" points="-4,4 -4,-659.6 638.27,-659.6 638.27,4 -4,4"/>
<!-- api.recipes_tags -->
<g id="node1" class="node">
<title>api.recipes_tags</title>
<polygon fill="#efefef" stroke="none" points="204.11,-573.8 204.11,-609.4 458.06,-609.4 458.06,-573.8 204.11,-573.8"/>
<polygon fill="none" stroke="black" points="204.11,-573.8 204.11,-609.4 458.06,-609.4 458.06,-573.8 204.11,-573.8"/>
<text text-anchor="start" x="211.11" y="-587.2" font-family="Arial Bold" font-size="18.00">api.recipes_tags</text>
<text text-anchor="start" x="326.57" y="-587.2" font-family="Arial" font-size="14.00">    </text>
<text text-anchor="start" x="357.68" y="-587.2" font-family="Arial" font-size="14.00" fill="#666666">[BASE TABLE]</text>
<polygon fill="none" stroke="black" points="204.11,-543 204.11,-573.8 458.06,-573.8 458.06,-543 204.11,-543"/>
<text text-anchor="start" x="211.11" y="-555.2" font-family="Arial" font-size="14.00">recipe_id </text>
<text text-anchor="start" x="271.82" y="-555.2" font-family="Arial" font-size="14.00" fill="#666666">[uuid]</text>
<polygon fill="none" stroke="black" points="204.11,-512.2 204.11,-543 458.06,-543 458.06,-512.2 204.11,-512.2"/>
<text text-anchor="start" x="211.11" y="-524.4" font-family="Arial" font-size="14.00">tag_id </text>
<text text-anchor="start" x="253.15" y="-524.4" font-family="Arial" font-size="14.00" fill="#666666">[uuid]</text>
<polygon fill="none" stroke="black" stroke-width="3" points="202.61,-510.7 202.61,-610.9 459.56,-610.9 459.56,-510.7 202.61,-510.7"/>
</g>
<!-- api.recipes -->
<g id="node2" class="node">
<title>api.recipes</title>
<polygon fill="#efefef" stroke="none" points="43.2,-351.2 43.2,-386.8 292.97,-386.8 292.97,-351.2 43.2,-351.2"/>
<polygon fill="none" stroke="black" points="43.2,-351.2 43.2,-386.8 292.97,-386.8 292.97,-351.2 43.2,-351.2"/>
<text text-anchor="start" x="67.11" y="-364.6" font-family="Arial Bold" font-size="18.00">api.recipes</text>
<text text-anchor="start" x="144.57" y="-364.6" font-family="Arial" font-size="14.00">    </text>
<text text-anchor="start" x="175.69" y="-364.6" font-family="Arial" font-size="14.00" fill="#666666">[BASE TABLE]</text>
<polygon fill="none" stroke="black" points="43.2,-320.4 43.2,-351.2 292.97,-351.2 292.97,-320.4 43.2,-320.4"/>
<text text-anchor="start" x="50.2" y="-332.6" font-family="Arial" font-size="14.00">recipe_id </text>
<text text-anchor="start" x="110.9" y="-332.6" font-family="Arial" font-size="14.00" fill="#666666">[uuid]</text>
<polygon fill="none" stroke="black" points="43.2,-289.6 43.2,-320.4 292.97,-320.4 292.97,-289.6 43.2,-289.6"/>
<text text-anchor="start" x="50.2" y="-301.8" font-family="Arial" font-size="14.00">user_id </text>
<text text-anchor="start" x="100.01" y="-301.8" font-family="Arial" font-size="14.00" fill="#666666">[uuid]</text>
<polygon fill="none" stroke="black" points="43.2,-258.8 43.2,-289.6 292.97,-289.6 292.97,-258.8 43.2,-258.8"/>
<text text-anchor="start" x="50.2" y="-271" font-family="Arial" font-size="14.00">title </text>
<text text-anchor="start" x="75.88" y="-271" font-family="Arial" font-size="14.00" fill="#666666">[varchar(255)]</text>
<polygon fill="none" stroke="black" points="43.2,-228 43.2,-258.8 292.97,-258.8 292.97,-228 43.2,-228"/>
<text text-anchor="start" x="50.2" y="-240.2" font-family="Arial" font-size="14.00">description </text>
<text text-anchor="start" x="121.79" y="-240.2" font-family="Arial" font-size="14.00" fill="#666666">[text]</text>
<polygon fill="none" stroke="black" points="43.2,-197.2 43.2,-228 292.97,-228 292.97,-197.2 43.2,-197.2"/>
<text text-anchor="start" x="50.2" y="-209.4" font-family="Arial" font-size="14.00">difficulty </text>
<text text-anchor="start" x="104.66" y="-209.4" font-family="Arial" font-size="14.00" fill="#666666">[api.difficulty_level]</text>
<polygon fill="none" stroke="black" points="43.2,-166.4 43.2,-197.2 292.97,-197.2 292.97,-166.4 43.2,-166.4"/>
<text text-anchor="start" x="50.2" y="-178.6" font-family="Arial" font-size="14.00">serving </text>
<text text-anchor="start" x="99.22" y="-178.6" font-family="Arial" font-size="14.00" fill="#666666">[integer]</text>
<polygon fill="none" stroke="black" points="43.2,-135.6 43.2,-166.4 292.97,-166.4 292.97,-135.6 43.2,-135.6"/>
<text text-anchor="start" x="50.2" y="-147.8" font-family="Arial" font-size="14.00">prep_mins </text>
<text text-anchor="start" x="119.45" y="-147.8" font-family="Arial" font-size="14.00" fill="#666666">[integer]</text>
<polygon fill="none" stroke="black" points="43.2,-104.8 43.2,-135.6 292.97,-135.6 292.97,-104.8 43.2,-104.8"/>
<text text-anchor="start" x="50.2" y="-117" font-family="Arial" font-size="14.00">cook_mins </text>
<text text-anchor="start" x="121.01" y="-117" font-family="Arial" font-size="14.00" fill="#666666">[integer]</text>
<polygon fill="none" stroke="black" points="43.2,-74 43.2,-104.8 292.97,-104.8 292.97,-74 43.2,-74"/>
<text text-anchor="start" x="50.2" y="-86.2" font-family="Arial" font-size="14.00">created_at </text>
<text text-anchor="start" x="120.25" y="-86.2" font-family="Arial" font-size="14.00" fill="#666666">[timestamp with time zone]</text>
<polygon fill="none" stroke="black" points="43.2,-43.2 43.2,-74 292.97,-74 292.97,-43.2 43.2,-43.2"/>
<text text-anchor="start" x="50.2" y="-55.4" font-family="Arial" font-size="14.00">thumbnail_image_hash </text>
<text text-anchor="start" x="198.85" y="-55.4" font-family="Arial" font-size="14.00" fill="#666666">[text]</text>
</g>
<!-- api.recipes_tags&#45;&gt;api.recipes -->
<g id="edge1" class="edge">
<title>api.recipes_tags:recipe_id&#45;&gt;api.recipes:recipe_id</title>
<path fill="none" stroke="black" d="M193.1,-556.93C165.63,-547.65 183.15,-496.75 204.11,-466 228.12,-430.79 268.97,-465.21 292.97,-430 316.55,-395.4 335.84,-335.8 293.97,-335.8"/>
<polygon fill="black" stroke="black" points="192.89,-556.9 202.13,-562.8 198.17,-557.67 202.45,-558.3 202.45,-558.3 202.45,-558.3 198.17,-557.67 203.44,-553.9 192.89,-556.9"/>
</g>
<!-- api.tags -->
<g id="node3" class="node">
<title>api.tags</title>
<polygon fill="#efefef" stroke="none" points="397.1,-228 397.1,-263.6 591.07,-263.6 591.07,-228 397.1,-228"/>
<polygon fill="none" stroke="black" points="397.1,-228 397.1,-263.6 591.07,-263.6 591.07,-228 397.1,-228"/>
<text text-anchor="start" x="404.1" y="-241.4" font-family="Arial Bold" font-size="18.00">api.tags</text>
<text text-anchor="start" x="459.58" y="-241.4" font-family="Arial" font-size="14.00">    </text>
<text text-anchor="start" x="490.7" y="-241.4" font-family="Arial" font-size="14.00" fill="#666666">[BASE TABLE]</text>
<polygon fill="none" stroke="black" points="397.1,-197.2 397.1,-228 591.07,-228 591.07,-197.2 397.1,-197.2"/>
<text text-anchor="start" x="404.1" y="-209.4" font-family="Arial" font-size="14.00">tag_id </text>
<text text-anchor="start" x="446.13" y="-209.4" font-family="Arial" font-size="14.00" fill="#666666">[uuid]</text>
<polygon fill="none" stroke="black" points="397.1,-166.4 397.1,-197.2 591.07,-197.2 591.07,-166.4 397.1,-166.4"/>
<text text-anchor="start" x="404.1" y="-178.6" font-family="Arial" font-size="14.00">name </text>
<text text-anchor="start" x="443.01" y="-178.6" font-family="Arial" font-size="14.00" fill="#666666">[varchar(255)]</text>
</g>
<!-- api.recipes_tags&#45;&gt;api.tags -->
<g id="edge2" class="edge">
<title>api.recipes_tags:tag_id&#45;&gt;api.tags:tag_id</title>
<path fill="none" stroke="black" d="M469.34,-526.95C583.79,-511.21 257.09,-212.6 396.1,-212.6"/>
<polygon fill="black" stroke="black" points="469.37,-526.95 459.11,-523.09 464.05,-527.29 459.72,-527.56 459.72,-527.56 459.72,-527.56 464.05,-527.29 459.67,-532.07 469.37,-526.95"/>
</g>
</g>
</svg>
