<?xml version="1.0" encoding="UTF-8" standalone="no"?>
<!DOCTYPE svg PUBLIC "-//W3C//DTD SVG 1.1//EN"
 "http://www.w3.org/Graphics/SVG/1.1/DTD/svg11.dtd">
<!-- Generated by graphviz version 12.1.2 (20240928.0832)
 -->
<!-- Title: api.users_recipe_votes Pages: 1 -->
<svg width="640pt" height="633pt"
 viewBox="0.00 0.00 639.86 632.80" xmlns="http://www.w3.org/2000/svg" xmlns:xlink="http://www.w3.org/1999/xlink">
<g id="graph0" class="graph" transform="scale(1 1) rotate(0) translate(4 628.8)">
<title>api.users_recipe_votes</title>
<polygon fill="white" stroke="none" points="-4,4 -4,-628.8 635.86,-628.8 635.86,4 -4,4"/>
<!-- api.users_recipe_votes -->
<g id="node1" class="node">
<title>api.users_recipe_votes</title>
<polygon fill="#efefef" stroke="none" points="166.72,-543 166.72,-578.6 468.65,-578.6 468.65,-543 166.72,-543"/>
<polygon fill="none" stroke="black" points="166.72,-543 166.72,-578.6 468.65,-578.6 468.65,-543 166.72,-543"/>
<text text-anchor="start" x="173.72" y="-556.4" font-family="Arial Bold" font-size="18.00">api.users_recipe_votes</text>
<text text-anchor="start" x="337.16" y="-556.4" font-family="Arial" font-size="14.00">    </text>
<text text-anchor="start" x="368.28" y="-556.4" font-family="Arial" font-size="14.00" fill="#666666">[BASE TABLE]</text>
<polygon fill="none" stroke="black" points="166.72,-512.2 166.72,-543 468.65,-543 468.65,-512.2 166.72,-512.2"/>
<text text-anchor="start" x="173.72" y="-524.4" font-family="Arial" font-size="14.00">user_id </text>
<text text-anchor="start" x="223.53" y="-524.4" font-family="Arial" font-size="14.00" fill="#666666">[uuid]</text>
<polygon fill="none" stroke="black" points="166.72,-481.4 166.72,-512.2 468.65,-512.2 468.65,-481.4 166.72,-481.4"/>
<text text-anchor="start" x="173.72" y="-493.6" font-family="Arial" font-size="14.00">recipe_id </text>
<text text-anchor="start" x="234.42" y="-493.6" font-family="Arial" font-size="14.00" fill="#666666">[uuid]</text>
<polygon fill="none" stroke="black" points="166.72,-450.6 166.72,-481.4 468.65,-481.4 468.65,-450.6 166.72,-450.6"/>
<text text-anchor="start" x="173.72" y="-462.8" font-family="Arial" font-size="14.00">upvote </text>
<text text-anchor="start" x="219.65" y="-462.8" font-family="Arial" font-size="14.00" fill="#666666">[boolean]</text>
<polygon fill="none" stroke="black" stroke-width="3" points="165.22,-449.1 165.22,-580.1 470.15,-580.1 470.15,-449.1 165.22,-449.1"/>
</g>
<!-- public.users -->
<g id="node2" class="node">
<title>public.users</title>
<polygon fill="#efefef" stroke="none" points="43.2,-289.6 43.2,-325.2 268.17,-325.2 268.17,-289.6 43.2,-289.6"/>
<polygon fill="none" stroke="black" points="43.2,-289.6 43.2,-325.2 268.17,-325.2 268.17,-289.6 43.2,-289.6"/>
<text text-anchor="start" x="50.2" y="-303" font-family="Arial Bold" font-size="18.00">public.users</text>
<text text-anchor="start" x="136.68" y="-303" font-family="Arial" font-size="14.00">    </text>
<text text-anchor="start" x="167.8" y="-303" font-family="Arial" font-size="14.00" fill="#666666">[BASE TABLE]</text>
<polygon fill="none" stroke="black" points="43.2,-258.8 43.2,-289.6 268.17,-289.6 268.17,-258.8 43.2,-258.8"/>
<text text-anchor="start" x="50.2" y="-271" font-family="Arial" font-size="14.00">user_id </text>
<text text-anchor="start" x="100.01" y="-271" font-family="Arial" font-size="14.00" fill="#666666">[uuid]</text>
<polygon fill="none" stroke="black" points="43.2,-228 43.2,-258.8 268.17,-258.8 268.17,-228 43.2,-228"/>
<text text-anchor="start" x="50.2" y="-240.2" font-family="Arial" font-size="14.00">email </text>
<text text-anchor="start" x="87.54" y="-240.2" font-family="Arial" font-size="14.00" fill="#666666">[varchar(320)]</text>
<polygon fill="none" stroke="black" points="43.2,-197.2 43.2,-228 268.17,-228 268.17,-197.2 43.2,-197.2"/>
<text text-anchor="start" x="50.2" y="-209.4" font-family="Arial" font-size="14.00">first_name </text>
<text text-anchor="start" x="119.45" y="-209.4" font-family="Arial" font-size="14.00" fill="#666666">[varchar(255)]</text>
<polygon fill="none" stroke="black" points="43.2,-166.4 43.2,-197.2 268.17,-197.2 268.17,-166.4 43.2,-166.4"/>
<text text-anchor="start" x="50.2" y="-178.6" font-family="Arial" font-size="14.00">last_name </text>
<text text-anchor="start" x="118.68" y="-178.6" font-family="Arial" font-size="14.00" fill="#666666">[varchar(255)]</text>
<polygon fill="none" stroke="black" points="43.2,-135.6 43.2,-166.4 268.17,-166.4 268.17,-135.6 43.2,-135.6"/>
<text text-anchor="start" x="50.2" y="-147.8" font-family="Arial" font-size="14.00">password_hash </text>
<text text-anchor="start" x="152.15" y="-147.8" font-family="Arial" font-size="14.00" fill="#666666">[text]</text>
<polygon fill="none" stroke="black" points="43.2,-104.8 43.2,-135.6 268.17,-135.6 268.17,-104.8 43.2,-104.8"/>
<text text-anchor="start" x="50.2" y="-117" font-family="Arial" font-size="14.00">middle_name </text>
<text text-anchor="start" x="138.14" y="-117" font-family="Arial" font-size="14.00" fill="#666666">[varchar(255)]</text>
<polygon fill="none" stroke="black" points="43.2,-74 43.2,-104.8 268.17,-104.8 268.17,-74 43.2,-74"/>
<text text-anchor="start" x="50.2" y="-86.2" font-family="Arial" font-size="14.00">is_admin </text>
<text text-anchor="start" x="110.12" y="-86.2" font-family="Arial" font-size="14.00" fill="#666666">[boolean]</text>
<polygon fill="none" stroke="black" points="43.2,-43.2 43.2,-74 268.17,-74 268.17,-43.2 43.2,-43.2"/>
<text text-anchor="start" x="50.2" y="-55.4" font-family="Arial" font-size="14.00">profile_picture_hash </text>
<text text-anchor="start" x="180.17" y="-55.4" font-family="Arial" font-size="14.00" fill="#666666">[text]</text>
</g>
<!-- api.users_recipe_votes&#45;&gt;public.users -->
<g id="edge1" class="edge">
<title>api.users_recipe_votes:user_id&#45;&gt;public.users:user_id</title>
<path fill="none" stroke="black" d="M155.57,-526.53C114.28,-517.01 137.12,-445.95 166.72,-404.4 194.48,-365.43 240.37,-407.33 268.17,-368.4 292.51,-334.33 311.04,-274.2 269.17,-274.2"/>
<polygon fill="black" stroke="black" points="155.44,-526.52 164.92,-532.04 160.75,-527.08 165.06,-527.53 165.06,-527.53 165.06,-527.53 160.75,-527.08 165.86,-523.09 155.44,-526.52"/>
</g>
<!-- api.recipes -->
<g id="node3" class="node">
<title>api.recipes</title>
<polygon fill="#efefef" stroke="none" points="372.71,-258.8 372.71,-294.4 588.66,-294.4 588.66,-258.8 372.71,-258.8"/>
<polygon fill="none" stroke="black" points="372.71,-258.8 372.71,-294.4 588.66,-294.4 588.66,-258.8 372.71,-258.8"/>
<text text-anchor="start" x="379.71" y="-272.2" font-family="Arial Bold" font-size="18.00">api.recipes</text>
<text text-anchor="start" x="457.17" y="-272.2" font-family="Arial" font-size="14.00">    </text>
<text text-anchor="start" x="488.29" y="-272.2" font-family="Arial" font-size="14.00" fill="#666666">[BASE TABLE]</text>
<polygon fill="none" stroke="black" points="372.71,-228 372.71,-258.8 588.66,-258.8 588.66,-228 372.71,-228"/>
<text text-anchor="start" x="379.71" y="-240.2" font-family="Arial" font-size="14.00">recipe_id </text>
<text text-anchor="start" x="440.42" y="-240.2" font-family="Arial" font-size="14.00" fill="#666666">[uuid]</text>
<polygon fill="none" stroke="black" points="372.71,-197.2 372.71,-228 588.66,-228 588.66,-197.2 372.71,-197.2"/>
<text text-anchor="start" x="379.71" y="-209.4" font-family="Arial" font-size="14.00">user_id </text>
<text text-anchor="start" x="429.52" y="-209.4" font-family="Arial" font-size="14.00" fill="#666666">[uuid]</text>
<polygon fill="none" stroke="black" points="372.71,-166.4 372.71,-197.2 588.66,-197.2 588.66,-166.4 372.71,-166.4"/>
<text text-anchor="start" x="379.71" y="-178.6" font-family="Arial" font-size="14.00">title </text>
<text text-anchor="start" x="405.39" y="-178.6" font-family="Arial" font-size="14.00" fill="#666666">[varchar(255)]</text>
<polygon fill="none" stroke="black" points="372.71,-135.6 372.71,-166.4 588.66,-166.4 588.66,-135.6 372.71,-135.6"/>
<text text-anchor="start" x="379.71" y="-147.8" font-family="Arial" font-size="14.00">content </text>
<text text-anchor="start" x="429.53" y="-147.8" font-family="Arial" font-size="14.00" fill="#666666">[text]</text>
<polygon fill="none" stroke="black" points="372.71,-104.8 372.71,-135.6 588.66,-135.6 588.66,-104.8 372.71,-104.8"/>
<text text-anchor="start" x="379.71" y="-117" font-family="Arial" font-size="14.00">difficulty </text>
<text text-anchor="start" x="434.18" y="-117" font-family="Arial" font-size="14.00" fill="#666666">[api.difficulty_level]</text>
<polygon fill="none" stroke="black" points="372.71,-74 372.71,-104.8 588.66,-104.8 588.66,-74 372.71,-74"/>
<text text-anchor="start" x="379.71" y="-86.2" font-family="Arial" font-size="14.00">thumbnail_image_hash </text>
<text text-anchor="start" x="528.37" y="-86.2" font-family="Arial" font-size="14.00" fill="#666666">[text]</text>
</g>
<!-- api.users_recipe_votes&#45;&gt;api.recipes -->
<g id="edge2" class="edge">
<title>api.users_recipe_votes:recipe_id&#45;&gt;api.recipes:recipe_id</title>
<path fill="none" stroke="black" d="M479.92,-495.27C506.29,-486.03 485.98,-437.16 468.65,-404.4 444.35,-358.48 397.01,-383.53 372.71,-337.6 353.13,-300.59 329.84,-243.4 371.71,-243.4"/>
<polygon fill="black" stroke="black" points="479.87,-495.27 469.32,-492.3 474.6,-496.06 470.31,-496.7 470.31,-496.7 470.31,-496.7 474.6,-496.06 470.65,-501.2 479.87,-495.27"/>
</g>
</g>
</svg>
