<?xml version="1.0" encoding="UTF-8" standalone="no"?>
<!DOCTYPE svg PUBLIC "-//W3C//DTD SVG 1.1//EN"
 "http://www.w3.org/Graphics/SVG/1.1/DTD/svg11.dtd">
<!-- Generated by graphviz version 12.1.2 (20240928.0832)
 -->
<!-- Title: api.users_follows Pages: 1 -->
<svg width="386pt" height="602pt"
 viewBox="0.00 0.00 385.87 602.00" xmlns="http://www.w3.org/2000/svg" xmlns:xlink="http://www.w3.org/1999/xlink">
<g id="graph0" class="graph" transform="scale(1 1) rotate(0) translate(4 598)">
<title>api.users_follows</title>
<polygon fill="white" stroke="none" points="-4,4 -4,-598 381.87,-598 381.87,4 -4,4"/>
<!-- api.users_follows -->
<g id="node1" class="node">
<title>api.users_follows</title>
<polygon fill="#efefef" stroke="none" points="46.2,-512.2 46.2,-547.8 311.17,-547.8 311.17,-512.2 46.2,-512.2"/>
<polygon fill="none" stroke="black" points="46.2,-512.2 46.2,-547.8 311.17,-547.8 311.17,-512.2 46.2,-512.2"/>
<text text-anchor="start" x="53.2" y="-525.6" font-family="Arial Bold" font-size="18.00">api.users_follows</text>
<text text-anchor="start" x="179.68" y="-525.6" font-family="Arial" font-size="14.00">    </text>
<text text-anchor="start" x="210.8" y="-525.6" font-family="Arial" font-size="14.00" fill="#666666">[BASE TABLE]</text>
<polygon fill="none" stroke="black" points="46.2,-481.4 46.2,-512.2 311.17,-512.2 311.17,-481.4 46.2,-481.4"/>
<text text-anchor="start" x="53.2" y="-493.6" font-family="Arial" font-size="14.00">user_id </text>
<text text-anchor="start" x="103.01" y="-493.6" font-family="Arial" font-size="14.00" fill="#666666">[uuid]</text>
<polygon fill="none" stroke="black" points="46.2,-450.6 46.2,-481.4 311.17,-481.4 311.17,-450.6 46.2,-450.6"/>
<text text-anchor="start" x="53.2" y="-462.8" font-family="Arial" font-size="14.00">followed_user_id </text>
<text text-anchor="start" x="162.16" y="-462.8" font-family="Arial" font-size="14.00" fill="#666666">[uuid]</text>
<polygon fill="none" stroke="black" stroke-width="3" points="44.7,-449.1 44.7,-549.3 312.67,-549.3 312.67,-449.1 44.7,-449.1"/>
</g>
<!-- public.users -->
<g id="node2" class="node">
<title>public.users</title>
<polygon fill="#efefef" stroke="none" points="66.2,-289.6 66.2,-325.2 291.17,-325.2 291.17,-289.6 66.2,-289.6"/>
<polygon fill="none" stroke="black" points="66.2,-289.6 66.2,-325.2 291.17,-325.2 291.17,-289.6 66.2,-289.6"/>
<text text-anchor="start" x="73.2" y="-303" font-family="Arial Bold" font-size="18.00">public.users</text>
<text text-anchor="start" x="159.68" y="-303" font-family="Arial" font-size="14.00">    </text>
<text text-anchor="start" x="190.8" y="-303" font-family="Arial" font-size="14.00" fill="#666666">[BASE TABLE]</text>
<polygon fill="none" stroke="black" points="66.2,-258.8 66.2,-289.6 291.17,-289.6 291.17,-258.8 66.2,-258.8"/>
<text text-anchor="start" x="73.2" y="-271" font-family="Arial" font-size="14.00">user_id </text>
<text text-anchor="start" x="123.01" y="-271" font-family="Arial" font-size="14.00" fill="#666666">[uuid]</text>
<polygon fill="none" stroke="black" points="66.2,-228 66.2,-258.8 291.17,-258.8 291.17,-228 66.2,-228"/>
<text text-anchor="start" x="73.2" y="-240.2" font-family="Arial" font-size="14.00">email </text>
<text text-anchor="start" x="110.54" y="-240.2" font-family="Arial" font-size="14.00" fill="#666666">[varchar(320)]</text>
<polygon fill="none" stroke="black" points="66.2,-197.2 66.2,-228 291.17,-228 291.17,-197.2 66.2,-197.2"/>
<text text-anchor="start" x="73.2" y="-209.4" font-family="Arial" font-size="14.00">first_name </text>
<text text-anchor="start" x="142.45" y="-209.4" font-family="Arial" font-size="14.00" fill="#666666">[varchar(255)]</text>
<polygon fill="none" stroke="black" points="66.2,-166.4 66.2,-197.2 291.17,-197.2 291.17,-166.4 66.2,-166.4"/>
<text text-anchor="start" x="73.2" y="-178.6" font-family="Arial" font-size="14.00">last_name </text>
<text text-anchor="start" x="141.68" y="-178.6" font-family="Arial" font-size="14.00" fill="#666666">[varchar(255)]</text>
<polygon fill="none" stroke="black" points="66.2,-135.6 66.2,-166.4 291.17,-166.4 291.17,-135.6 66.2,-135.6"/>
<text text-anchor="start" x="73.2" y="-147.8" font-family="Arial" font-size="14.00">password_hash </text>
<text text-anchor="start" x="175.15" y="-147.8" font-family="Arial" font-size="14.00" fill="#666666">[text]</text>
<polygon fill="none" stroke="black" points="66.2,-104.8 66.2,-135.6 291.17,-135.6 291.17,-104.8 66.2,-104.8"/>
<text text-anchor="start" x="73.2" y="-117" font-family="Arial" font-size="14.00">middle_name </text>
<text text-anchor="start" x="161.14" y="-117" font-family="Arial" font-size="14.00" fill="#666666">[varchar(255)]</text>
<polygon fill="none" stroke="black" points="66.2,-74 66.2,-104.8 291.17,-104.8 291.17,-74 66.2,-74"/>
<text text-anchor="start" x="73.2" y="-86.2" font-family="Arial" font-size="14.00">is_admin </text>
<text text-anchor="start" x="133.12" y="-86.2" font-family="Arial" font-size="14.00" fill="#666666">[boolean]</text>
<polygon fill="none" stroke="black" points="66.2,-43.2 66.2,-74 291.17,-74 291.17,-43.2 66.2,-43.2"/>
<text text-anchor="start" x="73.2" y="-55.4" font-family="Arial" font-size="14.00">profile_picture_hash </text>
<text text-anchor="start" x="203.17" y="-55.4" font-family="Arial" font-size="14.00" fill="#666666">[text]</text>
</g>
<!-- api.users_follows&#45;&gt;public.users -->
<g id="edge1" class="edge">
<title>api.users_follows:user_id&#45;&gt;public.users:user_id</title>
<path fill="none" stroke="black" d="M322.47,-495.95C409.96,-481 387.92,-274.2 292.17,-274.2"/>
<polygon fill="black" stroke="black" points="322.47,-495.95 312.14,-492.29 317.16,-496.39 312.84,-496.74 312.84,-496.74 312.84,-496.74 317.16,-496.39 312.88,-501.26 322.47,-495.95"/>
</g>
<!-- api.users_follows&#45;&gt;public.users -->
<g id="edge2" class="edge">
<title>api.users_follows:followed_user_id&#45;&gt;public.users:user_id</title>
<path fill="none" stroke="black" d="M179.58,-439.42C188.67,-391.87 264.52,-419.83 291.17,-368.4 310.44,-331.23 334.04,-274.2 292.17,-274.2"/>
<polygon fill="black" stroke="black" points="179.59,-439.31 174.23,-448.87 179.12,-444.62 178.74,-448.93 178.74,-448.93 178.74,-448.93 179.12,-444.62 183.2,-449.66 179.59,-439.31"/>
</g>
</g>
</svg>
