<?xml version="1.0" encoding="UTF-8" standalone="no"?>
<!DOCTYPE svg PUBLIC "-//W3C//DTD SVG 1.1//EN"
 "http://www.w3.org/Graphics/SVG/1.1/DTD/svg11.dtd">
<!-- Generated by graphviz version 12.1.2 (20240928.0832)
 -->
<!-- Title: api.recipes_comments Pages: 1 -->
<svg width="800pt" height="1160pt"
 viewBox="0.00 0.00 799.85 1160.40" xmlns="http://www.w3.org/2000/svg" xmlns:xlink="http://www.w3.org/1999/xlink">
<g id="graph0" class="graph" transform="scale(1 1) rotate(0) translate(4 1156.4)">
<title>api.recipes_comments</title>
<polygon fill="white" stroke="none" points="-4,4 -4,-1156.4 795.85,-1156.4 795.85,4 -4,4"/>
<!-- api.recipes_comments -->
<g id="node1" class="node">
<title>api.recipes_comments</title>
<polygon fill="#efefef" stroke="none" points="223.21,-697 223.21,-732.6 522.15,-732.6 522.15,-697 223.21,-697"/>
<polygon fill="none" stroke="black" points="223.21,-697 223.21,-732.6 522.15,-732.6 522.15,-697 223.21,-697"/>
<text text-anchor="start" x="230.21" y="-710.4" font-family="Arial Bold" font-size="18.00">api.recipes_comments</text>
<text text-anchor="start" x="390.66" y="-710.4" font-family="Arial" font-size="14.00">    </text>
<text text-anchor="start" x="421.78" y="-710.4" font-family="Arial" font-size="14.00" fill="#666666">[BASE TABLE]</text>
<polygon fill="none" stroke="black" points="223.21,-666.2 223.21,-697 522.15,-697 522.15,-666.2 223.21,-666.2"/>
<text text-anchor="start" x="230.21" y="-678.4" font-family="Arial" font-size="14.00">comment_id </text>
<text text-anchor="start" x="310.36" y="-678.4" font-family="Arial" font-size="14.00" fill="#666666">[uuid]</text>
<polygon fill="none" stroke="black" points="223.21,-635.4 223.21,-666.2 522.15,-666.2 522.15,-635.4 223.21,-635.4"/>
<text text-anchor="start" x="230.21" y="-647.6" font-family="Arial" font-size="14.00">recipe_id </text>
<text text-anchor="start" x="290.92" y="-647.6" font-family="Arial" font-size="14.00" fill="#666666">[uuid]</text>
<polygon fill="none" stroke="black" points="223.21,-604.6 223.21,-635.4 522.15,-635.4 522.15,-604.6 223.21,-604.6"/>
<text text-anchor="start" x="230.21" y="-616.8" font-family="Arial" font-size="14.00">user_id </text>
<text text-anchor="start" x="280.02" y="-616.8" font-family="Arial" font-size="14.00" fill="#666666">[uuid]</text>
<polygon fill="none" stroke="black" points="223.21,-573.8 223.21,-604.6 522.15,-604.6 522.15,-573.8 223.21,-573.8"/>
<text text-anchor="start" x="230.21" y="-586" font-family="Arial" font-size="14.00">content </text>
<text text-anchor="start" x="280.03" y="-586" font-family="Arial" font-size="14.00" fill="#666666">[text]</text>
<polygon fill="none" stroke="black" points="223.21,-543 223.21,-573.8 522.15,-573.8 522.15,-543 223.21,-543"/>
<text text-anchor="start" x="230.21" y="-555.2" font-family="Arial" font-size="14.00">created_at </text>
<text text-anchor="start" x="300.26" y="-555.2" font-family="Arial" font-size="14.00" fill="#666666">[timestamp with time zone]</text>
<polygon fill="none" stroke="black" points="223.21,-512.2 223.21,-543 522.15,-543 522.15,-512.2 223.21,-512.2"/>
<text text-anchor="start" x="230.21" y="-524.4" font-family="Arial" font-size="14.00">parent_comment_id </text>
<text text-anchor="start" x="357.84" y="-524.4" font-family="Arial" font-size="14.00" fill="#666666">[uuid]</text>
<polygon fill="none" stroke="black" stroke-width="3" points="221.71,-510.7 221.71,-734.1 523.65,-734.1 523.65,-510.7 221.71,-510.7"/>
</g>
<!-- api.recipes_comments&#45;&gt;api.recipes_comments -->
<g id="edge1" class="edge">
<title>api.recipes_comments:parent_comment_id&#45;&gt;api.recipes_comments:comment_id</title>
<path fill="none" stroke="black" d="M374.37,-552.91C381.64,-681.46 381.08,-959.4 372.68,-959.4 364.08,-959.4 363.7,-808.16 371.55,-696.7"/>
<polygon fill="black" stroke="black" points="374.39,-553.12 378.28,-542.87 374.07,-547.8 373.81,-543.48 373.81,-543.48 373.81,-543.48 374.07,-547.8 369.3,-543.41 374.39,-553.12"/>
</g>
<!-- api.recipes -->
<g id="node4" class="node">
<title>api.recipes</title>
<polygon fill="#efefef" stroke="none" points="76.8,-351.2 76.8,-386.8 326.57,-386.8 326.57,-351.2 76.8,-351.2"/>
<polygon fill="none" stroke="black" points="76.8,-351.2 76.8,-386.8 326.57,-386.8 326.57,-351.2 76.8,-351.2"/>
<text text-anchor="start" x="100.71" y="-364.6" font-family="Arial Bold" font-size="18.00">api.recipes</text>
<text text-anchor="start" x="178.17" y="-364.6" font-family="Arial" font-size="14.00">    </text>
<text text-anchor="start" x="209.28" y="-364.6" font-family="Arial" font-size="14.00" fill="#666666">[BASE TABLE]</text>
<polygon fill="none" stroke="black" points="76.8,-320.4 76.8,-351.2 326.57,-351.2 326.57,-320.4 76.8,-320.4"/>
<text text-anchor="start" x="83.8" y="-332.6" font-family="Arial" font-size="14.00">recipe_id </text>
<text text-anchor="start" x="144.5" y="-332.6" font-family="Arial" font-size="14.00" fill="#666666">[uuid]</text>
<polygon fill="none" stroke="black" points="76.8,-289.6 76.8,-320.4 326.57,-320.4 326.57,-289.6 76.8,-289.6"/>
<text text-anchor="start" x="83.8" y="-301.8" font-family="Arial" font-size="14.00">user_id </text>
<text text-anchor="start" x="133.6" y="-301.8" font-family="Arial" font-size="14.00" fill="#666666">[uuid]</text>
<polygon fill="none" stroke="black" points="76.8,-258.8 76.8,-289.6 326.57,-289.6 326.57,-258.8 76.8,-258.8"/>
<text text-anchor="start" x="83.8" y="-271" font-family="Arial" font-size="14.00">title </text>
<text text-anchor="start" x="109.47" y="-271" font-family="Arial" font-size="14.00" fill="#666666">[varchar(255)]</text>
<polygon fill="none" stroke="black" points="76.8,-228 76.8,-258.8 326.57,-258.8 326.57,-228 76.8,-228"/>
<text text-anchor="start" x="83.8" y="-240.2" font-family="Arial" font-size="14.00">description </text>
<text text-anchor="start" x="155.39" y="-240.2" font-family="Arial" font-size="14.00" fill="#666666">[text]</text>
<polygon fill="none" stroke="black" points="76.8,-197.2 76.8,-228 326.57,-228 326.57,-197.2 76.8,-197.2"/>
<text text-anchor="start" x="83.8" y="-209.4" font-family="Arial" font-size="14.00">difficulty </text>
<text text-anchor="start" x="138.26" y="-209.4" font-family="Arial" font-size="14.00" fill="#666666">[api.difficulty_level]</text>
<polygon fill="none" stroke="black" points="76.8,-166.4 76.8,-197.2 326.57,-197.2 326.57,-166.4 76.8,-166.4"/>
<text text-anchor="start" x="83.8" y="-178.6" font-family="Arial" font-size="14.00">serving </text>
<text text-anchor="start" x="132.82" y="-178.6" font-family="Arial" font-size="14.00" fill="#666666">[integer]</text>
<polygon fill="none" stroke="black" points="76.8,-135.6 76.8,-166.4 326.57,-166.4 326.57,-135.6 76.8,-135.6"/>
<text text-anchor="start" x="83.8" y="-147.8" font-family="Arial" font-size="14.00">prep_mins </text>
<text text-anchor="start" x="153.05" y="-147.8" font-family="Arial" font-size="14.00" fill="#666666">[integer]</text>
<polygon fill="none" stroke="black" points="76.8,-104.8 76.8,-135.6 326.57,-135.6 326.57,-104.8 76.8,-104.8"/>
<text text-anchor="start" x="83.8" y="-117" font-family="Arial" font-size="14.00">cook_mins </text>
<text text-anchor="start" x="154.6" y="-117" font-family="Arial" font-size="14.00" fill="#666666">[integer]</text>
<polygon fill="none" stroke="black" points="76.8,-74 76.8,-104.8 326.57,-104.8 326.57,-74 76.8,-74"/>
<text text-anchor="start" x="83.8" y="-86.2" font-family="Arial" font-size="14.00">created_at </text>
<text text-anchor="start" x="153.84" y="-86.2" font-family="Arial" font-size="14.00" fill="#666666">[timestamp with time zone]</text>
<polygon fill="none" stroke="black" points="76.8,-43.2 76.8,-74 326.57,-74 326.57,-43.2 76.8,-43.2"/>
<text text-anchor="start" x="83.8" y="-55.4" font-family="Arial" font-size="14.00">thumbnail_image_hash </text>
<text text-anchor="start" x="232.45" y="-55.4" font-family="Arial" font-size="14.00" fill="#666666">[text]</text>
</g>
<!-- api.recipes_comments&#45;&gt;api.recipes -->
<g id="edge4" class="edge">
<title>api.recipes_comments:recipe_id&#45;&gt;api.recipes:recipe_id</title>
<path fill="none" stroke="black" d="M211.85,-650.1C143.28,-640.3 177.6,-529.82 223.21,-466 251.5,-426.43 298.18,-469.5 326.57,-430 351,-396 369.44,-335.8 327.57,-335.8"/>
<polygon fill="black" stroke="black" points="211.9,-650.1 221.58,-655.27 217.23,-650.46 221.55,-650.75 221.55,-650.75 221.55,-650.75 217.23,-650.46 222.18,-646.29 211.9,-650.1"/>
</g>
<!-- public.users -->
<g id="node5" class="node">
<title>public.users</title>
<polygon fill="#efefef" stroke="none" points="431.19,-320.4 431.19,-356 656.17,-356 656.17,-320.4 431.19,-320.4"/>
<polygon fill="none" stroke="black" points="431.19,-320.4 431.19,-356 656.17,-356 656.17,-320.4 431.19,-320.4"/>
<text text-anchor="start" x="438.19" y="-333.8" font-family="Arial Bold" font-size="18.00">public.users</text>
<text text-anchor="start" x="524.68" y="-333.8" font-family="Arial" font-size="14.00">    </text>
<text text-anchor="start" x="555.8" y="-333.8" font-family="Arial" font-size="14.00" fill="#666666">[BASE TABLE]</text>
<polygon fill="none" stroke="black" points="431.19,-289.6 431.19,-320.4 656.17,-320.4 656.17,-289.6 431.19,-289.6"/>
<text text-anchor="start" x="438.19" y="-301.8" font-family="Arial" font-size="14.00">user_id </text>
<text text-anchor="start" x="488" y="-301.8" font-family="Arial" font-size="14.00" fill="#666666">[uuid]</text>
<polygon fill="none" stroke="black" points="431.19,-258.8 431.19,-289.6 656.17,-289.6 656.17,-258.8 431.19,-258.8"/>
<text text-anchor="start" x="438.19" y="-271" font-family="Arial" font-size="14.00">email </text>
<text text-anchor="start" x="475.54" y="-271" font-family="Arial" font-size="14.00" fill="#666666">[varchar(320)]</text>
<polygon fill="none" stroke="black" points="431.19,-228 431.19,-258.8 656.17,-258.8 656.17,-228 431.19,-228"/>
<text text-anchor="start" x="438.19" y="-240.2" font-family="Arial" font-size="14.00">first_name </text>
<text text-anchor="start" x="507.44" y="-240.2" font-family="Arial" font-size="14.00" fill="#666666">[varchar(255)]</text>
<polygon fill="none" stroke="black" points="431.19,-197.2 431.19,-228 656.17,-228 656.17,-197.2 431.19,-197.2"/>
<text text-anchor="start" x="438.19" y="-209.4" font-family="Arial" font-size="14.00">last_name </text>
<text text-anchor="start" x="506.68" y="-209.4" font-family="Arial" font-size="14.00" fill="#666666">[varchar(255)]</text>
<polygon fill="none" stroke="black" points="431.19,-166.4 431.19,-197.2 656.17,-197.2 656.17,-166.4 431.19,-166.4"/>
<text text-anchor="start" x="438.19" y="-178.6" font-family="Arial" font-size="14.00">password_hash </text>
<text text-anchor="start" x="540.15" y="-178.6" font-family="Arial" font-size="14.00" fill="#666666">[text]</text>
<polygon fill="none" stroke="black" points="431.19,-135.6 431.19,-166.4 656.17,-166.4 656.17,-135.6 431.19,-135.6"/>
<text text-anchor="start" x="438.19" y="-147.8" font-family="Arial" font-size="14.00">middle_name </text>
<text text-anchor="start" x="526.13" y="-147.8" font-family="Arial" font-size="14.00" fill="#666666">[varchar(255)]</text>
<polygon fill="none" stroke="black" points="431.19,-104.8 431.19,-135.6 656.17,-135.6 656.17,-104.8 431.19,-104.8"/>
<text text-anchor="start" x="438.19" y="-117" font-family="Arial" font-size="14.00">is_admin </text>
<text text-anchor="start" x="498.11" y="-117" font-family="Arial" font-size="14.00" fill="#666666">[boolean]</text>
<polygon fill="none" stroke="black" points="431.19,-74 431.19,-104.8 656.17,-104.8 656.17,-74 431.19,-74"/>
<text text-anchor="start" x="438.19" y="-86.2" font-family="Arial" font-size="14.00">profile_picture_hash </text>
<text text-anchor="start" x="568.17" y="-86.2" font-family="Arial" font-size="14.00" fill="#666666">[text]</text>
</g>
<!-- api.recipes_comments&#45;&gt;public.users -->
<g id="edge5" class="edge">
<title>api.recipes_comments:user_id&#45;&gt;public.users:user_id</title>
<path fill="none" stroke="black" d="M533.44,-619.19C587.42,-609.92 551.56,-523.63 522.15,-466 499.35,-421.33 454.09,-443.83 431.19,-399.2 412.08,-361.95 388.33,-305 430.19,-305"/>
<polygon fill="black" stroke="black" points="533.45,-619.18 523.13,-615.49 528.13,-619.61 523.81,-619.95 523.81,-619.95 523.81,-619.95 528.13,-619.61 523.84,-624.46 533.45,-619.18"/>
</g>
<!-- api.notifications -->
<g id="node2" class="node">
<title>api.notifications</title>
<polygon fill="#efefef" stroke="none" points="43.2,-1073.6 43.2,-1109.2 298.16,-1109.2 298.16,-1073.6 43.2,-1073.6"/>
<polygon fill="none" stroke="black" points="43.2,-1073.6 43.2,-1109.2 298.16,-1109.2 298.16,-1073.6 43.2,-1073.6"/>
<text text-anchor="start" x="50.2" y="-1087" font-family="Arial Bold" font-size="18.00">api.notifications</text>
<text text-anchor="start" x="166.67" y="-1087" font-family="Arial" font-size="14.00">    </text>
<text text-anchor="start" x="197.79" y="-1087" font-family="Arial" font-size="14.00" fill="#666666">[BASE TABLE]</text>
<polygon fill="none" stroke="black" points="43.2,-1042.8 43.2,-1073.6 298.16,-1073.6 298.16,-1042.8 43.2,-1042.8"/>
<text text-anchor="start" x="50.2" y="-1055" font-family="Arial" font-size="14.00">notification_id </text>
<text text-anchor="start" x="139.7" y="-1055" font-family="Arial" font-size="14.00" fill="#666666">[uuid]</text>
<polygon fill="none" stroke="black" points="43.2,-1012 43.2,-1042.8 298.16,-1042.8 298.16,-1012 43.2,-1012"/>
<text text-anchor="start" x="50.2" y="-1024.2" font-family="Arial" font-size="14.00">user_id </text>
<text text-anchor="start" x="100.01" y="-1024.2" font-family="Arial" font-size="14.00" fill="#666666">[uuid]</text>
<polygon fill="none" stroke="black" points="43.2,-981.2 43.2,-1012 298.16,-1012 298.16,-981.2 43.2,-981.2"/>
<text text-anchor="start" x="50.2" y="-993.4" font-family="Arial" font-size="14.00">type </text>
<text text-anchor="start" x="80.55" y="-993.4" font-family="Arial" font-size="14.00" fill="#666666">[api.notification_type]</text>
<polygon fill="none" stroke="black" points="43.2,-950.4 43.2,-981.2 298.16,-981.2 298.16,-950.4 43.2,-950.4"/>
<text text-anchor="start" x="50.2" y="-962.6" font-family="Arial" font-size="14.00">created_at </text>
<text text-anchor="start" x="120.25" y="-962.6" font-family="Arial" font-size="14.00" fill="#666666">[timestamp with time zone]</text>
<polygon fill="none" stroke="black" points="43.2,-919.6 43.2,-950.4 298.16,-950.4 298.16,-919.6 43.2,-919.6"/>
<text text-anchor="start" x="50.2" y="-931.8" font-family="Arial" font-size="14.00">recipe_id </text>
<text text-anchor="start" x="110.9" y="-931.8" font-family="Arial" font-size="14.00" fill="#666666">[uuid]</text>
<polygon fill="none" stroke="black" points="43.2,-888.8 43.2,-919.6 298.16,-919.6 298.16,-888.8 43.2,-888.8"/>
<text text-anchor="start" x="50.2" y="-901" font-family="Arial" font-size="14.00">comment_id </text>
<text text-anchor="start" x="130.34" y="-901" font-family="Arial" font-size="14.00" fill="#666666">[uuid]</text>
<polygon fill="none" stroke="black" points="43.2,-858 43.2,-888.8 298.16,-888.8 298.16,-858 43.2,-858"/>
<text text-anchor="start" x="50.2" y="-870.2" font-family="Arial" font-size="14.00">actor_user_id </text>
<text text-anchor="start" x="138.92" y="-870.2" font-family="Arial" font-size="14.00" fill="#666666">[uuid]</text>
</g>
<!-- api.notifications&#45;&gt;api.recipes_comments -->
<g id="edge2" class="edge">
<title>api.notifications:comment_id&#45;&gt;api.recipes_comments:comment_id</title>
<path fill="none" stroke="black" d="M309.16,-902.67C335.09,-893.5 317.42,-845.04 298.16,-814.8 278.31,-783.63 243.05,-809.98 223.21,-778.8 200.02,-742.35 179.01,-681.6 222.21,-681.6"/>
<polygon fill="black" stroke="black" points="309.38,-902.64 298.81,-899.7 304.1,-903.45 299.82,-904.1 299.82,-904.1 299.82,-904.1 304.1,-903.45 300.17,-908.6 309.38,-902.64"/>
</g>
<!-- api.recipes_comments_votes -->
<g id="node3" class="node">
<title>api.recipes_comments_votes</title>
<polygon fill="#efefef" stroke="none" points="402.72,-1012 402.72,-1047.6 748.65,-1047.6 748.65,-1012 402.72,-1012"/>
<polygon fill="none" stroke="black" points="402.72,-1012 402.72,-1047.6 748.65,-1047.6 748.65,-1012 402.72,-1012"/>
<text text-anchor="start" x="409.72" y="-1025.4" font-family="Arial Bold" font-size="18.00">api.recipes_comments_votes</text>
<text text-anchor="start" x="617.16" y="-1025.4" font-family="Arial" font-size="14.00">    </text>
<text text-anchor="start" x="648.27" y="-1025.4" font-family="Arial" font-size="14.00" fill="#666666">[BASE TABLE]</text>
<polygon fill="none" stroke="black" points="402.72,-981.2 402.72,-1012 748.65,-1012 748.65,-981.2 402.72,-981.2"/>
<text text-anchor="start" x="409.72" y="-993.4" font-family="Arial" font-size="14.00">user_id </text>
<text text-anchor="start" x="459.52" y="-993.4" font-family="Arial" font-size="14.00" fill="#666666">[uuid]</text>
<polygon fill="none" stroke="black" points="402.72,-950.4 402.72,-981.2 748.65,-981.2 748.65,-950.4 402.72,-950.4"/>
<text text-anchor="start" x="409.72" y="-962.6" font-family="Arial" font-size="14.00">comment_id </text>
<text text-anchor="start" x="489.86" y="-962.6" font-family="Arial" font-size="14.00" fill="#666666">[uuid]</text>
<polygon fill="none" stroke="black" points="402.72,-919.6 402.72,-950.4 748.65,-950.4 748.65,-919.6 402.72,-919.6"/>
<text text-anchor="start" x="409.72" y="-931.8" font-family="Arial" font-size="14.00">upvote </text>
<text text-anchor="start" x="455.64" y="-931.8" font-family="Arial" font-size="14.00" fill="#666666">[boolean]</text>
</g>
<!-- api.recipes_comments_votes&#45;&gt;api.recipes_comments -->
<g id="edge3" class="edge">
<title>api.recipes_comments_votes:comment_id&#45;&gt;api.recipes_comments:comment_id</title>
<path fill="none" stroke="black" d="M391.49,-964.22C366.69,-955.1 387.24,-908.57 402.72,-876.4 432.44,-814.63 492.46,-840.59 522.15,-778.8 540.86,-739.86 566.35,-681.6 523.15,-681.6"/>
<polygon fill="black" stroke="black" points="391.5,-964.22 400.7,-970.2 396.78,-965.03 401.06,-965.7 401.06,-965.7 401.06,-965.7 396.78,-965.03 402.07,-961.3 391.5,-964.22"/>
</g>
</g>
</svg>
