<?xml version="1.0" encoding="UTF-8" standalone="no"?>
<!DOCTYPE svg PUBLIC "-//W3C//DTD SVG 1.1//EN"
 "http://www.w3.org/Graphics/SVG/1.1/DTD/svg11.dtd">
<!-- Generated by graphviz version 12.1.2 (20240928.0832)
 -->
<!-- Title: api.recipes_comments_votes Pages: 1 -->
<svg width="722pt" height="633pt"
 viewBox="0.00 0.00 722.35 632.80" xmlns="http://www.w3.org/2000/svg" xmlns:xlink="http://www.w3.org/1999/xlink">
<g id="graph0" class="graph" transform="scale(1 1) rotate(0) translate(4 628.8)">
<title>api.recipes_comments_votes</title>
<polygon fill="white" stroke="none" points="-4,4 -4,-628.8 718.35,-628.8 718.35,4 -4,4"/>
<!-- api.recipes_comments_votes -->
<g id="node1" class="node">
<title>api.recipes_comments_votes</title>
<polygon fill="#efefef" stroke="none" points="165.72,-543 165.72,-578.6 511.65,-578.6 511.65,-543 165.72,-543"/>
<polygon fill="none" stroke="black" points="165.72,-543 165.72,-578.6 511.65,-578.6 511.65,-543 165.72,-543"/>
<text text-anchor="start" x="172.72" y="-556.4" font-family="Arial Bold" font-size="18.00">api.recipes_comments_votes</text>
<text text-anchor="start" x="380.16" y="-556.4" font-family="Arial" font-size="14.00">    </text>
<text text-anchor="start" x="411.28" y="-556.4" font-family="Arial" font-size="14.00" fill="#666666">[BASE TABLE]</text>
<polygon fill="none" stroke="black" points="165.72,-512.2 165.72,-543 511.65,-543 511.65,-512.2 165.72,-512.2"/>
<text text-anchor="start" x="172.72" y="-524.4" font-family="Arial" font-size="14.00">user_id </text>
<text text-anchor="start" x="222.53" y="-524.4" font-family="Arial" font-size="14.00" fill="#666666">[uuid]</text>
<polygon fill="none" stroke="black" points="165.72,-481.4 165.72,-512.2 511.65,-512.2 511.65,-481.4 165.72,-481.4"/>
<text text-anchor="start" x="172.72" y="-493.6" font-family="Arial" font-size="14.00">comment_id </text>
<text text-anchor="start" x="252.87" y="-493.6" font-family="Arial" font-size="14.00" fill="#666666">[uuid]</text>
<polygon fill="none" stroke="black" points="165.72,-450.6 165.72,-481.4 511.65,-481.4 511.65,-450.6 165.72,-450.6"/>
<text text-anchor="start" x="172.72" y="-462.8" font-family="Arial" font-size="14.00">upvote </text>
<text text-anchor="start" x="218.65" y="-462.8" font-family="Arial" font-size="14.00" fill="#666666">[boolean]</text>
<polygon fill="none" stroke="black" stroke-width="3" points="164.22,-449.1 164.22,-580.1 513.15,-580.1 513.15,-449.1 164.22,-449.1"/>
</g>
<!-- public.users -->
<g id="node2" class="node">
<title>public.users</title>
<polygon fill="#efefef" stroke="none" points="43.2,-289.6 43.2,-325.2 268.17,-325.2 268.17,-289.6 43.2,-289.6"/>
<polygon fill="none" stroke="black" points="43.2,-289.6 43.2,-325.2 268.17,-325.2 268.17,-289.6 43.2,-289.6"/>
<text text-anchor="start" x="50.2" y="-303" font-family="Arial Bold" font-size="18.00">public.users</text>
<text text-anchor="start" x="136.68" y="-303" font-family="Arial" font-size="14.00">    </text>
<text text-anchor="start" x="167.8" y="-303" font-family="Arial" font-size="14.00" fill="#666666">[BASE TABLE]</text>
<polygon fill="none" stroke="black" points="43.2,-258.8 43.2,-289.6 268.17,-289.6 268.17,-258.8 43.2,-258.8"/>
<text text-anchor="start" x="50.2" y="-271" font-family="Arial" font-size="14.00">user_id </text>
<text text-anchor="start" x="100.01" y="-271" font-family="Arial" font-size="14.00" fill="#666666">[uuid]</text>
<polygon fill="none" stroke="black" points="43.2,-228 43.2,-258.8 268.17,-258.8 268.17,-228 43.2,-228"/>
<text text-anchor="start" x="50.2" y="-240.2" font-family="Arial" font-size="14.00">email </text>
<text text-anchor="start" x="87.54" y="-240.2" font-family="Arial" font-size="14.00" fill="#666666">[varchar(320)]</text>
<polygon fill="none" stroke="black" points="43.2,-197.2 43.2,-228 268.17,-228 268.17,-197.2 43.2,-197.2"/>
<text text-anchor="start" x="50.2" y="-209.4" font-family="Arial" font-size="14.00">first_name </text>
<text text-anchor="start" x="119.45" y="-209.4" font-family="Arial" font-size="14.00" fill="#666666">[varchar(255)]</text>
<polygon fill="none" stroke="black" points="43.2,-166.4 43.2,-197.2 268.17,-197.2 268.17,-166.4 43.2,-166.4"/>
<text text-anchor="start" x="50.2" y="-178.6" font-family="Arial" font-size="14.00">last_name </text>
<text text-anchor="start" x="118.68" y="-178.6" font-family="Arial" font-size="14.00" fill="#666666">[varchar(255)]</text>
<polygon fill="none" stroke="black" points="43.2,-135.6 43.2,-166.4 268.17,-166.4 268.17,-135.6 43.2,-135.6"/>
<text text-anchor="start" x="50.2" y="-147.8" font-family="Arial" font-size="14.00">password_hash </text>
<text text-anchor="start" x="152.15" y="-147.8" font-family="Arial" font-size="14.00" fill="#666666">[text]</text>
<polygon fill="none" stroke="black" points="43.2,-104.8 43.2,-135.6 268.17,-135.6 268.17,-104.8 43.2,-104.8"/>
<text text-anchor="start" x="50.2" y="-117" font-family="Arial" font-size="14.00">middle_name </text>
<text text-anchor="start" x="138.14" y="-117" font-family="Arial" font-size="14.00" fill="#666666">[varchar(255)]</text>
<polygon fill="none" stroke="black" points="43.2,-74 43.2,-104.8 268.17,-104.8 268.17,-74 43.2,-74"/>
<text text-anchor="start" x="50.2" y="-86.2" font-family="Arial" font-size="14.00">is_admin </text>
<text text-anchor="start" x="110.12" y="-86.2" font-family="Arial" font-size="14.00" fill="#666666">[boolean]</text>
<polygon fill="none" stroke="black" points="43.2,-43.2 43.2,-74 268.17,-74 268.17,-43.2 43.2,-43.2"/>
<text text-anchor="start" x="50.2" y="-55.4" font-family="Arial" font-size="14.00">profile_picture_hash </text>
<text text-anchor="start" x="180.17" y="-55.4" font-family="Arial" font-size="14.00" fill="#666666">[text]</text>
</g>
<!-- api.recipes_comments_votes&#45;&gt;public.users -->
<g id="edge1" class="edge">
<title>api.recipes_comments_votes:user_id&#45;&gt;public.users:user_id</title>
<path fill="none" stroke="black" d="M154.57,-526.53C113.27,-517.01 136.06,-445.9 165.72,-404.4 193.78,-365.13 240.06,-407.63 268.17,-368.4 292.56,-334.37 311.04,-274.2 269.17,-274.2"/>
<polygon fill="black" stroke="black" points="154.44,-526.52 163.92,-532.04 159.75,-527.08 164.06,-527.53 164.06,-527.53 164.06,-527.53 159.75,-527.08 164.86,-523.09 154.44,-526.52"/>
</g>
<!-- api.recipes_comments -->
<g id="node3" class="node">
<title>api.recipes_comments</title>
<polygon fill="#efefef" stroke="none" points="372.22,-258.8 372.22,-294.4 671.15,-294.4 671.15,-258.8 372.22,-258.8"/>
<polygon fill="none" stroke="black" points="372.22,-258.8 372.22,-294.4 671.15,-294.4 671.15,-258.8 372.22,-258.8"/>
<text text-anchor="start" x="379.22" y="-272.2" font-family="Arial Bold" font-size="18.00">api.recipes_comments</text>
<text text-anchor="start" x="539.66" y="-272.2" font-family="Arial" font-size="14.00">    </text>
<text text-anchor="start" x="570.78" y="-272.2" font-family="Arial" font-size="14.00" fill="#666666">[BASE TABLE]</text>
<polygon fill="none" stroke="black" points="372.22,-228 372.22,-258.8 671.15,-258.8 671.15,-228 372.22,-228"/>
<text text-anchor="start" x="379.22" y="-240.2" font-family="Arial" font-size="14.00">comment_id </text>
<text text-anchor="start" x="459.36" y="-240.2" font-family="Arial" font-size="14.00" fill="#666666">[uuid]</text>
<polygon fill="none" stroke="black" points="372.22,-197.2 372.22,-228 671.15,-228 671.15,-197.2 372.22,-197.2"/>
<text text-anchor="start" x="379.22" y="-209.4" font-family="Arial" font-size="14.00">recipe_id </text>
<text text-anchor="start" x="439.92" y="-209.4" font-family="Arial" font-size="14.00" fill="#666666">[uuid]</text>
<polygon fill="none" stroke="black" points="372.22,-166.4 372.22,-197.2 671.15,-197.2 671.15,-166.4 372.22,-166.4"/>
<text text-anchor="start" x="379.22" y="-178.6" font-family="Arial" font-size="14.00">user_id </text>
<text text-anchor="start" x="429.03" y="-178.6" font-family="Arial" font-size="14.00" fill="#666666">[uuid]</text>
<polygon fill="none" stroke="black" points="372.22,-135.6 372.22,-166.4 671.15,-166.4 671.15,-135.6 372.22,-135.6"/>
<text text-anchor="start" x="379.22" y="-147.8" font-family="Arial" font-size="14.00">content </text>
<text text-anchor="start" x="429.03" y="-147.8" font-family="Arial" font-size="14.00" fill="#666666">[text]</text>
<polygon fill="none" stroke="black" points="372.22,-104.8 372.22,-135.6 671.15,-135.6 671.15,-104.8 372.22,-104.8"/>
<text text-anchor="start" x="379.22" y="-117" font-family="Arial" font-size="14.00">created_at </text>
<text text-anchor="start" x="449.27" y="-117" font-family="Arial" font-size="14.00" fill="#666666">[timestamp with time zone]</text>
<polygon fill="none" stroke="black" points="372.22,-74 372.22,-104.8 671.15,-104.8 671.15,-74 372.22,-74"/>
<text text-anchor="start" x="379.22" y="-86.2" font-family="Arial" font-size="14.00">parent_comment_id </text>
<text text-anchor="start" x="506.85" y="-86.2" font-family="Arial" font-size="14.00" fill="#666666">[uuid]</text>
</g>
<!-- api.recipes_comments_votes&#45;&gt;api.recipes_comments -->
<g id="edge2" class="edge">
<title>api.recipes_comments_votes:comment_id&#45;&gt;api.recipes_comments:comment_id</title>
<path fill="none" stroke="black" d="M522.64,-495.34C549.95,-486.17 531.65,-435.79 511.65,-404.4 474.72,-346.45 409.14,-395.55 372.22,-337.6 349.72,-302.29 329.35,-243.4 371.22,-243.4"/>
<polygon fill="black" stroke="black" points="522.88,-495.31 512.33,-492.3 517.6,-496.08 513.31,-496.7 513.31,-496.7 513.31,-496.7 517.6,-496.08 513.63,-501.2 522.88,-495.31"/>
</g>
</g>
</svg>
