<?xml version="1.0" encoding="UTF-8" standalone="no"?>
<!DOCTYPE svg PUBLIC "-//W3C//DTD SVG 1.1//EN"
 "http://www.w3.org/Graphics/SVG/1.1/DTD/svg11.dtd">
<!-- Generated by graphviz version 12.1.2 (20240928.0832)
 -->
<!-- Title: public.images Pages: 1 -->
<svg width="674pt" height="664pt"
 viewBox="0.00 0.00 673.77 663.60" xmlns="http://www.w3.org/2000/svg" xmlns:xlink="http://www.w3.org/1999/xlink">
<g id="graph0" class="graph" transform="scale(1 1) rotate(0) translate(4 659.6)">
<title>public.images</title>
<polygon fill="white" stroke="none" points="-4,4 -4,-659.6 669.77,-659.6 669.77,4 -4,4"/>
<!-- public.images -->
<g id="node1" class="node">
<title>public.images</title>
<polygon fill="#efefef" stroke="none" points="207.2,-107.8 207.2,-143.4 446.17,-143.4 446.17,-107.8 207.2,-107.8"/>
<polygon fill="none" stroke="black" points="207.2,-107.8 207.2,-143.4 446.17,-143.4 446.17,-107.8 207.2,-107.8"/>
<text text-anchor="start" x="214.2" y="-121.2" font-family="Arial Bold" font-size="18.00">public.images</text>
<text text-anchor="start" x="314.68" y="-121.2" font-family="Arial" font-size="14.00">    </text>
<text text-anchor="start" x="345.8" y="-121.2" font-family="Arial" font-size="14.00" fill="#666666">[BASE TABLE]</text>
<polygon fill="none" stroke="black" points="207.2,-77 207.2,-107.8 446.17,-107.8 446.17,-77 207.2,-77"/>
<text text-anchor="start" x="214.2" y="-89.2" font-family="Arial" font-size="14.00">hash </text>
<text text-anchor="start" x="248.45" y="-89.2" font-family="Arial" font-size="14.00" fill="#666666">[text]</text>
<polygon fill="none" stroke="black" points="207.2,-46.2 207.2,-77 446.17,-77 446.17,-46.2 207.2,-46.2"/>
<text text-anchor="start" x="214.2" y="-58.4" font-family="Arial" font-size="14.00">data </text>
<text text-anchor="start" x="245.34" y="-58.4" font-family="Arial" font-size="14.00" fill="#666666">[bytea]</text>
<polygon fill="none" stroke="black" stroke-width="3" points="205.7,-44.7 205.7,-144.9 447.67,-144.9 447.67,-44.7 205.7,-44.7"/>
</g>
<!-- public.users -->
<g id="node2" class="node">
<title>public.users</title>
<polygon fill="#efefef" stroke="none" points="43.2,-546 43.2,-581.6 268.17,-581.6 268.17,-546 43.2,-546"/>
<polygon fill="none" stroke="black" points="43.2,-546 43.2,-581.6 268.17,-581.6 268.17,-546 43.2,-546"/>
<text text-anchor="start" x="50.2" y="-559.4" font-family="Arial Bold" font-size="18.00">public.users</text>
<text text-anchor="start" x="136.68" y="-559.4" font-family="Arial" font-size="14.00">    </text>
<text text-anchor="start" x="167.8" y="-559.4" font-family="Arial" font-size="14.00" fill="#666666">[BASE TABLE]</text>
<polygon fill="none" stroke="black" points="43.2,-515.2 43.2,-546 268.17,-546 268.17,-515.2 43.2,-515.2"/>
<text text-anchor="start" x="50.2" y="-527.4" font-family="Arial" font-size="14.00">user_id </text>
<text text-anchor="start" x="100.01" y="-527.4" font-family="Arial" font-size="14.00" fill="#666666">[uuid]</text>
<polygon fill="none" stroke="black" points="43.2,-484.4 43.2,-515.2 268.17,-515.2 268.17,-484.4 43.2,-484.4"/>
<text text-anchor="start" x="50.2" y="-496.6" font-family="Arial" font-size="14.00">email </text>
<text text-anchor="start" x="87.54" y="-496.6" font-family="Arial" font-size="14.00" fill="#666666">[varchar(320)]</text>
<polygon fill="none" stroke="black" points="43.2,-453.6 43.2,-484.4 268.17,-484.4 268.17,-453.6 43.2,-453.6"/>
<text text-anchor="start" x="50.2" y="-465.8" font-family="Arial" font-size="14.00">first_name </text>
<text text-anchor="start" x="119.45" y="-465.8" font-family="Arial" font-size="14.00" fill="#666666">[varchar(255)]</text>
<polygon fill="none" stroke="black" points="43.2,-422.8 43.2,-453.6 268.17,-453.6 268.17,-422.8 43.2,-422.8"/>
<text text-anchor="start" x="50.2" y="-435" font-family="Arial" font-size="14.00">last_name </text>
<text text-anchor="start" x="118.68" y="-435" font-family="Arial" font-size="14.00" fill="#666666">[varchar(255)]</text>
<polygon fill="none" stroke="black" points="43.2,-392 43.2,-422.8 268.17,-422.8 268.17,-392 43.2,-392"/>
<text text-anchor="start" x="50.2" y="-404.2" font-family="Arial" font-size="14.00">password_hash </text>
<text text-anchor="start" x="152.15" y="-404.2" font-family="Arial" font-size="14.00" fill="#666666">[text]</text>
<polygon fill="none" stroke="black" points="43.2,-361.2 43.2,-392 268.17,-392 268.17,-361.2 43.2,-361.2"/>
<text text-anchor="start" x="50.2" y="-373.4" font-family="Arial" font-size="14.00">middle_name </text>
<text text-anchor="start" x="138.14" y="-373.4" font-family="Arial" font-size="14.00" fill="#666666">[varchar(255)]</text>
<polygon fill="none" stroke="black" points="43.2,-330.4 43.2,-361.2 268.17,-361.2 268.17,-330.4 43.2,-330.4"/>
<text text-anchor="start" x="50.2" y="-342.6" font-family="Arial" font-size="14.00">is_admin </text>
<text text-anchor="start" x="110.12" y="-342.6" font-family="Arial" font-size="14.00" fill="#666666">[boolean]</text>
<polygon fill="none" stroke="black" points="43.2,-299.6 43.2,-330.4 268.17,-330.4 268.17,-299.6 43.2,-299.6"/>
<text text-anchor="start" x="50.2" y="-311.8" font-family="Arial" font-size="14.00">profile_picture_hash </text>
<text text-anchor="start" x="180.17" y="-311.8" font-family="Arial" font-size="14.00" fill="#666666">[text]</text>
</g>
<!-- public.users&#45;&gt;public.images -->
<g id="edge1" class="edge">
<title>public.users:profile_picture_hash&#45;&gt;public.images:hash</title>
<path fill="none" stroke="black" d="M279.01,-312.18C289.46,-303.48 276.14,-276.44 268.17,-256.4 253.32,-219.05 221.93,-227 207.2,-189.6 191.38,-149.4 163,-92.4 206.2,-92.4"/>
<polygon fill="black" stroke="black" points="279.11,-312.15 268.25,-310.58 273.98,-313.62 269.82,-314.82 269.82,-314.82 269.82,-314.82 273.98,-313.62 270.74,-319.23 279.11,-312.15"/>
</g>
<!-- api.recipes -->
<g id="node3" class="node">
<title>api.recipes</title>
<polygon fill="#efefef" stroke="none" points="372.8,-576.8 372.8,-612.4 622.57,-612.4 622.57,-576.8 372.8,-576.8"/>
<polygon fill="none" stroke="black" points="372.8,-576.8 372.8,-612.4 622.57,-612.4 622.57,-576.8 372.8,-576.8"/>
<text text-anchor="start" x="396.71" y="-590.2" font-family="Arial Bold" font-size="18.00">api.recipes</text>
<text text-anchor="start" x="474.17" y="-590.2" font-family="Arial" font-size="14.00">    </text>
<text text-anchor="start" x="505.29" y="-590.2" font-family="Arial" font-size="14.00" fill="#666666">[BASE TABLE]</text>
<polygon fill="none" stroke="black" points="372.8,-546 372.8,-576.8 622.57,-576.8 622.57,-546 372.8,-546"/>
<text text-anchor="start" x="379.8" y="-558.2" font-family="Arial" font-size="14.00">recipe_id </text>
<text text-anchor="start" x="440.5" y="-558.2" font-family="Arial" font-size="14.00" fill="#666666">[uuid]</text>
<polygon fill="none" stroke="black" points="372.8,-515.2 372.8,-546 622.57,-546 622.57,-515.2 372.8,-515.2"/>
<text text-anchor="start" x="379.8" y="-527.4" font-family="Arial" font-size="14.00">user_id </text>
<text text-anchor="start" x="429.61" y="-527.4" font-family="Arial" font-size="14.00" fill="#666666">[uuid]</text>
<polygon fill="none" stroke="black" points="372.8,-484.4 372.8,-515.2 622.57,-515.2 622.57,-484.4 372.8,-484.4"/>
<text text-anchor="start" x="379.8" y="-496.6" font-family="Arial" font-size="14.00">title </text>
<text text-anchor="start" x="405.48" y="-496.6" font-family="Arial" font-size="14.00" fill="#666666">[varchar(255)]</text>
<polygon fill="none" stroke="black" points="372.8,-453.6 372.8,-484.4 622.57,-484.4 622.57,-453.6 372.8,-453.6"/>
<text text-anchor="start" x="379.8" y="-465.8" font-family="Arial" font-size="14.00">description </text>
<text text-anchor="start" x="451.39" y="-465.8" font-family="Arial" font-size="14.00" fill="#666666">[text]</text>
<polygon fill="none" stroke="black" points="372.8,-422.8 372.8,-453.6 622.57,-453.6 622.57,-422.8 372.8,-422.8"/>
<text text-anchor="start" x="379.8" y="-435" font-family="Arial" font-size="14.00">difficulty </text>
<text text-anchor="start" x="434.26" y="-435" font-family="Arial" font-size="14.00" fill="#666666">[api.difficulty_level]</text>
<polygon fill="none" stroke="black" points="372.8,-392 372.8,-422.8 622.57,-422.8 622.57,-392 372.8,-392"/>
<text text-anchor="start" x="379.8" y="-404.2" font-family="Arial" font-size="14.00">serving </text>
<text text-anchor="start" x="428.82" y="-404.2" font-family="Arial" font-size="14.00" fill="#666666">[integer]</text>
<polygon fill="none" stroke="black" points="372.8,-361.2 372.8,-392 622.57,-392 622.57,-361.2 372.8,-361.2"/>
<text text-anchor="start" x="379.8" y="-373.4" font-family="Arial" font-size="14.00">prep_mins </text>
<text text-anchor="start" x="449.06" y="-373.4" font-family="Arial" font-size="14.00" fill="#666666">[integer]</text>
<polygon fill="none" stroke="black" points="372.8,-330.4 372.8,-361.2 622.57,-361.2 622.57,-330.4 372.8,-330.4"/>
<text text-anchor="start" x="379.8" y="-342.6" font-family="Arial" font-size="14.00">cook_mins </text>
<text text-anchor="start" x="450.61" y="-342.6" font-family="Arial" font-size="14.00" fill="#666666">[integer]</text>
<polygon fill="none" stroke="black" points="372.8,-299.6 372.8,-330.4 622.57,-330.4 622.57,-299.6 372.8,-299.6"/>
<text text-anchor="start" x="379.8" y="-311.8" font-family="Arial" font-size="14.00">created_at </text>
<text text-anchor="start" x="449.85" y="-311.8" font-family="Arial" font-size="14.00" fill="#666666">[timestamp with time zone]</text>
<polygon fill="none" stroke="black" points="372.8,-268.8 372.8,-299.6 622.57,-299.6 622.57,-268.8 372.8,-268.8"/>
<text text-anchor="start" x="379.8" y="-281" font-family="Arial" font-size="14.00">thumbnail_image_hash </text>
<text text-anchor="start" x="528.46" y="-281" font-family="Arial" font-size="14.00" fill="#666666">[text]</text>
</g>
<!-- api.recipes&#45;&gt;public.images -->
<g id="edge2" class="edge">
<title>api.recipes:thumbnail_image_hash&#45;&gt;public.images:hash</title>
<path fill="none" stroke="black" d="M361.97,-281.47C350.07,-272.58 361.13,-243.98 372.8,-225.6 392.27,-194.94 426.8,-220.33 446.17,-189.6 469.21,-153.05 490.37,-92.4 447.17,-92.4"/>
<polygon fill="black" stroke="black" points="361.84,-281.43 370.27,-288.45 366.98,-282.86 371.16,-284.02 371.16,-284.02 371.16,-284.02 366.98,-282.86 372.68,-279.77 361.84,-281.43"/>
</g>
</g>
</svg>
