<?xml version="1.0" encoding="UTF-8" standalone="no"?>
<!DOCTYPE svg PUBLIC "-//W3C//DTD SVG 1.1//EN"
 "http://www.w3.org/Graphics/SVG/1.1/DTD/svg11.dtd">
<!-- Generated by graphviz version 12.1.2 (20240928.0832)
 -->
<!-- Title: public.users Pages: 1 -->
<svg width="2679pt" height="1068pt"
 viewBox="0.00 0.00 2678.77 1068.00" xmlns="http://www.w3.org/2000/svg" xmlns:xlink="http://www.w3.org/1999/xlink">
<g id="graph0" class="graph" transform="scale(1 1) rotate(0) translate(4 1064)">
<title>public.users</title>
<polygon fill="white" stroke="none" points="-4,4 -4,-1064 2674.77,-1064 2674.77,4 -4,4"/>
<!-- public.users -->
<g id="node1" class="node">
<title>public.users</title>
<polygon fill="#efefef" stroke="none" points="1200.6,-512.2 1200.6,-547.8 1425.57,-547.8 1425.57,-512.2 1200.6,-512.2"/>
<polygon fill="none" stroke="black" points="1200.6,-512.2 1200.6,-547.8 1425.57,-547.8 1425.57,-512.2 1200.6,-512.2"/>
<text text-anchor="start" x="1207.6" y="-525.6" font-family="Arial Bold" font-size="18.00">public.users</text>
<text text-anchor="start" x="1294.08" y="-525.6" font-family="Arial" font-size="14.00">    </text>
<text text-anchor="start" x="1325.2" y="-525.6" font-family="Arial" font-size="14.00" fill="#666666">[BASE TABLE]</text>
<polygon fill="none" stroke="black" points="1200.6,-481.4 1200.6,-512.2 1425.57,-512.2 1425.57,-481.4 1200.6,-481.4"/>
<text text-anchor="start" x="1207.6" y="-493.6" font-family="Arial" font-size="14.00">user_id </text>
<text text-anchor="start" x="1257.41" y="-493.6" font-family="Arial" font-size="14.00" fill="#666666">[uuid]</text>
<polygon fill="none" stroke="black" points="1200.6,-450.6 1200.6,-481.4 1425.57,-481.4 1425.57,-450.6 1200.6,-450.6"/>
<text text-anchor="start" x="1207.6" y="-462.8" font-family="Arial" font-size="14.00">email </text>
<text text-anchor="start" x="1244.94" y="-462.8" font-family="Arial" font-size="14.00" fill="#666666">[varchar(320)]</text>
<polygon fill="none" stroke="black" points="1200.6,-419.8 1200.6,-450.6 1425.57,-450.6 1425.57,-419.8 1200.6,-419.8"/>
<text text-anchor="start" x="1207.6" y="-432" font-family="Arial" font-size="14.00">first_name </text>
<text text-anchor="start" x="1276.85" y="-432" font-family="Arial" font-size="14.00" fill="#666666">[varchar(255)]</text>
<polygon fill="none" stroke="black" points="1200.6,-389 1200.6,-419.8 1425.57,-419.8 1425.57,-389 1200.6,-389"/>
<text text-anchor="start" x="1207.6" y="-401.2" font-family="Arial" font-size="14.00">last_name </text>
<text text-anchor="start" x="1276.08" y="-401.2" font-family="Arial" font-size="14.00" fill="#666666">[varchar(255)]</text>
<polygon fill="none" stroke="black" points="1200.6,-358.2 1200.6,-389 1425.57,-389 1425.57,-358.2 1200.6,-358.2"/>
<text text-anchor="start" x="1207.6" y="-370.4" font-family="Arial" font-size="14.00">password_hash </text>
<text text-anchor="start" x="1309.55" y="-370.4" font-family="Arial" font-size="14.00" fill="#666666">[text]</text>
<polygon fill="none" stroke="black" points="1200.6,-327.4 1200.6,-358.2 1425.57,-358.2 1425.57,-327.4 1200.6,-327.4"/>
<text text-anchor="start" x="1207.6" y="-339.6" font-family="Arial" font-size="14.00">middle_name </text>
<text text-anchor="start" x="1295.54" y="-339.6" font-family="Arial" font-size="14.00" fill="#666666">[varchar(255)]</text>
<polygon fill="none" stroke="black" points="1200.6,-296.6 1200.6,-327.4 1425.57,-327.4 1425.57,-296.6 1200.6,-296.6"/>
<text text-anchor="start" x="1207.6" y="-308.8" font-family="Arial" font-size="14.00">is_admin </text>
<text text-anchor="start" x="1267.52" y="-308.8" font-family="Arial" font-size="14.00" fill="#666666">[boolean]</text>
<polygon fill="none" stroke="black" points="1200.6,-265.8 1200.6,-296.6 1425.57,-296.6 1425.57,-265.8 1200.6,-265.8"/>
<text text-anchor="start" x="1207.6" y="-278" font-family="Arial" font-size="14.00">profile_picture_hash </text>
<text text-anchor="start" x="1337.57" y="-278" font-family="Arial" font-size="14.00" fill="#666666">[text]</text>
<polygon fill="none" stroke="black" stroke-width="3" points="1199.1,-264.3 1199.1,-549.3 1427.07,-549.3 1427.07,-264.3 1199.1,-264.3"/>
</g>
<!-- public.images -->
<g id="node9" class="node">
<title>public.images</title>
<polygon fill="#efefef" stroke="none" points="1193.6,-104.8 1193.6,-140.4 1432.57,-140.4 1432.57,-104.8 1193.6,-104.8"/>
<polygon fill="none" stroke="black" points="1193.6,-104.8 1193.6,-140.4 1432.57,-140.4 1432.57,-104.8 1193.6,-104.8"/>
<text text-anchor="start" x="1200.6" y="-118.2" font-family="Arial Bold" font-size="18.00">public.images</text>
<text text-anchor="start" x="1301.08" y="-118.2" font-family="Arial" font-size="14.00">    </text>
<text text-anchor="start" x="1332.2" y="-118.2" font-family="Arial" font-size="14.00" fill="#666666">[BASE TABLE]</text>
<polygon fill="none" stroke="black" points="1193.6,-74 1193.6,-104.8 1432.57,-104.8 1432.57,-74 1193.6,-74"/>
<text text-anchor="start" x="1200.6" y="-86.2" font-family="Arial" font-size="14.00">hash </text>
<text text-anchor="start" x="1234.85" y="-86.2" font-family="Arial" font-size="14.00" fill="#666666">[text]</text>
<polygon fill="none" stroke="black" points="1193.6,-43.2 1193.6,-74 1432.57,-74 1432.57,-43.2 1193.6,-43.2"/>
<text text-anchor="start" x="1200.6" y="-55.4" font-family="Arial" font-size="14.00">data </text>
<text text-anchor="start" x="1231.74" y="-55.4" font-family="Arial" font-size="14.00" fill="#666666">[bytea]</text>
</g>
<!-- public.users&#45;&gt;public.images -->
<g id="edge10" class="edge">
<title>public.users:profile_picture_hash&#45;&gt;public.images:hash</title>
<path fill="none" stroke="black" d="M1313.97,-254.54C1323.33,-204.9 1404,-236.87 1432.57,-183.6 1452.36,-146.7 1475.44,-89.4 1433.57,-89.4"/>
<polygon fill="black" stroke="black" points="1313.98,-254.5 1308.63,-264.08 1313.52,-259.82 1313.14,-264.13 1313.14,-264.13 1313.14,-264.13 1313.52,-259.82 1317.6,-264.86 1313.98,-254.5"/>
</g>
<!-- api.recipes -->
<g id="node2" class="node">
<title>api.recipes</title>
<polygon fill="#efefef" stroke="none" points="43.2,-981.2 43.2,-1016.8 292.97,-1016.8 292.97,-981.2 43.2,-981.2"/>
<polygon fill="none" stroke="black" points="43.2,-981.2 43.2,-1016.8 292.97,-1016.8 292.97,-981.2 43.2,-981.2"/>
<text text-anchor="start" x="67.11" y="-994.6" font-family="Arial Bold" font-size="18.00">api.recipes</text>
<text text-anchor="start" x="144.57" y="-994.6" font-family="Arial" font-size="14.00">    </text>
<text text-anchor="start" x="175.69" y="-994.6" font-family="Arial" font-size="14.00" fill="#666666">[BASE TABLE]</text>
<polygon fill="none" stroke="black" points="43.2,-950.4 43.2,-981.2 292.97,-981.2 292.97,-950.4 43.2,-950.4"/>
<text text-anchor="start" x="50.2" y="-962.6" font-family="Arial" font-size="14.00">recipe_id </text>
<text text-anchor="start" x="110.9" y="-962.6" font-family="Arial" font-size="14.00" fill="#666666">[uuid]</text>
<polygon fill="none" stroke="black" points="43.2,-919.6 43.2,-950.4 292.97,-950.4 292.97,-919.6 43.2,-919.6"/>
<text text-anchor="start" x="50.2" y="-931.8" font-family="Arial" font-size="14.00">user_id </text>
<text text-anchor="start" x="100.01" y="-931.8" font-family="Arial" font-size="14.00" fill="#666666">[uuid]</text>
<polygon fill="none" stroke="black" points="43.2,-888.8 43.2,-919.6 292.97,-919.6 292.97,-888.8 43.2,-888.8"/>
<text text-anchor="start" x="50.2" y="-901" font-family="Arial" font-size="14.00">title </text>
<text text-anchor="start" x="75.88" y="-901" font-family="Arial" font-size="14.00" fill="#666666">[varchar(255)]</text>
<polygon fill="none" stroke="black" points="43.2,-858 43.2,-888.8 292.97,-888.8 292.97,-858 43.2,-858"/>
<text text-anchor="start" x="50.2" y="-870.2" font-family="Arial" font-size="14.00">description </text>
<text text-anchor="start" x="121.79" y="-870.2" font-family="Arial" font-size="14.00" fill="#666666">[text]</text>
<polygon fill="none" stroke="black" points="43.2,-827.2 43.2,-858 292.97,-858 292.97,-827.2 43.2,-827.2"/>
<text text-anchor="start" x="50.2" y="-839.4" font-family="Arial" font-size="14.00">difficulty </text>
<text text-anchor="start" x="104.66" y="-839.4" font-family="Arial" font-size="14.00" fill="#666666">[api.difficulty_level]</text>
<polygon fill="none" stroke="black" points="43.2,-796.4 43.2,-827.2 292.97,-827.2 292.97,-796.4 43.2,-796.4"/>
<text text-anchor="start" x="50.2" y="-808.6" font-family="Arial" font-size="14.00">serving </text>
<text text-anchor="start" x="99.22" y="-808.6" font-family="Arial" font-size="14.00" fill="#666666">[integer]</text>
<polygon fill="none" stroke="black" points="43.2,-765.6 43.2,-796.4 292.97,-796.4 292.97,-765.6 43.2,-765.6"/>
<text text-anchor="start" x="50.2" y="-777.8" font-family="Arial" font-size="14.00">prep_mins </text>
<text text-anchor="start" x="119.45" y="-777.8" font-family="Arial" font-size="14.00" fill="#666666">[integer]</text>
<polygon fill="none" stroke="black" points="43.2,-734.8 43.2,-765.6 292.97,-765.6 292.97,-734.8 43.2,-734.8"/>
<text text-anchor="start" x="50.2" y="-747" font-family="Arial" font-size="14.00">cook_mins </text>
<text text-anchor="start" x="121.01" y="-747" font-family="Arial" font-size="14.00" fill="#666666">[integer]</text>
<polygon fill="none" stroke="black" points="43.2,-704 43.2,-734.8 292.97,-734.8 292.97,-704 43.2,-704"/>
<text text-anchor="start" x="50.2" y="-716.2" font-family="Arial" font-size="14.00">created_at </text>
<text text-anchor="start" x="120.25" y="-716.2" font-family="Arial" font-size="14.00" fill="#666666">[timestamp with time zone]</text>
<polygon fill="none" stroke="black" points="43.2,-673.2 43.2,-704 292.97,-704 292.97,-673.2 43.2,-673.2"/>
<text text-anchor="start" x="50.2" y="-685.4" font-family="Arial" font-size="14.00">thumbnail_image_hash </text>
<text text-anchor="start" x="198.85" y="-685.4" font-family="Arial" font-size="14.00" fill="#666666">[text]</text>
</g>
<!-- api.recipes&#45;&gt;public.users -->
<g id="edge1" class="edge">
<title>api.recipes:user_id&#45;&gt;public.users:user_id</title>
<path fill="none" stroke="black" d="M304.07,-932.77C355.77,-907.55 298.89,-675.67 345.09,-630 413.42,-562.44 1103.51,-496.8 1199.6,-496.8"/>
<polygon fill="black" stroke="black" points="304.06,-932.78 293.33,-930.53 298.85,-933.92 294.62,-934.86 294.62,-934.86 294.62,-934.86 298.85,-933.92 295.27,-939.32 304.06,-932.78"/>
</g>
<!-- api.favorite_recipes -->
<g id="node3" class="node">
<title>api.favorite_recipes</title>
<polygon fill="#efefef" stroke="none" points="397.63,-858 397.63,-893.6 678.54,-893.6 678.54,-858 397.63,-858"/>
<polygon fill="none" stroke="black" points="397.63,-858 397.63,-893.6 678.54,-893.6 678.54,-858 397.63,-858"/>
<text text-anchor="start" x="404.63" y="-871.4" font-family="Arial Bold" font-size="18.00">api.favorite_recipes</text>
<text text-anchor="start" x="547.05" y="-871.4" font-family="Arial" font-size="14.00">    </text>
<text text-anchor="start" x="578.17" y="-871.4" font-family="Arial" font-size="14.00" fill="#666666">[BASE TABLE]</text>
<polygon fill="none" stroke="black" points="397.63,-827.2 397.63,-858 678.54,-858 678.54,-827.2 397.63,-827.2"/>
<text text-anchor="start" x="404.63" y="-839.4" font-family="Arial" font-size="14.00">user_id </text>
<text text-anchor="start" x="454.43" y="-839.4" font-family="Arial" font-size="14.00" fill="#666666">[uuid]</text>
<polygon fill="none" stroke="black" points="397.63,-796.4 397.63,-827.2 678.54,-827.2 678.54,-796.4 397.63,-796.4"/>
<text text-anchor="start" x="404.63" y="-808.6" font-family="Arial" font-size="14.00">recipe_id </text>
<text text-anchor="start" x="465.33" y="-808.6" font-family="Arial" font-size="14.00" fill="#666666">[uuid]</text>
</g>
<!-- api.favorite_recipes&#45;&gt;public.users -->
<g id="edge2" class="edge">
<title>api.favorite_recipes:user_id&#45;&gt;public.users:user_id</title>
<path fill="none" stroke="black" d="M689.5,-842.02C768.47,-832.13 665.4,-697.53 730.09,-630 805.11,-551.68 1091.15,-496.8 1199.6,-496.8"/>
<polygon fill="black" stroke="black" points="689.86,-842 679.62,-838.09 684.54,-842.31 680.21,-842.56 680.21,-842.56 680.21,-842.56 684.54,-842.31 680.14,-847.07 689.86,-842"/>
</g>
<!-- api.recipes_comments -->
<g id="node4" class="node">
<title>api.recipes_comments</title>
<polygon fill="#efefef" stroke="none" points="782.62,-919.6 782.62,-955.2 1081.55,-955.2 1081.55,-919.6 782.62,-919.6"/>
<polygon fill="none" stroke="black" points="782.62,-919.6 782.62,-955.2 1081.55,-955.2 1081.55,-919.6 782.62,-919.6"/>
<text text-anchor="start" x="789.62" y="-933" font-family="Arial Bold" font-size="18.00">api.recipes_comments</text>
<text text-anchor="start" x="950.06" y="-933" font-family="Arial" font-size="14.00">    </text>
<text text-anchor="start" x="981.18" y="-933" font-family="Arial" font-size="14.00" fill="#666666">[BASE TABLE]</text>
<polygon fill="none" stroke="black" points="782.62,-888.8 782.62,-919.6 1081.55,-919.6 1081.55,-888.8 782.62,-888.8"/>
<text text-anchor="start" x="789.62" y="-901" font-family="Arial" font-size="14.00">comment_id </text>
<text text-anchor="start" x="869.76" y="-901" font-family="Arial" font-size="14.00" fill="#666666">[uuid]</text>
<polygon fill="none" stroke="black" points="782.62,-858 782.62,-888.8 1081.55,-888.8 1081.55,-858 782.62,-858"/>
<text text-anchor="start" x="789.62" y="-870.2" font-family="Arial" font-size="14.00">recipe_id </text>
<text text-anchor="start" x="850.32" y="-870.2" font-family="Arial" font-size="14.00" fill="#666666">[uuid]</text>
<polygon fill="none" stroke="black" points="782.62,-827.2 782.62,-858 1081.55,-858 1081.55,-827.2 782.62,-827.2"/>
<text text-anchor="start" x="789.62" y="-839.4" font-family="Arial" font-size="14.00">user_id </text>
<text text-anchor="start" x="839.43" y="-839.4" font-family="Arial" font-size="14.00" fill="#666666">[uuid]</text>
<polygon fill="none" stroke="black" points="782.62,-796.4 782.62,-827.2 1081.55,-827.2 1081.55,-796.4 782.62,-796.4"/>
<text text-anchor="start" x="789.62" y="-808.6" font-family="Arial" font-size="14.00">content </text>
<text text-anchor="start" x="839.43" y="-808.6" font-family="Arial" font-size="14.00" fill="#666666">[text]</text>
<polygon fill="none" stroke="black" points="782.62,-765.6 782.62,-796.4 1081.55,-796.4 1081.55,-765.6 782.62,-765.6"/>
<text text-anchor="start" x="789.62" y="-777.8" font-family="Arial" font-size="14.00">created_at </text>
<text text-anchor="start" x="859.67" y="-777.8" font-family="Arial" font-size="14.00" fill="#666666">[timestamp with time zone]</text>
<polygon fill="none" stroke="black" points="782.62,-734.8 782.62,-765.6 1081.55,-765.6 1081.55,-734.8 782.62,-734.8"/>
<text text-anchor="start" x="789.62" y="-747" font-family="Arial" font-size="14.00">parent_comment_id </text>
<text text-anchor="start" x="917.25" y="-747" font-family="Arial" font-size="14.00" fill="#666666">[uuid]</text>
</g>
<!-- api.recipes_comments&#45;&gt;public.users -->
<g id="edge3" class="edge">
<title>api.recipes_comments:user_id&#45;&gt;public.users:user_id</title>
<path fill="none" stroke="black" d="M1092.65,-842.11C1173.91,-833.64 1101.17,-717.9 1133.09,-630 1155.67,-567.8 1133.43,-496.8 1199.6,-496.8"/>
<polygon fill="black" stroke="black" points="1092.87,-842.1 1082.67,-838.09 1087.55,-842.36 1083.22,-842.57 1083.22,-842.57 1083.22,-842.57 1087.55,-842.36 1083.11,-847.08 1092.87,-842.1"/>
</g>
<!-- api.notifications -->
<g id="node5" class="node">
<title>api.notifications</title>
<polygon fill="#efefef" stroke="none" points="1185.6,-935 1185.6,-970.6 1440.57,-970.6 1440.57,-935 1185.6,-935"/>
<polygon fill="none" stroke="black" points="1185.6,-935 1185.6,-970.6 1440.57,-970.6 1440.57,-935 1185.6,-935"/>
<text text-anchor="start" x="1192.6" y="-948.4" font-family="Arial Bold" font-size="18.00">api.notifications</text>
<text text-anchor="start" x="1309.08" y="-948.4" font-family="Arial" font-size="14.00">    </text>
<text text-anchor="start" x="1340.19" y="-948.4" font-family="Arial" font-size="14.00" fill="#666666">[BASE TABLE]</text>
<polygon fill="none" stroke="black" points="1185.6,-904.2 1185.6,-935 1440.57,-935 1440.57,-904.2 1185.6,-904.2"/>
<text text-anchor="start" x="1192.6" y="-916.4" font-family="Arial" font-size="14.00">notification_id </text>
<text text-anchor="start" x="1282.11" y="-916.4" font-family="Arial" font-size="14.00" fill="#666666">[uuid]</text>
<polygon fill="none" stroke="black" points="1185.6,-873.4 1185.6,-904.2 1440.57,-904.2 1440.57,-873.4 1185.6,-873.4"/>
<text text-anchor="start" x="1192.6" y="-885.6" font-family="Arial" font-size="14.00">user_id </text>
<text text-anchor="start" x="1242.41" y="-885.6" font-family="Arial" font-size="14.00" fill="#666666">[uuid]</text>
<polygon fill="none" stroke="black" points="1185.6,-842.6 1185.6,-873.4 1440.57,-873.4 1440.57,-842.6 1185.6,-842.6"/>
<text text-anchor="start" x="1192.6" y="-854.8" font-family="Arial" font-size="14.00">type </text>
<text text-anchor="start" x="1222.96" y="-854.8" font-family="Arial" font-size="14.00" fill="#666666">[api.notification_type]</text>
<polygon fill="none" stroke="black" points="1185.6,-811.8 1185.6,-842.6 1440.57,-842.6 1440.57,-811.8 1185.6,-811.8"/>
<text text-anchor="start" x="1192.6" y="-824" font-family="Arial" font-size="14.00">created_at </text>
<text text-anchor="start" x="1262.65" y="-824" font-family="Arial" font-size="14.00" fill="#666666">[timestamp with time zone]</text>
<polygon fill="none" stroke="black" points="1185.6,-781 1185.6,-811.8 1440.57,-811.8 1440.57,-781 1185.6,-781"/>
<text text-anchor="start" x="1192.6" y="-793.2" font-family="Arial" font-size="14.00">recipe_id </text>
<text text-anchor="start" x="1253.31" y="-793.2" font-family="Arial" font-size="14.00" fill="#666666">[uuid]</text>
<polygon fill="none" stroke="black" points="1185.6,-750.2 1185.6,-781 1440.57,-781 1440.57,-750.2 1185.6,-750.2"/>
<text text-anchor="start" x="1192.6" y="-762.4" font-family="Arial" font-size="14.00">comment_id </text>
<text text-anchor="start" x="1272.75" y="-762.4" font-family="Arial" font-size="14.00" fill="#666666">[uuid]</text>
<polygon fill="none" stroke="black" points="1185.6,-719.4 1185.6,-750.2 1440.57,-750.2 1440.57,-719.4 1185.6,-719.4"/>
<text text-anchor="start" x="1192.6" y="-731.6" font-family="Arial" font-size="14.00">actor_user_id </text>
<text text-anchor="start" x="1281.32" y="-731.6" font-family="Arial" font-size="14.00" fill="#666666">[uuid]</text>
</g>
<!-- api.notifications&#45;&gt;public.users -->
<g id="edge4" class="edge">
<title>api.notifications:actor_user_id&#45;&gt;public.users:user_id</title>
<path fill="none" stroke="black" d="M1313.68,-708.13C1321.28,-645.56 1399.75,-660.03 1425.57,-594 1441.3,-553.76 1469.77,-496.8 1426.57,-496.8"/>
<polygon fill="black" stroke="black" points="1313.68,-708.08 1308.61,-717.81 1313.37,-713.41 1313.12,-717.73 1313.12,-717.73 1313.12,-717.73 1313.37,-713.41 1317.6,-718.33 1313.68,-708.08"/>
</g>
<!-- api.notifications&#45;&gt;public.users -->
<g id="edge5" class="edge">
<title>api.notifications:user_id&#45;&gt;public.users:user_id</title>
<path fill="none" stroke="black" d="M1450.11,-882.95C1482.84,-834.19 1467.01,-496.8 1426.57,-496.8"/>
<polygon fill="black" stroke="black" points="1450.1,-882.96 1439.3,-884.9 1445.69,-885.98 1442.12,-888.42 1442.12,-888.42 1442.12,-888.42 1445.69,-885.98 1444.38,-892.32 1450.1,-882.96"/>
</g>
<!-- api.recipes_comments_votes -->
<g id="node6" class="node">
<title>api.recipes_comments_votes</title>
<polygon fill="#efefef" stroke="none" points="1545.12,-873.4 1545.12,-909 1891.05,-909 1891.05,-873.4 1545.12,-873.4"/>
<polygon fill="none" stroke="black" points="1545.12,-873.4 1545.12,-909 1891.05,-909 1891.05,-873.4 1545.12,-873.4"/>
<text text-anchor="start" x="1552.12" y="-886.8" font-family="Arial Bold" font-size="18.00">api.recipes_comments_votes</text>
<text text-anchor="start" x="1759.56" y="-886.8" font-family="Arial" font-size="14.00">    </text>
<text text-anchor="start" x="1790.68" y="-886.8" font-family="Arial" font-size="14.00" fill="#666666">[BASE TABLE]</text>
<polygon fill="none" stroke="black" points="1545.12,-842.6 1545.12,-873.4 1891.05,-873.4 1891.05,-842.6 1545.12,-842.6"/>
<text text-anchor="start" x="1552.12" y="-854.8" font-family="Arial" font-size="14.00">user_id </text>
<text text-anchor="start" x="1601.93" y="-854.8" font-family="Arial" font-size="14.00" fill="#666666">[uuid]</text>
<polygon fill="none" stroke="black" points="1545.12,-811.8 1545.12,-842.6 1891.05,-842.6 1891.05,-811.8 1545.12,-811.8"/>
<text text-anchor="start" x="1552.12" y="-824" font-family="Arial" font-size="14.00">comment_id </text>
<text text-anchor="start" x="1632.27" y="-824" font-family="Arial" font-size="14.00" fill="#666666">[uuid]</text>
<polygon fill="none" stroke="black" points="1545.12,-781 1545.12,-811.8 1891.05,-811.8 1891.05,-781 1545.12,-781"/>
<text text-anchor="start" x="1552.12" y="-793.2" font-family="Arial" font-size="14.00">upvote </text>
<text text-anchor="start" x="1598.05" y="-793.2" font-family="Arial" font-size="14.00" fill="#666666">[boolean]</text>
</g>
<!-- api.recipes_comments_votes&#45;&gt;public.users -->
<g id="edge6" class="edge">
<title>api.recipes_comments_votes:user_id&#45;&gt;public.users:user_id</title>
<path fill="none" stroke="black" d="M1534.17,-855.45C1494.6,-833.46 1509.26,-675.48 1493.09,-630 1470.91,-567.65 1492.74,-496.8 1426.57,-496.8"/>
<polygon fill="black" stroke="black" points="1534.11,-855.44 1542.68,-862.28 1539.28,-856.76 1543.47,-857.83 1543.47,-857.83 1543.47,-857.83 1539.28,-856.76 1544.91,-853.56 1534.11,-855.44"/>
</g>
<!-- api.recipes_votes -->
<g id="node7" class="node">
<title>api.recipes_votes</title>
<polygon fill="#efefef" stroke="none" points="1995.61,-873.4 1995.61,-909 2258.56,-909 2258.56,-873.4 1995.61,-873.4"/>
<polygon fill="none" stroke="black" points="1995.61,-873.4 1995.61,-909 2258.56,-909 2258.56,-873.4 1995.61,-873.4"/>
<text text-anchor="start" x="2002.61" y="-886.8" font-family="Arial Bold" font-size="18.00">api.recipes_votes</text>
<text text-anchor="start" x="2127.07" y="-886.8" font-family="Arial" font-size="14.00">    </text>
<text text-anchor="start" x="2158.18" y="-886.8" font-family="Arial" font-size="14.00" fill="#666666">[BASE TABLE]</text>
<polygon fill="none" stroke="black" points="1995.61,-842.6 1995.61,-873.4 2258.56,-873.4 2258.56,-842.6 1995.61,-842.6"/>
<text text-anchor="start" x="2002.61" y="-854.8" font-family="Arial" font-size="14.00">user_id </text>
<text text-anchor="start" x="2052.42" y="-854.8" font-family="Arial" font-size="14.00" fill="#666666">[uuid]</text>
<polygon fill="none" stroke="black" points="1995.61,-811.8 1995.61,-842.6 2258.56,-842.6 2258.56,-811.8 1995.61,-811.8"/>
<text text-anchor="start" x="2002.61" y="-824" font-family="Arial" font-size="14.00">recipe_id </text>
<text text-anchor="start" x="2063.32" y="-824" font-family="Arial" font-size="14.00" fill="#666666">[uuid]</text>
<polygon fill="none" stroke="black" points="1995.61,-781 1995.61,-811.8 2258.56,-811.8 2258.56,-781 1995.61,-781"/>
<text text-anchor="start" x="2002.61" y="-793.2" font-family="Arial" font-size="14.00">upvote </text>
<text text-anchor="start" x="2048.54" y="-793.2" font-family="Arial" font-size="14.00" fill="#666666">[boolean]</text>
</g>
<!-- api.recipes_votes&#45;&gt;public.users -->
<g id="edge7" class="edge">
<title>api.recipes_votes:user_id&#45;&gt;public.users:user_id</title>
<path fill="none" stroke="black" d="M1984.23,-857.41C1899.48,-847.01 2012.82,-701.86 1943.09,-630 1860.54,-544.93 1545.11,-496.8 1426.57,-496.8"/>
<polygon fill="black" stroke="black" points="1984.3,-857.41 1994.03,-862.47 1989.62,-857.72 1993.95,-857.96 1993.95,-857.96 1993.95,-857.96 1989.62,-857.72 1994.54,-853.49 1984.3,-857.41"/>
</g>
<!-- api.users_follows -->
<g id="node8" class="node">
<title>api.users_follows</title>
<polygon fill="#efefef" stroke="none" points="2362.6,-858 2362.6,-893.6 2627.57,-893.6 2627.57,-858 2362.6,-858"/>
<polygon fill="none" stroke="black" points="2362.6,-858 2362.6,-893.6 2627.57,-893.6 2627.57,-858 2362.6,-858"/>
<text text-anchor="start" x="2369.6" y="-871.4" font-family="Arial Bold" font-size="18.00">api.users_follows</text>
<text text-anchor="start" x="2496.08" y="-871.4" font-family="Arial" font-size="14.00">    </text>
<text text-anchor="start" x="2527.2" y="-871.4" font-family="Arial" font-size="14.00" fill="#666666">[BASE TABLE]</text>
<polygon fill="none" stroke="black" points="2362.6,-827.2 2362.6,-858 2627.57,-858 2627.57,-827.2 2362.6,-827.2"/>
<text text-anchor="start" x="2369.6" y="-839.4" font-family="Arial" font-size="14.00">user_id </text>
<text text-anchor="start" x="2419.41" y="-839.4" font-family="Arial" font-size="14.00" fill="#666666">[uuid]</text>
<polygon fill="none" stroke="black" points="2362.6,-796.4 2362.6,-827.2 2627.57,-827.2 2627.57,-796.4 2362.6,-796.4"/>
<text text-anchor="start" x="2369.6" y="-808.6" font-family="Arial" font-size="14.00">followed_user_id </text>
<text text-anchor="start" x="2478.56" y="-808.6" font-family="Arial" font-size="14.00" fill="#666666">[uuid]</text>
</g>
<!-- api.users_follows&#45;&gt;public.users -->
<g id="edge8" class="edge">
<title>api.users_follows:followed_user_id&#45;&gt;public.users:user_id</title>
<path fill="none" stroke="black" d="M2351.36,-811.05C2286.06,-800.6 2371.06,-683.09 2311.09,-630 2162.25,-498.24 1625.35,-496.8 1426.57,-496.8"/>
<polygon fill="black" stroke="black" points="2351.29,-811.05 2360.94,-816.26 2356.61,-811.44 2360.93,-811.75 2360.93,-811.75 2360.93,-811.75 2356.61,-811.44 2361.59,-807.29 2351.29,-811.05"/>
</g>
<!-- api.users_follows&#45;&gt;public.users -->
<g id="edge9" class="edge">
<title>api.users_follows:user_id&#45;&gt;public.users:user_id</title>
<path fill="none" stroke="black" d="M2351.18,-841.94C2273.42,-831.25 2379.78,-693.17 2311.09,-630 2237.93,-562.73 1525.96,-496.8 1426.57,-496.8"/>
<polygon fill="black" stroke="black" points="2351.29,-841.95 2360.98,-847.07 2356.61,-842.28 2360.93,-842.56 2360.93,-842.56 2360.93,-842.56 2356.61,-842.28 2361.55,-838.09 2351.29,-841.95"/>
</g>
</g>
</svg>
