<?xml version="1.0" encoding="UTF-8" standalone="no"?>
<!DOCTYPE svg PUBLIC "-//W3C//DTD SVG 1.1//EN"
 "http://www.w3.org/Graphics/SVG/1.1/DTD/svg11.dtd">
<!-- Generated by graphviz version 12.1.2 (20240928.0832)
 -->
<!-- Title: public.users Pages: 1 -->
<svg width="1956pt" height="694pt"
 viewBox="0.00 0.00 1955.83 694.40" xmlns="http://www.w3.org/2000/svg" xmlns:xlink="http://www.w3.org/1999/xlink">
<g id="graph0" class="graph" transform="scale(1 1) rotate(0) translate(4 690.4)">
<title>public.users</title>
<polygon fill="white" stroke="none" points="-4,4 -4,-690.4 1951.83,-690.4 1951.83,4 -4,4"/>
<!-- public.users -->
<g id="node1" class="node">
<title>public.users</title>
<polygon fill="#efefef" stroke="none" points="827.69,-261.8 827.69,-297.4 1052.66,-297.4 1052.66,-261.8 827.69,-261.8"/>
<polygon fill="none" stroke="black" points="827.69,-261.8 827.69,-297.4 1052.66,-297.4 1052.66,-261.8 827.69,-261.8"/>
<text text-anchor="start" x="834.69" y="-275.2" font-family="Arial Bold" font-size="18.00">public.users</text>
<text text-anchor="start" x="921.17" y="-275.2" font-family="Arial" font-size="14.00">    </text>
<text text-anchor="start" x="952.29" y="-275.2" font-family="Arial" font-size="14.00" fill="#666666">[BASE TABLE]</text>
<polygon fill="none" stroke="black" points="827.69,-231 827.69,-261.8 1052.66,-261.8 1052.66,-231 827.69,-231"/>
<text text-anchor="start" x="834.69" y="-243.2" font-family="Arial" font-size="14.00">user_id </text>
<text text-anchor="start" x="884.49" y="-243.2" font-family="Arial" font-size="14.00" fill="#666666">[uuid]</text>
<polygon fill="none" stroke="black" points="827.69,-200.2 827.69,-231 1052.66,-231 1052.66,-200.2 827.69,-200.2"/>
<text text-anchor="start" x="834.69" y="-212.4" font-family="Arial" font-size="14.00">email </text>
<text text-anchor="start" x="872.03" y="-212.4" font-family="Arial" font-size="14.00" fill="#666666">[varchar(320)]</text>
<polygon fill="none" stroke="black" points="827.69,-169.4 827.69,-200.2 1052.66,-200.2 1052.66,-169.4 827.69,-169.4"/>
<text text-anchor="start" x="834.69" y="-181.6" font-family="Arial" font-size="14.00">first_name </text>
<text text-anchor="start" x="903.93" y="-181.6" font-family="Arial" font-size="14.00" fill="#666666">[varchar(255)]</text>
<polygon fill="none" stroke="black" points="827.69,-138.6 827.69,-169.4 1052.66,-169.4 1052.66,-138.6 827.69,-138.6"/>
<text text-anchor="start" x="834.69" y="-150.8" font-family="Arial" font-size="14.00">last_name </text>
<text text-anchor="start" x="903.17" y="-150.8" font-family="Arial" font-size="14.00" fill="#666666">[varchar(255)]</text>
<polygon fill="none" stroke="black" points="827.69,-107.8 827.69,-138.6 1052.66,-138.6 1052.66,-107.8 827.69,-107.8"/>
<text text-anchor="start" x="834.69" y="-120" font-family="Arial" font-size="14.00">password_hash </text>
<text text-anchor="start" x="936.64" y="-120" font-family="Arial" font-size="14.00" fill="#666666">[text]</text>
<polygon fill="none" stroke="black" points="827.69,-77 827.69,-107.8 1052.66,-107.8 1052.66,-77 827.69,-77"/>
<text text-anchor="start" x="834.69" y="-89.2" font-family="Arial" font-size="14.00">middle_name </text>
<text text-anchor="start" x="922.62" y="-89.2" font-family="Arial" font-size="14.00" fill="#666666">[varchar(255)]</text>
<polygon fill="none" stroke="black" points="827.69,-46.2 827.69,-77 1052.66,-77 1052.66,-46.2 827.69,-46.2"/>
<text text-anchor="start" x="834.69" y="-58.4" font-family="Arial" font-size="14.00">is_admin </text>
<text text-anchor="start" x="894.6" y="-58.4" font-family="Arial" font-size="14.00" fill="#666666">[boolean]</text>
<polygon fill="none" stroke="black" stroke-width="3" points="826.19,-44.7 826.19,-298.9 1054.16,-298.9 1054.16,-44.7 826.19,-44.7"/>
</g>
<!-- api.recipes -->
<g id="node2" class="node">
<title>api.recipes</title>
<polygon fill="#efefef" stroke="none" points="43.2,-607.6 43.2,-643.2 259.15,-643.2 259.15,-607.6 43.2,-607.6"/>
<polygon fill="none" stroke="black" points="43.2,-607.6 43.2,-643.2 259.15,-643.2 259.15,-607.6 43.2,-607.6"/>
<text text-anchor="start" x="50.2" y="-621" font-family="Arial Bold" font-size="18.00">api.recipes</text>
<text text-anchor="start" x="127.66" y="-621" font-family="Arial" font-size="14.00">    </text>
<text text-anchor="start" x="158.78" y="-621" font-family="Arial" font-size="14.00" fill="#666666">[BASE TABLE]</text>
<polygon fill="none" stroke="black" points="43.2,-576.8 43.2,-607.6 259.15,-607.6 259.15,-576.8 43.2,-576.8"/>
<text text-anchor="start" x="50.2" y="-589" font-family="Arial" font-size="14.00">recipe_id </text>
<text text-anchor="start" x="110.9" y="-589" font-family="Arial" font-size="14.00" fill="#666666">[uuid]</text>
<polygon fill="none" stroke="black" points="43.2,-546 43.2,-576.8 259.15,-576.8 259.15,-546 43.2,-546"/>
<text text-anchor="start" x="50.2" y="-558.2" font-family="Arial" font-size="14.00">user_id </text>
<text text-anchor="start" x="100.01" y="-558.2" font-family="Arial" font-size="14.00" fill="#666666">[uuid]</text>
<polygon fill="none" stroke="black" points="43.2,-515.2 43.2,-546 259.15,-546 259.15,-515.2 43.2,-515.2"/>
<text text-anchor="start" x="50.2" y="-527.4" font-family="Arial" font-size="14.00">title </text>
<text text-anchor="start" x="75.88" y="-527.4" font-family="Arial" font-size="14.00" fill="#666666">[varchar(255)]</text>
<polygon fill="none" stroke="black" points="43.2,-484.4 43.2,-515.2 259.15,-515.2 259.15,-484.4 43.2,-484.4"/>
<text text-anchor="start" x="50.2" y="-496.6" font-family="Arial" font-size="14.00">content </text>
<text text-anchor="start" x="100.01" y="-496.6" font-family="Arial" font-size="14.00" fill="#666666">[text]</text>
<polygon fill="none" stroke="black" points="43.2,-453.6 43.2,-484.4 259.15,-484.4 259.15,-453.6 43.2,-453.6"/>
<text text-anchor="start" x="50.2" y="-465.8" font-family="Arial" font-size="14.00">difficulty </text>
<text text-anchor="start" x="104.66" y="-465.8" font-family="Arial" font-size="14.00" fill="#666666">[api.difficulty_level]</text>
<polygon fill="none" stroke="black" points="43.2,-422.8 43.2,-453.6 259.15,-453.6 259.15,-422.8 43.2,-422.8"/>
<text text-anchor="start" x="50.2" y="-435" font-family="Arial" font-size="14.00">thumbnail_image_hash </text>
<text text-anchor="start" x="198.85" y="-435" font-family="Arial" font-size="14.00" fill="#666666">[text]</text>
</g>
<!-- api.recipes&#45;&gt;public.users -->
<g id="edge1" class="edge">
<title>api.recipes:user_id&#45;&gt;public.users:user_id</title>
<path fill="none" stroke="black" d="M270.42,-560.67C336.04,-550.47 253.91,-435.68 311.17,-379.6 395.7,-296.81 708.37,-246.4 826.69,-246.4"/>
<polygon fill="black" stroke="black" points="270.46,-560.67 260.16,-556.89 265.13,-561.05 260.81,-561.35 260.81,-561.35 260.81,-561.35 265.13,-561.05 260.8,-565.87 270.46,-560.67"/>
</g>
<!-- api.recipes_comments -->
<g id="node3" class="node">
<title>api.recipes_comments</title>
<polygon fill="#efefef" stroke="none" points="363.71,-592.2 363.71,-627.8 662.64,-627.8 662.64,-592.2 363.71,-592.2"/>
<polygon fill="none" stroke="black" points="363.71,-592.2 363.71,-627.8 662.64,-627.8 662.64,-592.2 363.71,-592.2"/>
<text text-anchor="start" x="370.71" y="-605.6" font-family="Arial Bold" font-size="18.00">api.recipes_comments</text>
<text text-anchor="start" x="531.15" y="-605.6" font-family="Arial" font-size="14.00">    </text>
<text text-anchor="start" x="562.27" y="-605.6" font-family="Arial" font-size="14.00" fill="#666666">[BASE TABLE]</text>
<polygon fill="none" stroke="black" points="363.71,-561.4 363.71,-592.2 662.64,-592.2 662.64,-561.4 363.71,-561.4"/>
<text text-anchor="start" x="370.71" y="-573.6" font-family="Arial" font-size="14.00">comment_id </text>
<text text-anchor="start" x="450.85" y="-573.6" font-family="Arial" font-size="14.00" fill="#666666">[uuid]</text>
<polygon fill="none" stroke="black" points="363.71,-530.6 363.71,-561.4 662.64,-561.4 662.64,-530.6 363.71,-530.6"/>
<text text-anchor="start" x="370.71" y="-542.8" font-family="Arial" font-size="14.00">recipe_id </text>
<text text-anchor="start" x="431.41" y="-542.8" font-family="Arial" font-size="14.00" fill="#666666">[uuid]</text>
<polygon fill="none" stroke="black" points="363.71,-499.8 363.71,-530.6 662.64,-530.6 662.64,-499.8 363.71,-499.8"/>
<text text-anchor="start" x="370.71" y="-512" font-family="Arial" font-size="14.00">user_id </text>
<text text-anchor="start" x="420.51" y="-512" font-family="Arial" font-size="14.00" fill="#666666">[uuid]</text>
<polygon fill="none" stroke="black" points="363.71,-469 363.71,-499.8 662.64,-499.8 662.64,-469 363.71,-469"/>
<text text-anchor="start" x="370.71" y="-481.2" font-family="Arial" font-size="14.00">parent_comment_id </text>
<text text-anchor="start" x="498.33" y="-481.2" font-family="Arial" font-size="14.00" fill="#666666">[uuid]</text>
<polygon fill="none" stroke="black" points="363.71,-438.2 363.71,-469 662.64,-469 662.64,-438.2 363.71,-438.2"/>
<text text-anchor="start" x="370.71" y="-450.4" font-family="Arial" font-size="14.00">content </text>
<text text-anchor="start" x="420.52" y="-450.4" font-family="Arial" font-size="14.00" fill="#666666">[text]</text>
</g>
<!-- api.recipes_comments&#45;&gt;public.users -->
<g id="edge2" class="edge">
<title>api.recipes_comments:user_id&#45;&gt;public.users:user_id</title>
<path fill="none" stroke="black" d="M673.88,-514.4C723.04,-505.91 684.49,-431.96 715.17,-379.6 754.21,-312.99 749.48,-246.4 826.69,-246.4"/>
<polygon fill="black" stroke="black" points="673.94,-514.39 663.62,-510.69 668.63,-514.81 664.31,-515.15 664.31,-515.15 664.31,-515.15 668.63,-514.81 664.33,-519.66 673.94,-514.39"/>
</g>
<!-- api.recipes_comments_votes -->
<g id="node4" class="node">
<title>api.recipes_comments_votes</title>
<polygon fill="#efefef" stroke="none" points="767.21,-561.4 767.21,-597 1113.14,-597 1113.14,-561.4 767.21,-561.4"/>
<polygon fill="none" stroke="black" points="767.21,-561.4 767.21,-597 1113.14,-597 1113.14,-561.4 767.21,-561.4"/>
<text text-anchor="start" x="774.21" y="-574.8" font-family="Arial Bold" font-size="18.00">api.recipes_comments_votes</text>
<text text-anchor="start" x="981.65" y="-574.8" font-family="Arial" font-size="14.00">    </text>
<text text-anchor="start" x="1012.77" y="-574.8" font-family="Arial" font-size="14.00" fill="#666666">[BASE TABLE]</text>
<polygon fill="none" stroke="black" points="767.21,-530.6 767.21,-561.4 1113.14,-561.4 1113.14,-530.6 767.21,-530.6"/>
<text text-anchor="start" x="774.21" y="-542.8" font-family="Arial" font-size="14.00">user_id </text>
<text text-anchor="start" x="824.02" y="-542.8" font-family="Arial" font-size="14.00" fill="#666666">[uuid]</text>
<polygon fill="none" stroke="black" points="767.21,-499.8 767.21,-530.6 1113.14,-530.6 1113.14,-499.8 767.21,-499.8"/>
<text text-anchor="start" x="774.21" y="-512" font-family="Arial" font-size="14.00">comment_id </text>
<text text-anchor="start" x="854.35" y="-512" font-family="Arial" font-size="14.00" fill="#666666">[uuid]</text>
<polygon fill="none" stroke="black" points="767.21,-469 767.21,-499.8 1113.14,-499.8 1113.14,-469 767.21,-469"/>
<text text-anchor="start" x="774.21" y="-481.2" font-family="Arial" font-size="14.00">upvote </text>
<text text-anchor="start" x="820.13" y="-481.2" font-family="Arial" font-size="14.00" fill="#666666">[boolean]</text>
</g>
<!-- api.recipes_comments_votes&#45;&gt;public.users -->
<g id="edge3" class="edge">
<title>api.recipes_comments_votes:user_id&#45;&gt;public.users:user_id</title>
<path fill="none" stroke="black" d="M1124.15,-543.41C1175.42,-514.13 1117.87,-246.4 1053.66,-246.4"/>
<polygon fill="black" stroke="black" points="1124.14,-543.41 1113.33,-541.56 1118.98,-544.75 1114.79,-545.83 1114.79,-545.83 1114.79,-545.83 1118.98,-544.75 1115.59,-550.27 1124.14,-543.41"/>
</g>
<!-- api.users_recipe_votes -->
<g id="node5" class="node">
<title>api.users_recipe_votes</title>
<polygon fill="#efefef" stroke="none" points="1217.21,-561.4 1217.21,-597 1519.14,-597 1519.14,-561.4 1217.21,-561.4"/>
<polygon fill="none" stroke="black" points="1217.21,-561.4 1217.21,-597 1519.14,-597 1519.14,-561.4 1217.21,-561.4"/>
<text text-anchor="start" x="1224.21" y="-574.8" font-family="Arial Bold" font-size="18.00">api.users_recipe_votes</text>
<text text-anchor="start" x="1387.65" y="-574.8" font-family="Arial" font-size="14.00">    </text>
<text text-anchor="start" x="1418.77" y="-574.8" font-family="Arial" font-size="14.00" fill="#666666">[BASE TABLE]</text>
<polygon fill="none" stroke="black" points="1217.21,-530.6 1217.21,-561.4 1519.14,-561.4 1519.14,-530.6 1217.21,-530.6"/>
<text text-anchor="start" x="1224.21" y="-542.8" font-family="Arial" font-size="14.00">user_id </text>
<text text-anchor="start" x="1274.01" y="-542.8" font-family="Arial" font-size="14.00" fill="#666666">[uuid]</text>
<polygon fill="none" stroke="black" points="1217.21,-499.8 1217.21,-530.6 1519.14,-530.6 1519.14,-499.8 1217.21,-499.8"/>
<text text-anchor="start" x="1224.21" y="-512" font-family="Arial" font-size="14.00">recipe_id </text>
<text text-anchor="start" x="1284.91" y="-512" font-family="Arial" font-size="14.00" fill="#666666">[uuid]</text>
<polygon fill="none" stroke="black" points="1217.21,-469 1217.21,-499.8 1519.14,-499.8 1519.14,-469 1217.21,-469"/>
<text text-anchor="start" x="1224.21" y="-481.2" font-family="Arial" font-size="14.00">upvote </text>
<text text-anchor="start" x="1270.13" y="-481.2" font-family="Arial" font-size="14.00" fill="#666666">[boolean]</text>
</g>
<!-- api.users_recipe_votes&#45;&gt;public.users -->
<g id="edge4" class="edge">
<title>api.users_recipe_votes:user_id&#45;&gt;public.users:user_id</title>
<path fill="none" stroke="black" d="M1205.85,-545.31C1144.79,-536.46 1200.27,-444.27 1165.17,-379.6 1128.34,-311.74 1130.87,-246.4 1053.66,-246.4"/>
<polygon fill="black" stroke="black" points="1205.9,-545.31 1215.58,-550.47 1211.22,-545.67 1215.54,-545.96 1215.54,-545.96 1215.54,-545.96 1211.22,-545.67 1216.17,-541.49 1205.9,-545.31"/>
</g>
<!-- api.favorite_recipes -->
<g id="node6" class="node">
<title>api.favorite_recipes</title>
<polygon fill="#efefef" stroke="none" points="1623.72,-546 1623.72,-581.6 1904.63,-581.6 1904.63,-546 1623.72,-546"/>
<polygon fill="none" stroke="black" points="1623.72,-546 1623.72,-581.6 1904.63,-581.6 1904.63,-546 1623.72,-546"/>
<text text-anchor="start" x="1630.72" y="-559.4" font-family="Arial Bold" font-size="18.00">api.favorite_recipes</text>
<text text-anchor="start" x="1773.14" y="-559.4" font-family="Arial" font-size="14.00">    </text>
<text text-anchor="start" x="1804.26" y="-559.4" font-family="Arial" font-size="14.00" fill="#666666">[BASE TABLE]</text>
<polygon fill="none" stroke="black" points="1623.72,-515.2 1623.72,-546 1904.63,-546 1904.63,-515.2 1623.72,-515.2"/>
<text text-anchor="start" x="1630.72" y="-527.4" font-family="Arial" font-size="14.00">user_id </text>
<text text-anchor="start" x="1680.52" y="-527.4" font-family="Arial" font-size="14.00" fill="#666666">[uuid]</text>
<polygon fill="none" stroke="black" points="1623.72,-484.4 1623.72,-515.2 1904.63,-515.2 1904.63,-484.4 1623.72,-484.4"/>
<text text-anchor="start" x="1630.72" y="-496.6" font-family="Arial" font-size="14.00">recipe_id </text>
<text text-anchor="start" x="1691.42" y="-496.6" font-family="Arial" font-size="14.00" fill="#666666">[uuid]</text>
</g>
<!-- api.favorite_recipes&#45;&gt;public.users -->
<g id="edge5" class="edge">
<title>api.favorite_recipes:user_id&#45;&gt;public.users:user_id</title>
<path fill="none" stroke="black" d="M1612.31,-529.7C1559.24,-519.52 1620.36,-425.14 1571.17,-379.6 1484.03,-298.93 1172.41,-246.4 1053.66,-246.4"/>
<polygon fill="black" stroke="black" points="1612.42,-529.71 1622,-535.05 1617.73,-530.17 1622.05,-530.54 1622.05,-530.54 1622.05,-530.54 1617.73,-530.17 1622.77,-526.09 1612.42,-529.71"/>
</g>
</g>
</svg>
