<?xml version="1.0" encoding="UTF-8" standalone="no"?>
<!DOCTYPE svg PUBLIC "-//W3C//DTD SVG 1.1//EN"
 "http://www.w3.org/Graphics/SVG/1.1/DTD/svg11.dtd">
<!-- Generated by graphviz version 12.1.2 (20240928.0832)
 -->
<!-- Title: public.users Pages: 1 -->
<svg width="2679pt" height="848pt"
 viewBox="0.00 0.00 2678.77 848.40" xmlns="http://www.w3.org/2000/svg" xmlns:xlink="http://www.w3.org/1999/xlink">
<g id="graph0" class="graph" transform="scale(1 1) rotate(0) translate(4 844.4)">
<title>public.users</title>
<polygon fill="white" stroke="none" points="-4,4 -4,-844.4 2674.77,-844.4 2674.77,4 -4,4"/>
<!-- public.users -->
<g id="node1" class="node">
<title>public.users</title>
<polygon fill="#efefef" stroke="none" points="1200.6,-292.6 1200.6,-328.2 1425.57,-328.2 1425.57,-292.6 1200.6,-292.6"/>
<polygon fill="none" stroke="black" points="1200.6,-292.6 1200.6,-328.2 1425.57,-328.2 1425.57,-292.6 1200.6,-292.6"/>
<text text-anchor="start" x="1207.6" y="-306" font-family="Arial Bold" font-size="18.00">public.users</text>
<text text-anchor="start" x="1294.08" y="-306" font-family="Arial" font-size="14.00">    </text>
<text text-anchor="start" x="1325.2" y="-306" font-family="Arial" font-size="14.00" fill="#666666">[BASE TABLE]</text>
<polygon fill="none" stroke="black" points="1200.6,-261.8 1200.6,-292.6 1425.57,-292.6 1425.57,-261.8 1200.6,-261.8"/>
<text text-anchor="start" x="1207.6" y="-274" font-family="Arial" font-size="14.00">user_id </text>
<text text-anchor="start" x="1257.41" y="-274" font-family="Arial" font-size="14.00" fill="#666666">[uuid]</text>
<polygon fill="none" stroke="black" points="1200.6,-231 1200.6,-261.8 1425.57,-261.8 1425.57,-231 1200.6,-231"/>
<text text-anchor="start" x="1207.6" y="-243.2" font-family="Arial" font-size="14.00">email </text>
<text text-anchor="start" x="1244.94" y="-243.2" font-family="Arial" font-size="14.00" fill="#666666">[varchar(320)]</text>
<polygon fill="none" stroke="black" points="1200.6,-200.2 1200.6,-231 1425.57,-231 1425.57,-200.2 1200.6,-200.2"/>
<text text-anchor="start" x="1207.6" y="-212.4" font-family="Arial" font-size="14.00">first_name </text>
<text text-anchor="start" x="1276.85" y="-212.4" font-family="Arial" font-size="14.00" fill="#666666">[varchar(255)]</text>
<polygon fill="none" stroke="black" points="1200.6,-169.4 1200.6,-200.2 1425.57,-200.2 1425.57,-169.4 1200.6,-169.4"/>
<text text-anchor="start" x="1207.6" y="-181.6" font-family="Arial" font-size="14.00">last_name </text>
<text text-anchor="start" x="1276.08" y="-181.6" font-family="Arial" font-size="14.00" fill="#666666">[varchar(255)]</text>
<polygon fill="none" stroke="black" points="1200.6,-138.6 1200.6,-169.4 1425.57,-169.4 1425.57,-138.6 1200.6,-138.6"/>
<text text-anchor="start" x="1207.6" y="-150.8" font-family="Arial" font-size="14.00">password_hash </text>
<text text-anchor="start" x="1309.55" y="-150.8" font-family="Arial" font-size="14.00" fill="#666666">[text]</text>
<polygon fill="none" stroke="black" points="1200.6,-107.8 1200.6,-138.6 1425.57,-138.6 1425.57,-107.8 1200.6,-107.8"/>
<text text-anchor="start" x="1207.6" y="-120" font-family="Arial" font-size="14.00">middle_name </text>
<text text-anchor="start" x="1295.54" y="-120" font-family="Arial" font-size="14.00" fill="#666666">[varchar(255)]</text>
<polygon fill="none" stroke="black" points="1200.6,-77 1200.6,-107.8 1425.57,-107.8 1425.57,-77 1200.6,-77"/>
<text text-anchor="start" x="1207.6" y="-89.2" font-family="Arial" font-size="14.00">is_admin </text>
<text text-anchor="start" x="1267.52" y="-89.2" font-family="Arial" font-size="14.00" fill="#666666">[boolean]</text>
<polygon fill="none" stroke="black" points="1200.6,-46.2 1200.6,-77 1425.57,-77 1425.57,-46.2 1200.6,-46.2"/>
<text text-anchor="start" x="1207.6" y="-58.4" font-family="Arial" font-size="14.00">profile_picture_hash </text>
<text text-anchor="start" x="1337.57" y="-58.4" font-family="Arial" font-size="14.00" fill="#666666">[text]</text>
<polygon fill="none" stroke="black" stroke-width="3" points="1199.1,-44.7 1199.1,-329.7 1427.07,-329.7 1427.07,-44.7 1199.1,-44.7"/>
</g>
<!-- api.recipes -->
<g id="node2" class="node">
<title>api.recipes</title>
<polygon fill="#efefef" stroke="none" points="43.2,-761.6 43.2,-797.2 292.97,-797.2 292.97,-761.6 43.2,-761.6"/>
<polygon fill="none" stroke="black" points="43.2,-761.6 43.2,-797.2 292.97,-797.2 292.97,-761.6 43.2,-761.6"/>
<text text-anchor="start" x="67.11" y="-775" font-family="Arial Bold" font-size="18.00">api.recipes</text>
<text text-anchor="start" x="144.57" y="-775" font-family="Arial" font-size="14.00">    </text>
<text text-anchor="start" x="175.69" y="-775" font-family="Arial" font-size="14.00" fill="#666666">[BASE TABLE]</text>
<polygon fill="none" stroke="black" points="43.2,-730.8 43.2,-761.6 292.97,-761.6 292.97,-730.8 43.2,-730.8"/>
<text text-anchor="start" x="50.2" y="-743" font-family="Arial" font-size="14.00">recipe_id </text>
<text text-anchor="start" x="110.9" y="-743" font-family="Arial" font-size="14.00" fill="#666666">[uuid]</text>
<polygon fill="none" stroke="black" points="43.2,-700 43.2,-730.8 292.97,-730.8 292.97,-700 43.2,-700"/>
<text text-anchor="start" x="50.2" y="-712.2" font-family="Arial" font-size="14.00">user_id </text>
<text text-anchor="start" x="100.01" y="-712.2" font-family="Arial" font-size="14.00" fill="#666666">[uuid]</text>
<polygon fill="none" stroke="black" points="43.2,-669.2 43.2,-700 292.97,-700 292.97,-669.2 43.2,-669.2"/>
<text text-anchor="start" x="50.2" y="-681.4" font-family="Arial" font-size="14.00">title </text>
<text text-anchor="start" x="75.88" y="-681.4" font-family="Arial" font-size="14.00" fill="#666666">[varchar(255)]</text>
<polygon fill="none" stroke="black" points="43.2,-638.4 43.2,-669.2 292.97,-669.2 292.97,-638.4 43.2,-638.4"/>
<text text-anchor="start" x="50.2" y="-650.6" font-family="Arial" font-size="14.00">description </text>
<text text-anchor="start" x="121.79" y="-650.6" font-family="Arial" font-size="14.00" fill="#666666">[text]</text>
<polygon fill="none" stroke="black" points="43.2,-607.6 43.2,-638.4 292.97,-638.4 292.97,-607.6 43.2,-607.6"/>
<text text-anchor="start" x="50.2" y="-619.8" font-family="Arial" font-size="14.00">difficulty </text>
<text text-anchor="start" x="104.66" y="-619.8" font-family="Arial" font-size="14.00" fill="#666666">[api.difficulty_level]</text>
<polygon fill="none" stroke="black" points="43.2,-576.8 43.2,-607.6 292.97,-607.6 292.97,-576.8 43.2,-576.8"/>
<text text-anchor="start" x="50.2" y="-589" font-family="Arial" font-size="14.00">serving </text>
<text text-anchor="start" x="99.22" y="-589" font-family="Arial" font-size="14.00" fill="#666666">[integer]</text>
<polygon fill="none" stroke="black" points="43.2,-546 43.2,-576.8 292.97,-576.8 292.97,-546 43.2,-546"/>
<text text-anchor="start" x="50.2" y="-558.2" font-family="Arial" font-size="14.00">prep_mins </text>
<text text-anchor="start" x="119.45" y="-558.2" font-family="Arial" font-size="14.00" fill="#666666">[integer]</text>
<polygon fill="none" stroke="black" points="43.2,-515.2 43.2,-546 292.97,-546 292.97,-515.2 43.2,-515.2"/>
<text text-anchor="start" x="50.2" y="-527.4" font-family="Arial" font-size="14.00">cook_mins </text>
<text text-anchor="start" x="121.01" y="-527.4" font-family="Arial" font-size="14.00" fill="#666666">[integer]</text>
<polygon fill="none" stroke="black" points="43.2,-484.4 43.2,-515.2 292.97,-515.2 292.97,-484.4 43.2,-484.4"/>
<text text-anchor="start" x="50.2" y="-496.6" font-family="Arial" font-size="14.00">created_at </text>
<text text-anchor="start" x="120.25" y="-496.6" font-family="Arial" font-size="14.00" fill="#666666">[timestamp with time zone]</text>
<polygon fill="none" stroke="black" points="43.2,-453.6 43.2,-484.4 292.97,-484.4 292.97,-453.6 43.2,-453.6"/>
<text text-anchor="start" x="50.2" y="-465.8" font-family="Arial" font-size="14.00">thumbnail_image_hash </text>
<text text-anchor="start" x="198.85" y="-465.8" font-family="Arial" font-size="14.00" fill="#666666">[text]</text>
</g>
<!-- api.recipes&#45;&gt;public.users -->
<g id="edge1" class="edge">
<title>api.recipes:user_id&#45;&gt;public.users:user_id</title>
<path fill="none" stroke="black" d="M304.07,-713.17C355.77,-687.95 298.89,-456.07 345.09,-410.4 413.42,-342.84 1103.51,-277.2 1199.6,-277.2"/>
<polygon fill="black" stroke="black" points="304.06,-713.18 293.33,-710.93 298.85,-714.32 294.62,-715.26 294.62,-715.26 294.62,-715.26 298.85,-714.32 295.27,-719.72 304.06,-713.18"/>
</g>
<!-- api.favorite_recipes -->
<g id="node3" class="node">
<title>api.favorite_recipes</title>
<polygon fill="#efefef" stroke="none" points="397.63,-638.4 397.63,-674 678.54,-674 678.54,-638.4 397.63,-638.4"/>
<polygon fill="none" stroke="black" points="397.63,-638.4 397.63,-674 678.54,-674 678.54,-638.4 397.63,-638.4"/>
<text text-anchor="start" x="404.63" y="-651.8" font-family="Arial Bold" font-size="18.00">api.favorite_recipes</text>
<text text-anchor="start" x="547.05" y="-651.8" font-family="Arial" font-size="14.00">    </text>
<text text-anchor="start" x="578.17" y="-651.8" font-family="Arial" font-size="14.00" fill="#666666">[BASE TABLE]</text>
<polygon fill="none" stroke="black" points="397.63,-607.6 397.63,-638.4 678.54,-638.4 678.54,-607.6 397.63,-607.6"/>
<text text-anchor="start" x="404.63" y="-619.8" font-family="Arial" font-size="14.00">user_id </text>
<text text-anchor="start" x="454.43" y="-619.8" font-family="Arial" font-size="14.00" fill="#666666">[uuid]</text>
<polygon fill="none" stroke="black" points="397.63,-576.8 397.63,-607.6 678.54,-607.6 678.54,-576.8 397.63,-576.8"/>
<text text-anchor="start" x="404.63" y="-589" font-family="Arial" font-size="14.00">recipe_id </text>
<text text-anchor="start" x="465.33" y="-589" font-family="Arial" font-size="14.00" fill="#666666">[uuid]</text>
</g>
<!-- api.favorite_recipes&#45;&gt;public.users -->
<g id="edge2" class="edge">
<title>api.favorite_recipes:user_id&#45;&gt;public.users:user_id</title>
<path fill="none" stroke="black" d="M689.5,-622.42C768.47,-612.53 665.4,-477.93 730.09,-410.4 805.11,-332.08 1091.15,-277.2 1199.6,-277.2"/>
<polygon fill="black" stroke="black" points="689.86,-622.4 679.62,-618.49 684.54,-622.71 680.21,-622.96 680.21,-622.96 680.21,-622.96 684.54,-622.71 680.14,-627.47 689.86,-622.4"/>
</g>
<!-- api.recipes_comments -->
<g id="node4" class="node">
<title>api.recipes_comments</title>
<polygon fill="#efefef" stroke="none" points="782.62,-700 782.62,-735.6 1081.55,-735.6 1081.55,-700 782.62,-700"/>
<polygon fill="none" stroke="black" points="782.62,-700 782.62,-735.6 1081.55,-735.6 1081.55,-700 782.62,-700"/>
<text text-anchor="start" x="789.62" y="-713.4" font-family="Arial Bold" font-size="18.00">api.recipes_comments</text>
<text text-anchor="start" x="950.06" y="-713.4" font-family="Arial" font-size="14.00">    </text>
<text text-anchor="start" x="981.18" y="-713.4" font-family="Arial" font-size="14.00" fill="#666666">[BASE TABLE]</text>
<polygon fill="none" stroke="black" points="782.62,-669.2 782.62,-700 1081.55,-700 1081.55,-669.2 782.62,-669.2"/>
<text text-anchor="start" x="789.62" y="-681.4" font-family="Arial" font-size="14.00">comment_id </text>
<text text-anchor="start" x="869.76" y="-681.4" font-family="Arial" font-size="14.00" fill="#666666">[uuid]</text>
<polygon fill="none" stroke="black" points="782.62,-638.4 782.62,-669.2 1081.55,-669.2 1081.55,-638.4 782.62,-638.4"/>
<text text-anchor="start" x="789.62" y="-650.6" font-family="Arial" font-size="14.00">recipe_id </text>
<text text-anchor="start" x="850.32" y="-650.6" font-family="Arial" font-size="14.00" fill="#666666">[uuid]</text>
<polygon fill="none" stroke="black" points="782.62,-607.6 782.62,-638.4 1081.55,-638.4 1081.55,-607.6 782.62,-607.6"/>
<text text-anchor="start" x="789.62" y="-619.8" font-family="Arial" font-size="14.00">user_id </text>
<text text-anchor="start" x="839.43" y="-619.8" font-family="Arial" font-size="14.00" fill="#666666">[uuid]</text>
<polygon fill="none" stroke="black" points="782.62,-576.8 782.62,-607.6 1081.55,-607.6 1081.55,-576.8 782.62,-576.8"/>
<text text-anchor="start" x="789.62" y="-589" font-family="Arial" font-size="14.00">content </text>
<text text-anchor="start" x="839.43" y="-589" font-family="Arial" font-size="14.00" fill="#666666">[text]</text>
<polygon fill="none" stroke="black" points="782.62,-546 782.62,-576.8 1081.55,-576.8 1081.55,-546 782.62,-546"/>
<text text-anchor="start" x="789.62" y="-558.2" font-family="Arial" font-size="14.00">created_at </text>
<text text-anchor="start" x="859.67" y="-558.2" font-family="Arial" font-size="14.00" fill="#666666">[timestamp with time zone]</text>
<polygon fill="none" stroke="black" points="782.62,-515.2 782.62,-546 1081.55,-546 1081.55,-515.2 782.62,-515.2"/>
<text text-anchor="start" x="789.62" y="-527.4" font-family="Arial" font-size="14.00">parent_comment_id </text>
<text text-anchor="start" x="917.25" y="-527.4" font-family="Arial" font-size="14.00" fill="#666666">[uuid]</text>
</g>
<!-- api.recipes_comments&#45;&gt;public.users -->
<g id="edge3" class="edge">
<title>api.recipes_comments:user_id&#45;&gt;public.users:user_id</title>
<path fill="none" stroke="black" d="M1092.65,-622.51C1173.91,-614.04 1101.17,-498.3 1133.09,-410.4 1155.67,-348.2 1133.43,-277.2 1199.6,-277.2"/>
<polygon fill="black" stroke="black" points="1092.87,-622.5 1082.67,-618.49 1087.55,-622.76 1083.22,-622.97 1083.22,-622.97 1083.22,-622.97 1087.55,-622.76 1083.11,-627.48 1092.87,-622.5"/>
</g>
<!-- api.notifications -->
<g id="node5" class="node">
<title>api.notifications</title>
<polygon fill="#efefef" stroke="none" points="1185.6,-715.4 1185.6,-751 1440.57,-751 1440.57,-715.4 1185.6,-715.4"/>
<polygon fill="none" stroke="black" points="1185.6,-715.4 1185.6,-751 1440.57,-751 1440.57,-715.4 1185.6,-715.4"/>
<text text-anchor="start" x="1192.6" y="-728.8" font-family="Arial Bold" font-size="18.00">api.notifications</text>
<text text-anchor="start" x="1309.08" y="-728.8" font-family="Arial" font-size="14.00">    </text>
<text text-anchor="start" x="1340.19" y="-728.8" font-family="Arial" font-size="14.00" fill="#666666">[BASE TABLE]</text>
<polygon fill="none" stroke="black" points="1185.6,-684.6 1185.6,-715.4 1440.57,-715.4 1440.57,-684.6 1185.6,-684.6"/>
<text text-anchor="start" x="1192.6" y="-696.8" font-family="Arial" font-size="14.00">notification_id </text>
<text text-anchor="start" x="1282.11" y="-696.8" font-family="Arial" font-size="14.00" fill="#666666">[uuid]</text>
<polygon fill="none" stroke="black" points="1185.6,-653.8 1185.6,-684.6 1440.57,-684.6 1440.57,-653.8 1185.6,-653.8"/>
<text text-anchor="start" x="1192.6" y="-666" font-family="Arial" font-size="14.00">user_id </text>
<text text-anchor="start" x="1242.41" y="-666" font-family="Arial" font-size="14.00" fill="#666666">[uuid]</text>
<polygon fill="none" stroke="black" points="1185.6,-623 1185.6,-653.8 1440.57,-653.8 1440.57,-623 1185.6,-623"/>
<text text-anchor="start" x="1192.6" y="-635.2" font-family="Arial" font-size="14.00">type </text>
<text text-anchor="start" x="1222.96" y="-635.2" font-family="Arial" font-size="14.00" fill="#666666">[api.notification_type]</text>
<polygon fill="none" stroke="black" points="1185.6,-592.2 1185.6,-623 1440.57,-623 1440.57,-592.2 1185.6,-592.2"/>
<text text-anchor="start" x="1192.6" y="-604.4" font-family="Arial" font-size="14.00">created_at </text>
<text text-anchor="start" x="1262.65" y="-604.4" font-family="Arial" font-size="14.00" fill="#666666">[timestamp with time zone]</text>
<polygon fill="none" stroke="black" points="1185.6,-561.4 1185.6,-592.2 1440.57,-592.2 1440.57,-561.4 1185.6,-561.4"/>
<text text-anchor="start" x="1192.6" y="-573.6" font-family="Arial" font-size="14.00">recipe_id </text>
<text text-anchor="start" x="1253.31" y="-573.6" font-family="Arial" font-size="14.00" fill="#666666">[uuid]</text>
<polygon fill="none" stroke="black" points="1185.6,-530.6 1185.6,-561.4 1440.57,-561.4 1440.57,-530.6 1185.6,-530.6"/>
<text text-anchor="start" x="1192.6" y="-542.8" font-family="Arial" font-size="14.00">comment_id </text>
<text text-anchor="start" x="1272.75" y="-542.8" font-family="Arial" font-size="14.00" fill="#666666">[uuid]</text>
<polygon fill="none" stroke="black" points="1185.6,-499.8 1185.6,-530.6 1440.57,-530.6 1440.57,-499.8 1185.6,-499.8"/>
<text text-anchor="start" x="1192.6" y="-512" font-family="Arial" font-size="14.00">actor_user_id </text>
<text text-anchor="start" x="1281.32" y="-512" font-family="Arial" font-size="14.00" fill="#666666">[uuid]</text>
</g>
<!-- api.notifications&#45;&gt;public.users -->
<g id="edge4" class="edge">
<title>api.notifications:actor_user_id&#45;&gt;public.users:user_id</title>
<path fill="none" stroke="black" d="M1313.68,-488.53C1321.28,-425.96 1399.75,-440.43 1425.57,-374.4 1441.3,-334.16 1469.77,-277.2 1426.57,-277.2"/>
<polygon fill="black" stroke="black" points="1313.68,-488.48 1308.61,-498.21 1313.37,-493.81 1313.12,-498.13 1313.12,-498.13 1313.12,-498.13 1313.37,-493.81 1317.6,-498.73 1313.68,-488.48"/>
</g>
<!-- api.notifications&#45;&gt;public.users -->
<g id="edge5" class="edge">
<title>api.notifications:user_id&#45;&gt;public.users:user_id</title>
<path fill="none" stroke="black" d="M1450.11,-663.35C1482.84,-614.59 1467.01,-277.2 1426.57,-277.2"/>
<polygon fill="black" stroke="black" points="1450.1,-663.36 1439.3,-665.3 1445.69,-666.38 1442.12,-668.82 1442.12,-668.82 1442.12,-668.82 1445.69,-666.38 1444.38,-672.72 1450.1,-663.36"/>
</g>
<!-- api.recipes_comments_votes -->
<g id="node6" class="node">
<title>api.recipes_comments_votes</title>
<polygon fill="#efefef" stroke="none" points="1545.12,-653.8 1545.12,-689.4 1891.05,-689.4 1891.05,-653.8 1545.12,-653.8"/>
<polygon fill="none" stroke="black" points="1545.12,-653.8 1545.12,-689.4 1891.05,-689.4 1891.05,-653.8 1545.12,-653.8"/>
<text text-anchor="start" x="1552.12" y="-667.2" font-family="Arial Bold" font-size="18.00">api.recipes_comments_votes</text>
<text text-anchor="start" x="1759.56" y="-667.2" font-family="Arial" font-size="14.00">    </text>
<text text-anchor="start" x="1790.68" y="-667.2" font-family="Arial" font-size="14.00" fill="#666666">[BASE TABLE]</text>
<polygon fill="none" stroke="black" points="1545.12,-623 1545.12,-653.8 1891.05,-653.8 1891.05,-623 1545.12,-623"/>
<text text-anchor="start" x="1552.12" y="-635.2" font-family="Arial" font-size="14.00">user_id </text>
<text text-anchor="start" x="1601.93" y="-635.2" font-family="Arial" font-size="14.00" fill="#666666">[uuid]</text>
<polygon fill="none" stroke="black" points="1545.12,-592.2 1545.12,-623 1891.05,-623 1891.05,-592.2 1545.12,-592.2"/>
<text text-anchor="start" x="1552.12" y="-604.4" font-family="Arial" font-size="14.00">comment_id </text>
<text text-anchor="start" x="1632.27" y="-604.4" font-family="Arial" font-size="14.00" fill="#666666">[uuid]</text>
<polygon fill="none" stroke="black" points="1545.12,-561.4 1545.12,-592.2 1891.05,-592.2 1891.05,-561.4 1545.12,-561.4"/>
<text text-anchor="start" x="1552.12" y="-573.6" font-family="Arial" font-size="14.00">upvote </text>
<text text-anchor="start" x="1598.05" y="-573.6" font-family="Arial" font-size="14.00" fill="#666666">[boolean]</text>
</g>
<!-- api.recipes_comments_votes&#45;&gt;public.users -->
<g id="edge6" class="edge">
<title>api.recipes_comments_votes:user_id&#45;&gt;public.users:user_id</title>
<path fill="none" stroke="black" d="M1534.17,-635.85C1494.6,-613.86 1509.26,-455.88 1493.09,-410.4 1470.91,-348.05 1492.74,-277.2 1426.57,-277.2"/>
<polygon fill="black" stroke="black" points="1534.11,-635.84 1542.68,-642.68 1539.28,-637.16 1543.47,-638.23 1543.47,-638.23 1543.47,-638.23 1539.28,-637.16 1544.91,-633.96 1534.11,-635.84"/>
</g>
<!-- api.recipes_votes -->
<g id="node7" class="node">
<title>api.recipes_votes</title>
<polygon fill="#efefef" stroke="none" points="1995.61,-653.8 1995.61,-689.4 2258.56,-689.4 2258.56,-653.8 1995.61,-653.8"/>
<polygon fill="none" stroke="black" points="1995.61,-653.8 1995.61,-689.4 2258.56,-689.4 2258.56,-653.8 1995.61,-653.8"/>
<text text-anchor="start" x="2002.61" y="-667.2" font-family="Arial Bold" font-size="18.00">api.recipes_votes</text>
<text text-anchor="start" x="2127.07" y="-667.2" font-family="Arial" font-size="14.00">    </text>
<text text-anchor="start" x="2158.18" y="-667.2" font-family="Arial" font-size="14.00" fill="#666666">[BASE TABLE]</text>
<polygon fill="none" stroke="black" points="1995.61,-623 1995.61,-653.8 2258.56,-653.8 2258.56,-623 1995.61,-623"/>
<text text-anchor="start" x="2002.61" y="-635.2" font-family="Arial" font-size="14.00">user_id </text>
<text text-anchor="start" x="2052.42" y="-635.2" font-family="Arial" font-size="14.00" fill="#666666">[uuid]</text>
<polygon fill="none" stroke="black" points="1995.61,-592.2 1995.61,-623 2258.56,-623 2258.56,-592.2 1995.61,-592.2"/>
<text text-anchor="start" x="2002.61" y="-604.4" font-family="Arial" font-size="14.00">recipe_id </text>
<text text-anchor="start" x="2063.32" y="-604.4" font-family="Arial" font-size="14.00" fill="#666666">[uuid]</text>
<polygon fill="none" stroke="black" points="1995.61,-561.4 1995.61,-592.2 2258.56,-592.2 2258.56,-561.4 1995.61,-561.4"/>
<text text-anchor="start" x="2002.61" y="-573.6" font-family="Arial" font-size="14.00">upvote </text>
<text text-anchor="start" x="2048.54" y="-573.6" font-family="Arial" font-size="14.00" fill="#666666">[boolean]</text>
</g>
<!-- api.recipes_votes&#45;&gt;public.users -->
<g id="edge7" class="edge">
<title>api.recipes_votes:user_id&#45;&gt;public.users:user_id</title>
<path fill="none" stroke="black" d="M1984.23,-637.81C1899.48,-627.41 2012.82,-482.26 1943.09,-410.4 1860.54,-325.33 1545.11,-277.2 1426.57,-277.2"/>
<polygon fill="black" stroke="black" points="1984.3,-637.81 1994.03,-642.87 1989.62,-638.12 1993.95,-638.36 1993.95,-638.36 1993.95,-638.36 1989.62,-638.12 1994.54,-633.89 1984.3,-637.81"/>
</g>
<!-- api.users_follows -->
<g id="node8" class="node">
<title>api.users_follows</title>
<polygon fill="#efefef" stroke="none" points="2362.6,-638.4 2362.6,-674 2627.57,-674 2627.57,-638.4 2362.6,-638.4"/>
<polygon fill="none" stroke="black" points="2362.6,-638.4 2362.6,-674 2627.57,-674 2627.57,-638.4 2362.6,-638.4"/>
<text text-anchor="start" x="2369.6" y="-651.8" font-family="Arial Bold" font-size="18.00">api.users_follows</text>
<text text-anchor="start" x="2496.08" y="-651.8" font-family="Arial" font-size="14.00">    </text>
<text text-anchor="start" x="2527.2" y="-651.8" font-family="Arial" font-size="14.00" fill="#666666">[BASE TABLE]</text>
<polygon fill="none" stroke="black" points="2362.6,-607.6 2362.6,-638.4 2627.57,-638.4 2627.57,-607.6 2362.6,-607.6"/>
<text text-anchor="start" x="2369.6" y="-619.8" font-family="Arial" font-size="14.00">user_id </text>
<text text-anchor="start" x="2419.41" y="-619.8" font-family="Arial" font-size="14.00" fill="#666666">[uuid]</text>
<polygon fill="none" stroke="black" points="2362.6,-576.8 2362.6,-607.6 2627.57,-607.6 2627.57,-576.8 2362.6,-576.8"/>
<text text-anchor="start" x="2369.6" y="-589" font-family="Arial" font-size="14.00">followed_user_id </text>
<text text-anchor="start" x="2478.56" y="-589" font-family="Arial" font-size="14.00" fill="#666666">[uuid]</text>
</g>
<!-- api.users_follows&#45;&gt;public.users -->
<g id="edge8" class="edge">
<title>api.users_follows:followed_user_id&#45;&gt;public.users:user_id</title>
<path fill="none" stroke="black" d="M2351.36,-591.45C2286.06,-581 2371.06,-463.49 2311.09,-410.4 2162.25,-278.64 1625.35,-277.2 1426.57,-277.2"/>
<polygon fill="black" stroke="black" points="2351.29,-591.45 2360.94,-596.66 2356.61,-591.84 2360.93,-592.15 2360.93,-592.15 2360.93,-592.15 2356.61,-591.84 2361.59,-587.69 2351.29,-591.45"/>
</g>
<!-- api.users_follows&#45;&gt;public.users -->
<g id="edge9" class="edge">
<title>api.users_follows:user_id&#45;&gt;public.users:user_id</title>
<path fill="none" stroke="black" d="M2351.18,-622.34C2273.42,-611.65 2379.78,-473.57 2311.09,-410.4 2237.93,-343.13 1525.96,-277.2 1426.57,-277.2"/>
<polygon fill="black" stroke="black" points="2351.29,-622.35 2360.98,-627.47 2356.61,-622.68 2360.93,-622.96 2360.93,-622.96 2360.93,-622.96 2356.61,-622.68 2361.55,-618.49 2351.29,-622.35"/>
</g>
</g>
</svg>
