<?xml version="1.0" encoding="UTF-8" standalone="no"?>
<!DOCTYPE svg PUBLIC "-//W3C//DTD SVG 1.1//EN"
 "http://www.w3.org/Graphics/SVG/1.1/DTD/svg11.dtd">
<!-- Generated by graphviz version 12.1.2 (20240928.0832)
 -->
<!-- Title: recipedb Pages: 1 -->
<svg width="2866pt" height="1559pt"
 viewBox="0.00 0.00 2866.47 1558.80" xmlns="http://www.w3.org/2000/svg" xmlns:xlink="http://www.w3.org/1999/xlink">
<g id="graph0" class="graph" transform="scale(1 1) rotate(0) translate(4 1554.8)">
<title>recipedb</title>
<polygon fill="white" stroke="none" points="-4,4 -4,-1554.8 2862.47,-1554.8 2862.47,4 -4,4"/>
<!-- public.users -->
<g id="node1" class="node">
<title>public.users</title>
<polygon fill="#efefef" stroke="none" points="339.3,-289.6 339.3,-325.2 564.28,-325.2 564.28,-289.6 339.3,-289.6"/>
<polygon fill="none" stroke="black" points="339.3,-289.6 339.3,-325.2 564.28,-325.2 564.28,-289.6 339.3,-289.6"/>
<text text-anchor="start" x="346.3" y="-303" font-family="Arial Bold" font-size="18.00">public.users</text>
<text text-anchor="start" x="432.79" y="-303" font-family="Arial" font-size="14.00">    </text>
<text text-anchor="start" x="463.9" y="-303" font-family="Arial" font-size="14.00" fill="#666666">[BASE TABLE]</text>
<polygon fill="none" stroke="black" points="339.3,-258.8 339.3,-289.6 564.28,-289.6 564.28,-258.8 339.3,-258.8"/>
<text text-anchor="start" x="346.3" y="-271" font-family="Arial" font-size="14.00">user_id </text>
<text text-anchor="start" x="396.11" y="-271" font-family="Arial" font-size="14.00" fill="#666666">[uuid]</text>
<polygon fill="none" stroke="black" points="339.3,-228 339.3,-258.8 564.28,-258.8 564.28,-228 339.3,-228"/>
<text text-anchor="start" x="346.3" y="-240.2" font-family="Arial" font-size="14.00">email </text>
<text text-anchor="start" x="383.65" y="-240.2" font-family="Arial" font-size="14.00" fill="#666666">[varchar(320)]</text>
<polygon fill="none" stroke="black" points="339.3,-197.2 339.3,-228 564.28,-228 564.28,-197.2 339.3,-197.2"/>
<text text-anchor="start" x="346.3" y="-209.4" font-family="Arial" font-size="14.00">first_name </text>
<text text-anchor="start" x="415.55" y="-209.4" font-family="Arial" font-size="14.00" fill="#666666">[varchar(255)]</text>
<polygon fill="none" stroke="black" points="339.3,-166.4 339.3,-197.2 564.28,-197.2 564.28,-166.4 339.3,-166.4"/>
<text text-anchor="start" x="346.3" y="-178.6" font-family="Arial" font-size="14.00">last_name </text>
<text text-anchor="start" x="414.78" y="-178.6" font-family="Arial" font-size="14.00" fill="#666666">[varchar(255)]</text>
<polygon fill="none" stroke="black" points="339.3,-135.6 339.3,-166.4 564.28,-166.4 564.28,-135.6 339.3,-135.6"/>
<text text-anchor="start" x="346.3" y="-147.8" font-family="Arial" font-size="14.00">password_hash </text>
<text text-anchor="start" x="448.25" y="-147.8" font-family="Arial" font-size="14.00" fill="#666666">[text]</text>
<polygon fill="none" stroke="black" points="339.3,-104.8 339.3,-135.6 564.28,-135.6 564.28,-104.8 339.3,-104.8"/>
<text text-anchor="start" x="346.3" y="-117" font-family="Arial" font-size="14.00">middle_name </text>
<text text-anchor="start" x="434.24" y="-117" font-family="Arial" font-size="14.00" fill="#666666">[varchar(255)]</text>
<polygon fill="none" stroke="black" points="339.3,-74 339.3,-104.8 564.28,-104.8 564.28,-74 339.3,-74"/>
<text text-anchor="start" x="346.3" y="-86.2" font-family="Arial" font-size="14.00">is_admin </text>
<text text-anchor="start" x="406.22" y="-86.2" font-family="Arial" font-size="14.00" fill="#666666">[boolean]</text>
<polygon fill="none" stroke="black" points="339.3,-43.2 339.3,-74 564.28,-74 564.28,-43.2 339.3,-43.2"/>
<text text-anchor="start" x="346.3" y="-55.4" font-family="Arial" font-size="14.00">profile_picture_hash </text>
<text text-anchor="start" x="476.27" y="-55.4" font-family="Arial" font-size="14.00" fill="#666666">[text]</text>
</g>
<!-- public.images -->
<g id="node2" class="node">
<title>public.images</title>
<polygon fill="#efefef" stroke="none" points="2576.31,-1395 2576.31,-1430.6 2815.27,-1430.6 2815.27,-1395 2576.31,-1395"/>
<polygon fill="none" stroke="black" points="2576.31,-1395 2576.31,-1430.6 2815.27,-1430.6 2815.27,-1395 2576.31,-1395"/>
<text text-anchor="start" x="2583.31" y="-1408.4" font-family="Arial Bold" font-size="18.00">public.images</text>
<text text-anchor="start" x="2683.78" y="-1408.4" font-family="Arial" font-size="14.00">    </text>
<text text-anchor="start" x="2714.9" y="-1408.4" font-family="Arial" font-size="14.00" fill="#666666">[BASE TABLE]</text>
<polygon fill="none" stroke="black" points="2576.31,-1364.2 2576.31,-1395 2815.27,-1395 2815.27,-1364.2 2576.31,-1364.2"/>
<text text-anchor="start" x="2583.31" y="-1376.4" font-family="Arial" font-size="14.00">hash </text>
<text text-anchor="start" x="2617.55" y="-1376.4" font-family="Arial" font-size="14.00" fill="#666666">[text]</text>
<polygon fill="none" stroke="black" points="2576.31,-1333.4 2576.31,-1364.2 2815.27,-1364.2 2815.27,-1333.4 2576.31,-1333.4"/>
<text text-anchor="start" x="2583.31" y="-1345.6" font-family="Arial" font-size="14.00">data </text>
<text text-anchor="start" x="2614.44" y="-1345.6" font-family="Arial" font-size="14.00" fill="#666666">[bytea]</text>
</g>
<!-- api.recipes -->
<g id="node3" class="node">
<title>api.recipes</title>
<polygon fill="#efefef" stroke="none" points="1088.9,-755.6 1088.9,-791.2 1338.67,-791.2 1338.67,-755.6 1088.9,-755.6"/>
<polygon fill="none" stroke="black" points="1088.9,-755.6 1088.9,-791.2 1338.67,-791.2 1338.67,-755.6 1088.9,-755.6"/>
<text text-anchor="start" x="1112.82" y="-769" font-family="Arial Bold" font-size="18.00">api.recipes</text>
<text text-anchor="start" x="1190.27" y="-769" font-family="Arial" font-size="14.00">    </text>
<text text-anchor="start" x="1221.39" y="-769" font-family="Arial" font-size="14.00" fill="#666666">[BASE TABLE]</text>
<polygon fill="none" stroke="black" points="1088.9,-724.8 1088.9,-755.6 1338.67,-755.6 1338.67,-724.8 1088.9,-724.8"/>
<text text-anchor="start" x="1095.9" y="-737" font-family="Arial" font-size="14.00">recipe_id </text>
<text text-anchor="start" x="1156.61" y="-737" font-family="Arial" font-size="14.00" fill="#666666">[uuid]</text>
<polygon fill="none" stroke="black" points="1088.9,-694 1088.9,-724.8 1338.67,-724.8 1338.67,-694 1088.9,-694"/>
<text text-anchor="start" x="1095.9" y="-706.2" font-family="Arial" font-size="14.00">user_id </text>
<text text-anchor="start" x="1145.71" y="-706.2" font-family="Arial" font-size="14.00" fill="#666666">[uuid]</text>
<polygon fill="none" stroke="black" points="1088.9,-663.2 1088.9,-694 1338.67,-694 1338.67,-663.2 1088.9,-663.2"/>
<text text-anchor="start" x="1095.9" y="-675.4" font-family="Arial" font-size="14.00">title </text>
<text text-anchor="start" x="1121.58" y="-675.4" font-family="Arial" font-size="14.00" fill="#666666">[varchar(255)]</text>
<polygon fill="none" stroke="black" points="1088.9,-632.4 1088.9,-663.2 1338.67,-663.2 1338.67,-632.4 1088.9,-632.4"/>
<text text-anchor="start" x="1095.9" y="-644.6" font-family="Arial" font-size="14.00">description </text>
<text text-anchor="start" x="1167.5" y="-644.6" font-family="Arial" font-size="14.00" fill="#666666">[text]</text>
<polygon fill="none" stroke="black" points="1088.9,-601.6 1088.9,-632.4 1338.67,-632.4 1338.67,-601.6 1088.9,-601.6"/>
<text text-anchor="start" x="1095.9" y="-613.8" font-family="Arial" font-size="14.00">difficulty </text>
<text text-anchor="start" x="1150.37" y="-613.8" font-family="Arial" font-size="14.00" fill="#666666">[api.difficulty_level]</text>
<polygon fill="none" stroke="black" points="1088.9,-570.8 1088.9,-601.6 1338.67,-601.6 1338.67,-570.8 1088.9,-570.8"/>
<text text-anchor="start" x="1095.9" y="-583" font-family="Arial" font-size="14.00">serving </text>
<text text-anchor="start" x="1144.92" y="-583" font-family="Arial" font-size="14.00" fill="#666666">[integer]</text>
<polygon fill="none" stroke="black" points="1088.9,-540 1088.9,-570.8 1338.67,-570.8 1338.67,-540 1088.9,-540"/>
<text text-anchor="start" x="1095.9" y="-552.2" font-family="Arial" font-size="14.00">prep_mins </text>
<text text-anchor="start" x="1165.16" y="-552.2" font-family="Arial" font-size="14.00" fill="#666666">[integer]</text>
<polygon fill="none" stroke="black" points="1088.9,-509.2 1088.9,-540 1338.67,-540 1338.67,-509.2 1088.9,-509.2"/>
<text text-anchor="start" x="1095.9" y="-521.4" font-family="Arial" font-size="14.00">cook_mins </text>
<text text-anchor="start" x="1166.71" y="-521.4" font-family="Arial" font-size="14.00" fill="#666666">[integer]</text>
<polygon fill="none" stroke="black" points="1088.9,-478.4 1088.9,-509.2 1338.67,-509.2 1338.67,-478.4 1088.9,-478.4"/>
<text text-anchor="start" x="1095.9" y="-490.6" font-family="Arial" font-size="14.00">created_at </text>
<text text-anchor="start" x="1165.95" y="-490.6" font-family="Arial" font-size="14.00" fill="#666666">[timestamp with time zone]</text>
<polygon fill="none" stroke="black" points="1088.9,-447.6 1088.9,-478.4 1338.67,-478.4 1338.67,-447.6 1088.9,-447.6"/>
<text text-anchor="start" x="1095.9" y="-459.8" font-family="Arial" font-size="14.00">thumbnail_image_hash </text>
<text text-anchor="start" x="1244.56" y="-459.8" font-family="Arial" font-size="14.00" fill="#666666">[text]</text>
</g>
<!-- api.recipes&#45;&gt;public.users -->
<g id="edge1" class="edge">
<title>api.recipes:user_id&#45;&gt;public.users:user_id</title>
<path fill="none" stroke="black" d="M1077.86,-709.24C787.43,-699.68 864.15,-274.2 565.28,-274.2"/>
<polygon fill="black" stroke="black" points="1077.57,-709.23 1087.5,-713.89 1082.9,-709.32 1087.23,-709.39 1087.23,-709.39 1087.23,-709.39 1082.9,-709.32 1087.64,-704.9 1077.57,-709.23"/>
</g>
<!-- api.favorite_recipes -->
<g id="node4" class="node">
<title>api.favorite_recipes</title>
<polygon fill="#efefef" stroke="none" points="483.33,-1036.8 483.33,-1072.4 764.25,-1072.4 764.25,-1036.8 483.33,-1036.8"/>
<polygon fill="none" stroke="black" points="483.33,-1036.8 483.33,-1072.4 764.25,-1072.4 764.25,-1036.8 483.33,-1036.8"/>
<text text-anchor="start" x="490.33" y="-1050.2" font-family="Arial Bold" font-size="18.00">api.favorite_recipes</text>
<text text-anchor="start" x="632.76" y="-1050.2" font-family="Arial" font-size="14.00">    </text>
<text text-anchor="start" x="663.87" y="-1050.2" font-family="Arial" font-size="14.00" fill="#666666">[BASE TABLE]</text>
<polygon fill="none" stroke="black" points="483.33,-1006 483.33,-1036.8 764.25,-1036.8 764.25,-1006 483.33,-1006"/>
<text text-anchor="start" x="490.33" y="-1018.2" font-family="Arial" font-size="14.00">user_id </text>
<text text-anchor="start" x="540.14" y="-1018.2" font-family="Arial" font-size="14.00" fill="#666666">[uuid]</text>
<polygon fill="none" stroke="black" points="483.33,-975.2 483.33,-1006 764.25,-1006 764.25,-975.2 483.33,-975.2"/>
<text text-anchor="start" x="490.33" y="-987.4" font-family="Arial" font-size="14.00">recipe_id </text>
<text text-anchor="start" x="551.03" y="-987.4" font-family="Arial" font-size="14.00" fill="#666666">[uuid]</text>
</g>
<!-- api.favorite_recipes&#45;&gt;public.users -->
<g id="edge2" class="edge">
<title>api.favorite_recipes:user_id&#45;&gt;public.users:user_id</title>
<path fill="none" stroke="black" d="M774.77,-1017.38C834.22,-958.57 647.53,-274.2 565.28,-274.2"/>
<polygon fill="black" stroke="black" points="774.77,-1017.38 763.81,-1017.12 769.85,-1019.46 765.86,-1021.14 765.86,-1021.14 765.86,-1021.14 769.85,-1019.46 767.3,-1025.42 774.77,-1017.38"/>
</g>
<!-- api.favorite_recipes&#45;&gt;api.recipes -->
<g id="edge3" class="edge">
<title>api.favorite_recipes:recipe_id&#45;&gt;api.recipes:recipe_id</title>
<path fill="none" stroke="black" d="M775.46,-989.6C817.29,-980.37 778.47,-909.57 815.79,-870.4 908.28,-773.34 953.83,-740.2 1087.9,-740.2"/>
<polygon fill="black" stroke="black" points="775.53,-989.59 765.14,-986.09 770.22,-990.11 765.91,-990.53 765.91,-990.53 765.91,-990.53 770.22,-990.11 766.02,-995.05 775.53,-989.59"/>
</g>
<!-- api.recipes_comments -->
<g id="node5" class="node">
<title>api.recipes_comments</title>
<polygon fill="#efefef" stroke="none" points="2039.32,-1098.4 2039.32,-1134 2338.26,-1134 2338.26,-1098.4 2039.32,-1098.4"/>
<polygon fill="none" stroke="black" points="2039.32,-1098.4 2039.32,-1134 2338.26,-1134 2338.26,-1098.4 2039.32,-1098.4"/>
<text text-anchor="start" x="2046.32" y="-1111.8" font-family="Arial Bold" font-size="18.00">api.recipes_comments</text>
<text text-anchor="start" x="2206.77" y="-1111.8" font-family="Arial" font-size="14.00">    </text>
<text text-anchor="start" x="2237.88" y="-1111.8" font-family="Arial" font-size="14.00" fill="#666666">[BASE TABLE]</text>
<polygon fill="none" stroke="black" points="2039.32,-1067.6 2039.32,-1098.4 2338.26,-1098.4 2338.26,-1067.6 2039.32,-1067.6"/>
<text text-anchor="start" x="2046.32" y="-1079.8" font-family="Arial" font-size="14.00">comment_id </text>
<text text-anchor="start" x="2126.47" y="-1079.8" font-family="Arial" font-size="14.00" fill="#666666">[uuid]</text>
<polygon fill="none" stroke="black" points="2039.32,-1036.8 2039.32,-1067.6 2338.26,-1067.6 2338.26,-1036.8 2039.32,-1036.8"/>
<text text-anchor="start" x="2046.32" y="-1049" font-family="Arial" font-size="14.00">recipe_id </text>
<text text-anchor="start" x="2107.03" y="-1049" font-family="Arial" font-size="14.00" fill="#666666">[uuid]</text>
<polygon fill="none" stroke="black" points="2039.32,-1006 2039.32,-1036.8 2338.26,-1036.8 2338.26,-1006 2039.32,-1006"/>
<text text-anchor="start" x="2046.32" y="-1018.2" font-family="Arial" font-size="14.00">user_id </text>
<text text-anchor="start" x="2096.13" y="-1018.2" font-family="Arial" font-size="14.00" fill="#666666">[uuid]</text>
<polygon fill="none" stroke="black" points="2039.32,-975.2 2039.32,-1006 2338.26,-1006 2338.26,-975.2 2039.32,-975.2"/>
<text text-anchor="start" x="2046.32" y="-987.4" font-family="Arial" font-size="14.00">content </text>
<text text-anchor="start" x="2096.14" y="-987.4" font-family="Arial" font-size="14.00" fill="#666666">[text]</text>
<polygon fill="none" stroke="black" points="2039.32,-944.4 2039.32,-975.2 2338.26,-975.2 2338.26,-944.4 2039.32,-944.4"/>
<text text-anchor="start" x="2046.32" y="-956.6" font-family="Arial" font-size="14.00">created_at </text>
<text text-anchor="start" x="2116.37" y="-956.6" font-family="Arial" font-size="14.00" fill="#666666">[timestamp with time zone]</text>
<polygon fill="none" stroke="black" points="2039.32,-913.6 2039.32,-944.4 2338.26,-944.4 2338.26,-913.6 2039.32,-913.6"/>
<text text-anchor="start" x="2046.32" y="-925.8" font-family="Arial" font-size="14.00">parent_comment_id </text>
<text text-anchor="start" x="2173.95" y="-925.8" font-family="Arial" font-size="14.00" fill="#666666">[uuid]</text>
</g>
<!-- api.recipes_comments&#45;&gt;public.users -->
<g id="edge4" class="edge">
<title>api.recipes_comments:user_id&#45;&gt;public.users:user_id</title>
<path fill="none" stroke="black" d="M2028.93,-1017.46C1972.62,-967.07 2004.18,-450.02 1956.79,-404.4 1844.91,-296.71 720.56,-274.2 565.28,-274.2"/>
<polygon fill="black" stroke="black" points="2028.79,-1017.4 2036.27,-1025.42 2033.71,-1019.46 2037.71,-1021.14 2037.71,-1021.14 2037.71,-1021.14 2033.71,-1019.46 2039.76,-1017.12 2028.79,-1017.4"/>
</g>
<!-- api.recipes_comments&#45;&gt;api.recipes -->
<g id="edge5" class="edge">
<title>api.recipes_comments:recipe_id&#45;&gt;api.recipes:recipe_id</title>
<path fill="none" stroke="black" d="M2028.07,-1051.45C1962.69,-1040.89 2048.04,-922.19 1986.79,-870.4 1930.8,-823.05 1730.68,-848.84 1658.79,-834.4 1513.8,-805.28 1487.55,-740.2 1339.67,-740.2"/>
<polygon fill="black" stroke="black" points="2028.02,-1051.44 2037.66,-1056.66 2033.34,-1051.83 2037.66,-1052.15 2037.66,-1052.15 2037.66,-1052.15 2033.34,-1051.83 2038.32,-1047.69 2028.02,-1051.44"/>
</g>
<!-- api.recipes_comments&#45;&gt;api.recipes_comments -->
<g id="edge6" class="edge">
<title>api.recipes_comments:parent_comment_id&#45;&gt;api.recipes_comments:comment_id</title>
<path fill="none" stroke="black" d="M2190.53,-954.76C2197.75,-1082.08 2197.17,-1356.3 2188.79,-1356.3 2180.19,-1356.3 2179.81,-1208.1 2187.63,-1098.23"/>
<polygon fill="black" stroke="black" points="2190.52,-954.7 2194.41,-944.45 2190.2,-949.38 2189.94,-945.05 2189.94,-945.05 2189.94,-945.05 2190.2,-949.38 2185.43,-944.99 2190.52,-954.7"/>
</g>
<!-- api.notifications -->
<g id="node6" class="node">
<title>api.notifications</title>
<polygon fill="#efefef" stroke="none" points="700.31,-1472 700.31,-1507.6 955.27,-1507.6 955.27,-1472 700.31,-1472"/>
<polygon fill="none" stroke="black" points="700.31,-1472 700.31,-1507.6 955.27,-1507.6 955.27,-1472 700.31,-1472"/>
<text text-anchor="start" x="707.31" y="-1485.4" font-family="Arial Bold" font-size="18.00">api.notifications</text>
<text text-anchor="start" x="823.78" y="-1485.4" font-family="Arial" font-size="14.00">    </text>
<text text-anchor="start" x="854.9" y="-1485.4" font-family="Arial" font-size="14.00" fill="#666666">[BASE TABLE]</text>
<polygon fill="none" stroke="black" points="700.31,-1441.2 700.31,-1472 955.27,-1472 955.27,-1441.2 700.31,-1441.2"/>
<text text-anchor="start" x="707.31" y="-1453.4" font-family="Arial" font-size="14.00">notification_id </text>
<text text-anchor="start" x="796.81" y="-1453.4" font-family="Arial" font-size="14.00" fill="#666666">[uuid]</text>
<polygon fill="none" stroke="black" points="700.31,-1410.4 700.31,-1441.2 955.27,-1441.2 955.27,-1410.4 700.31,-1410.4"/>
<text text-anchor="start" x="707.31" y="-1422.6" font-family="Arial" font-size="14.00">user_id </text>
<text text-anchor="start" x="757.11" y="-1422.6" font-family="Arial" font-size="14.00" fill="#666666">[uuid]</text>
<polygon fill="none" stroke="black" points="700.31,-1379.6 700.31,-1410.4 955.27,-1410.4 955.27,-1379.6 700.31,-1379.6"/>
<text text-anchor="start" x="707.31" y="-1391.8" font-family="Arial" font-size="14.00">type </text>
<text text-anchor="start" x="737.66" y="-1391.8" font-family="Arial" font-size="14.00" fill="#666666">[api.notification_type]</text>
<polygon fill="none" stroke="black" points="700.31,-1348.8 700.31,-1379.6 955.27,-1379.6 955.27,-1348.8 700.31,-1348.8"/>
<text text-anchor="start" x="707.31" y="-1361" font-family="Arial" font-size="14.00">created_at </text>
<text text-anchor="start" x="777.36" y="-1361" font-family="Arial" font-size="14.00" fill="#666666">[timestamp with time zone]</text>
<polygon fill="none" stroke="black" points="700.31,-1318 700.31,-1348.8 955.27,-1348.8 955.27,-1318 700.31,-1318"/>
<text text-anchor="start" x="707.31" y="-1330.2" font-family="Arial" font-size="14.00">recipe_id </text>
<text text-anchor="start" x="768.01" y="-1330.2" font-family="Arial" font-size="14.00" fill="#666666">[uuid]</text>
<polygon fill="none" stroke="black" points="700.31,-1287.2 700.31,-1318 955.27,-1318 955.27,-1287.2 700.31,-1287.2"/>
<text text-anchor="start" x="707.31" y="-1299.4" font-family="Arial" font-size="14.00">comment_id </text>
<text text-anchor="start" x="787.45" y="-1299.4" font-family="Arial" font-size="14.00" fill="#666666">[uuid]</text>
<polygon fill="none" stroke="black" points="700.31,-1256.4 700.31,-1287.2 955.27,-1287.2 955.27,-1256.4 700.31,-1256.4"/>
<text text-anchor="start" x="707.31" y="-1268.6" font-family="Arial" font-size="14.00">actor_user_id </text>
<text text-anchor="start" x="796.02" y="-1268.6" font-family="Arial" font-size="14.00" fill="#666666">[uuid]</text>
</g>
<!-- api.notifications&#45;&gt;public.users -->
<g id="edge7" class="edge">
<title>api.notifications:actor_user_id&#45;&gt;public.users:user_id</title>
<path fill="none" stroke="black" d="M688.95,-1271.62C588.2,-1268.61 108.59,-1229.16 63.79,-1177.2 -44.3,-1051.83 152.75,-418.46 161.79,-404.4 214.5,-322.4 240.82,-274.2 338.3,-274.2"/>
<polygon fill="black" stroke="black" points="688.98,-1271.62 698.89,-1276.29 694.31,-1271.71 698.64,-1271.79 698.64,-1271.79 698.64,-1271.79 694.31,-1271.71 699.05,-1267.29 688.98,-1271.62"/>
</g>
<!-- api.notifications&#45;&gt;public.users -->
<g id="edge8" class="edge">
<title>api.notifications:user_id&#45;&gt;public.users:user_id</title>
<path fill="none" stroke="black" d="M689.19,-1425.65C523.04,-1420.95 116.84,-1305.12 27.79,-1177.2 -24.77,-1101.7 5.63,-469.36 49.79,-404.4 128.88,-288.06 197.62,-274.2 338.3,-274.2"/>
<polygon fill="black" stroke="black" points="688.97,-1425.65 698.91,-1430.29 694.31,-1425.73 698.64,-1425.79 698.64,-1425.79 698.64,-1425.79 694.31,-1425.73 699.04,-1421.3 688.97,-1425.65"/>
</g>
<!-- api.notifications&#45;&gt;api.recipes -->
<g id="edge9" class="edge">
<title>api.notifications:recipe_id&#45;&gt;api.recipes:recipe_id</title>
<path fill="none" stroke="black" d="M966.43,-1333.34C1119.28,-1331.48 1503.23,-1288.93 1590.79,-1177.2 1632.84,-1123.54 1626.21,-928.66 1590.79,-870.4 1525.48,-762.98 1465.39,-740.2 1339.67,-740.2"/>
<polygon fill="black" stroke="black" points="966.6,-1333.34 956.58,-1328.9 961.27,-1333.37 956.94,-1333.4 956.94,-1333.4 956.94,-1333.4 961.27,-1333.37 956.63,-1337.9 966.6,-1333.34"/>
</g>
<!-- api.notifications&#45;&gt;api.recipes_comments -->
<g id="edge10" class="edge">
<title>api.notifications:comment_id&#45;&gt;api.recipes_comments:comment_id</title>
<path fill="none" stroke="black" d="M966.39,-1302.48C1112.77,-1299.52 1893.73,-1240.27 1986.79,-1177.2 2026.29,-1150.43 1990.6,-1083 2038.32,-1083"/>
<polygon fill="black" stroke="black" points="966.6,-1302.48 956.55,-1298.1 961.27,-1302.54 956.94,-1302.59 956.94,-1302.59 956.94,-1302.59 961.27,-1302.54 956.66,-1307.1 966.6,-1302.48"/>
</g>
<!-- api.recipes_comments_votes -->
<g id="node7" class="node">
<title>api.recipes_comments_votes</title>
<polygon fill="#efefef" stroke="none" points="2125.82,-1410.4 2125.82,-1446 2471.75,-1446 2471.75,-1410.4 2125.82,-1410.4"/>
<polygon fill="none" stroke="black" points="2125.82,-1410.4 2125.82,-1446 2471.75,-1446 2471.75,-1410.4 2125.82,-1410.4"/>
<text text-anchor="start" x="2132.82" y="-1423.8" font-family="Arial Bold" font-size="18.00">api.recipes_comments_votes</text>
<text text-anchor="start" x="2340.26" y="-1423.8" font-family="Arial" font-size="14.00">    </text>
<text text-anchor="start" x="2371.38" y="-1423.8" font-family="Arial" font-size="14.00" fill="#666666">[BASE TABLE]</text>
<polygon fill="none" stroke="black" points="2125.82,-1379.6 2125.82,-1410.4 2471.75,-1410.4 2471.75,-1379.6 2125.82,-1379.6"/>
<text text-anchor="start" x="2132.82" y="-1391.8" font-family="Arial" font-size="14.00">user_id </text>
<text text-anchor="start" x="2182.63" y="-1391.8" font-family="Arial" font-size="14.00" fill="#666666">[uuid]</text>
<polygon fill="none" stroke="black" points="2125.82,-1348.8 2125.82,-1379.6 2471.75,-1379.6 2471.75,-1348.8 2125.82,-1348.8"/>
<text text-anchor="start" x="2132.82" y="-1361" font-family="Arial" font-size="14.00">comment_id </text>
<text text-anchor="start" x="2212.97" y="-1361" font-family="Arial" font-size="14.00" fill="#666666">[uuid]</text>
<polygon fill="none" stroke="black" points="2125.82,-1318 2125.82,-1348.8 2471.75,-1348.8 2471.75,-1318 2125.82,-1318"/>
<text text-anchor="start" x="2132.82" y="-1330.2" font-family="Arial" font-size="14.00">upvote </text>
<text text-anchor="start" x="2178.75" y="-1330.2" font-family="Arial" font-size="14.00" fill="#666666">[boolean]</text>
</g>
<!-- api.recipes_comments_votes&#45;&gt;public.users -->
<g id="edge11" class="edge">
<title>api.recipes_comments_votes:user_id&#45;&gt;public.users:user_id</title>
<path fill="none" stroke="black" d="M2482.6,-1392.5C2530.26,-1366.8 2525.41,-1146.22 2390.79,-870.4 2270.94,-624.85 2232.69,-529.53 1989.79,-404.4 1848.5,-331.61 724.21,-274.2 565.28,-274.2"/>
<polygon fill="black" stroke="black" points="2482.77,-1392.45 2471.97,-1390.56 2477.6,-1393.77 2473.4,-1394.84 2473.4,-1394.84 2473.4,-1394.84 2477.6,-1393.77 2474.19,-1399.28 2482.77,-1392.45"/>
</g>
<!-- api.recipes_comments_votes&#45;&gt;api.recipes_comments -->
<g id="edge12" class="edge">
<title>api.recipes_comments_votes:comment_id&#45;&gt;api.recipes_comments:comment_id</title>
<path fill="none" stroke="black" d="M2114.81,-1362.67C2088.84,-1353.47 2106.31,-1304.88 2125.82,-1274.8 2182.39,-1187.64 2281.72,-1264.37 2338.26,-1177.2 2361.04,-1142.07 2381.12,-1083 2339.26,-1083"/>
<polygon fill="black" stroke="black" points="2114.61,-1362.64 2123.81,-1368.6 2119.88,-1363.44 2124.16,-1364.1 2124.16,-1364.1 2124.16,-1364.1 2119.88,-1363.44 2125.17,-1359.7 2114.61,-1362.64"/>
</g>
<!-- api.recipes_ingredients -->
<g id="node8" class="node">
<title>api.recipes_ingredients</title>
<polygon fill="#efefef" stroke="none" points="868.33,-1083 868.33,-1118.6 1173.25,-1118.6 1173.25,-1083 868.33,-1083"/>
<polygon fill="none" stroke="black" points="868.33,-1083 868.33,-1118.6 1173.25,-1118.6 1173.25,-1083 868.33,-1083"/>
<text text-anchor="start" x="875.33" y="-1096.4" font-family="Arial Bold" font-size="18.00">api.recipes_ingredients</text>
<text text-anchor="start" x="1041.76" y="-1096.4" font-family="Arial" font-size="14.00">    </text>
<text text-anchor="start" x="1072.88" y="-1096.4" font-family="Arial" font-size="14.00" fill="#666666">[BASE TABLE]</text>
<polygon fill="none" stroke="black" points="868.33,-1052.2 868.33,-1083 1173.25,-1083 1173.25,-1052.2 868.33,-1052.2"/>
<text text-anchor="start" x="875.33" y="-1064.4" font-family="Arial" font-size="14.00">recipe_ingredient_id </text>
<text text-anchor="start" x="1005.3" y="-1064.4" font-family="Arial" font-size="14.00" fill="#666666">[uuid]</text>
<polygon fill="none" stroke="black" points="868.33,-1021.4 868.33,-1052.2 1173.25,-1052.2 1173.25,-1021.4 868.33,-1021.4"/>
<text text-anchor="start" x="875.33" y="-1033.6" font-family="Arial" font-size="14.00">recipe_id </text>
<text text-anchor="start" x="936.03" y="-1033.6" font-family="Arial" font-size="14.00" fill="#666666">[uuid]</text>
<polygon fill="none" stroke="black" points="868.33,-990.6 868.33,-1021.4 1173.25,-1021.4 1173.25,-990.6 868.33,-990.6"/>
<text text-anchor="start" x="875.33" y="-1002.8" font-family="Arial" font-size="14.00">name </text>
<text text-anchor="start" x="914.24" y="-1002.8" font-family="Arial" font-size="14.00" fill="#666666">[text]</text>
<polygon fill="none" stroke="black" points="868.33,-959.8 868.33,-990.6 1173.25,-990.6 1173.25,-959.8 868.33,-959.8"/>
<text text-anchor="start" x="875.33" y="-972" font-family="Arial" font-size="14.00">unit </text>
<text text-anchor="start" x="901.79" y="-972" font-family="Arial" font-size="14.00" fill="#666666">[text]</text>
<polygon fill="none" stroke="black" points="868.33,-929 868.33,-959.8 1173.25,-959.8 1173.25,-929 868.33,-929"/>
<text text-anchor="start" x="875.33" y="-941.2" font-family="Arial" font-size="14.00">amount </text>
<text text-anchor="start" x="925.91" y="-941.2" font-family="Arial" font-size="14.00" fill="#666666">[numeric]</text>
</g>
<!-- api.recipes_ingredients&#45;&gt;api.recipes -->
<g id="edge13" class="edge">
<title>api.recipes_ingredients:recipe_id&#45;&gt;api.recipes:recipe_id</title>
<path fill="none" stroke="black" d="M1184.36,-1035.99C1237.54,-1026.77 1204.5,-941.01 1173.25,-885.8 1151.63,-847.6 1110.6,-872.56 1088.9,-834.4 1068.21,-798 1046.03,-740.2 1087.9,-740.2"/>
<polygon fill="black" stroke="black" points="1184.55,-1035.97 1174.23,-1032.29 1179.24,-1036.4 1174.92,-1036.75 1174.92,-1036.75 1174.92,-1036.75 1179.24,-1036.4 1174.95,-1041.26 1184.55,-1035.97"/>
</g>
<!-- api.recipes_steps -->
<g id="node9" class="node">
<title>api.recipes_steps</title>
<polygon fill="#efefef" stroke="none" points="1277.32,-1067.6 1277.32,-1103.2 1538.26,-1103.2 1538.26,-1067.6 1277.32,-1067.6"/>
<polygon fill="none" stroke="black" points="1277.32,-1067.6 1277.32,-1103.2 1538.26,-1103.2 1538.26,-1067.6 1277.32,-1067.6"/>
<text text-anchor="start" x="1284.32" y="-1081" font-family="Arial Bold" font-size="18.00">api.recipes_steps</text>
<text text-anchor="start" x="1406.77" y="-1081" font-family="Arial" font-size="14.00">    </text>
<text text-anchor="start" x="1437.89" y="-1081" font-family="Arial" font-size="14.00" fill="#666666">[BASE TABLE]</text>
<polygon fill="none" stroke="black" points="1277.32,-1036.8 1277.32,-1067.6 1538.26,-1067.6 1538.26,-1036.8 1277.32,-1036.8"/>
<text text-anchor="start" x="1284.32" y="-1049" font-family="Arial" font-size="14.00">recipe_step_id </text>
<text text-anchor="start" x="1379.27" y="-1049" font-family="Arial" font-size="14.00" fill="#666666">[uuid]</text>
<polygon fill="none" stroke="black" points="1277.32,-1006 1277.32,-1036.8 1538.26,-1036.8 1538.26,-1006 1277.32,-1006"/>
<text text-anchor="start" x="1284.32" y="-1018.2" font-family="Arial" font-size="14.00">recipe_id </text>
<text text-anchor="start" x="1345.02" y="-1018.2" font-family="Arial" font-size="14.00" fill="#666666">[uuid]</text>
<polygon fill="none" stroke="black" points="1277.32,-975.2 1277.32,-1006 1538.26,-1006 1538.26,-975.2 1277.32,-975.2"/>
<text text-anchor="start" x="1284.32" y="-987.4" font-family="Arial" font-size="14.00">step </text>
<text text-anchor="start" x="1314.67" y="-987.4" font-family="Arial" font-size="14.00" fill="#666666">[text]</text>
<polygon fill="none" stroke="black" points="1277.32,-944.4 1277.32,-975.2 1538.26,-975.2 1538.26,-944.4 1277.32,-944.4"/>
<text text-anchor="start" x="1284.32" y="-956.6" font-family="Arial" font-size="14.00">description </text>
<text text-anchor="start" x="1355.91" y="-956.6" font-family="Arial" font-size="14.00" fill="#666666">[text]</text>
</g>
<!-- api.recipes_steps&#45;&gt;api.recipes -->
<g id="edge14" class="edge">
<title>api.recipes_steps:recipe_id&#45;&gt;api.recipes:recipe_id</title>
<path fill="none" stroke="black" d="M1266.32,-1020.39C1227.71,-1011.59 1259.09,-947.4 1277.32,-901.2 1292.11,-863.7 1323.84,-871.88 1338.67,-834.4 1354.08,-795.47 1381.54,-740.2 1339.67,-740.2"/>
<polygon fill="black" stroke="black" points="1266.03,-1020.36 1275.53,-1025.84 1271.34,-1020.9 1275.65,-1021.33 1275.65,-1021.33 1275.65,-1021.33 1271.34,-1020.9 1276.44,-1016.89 1266.03,-1020.36"/>
</g>
<!-- api.recipes_votes -->
<g id="node10" class="node">
<title>api.recipes_votes</title>
<polygon fill="#efefef" stroke="none" points="116.32,-1052.2 116.32,-1087.8 379.26,-1087.8 379.26,-1052.2 116.32,-1052.2"/>
<polygon fill="none" stroke="black" points="116.32,-1052.2 116.32,-1087.8 379.26,-1087.8 379.26,-1052.2 116.32,-1052.2"/>
<text text-anchor="start" x="123.32" y="-1065.6" font-family="Arial Bold" font-size="18.00">api.recipes_votes</text>
<text text-anchor="start" x="247.77" y="-1065.6" font-family="Arial" font-size="14.00">    </text>
<text text-anchor="start" x="278.89" y="-1065.6" font-family="Arial" font-size="14.00" fill="#666666">[BASE TABLE]</text>
<polygon fill="none" stroke="black" points="116.32,-1021.4 116.32,-1052.2 379.26,-1052.2 379.26,-1021.4 116.32,-1021.4"/>
<text text-anchor="start" x="123.32" y="-1033.6" font-family="Arial" font-size="14.00">user_id </text>
<text text-anchor="start" x="173.12" y="-1033.6" font-family="Arial" font-size="14.00" fill="#666666">[uuid]</text>
<polygon fill="none" stroke="black" points="116.32,-990.6 116.32,-1021.4 379.26,-1021.4 379.26,-990.6 116.32,-990.6"/>
<text text-anchor="start" x="123.32" y="-1002.8" font-family="Arial" font-size="14.00">recipe_id </text>
<text text-anchor="start" x="184.02" y="-1002.8" font-family="Arial" font-size="14.00" fill="#666666">[uuid]</text>
<polygon fill="none" stroke="black" points="116.32,-959.8 116.32,-990.6 379.26,-990.6 379.26,-959.8 116.32,-959.8"/>
<text text-anchor="start" x="123.32" y="-972" font-family="Arial" font-size="14.00">upvote </text>
<text text-anchor="start" x="169.24" y="-972" font-family="Arial" font-size="14.00" fill="#666666">[boolean]</text>
</g>
<!-- api.recipes_votes&#45;&gt;public.users -->
<g id="edge15" class="edge">
<title>api.recipes_votes:user_id&#45;&gt;public.users:user_id</title>
<path fill="none" stroke="black" d="M390.32,-1035.76C429.49,-1026.71 401.93,-960.79 379.26,-916.6 351,-861.51 294.82,-889.61 266.79,-834.4 153.15,-610.6 87.3,-274.2 338.3,-274.2"/>
<polygon fill="black" stroke="black" points="390.54,-1035.73 380.13,-1032.29 385.23,-1036.28 380.93,-1036.73 380.93,-1036.73 380.93,-1036.73 385.23,-1036.28 381.06,-1041.24 390.54,-1035.73"/>
</g>
<!-- api.recipes_votes&#45;&gt;api.recipes -->
<g id="edge16" class="edge">
<title>api.recipes_votes:recipe_id&#45;&gt;api.recipes:recipe_id</title>
<path fill="none" stroke="black" d="M390.59,-1004.99C437.33,-994.75 384.33,-909.03 430.79,-870.4 502.26,-810.98 545.51,-851.9 636.79,-834.4 837.94,-795.83 883.08,-740.2 1087.9,-740.2"/>
<polygon fill="black" stroke="black" points="390.55,-1005 380.16,-1001.49 385.24,-1005.52 380.93,-1005.94 380.93,-1005.94 380.93,-1005.94 385.24,-1005.52 381.03,-1010.45 390.55,-1005"/>
</g>
<!-- api.tags -->
<g id="node11" class="node">
<title>api.tags</title>
<polygon fill="#efefef" stroke="none" points="1710.8,-632.4 1710.8,-668 1904.78,-668 1904.78,-632.4 1710.8,-632.4"/>
<polygon fill="none" stroke="black" points="1710.8,-632.4 1710.8,-668 1904.78,-668 1904.78,-632.4 1710.8,-632.4"/>
<text text-anchor="start" x="1717.8" y="-645.8" font-family="Arial Bold" font-size="18.00">api.tags</text>
<text text-anchor="start" x="1773.29" y="-645.8" font-family="Arial" font-size="14.00">    </text>
<text text-anchor="start" x="1804.4" y="-645.8" font-family="Arial" font-size="14.00" fill="#666666">[BASE TABLE]</text>
<polygon fill="none" stroke="black" points="1710.8,-601.6 1710.8,-632.4 1904.78,-632.4 1904.78,-601.6 1710.8,-601.6"/>
<text text-anchor="start" x="1717.8" y="-613.8" font-family="Arial" font-size="14.00">tag_id </text>
<text text-anchor="start" x="1759.84" y="-613.8" font-family="Arial" font-size="14.00" fill="#666666">[uuid]</text>
<polygon fill="none" stroke="black" points="1710.8,-570.8 1710.8,-601.6 1904.78,-601.6 1904.78,-570.8 1710.8,-570.8"/>
<text text-anchor="start" x="1717.8" y="-583" font-family="Arial" font-size="14.00">name </text>
<text text-anchor="start" x="1756.71" y="-583" font-family="Arial" font-size="14.00" fill="#666666">[varchar(255)]</text>
</g>
<!-- api.recipes_tags -->
<g id="node12" class="node">
<title>api.recipes_tags</title>
<polygon fill="#efefef" stroke="none" points="1680.82,-1036.8 1680.82,-1072.4 1934.76,-1072.4 1934.76,-1036.8 1680.82,-1036.8"/>
<polygon fill="none" stroke="black" points="1680.82,-1036.8 1680.82,-1072.4 1934.76,-1072.4 1934.76,-1036.8 1680.82,-1036.8"/>
<text text-anchor="start" x="1687.82" y="-1050.2" font-family="Arial Bold" font-size="18.00">api.recipes_tags</text>
<text text-anchor="start" x="1803.27" y="-1050.2" font-family="Arial" font-size="14.00">    </text>
<text text-anchor="start" x="1834.39" y="-1050.2" font-family="Arial" font-size="14.00" fill="#666666">[BASE TABLE]</text>
<polygon fill="none" stroke="black" points="1680.82,-1006 1680.82,-1036.8 1934.76,-1036.8 1934.76,-1006 1680.82,-1006"/>
<text text-anchor="start" x="1687.82" y="-1018.2" font-family="Arial" font-size="14.00">recipe_id </text>
<text text-anchor="start" x="1748.52" y="-1018.2" font-family="Arial" font-size="14.00" fill="#666666">[uuid]</text>
<polygon fill="none" stroke="black" points="1680.82,-975.2 1680.82,-1006 1934.76,-1006 1934.76,-975.2 1680.82,-975.2"/>
<text text-anchor="start" x="1687.82" y="-987.4" font-family="Arial" font-size="14.00">tag_id </text>
<text text-anchor="start" x="1729.85" y="-987.4" font-family="Arial" font-size="14.00" fill="#666666">[uuid]</text>
</g>
<!-- api.recipes_tags&#45;&gt;api.recipes -->
<g id="edge17" class="edge">
<title>api.recipes_tags:recipe_id&#45;&gt;api.recipes:recipe_id</title>
<path fill="none" stroke="black" d="M1669.59,-1020.6C1614.7,-1011.14 1669.92,-920.1 1623.79,-870.4 1529.29,-768.6 1478.58,-740.2 1339.67,-740.2"/>
<polygon fill="black" stroke="black" points="1669.51,-1020.59 1679.13,-1025.86 1674.83,-1021.01 1679.15,-1021.35 1679.15,-1021.35 1679.15,-1021.35 1674.83,-1021.01 1679.84,-1016.89 1669.51,-1020.59"/>
</g>
<!-- api.recipes_tags&#45;&gt;api.tags -->
<g id="edge18" class="edge">
<title>api.recipes_tags:tag_id&#45;&gt;api.tags:tag_id</title>
<path fill="none" stroke="black" d="M1808.11,-964.04C1818.38,-801.76 2067.02,-617 1905.78,-617"/>
<polygon fill="black" stroke="black" points="1808.12,-963.87 1803.3,-973.72 1807.95,-969.2 1807.81,-973.53 1807.81,-973.53 1807.81,-973.53 1807.95,-969.2 1812.3,-974.01 1808.12,-963.87"/>
</g>
<!-- api.users_follows -->
<g id="node13" class="node">
<title>api.users_follows</title>
<polygon fill="#efefef" stroke="none" points="319.3,-632.4 319.3,-668 584.28,-668 584.28,-632.4 319.3,-632.4"/>
<polygon fill="none" stroke="black" points="319.3,-632.4 319.3,-668 584.28,-668 584.28,-632.4 319.3,-632.4"/>
<text text-anchor="start" x="326.3" y="-645.8" font-family="Arial Bold" font-size="18.00">api.users_follows</text>
<text text-anchor="start" x="452.79" y="-645.8" font-family="Arial" font-size="14.00">    </text>
<text text-anchor="start" x="483.9" y="-645.8" font-family="Arial" font-size="14.00" fill="#666666">[BASE TABLE]</text>
<polygon fill="none" stroke="black" points="319.3,-601.6 319.3,-632.4 584.28,-632.4 584.28,-601.6 319.3,-601.6"/>
<text text-anchor="start" x="326.3" y="-613.8" font-family="Arial" font-size="14.00">user_id </text>
<text text-anchor="start" x="376.11" y="-613.8" font-family="Arial" font-size="14.00" fill="#666666">[uuid]</text>
<polygon fill="none" stroke="black" points="319.3,-570.8 319.3,-601.6 584.28,-601.6 584.28,-570.8 319.3,-570.8"/>
<text text-anchor="start" x="326.3" y="-583" font-family="Arial" font-size="14.00">followed_user_id </text>
<text text-anchor="start" x="435.26" y="-583" font-family="Arial" font-size="14.00" fill="#666666">[uuid]</text>
</g>
<!-- api.users_follows&#45;&gt;public.users -->
<g id="edge19" class="edge">
<title>api.users_follows:followed_user_id&#45;&gt;public.users:user_id</title>
<path fill="none" stroke="black" d="M452.09,-559.64C457.61,-467.17 538.82,-464.09 564.28,-368.4 575.04,-327.94 607.14,-274.2 565.28,-274.2"/>
<polygon fill="black" stroke="black" points="452.09,-559.47 447.3,-569.33 451.93,-564.8 451.81,-569.13 451.81,-569.13 451.81,-569.13 451.93,-564.8 456.3,-569.6 452.09,-559.47"/>
</g>
<!-- api.users_follows&#45;&gt;public.users -->
<g id="edge20" class="edge">
<title>api.users_follows:user_id&#45;&gt;public.users:user_id</title>
<path fill="none" stroke="black" d="M595.38,-614.81C659.58,-585.62 638.01,-274.2 565.28,-274.2"/>
<polygon fill="black" stroke="black" points="595.38,-614.81 584.65,-612.53 590.16,-615.94 585.93,-616.86 585.93,-616.86 585.93,-616.86 590.16,-615.94 586.56,-621.33 595.38,-614.81"/>
</g>
</g>
</svg>
