<?xml version="1.0" encoding="UTF-8" standalone="no"?>
<!DOCTYPE svg PUBLIC "-//W3C//DTD SVG 1.1//EN"
 "http://www.w3.org/Graphics/SVG/1.1/DTD/svg11.dtd">
<!-- Generated by graphviz version 12.1.2 (20240928.0832)
 -->
<!-- Title: recipedb Pages: 1 -->
<svg width="2422pt" height="1778pt"
 viewBox="0.00 0.00 2422.05 1778.40" xmlns="http://www.w3.org/2000/svg" xmlns:xlink="http://www.w3.org/1999/xlink">
<g id="graph0" class="graph" transform="scale(1 1) rotate(0) translate(4 1774.4)">
<title>recipedb</title>
<polygon fill="white" stroke="none" points="-4,4 -4,-1774.4 2418.05,-1774.4 2418.05,4 -4,4"/>
<!-- public.users -->
<g id="node1" class="node">
<title>public.users</title>
<polygon fill="#efefef" stroke="none" points="543.17,-509.2 543.17,-544.8 768.15,-544.8 768.15,-509.2 543.17,-509.2"/>
<polygon fill="none" stroke="black" points="543.17,-509.2 543.17,-544.8 768.15,-544.8 768.15,-509.2 543.17,-509.2"/>
<text text-anchor="start" x="550.17" y="-522.6" font-family="Arial Bold" font-size="18.00">public.users</text>
<text text-anchor="start" x="636.66" y="-522.6" font-family="Arial" font-size="14.00">    </text>
<text text-anchor="start" x="667.78" y="-522.6" font-family="Arial" font-size="14.00" fill="#666666">[BASE TABLE]</text>
<polygon fill="none" stroke="black" points="543.17,-478.4 543.17,-509.2 768.15,-509.2 768.15,-478.4 543.17,-478.4"/>
<text text-anchor="start" x="550.17" y="-490.6" font-family="Arial" font-size="14.00">user_id </text>
<text text-anchor="start" x="599.98" y="-490.6" font-family="Arial" font-size="14.00" fill="#666666">[uuid]</text>
<polygon fill="none" stroke="black" points="543.17,-447.6 543.17,-478.4 768.15,-478.4 768.15,-447.6 543.17,-447.6"/>
<text text-anchor="start" x="550.17" y="-459.8" font-family="Arial" font-size="14.00">email </text>
<text text-anchor="start" x="587.52" y="-459.8" font-family="Arial" font-size="14.00" fill="#666666">[varchar(320)]</text>
<polygon fill="none" stroke="black" points="543.17,-416.8 543.17,-447.6 768.15,-447.6 768.15,-416.8 543.17,-416.8"/>
<text text-anchor="start" x="550.17" y="-429" font-family="Arial" font-size="14.00">first_name </text>
<text text-anchor="start" x="619.42" y="-429" font-family="Arial" font-size="14.00" fill="#666666">[varchar(255)]</text>
<polygon fill="none" stroke="black" points="543.17,-386 543.17,-416.8 768.15,-416.8 768.15,-386 543.17,-386"/>
<text text-anchor="start" x="550.17" y="-398.2" font-family="Arial" font-size="14.00">last_name </text>
<text text-anchor="start" x="618.66" y="-398.2" font-family="Arial" font-size="14.00" fill="#666666">[varchar(255)]</text>
<polygon fill="none" stroke="black" points="543.17,-355.2 543.17,-386 768.15,-386 768.15,-355.2 543.17,-355.2"/>
<text text-anchor="start" x="550.17" y="-367.4" font-family="Arial" font-size="14.00">password_hash </text>
<text text-anchor="start" x="652.13" y="-367.4" font-family="Arial" font-size="14.00" fill="#666666">[text]</text>
<polygon fill="none" stroke="black" points="543.17,-324.4 543.17,-355.2 768.15,-355.2 768.15,-324.4 543.17,-324.4"/>
<text text-anchor="start" x="550.17" y="-336.6" font-family="Arial" font-size="14.00">middle_name </text>
<text text-anchor="start" x="638.11" y="-336.6" font-family="Arial" font-size="14.00" fill="#666666">[varchar(255)]</text>
<polygon fill="none" stroke="black" points="543.17,-293.6 543.17,-324.4 768.15,-324.4 768.15,-293.6 543.17,-293.6"/>
<text text-anchor="start" x="550.17" y="-305.8" font-family="Arial" font-size="14.00">is_admin </text>
<text text-anchor="start" x="610.09" y="-305.8" font-family="Arial" font-size="14.00" fill="#666666">[boolean]</text>
<polygon fill="none" stroke="black" points="543.17,-262.8 543.17,-293.6 768.15,-293.6 768.15,-262.8 543.17,-262.8"/>
<text text-anchor="start" x="550.17" y="-275" font-family="Arial" font-size="14.00">profile_picture_hash </text>
<text text-anchor="start" x="680.15" y="-275" font-family="Arial" font-size="14.00" fill="#666666">[text]</text>
</g>
<!-- public.images -->
<g id="node2" class="node">
<title>public.images</title>
<polygon fill="#efefef" stroke="none" points="628.18,-104.8 628.18,-140.4 867.14,-140.4 867.14,-104.8 628.18,-104.8"/>
<polygon fill="none" stroke="black" points="628.18,-104.8 628.18,-140.4 867.14,-140.4 867.14,-104.8 628.18,-104.8"/>
<text text-anchor="start" x="635.18" y="-118.2" font-family="Arial Bold" font-size="18.00">public.images</text>
<text text-anchor="start" x="735.65" y="-118.2" font-family="Arial" font-size="14.00">    </text>
<text text-anchor="start" x="766.77" y="-118.2" font-family="Arial" font-size="14.00" fill="#666666">[BASE TABLE]</text>
<polygon fill="none" stroke="black" points="628.18,-74 628.18,-104.8 867.14,-104.8 867.14,-74 628.18,-74"/>
<text text-anchor="start" x="635.18" y="-86.2" font-family="Arial" font-size="14.00">hash </text>
<text text-anchor="start" x="669.43" y="-86.2" font-family="Arial" font-size="14.00" fill="#666666">[text]</text>
<polygon fill="none" stroke="black" points="628.18,-43.2 628.18,-74 867.14,-74 867.14,-43.2 628.18,-43.2"/>
<text text-anchor="start" x="635.18" y="-55.4" font-family="Arial" font-size="14.00">data </text>
<text text-anchor="start" x="666.32" y="-55.4" font-family="Arial" font-size="14.00" fill="#666666">[bytea]</text>
</g>
<!-- public.users&#45;&gt;public.images -->
<g id="edge1" class="edge">
<title>public.users:profile_picture_hash&#45;&gt;public.images:hash</title>
<path fill="none" stroke="black" d="M779.12,-275.37C791.47,-266.16 781.64,-236.69 768.15,-219.6 728.36,-169.18 667.81,-234.15 628.18,-183.6 602.35,-150.65 585.31,-89.4 627.18,-89.4"/>
<polygon fill="black" stroke="black" points="779.09,-275.38 768.24,-273.78 773.96,-276.83 769.79,-278.02 769.79,-278.02 769.79,-278.02 773.96,-276.83 770.7,-282.44 779.09,-275.38"/>
</g>
<!-- api.recipes -->
<g id="node3" class="node">
<title>api.recipes</title>
<polygon fill="#efefef" stroke="none" points="892.78,-975.2 892.78,-1010.8 1142.55,-1010.8 1142.55,-975.2 892.78,-975.2"/>
<polygon fill="none" stroke="black" points="892.78,-975.2 892.78,-1010.8 1142.55,-1010.8 1142.55,-975.2 892.78,-975.2"/>
<text text-anchor="start" x="916.69" y="-988.6" font-family="Arial Bold" font-size="18.00">api.recipes</text>
<text text-anchor="start" x="994.15" y="-988.6" font-family="Arial" font-size="14.00">    </text>
<text text-anchor="start" x="1025.26" y="-988.6" font-family="Arial" font-size="14.00" fill="#666666">[BASE TABLE]</text>
<polygon fill="none" stroke="black" points="892.78,-944.4 892.78,-975.2 1142.55,-975.2 1142.55,-944.4 892.78,-944.4"/>
<text text-anchor="start" x="899.78" y="-956.6" font-family="Arial" font-size="14.00">recipe_id </text>
<text text-anchor="start" x="960.48" y="-956.6" font-family="Arial" font-size="14.00" fill="#666666">[uuid]</text>
<polygon fill="none" stroke="black" points="892.78,-913.6 892.78,-944.4 1142.55,-944.4 1142.55,-913.6 892.78,-913.6"/>
<text text-anchor="start" x="899.78" y="-925.8" font-family="Arial" font-size="14.00">user_id </text>
<text text-anchor="start" x="949.58" y="-925.8" font-family="Arial" font-size="14.00" fill="#666666">[uuid]</text>
<polygon fill="none" stroke="black" points="892.78,-882.8 892.78,-913.6 1142.55,-913.6 1142.55,-882.8 892.78,-882.8"/>
<text text-anchor="start" x="899.78" y="-895" font-family="Arial" font-size="14.00">title </text>
<text text-anchor="start" x="925.45" y="-895" font-family="Arial" font-size="14.00" fill="#666666">[varchar(255)]</text>
<polygon fill="none" stroke="black" points="892.78,-852 892.78,-882.8 1142.55,-882.8 1142.55,-852 892.78,-852"/>
<text text-anchor="start" x="899.78" y="-864.2" font-family="Arial" font-size="14.00">description </text>
<text text-anchor="start" x="971.37" y="-864.2" font-family="Arial" font-size="14.00" fill="#666666">[text]</text>
<polygon fill="none" stroke="black" points="892.78,-821.2 892.78,-852 1142.55,-852 1142.55,-821.2 892.78,-821.2"/>
<text text-anchor="start" x="899.78" y="-833.4" font-family="Arial" font-size="14.00">difficulty </text>
<text text-anchor="start" x="954.24" y="-833.4" font-family="Arial" font-size="14.00" fill="#666666">[api.difficulty_level]</text>
<polygon fill="none" stroke="black" points="892.78,-790.4 892.78,-821.2 1142.55,-821.2 1142.55,-790.4 892.78,-790.4"/>
<text text-anchor="start" x="899.78" y="-802.6" font-family="Arial" font-size="14.00">serving </text>
<text text-anchor="start" x="948.8" y="-802.6" font-family="Arial" font-size="14.00" fill="#666666">[integer]</text>
<polygon fill="none" stroke="black" points="892.78,-759.6 892.78,-790.4 1142.55,-790.4 1142.55,-759.6 892.78,-759.6"/>
<text text-anchor="start" x="899.78" y="-771.8" font-family="Arial" font-size="14.00">prep_mins </text>
<text text-anchor="start" x="969.03" y="-771.8" font-family="Arial" font-size="14.00" fill="#666666">[integer]</text>
<polygon fill="none" stroke="black" points="892.78,-728.8 892.78,-759.6 1142.55,-759.6 1142.55,-728.8 892.78,-728.8"/>
<text text-anchor="start" x="899.78" y="-741" font-family="Arial" font-size="14.00">cook_mins </text>
<text text-anchor="start" x="970.58" y="-741" font-family="Arial" font-size="14.00" fill="#666666">[integer]</text>
<polygon fill="none" stroke="black" points="892.78,-698 892.78,-728.8 1142.55,-728.8 1142.55,-698 892.78,-698"/>
<text text-anchor="start" x="899.78" y="-710.2" font-family="Arial" font-size="14.00">created_at </text>
<text text-anchor="start" x="969.82" y="-710.2" font-family="Arial" font-size="14.00" fill="#666666">[timestamp with time zone]</text>
<polygon fill="none" stroke="black" points="892.78,-667.2 892.78,-698 1142.55,-698 1142.55,-667.2 892.78,-667.2"/>
<text text-anchor="start" x="899.78" y="-679.4" font-family="Arial" font-size="14.00">thumbnail_image_hash </text>
<text text-anchor="start" x="1048.43" y="-679.4" font-family="Arial" font-size="14.00" fill="#666666">[text]</text>
</g>
<!-- api.recipes&#45;&gt;public.users -->
<g id="edge2" class="edge">
<title>api.recipes:user_id&#45;&gt;public.users:user_id</title>
<path fill="none" stroke="black" d="M881.79,-927.06C827.11,-904.17 862.01,-685.5 840.66,-624 819.01,-561.63 835.17,-493.8 769.15,-493.8"/>
<polygon fill="black" stroke="black" points="881.63,-927.03 890.59,-933.35 886.87,-928.05 891.12,-928.87 891.12,-928.87 891.12,-928.87 886.87,-928.05 892.31,-924.52 881.63,-927.03"/>
</g>
<!-- api.recipes&#45;&gt;public.images -->
<g id="edge3" class="edge">
<title>api.recipes:thumbnail_image_hash&#45;&gt;public.images:hash</title>
<path fill="none" stroke="black" d="M1017.72,-656.09C1020.53,-393.5 1129.61,-89.4 868.14,-89.4"/>
<polygon fill="black" stroke="black" points="1017.72,-655.87 1013.16,-665.84 1017.69,-661.2 1017.66,-665.53 1017.66,-665.53 1017.66,-665.53 1017.69,-661.2 1022.16,-665.89 1017.72,-655.87"/>
</g>
<!-- api.favorite_recipes -->
<g id="node4" class="node">
<title>api.favorite_recipes</title>
<polygon fill="#efefef" stroke="none" points="96.2,-1256.4 96.2,-1292 377.12,-1292 377.12,-1256.4 96.2,-1256.4"/>
<polygon fill="none" stroke="black" points="96.2,-1256.4 96.2,-1292 377.12,-1292 377.12,-1256.4 96.2,-1256.4"/>
<text text-anchor="start" x="103.2" y="-1269.8" font-family="Arial Bold" font-size="18.00">api.favorite_recipes</text>
<text text-anchor="start" x="245.63" y="-1269.8" font-family="Arial" font-size="14.00">    </text>
<text text-anchor="start" x="276.75" y="-1269.8" font-family="Arial" font-size="14.00" fill="#666666">[BASE TABLE]</text>
<polygon fill="none" stroke="black" points="96.2,-1225.6 96.2,-1256.4 377.12,-1256.4 377.12,-1225.6 96.2,-1225.6"/>
<text text-anchor="start" x="103.2" y="-1237.8" font-family="Arial" font-size="14.00">user_id </text>
<text text-anchor="start" x="153.01" y="-1237.8" font-family="Arial" font-size="14.00" fill="#666666">[uuid]</text>
<polygon fill="none" stroke="black" points="96.2,-1194.8 96.2,-1225.6 377.12,-1225.6 377.12,-1194.8 96.2,-1194.8"/>
<text text-anchor="start" x="103.2" y="-1207" font-family="Arial" font-size="14.00">recipe_id </text>
<text text-anchor="start" x="163.91" y="-1207" font-family="Arial" font-size="14.00" fill="#666666">[uuid]</text>
</g>
<!-- api.favorite_recipes&#45;&gt;public.users -->
<g id="edge4" class="edge">
<title>api.favorite_recipes:user_id&#45;&gt;public.users:user_id</title>
<path fill="none" stroke="black" d="M384.37,-1233.15C409.31,-1163.5 389.34,-653.05 402.66,-624 438,-546.9 457.36,-493.8 542.17,-493.8"/>
<polygon fill="black" stroke="black" points="384.56,-1232.91 374.81,-1237.94 381.23,-1237.09 378.54,-1240.48 378.54,-1240.48 378.54,-1240.48 381.23,-1237.09 381.85,-1243.54 384.56,-1232.91"/>
</g>
<!-- api.favorite_recipes&#45;&gt;api.recipes -->
<g id="edge5" class="edge">
<title>api.favorite_recipes:recipe_id&#45;&gt;api.recipes:recipe_id</title>
<path fill="none" stroke="black" d="M388.24,-1209.1C429.31,-1199 384.94,-1121.87 428.66,-1090 502.92,-1035.86 763.81,-1104.4 840.66,-1054 880.49,-1027.88 844.14,-959.8 891.78,-959.8"/>
<polygon fill="black" stroke="black" points="388.39,-1209.09 377.97,-1205.69 383.09,-1209.66 378.78,-1210.13 378.78,-1210.13 378.78,-1210.13 383.09,-1209.66 378.94,-1214.64 388.39,-1209.09"/>
</g>
<!-- api.recipes_comments -->
<g id="node5" class="node">
<title>api.recipes_comments</title>
<polygon fill="#efefef" stroke="none" points="1661.19,-1318 1661.19,-1353.6 1960.13,-1353.6 1960.13,-1318 1661.19,-1318"/>
<polygon fill="none" stroke="black" points="1661.19,-1318 1661.19,-1353.6 1960.13,-1353.6 1960.13,-1318 1661.19,-1318"/>
<text text-anchor="start" x="1668.19" y="-1331.4" font-family="Arial Bold" font-size="18.00">api.recipes_comments</text>
<text text-anchor="start" x="1828.64" y="-1331.4" font-family="Arial" font-size="14.00">    </text>
<text text-anchor="start" x="1859.76" y="-1331.4" font-family="Arial" font-size="14.00" fill="#666666">[BASE TABLE]</text>
<polygon fill="none" stroke="black" points="1661.19,-1287.2 1661.19,-1318 1960.13,-1318 1960.13,-1287.2 1661.19,-1287.2"/>
<text text-anchor="start" x="1668.19" y="-1299.4" font-family="Arial" font-size="14.00">comment_id </text>
<text text-anchor="start" x="1748.34" y="-1299.4" font-family="Arial" font-size="14.00" fill="#666666">[uuid]</text>
<polygon fill="none" stroke="black" points="1661.19,-1256.4 1661.19,-1287.2 1960.13,-1287.2 1960.13,-1256.4 1661.19,-1256.4"/>
<text text-anchor="start" x="1668.19" y="-1268.6" font-family="Arial" font-size="14.00">recipe_id </text>
<text text-anchor="start" x="1728.9" y="-1268.6" font-family="Arial" font-size="14.00" fill="#666666">[uuid]</text>
<polygon fill="none" stroke="black" points="1661.19,-1225.6 1661.19,-1256.4 1960.13,-1256.4 1960.13,-1225.6 1661.19,-1225.6"/>
<text text-anchor="start" x="1668.19" y="-1237.8" font-family="Arial" font-size="14.00">user_id </text>
<text text-anchor="start" x="1718" y="-1237.8" font-family="Arial" font-size="14.00" fill="#666666">[uuid]</text>
<polygon fill="none" stroke="black" points="1661.19,-1194.8 1661.19,-1225.6 1960.13,-1225.6 1960.13,-1194.8 1661.19,-1194.8"/>
<text text-anchor="start" x="1668.19" y="-1207" font-family="Arial" font-size="14.00">content </text>
<text text-anchor="start" x="1718.01" y="-1207" font-family="Arial" font-size="14.00" fill="#666666">[text]</text>
<polygon fill="none" stroke="black" points="1661.19,-1164 1661.19,-1194.8 1960.13,-1194.8 1960.13,-1164 1661.19,-1164"/>
<text text-anchor="start" x="1668.19" y="-1176.2" font-family="Arial" font-size="14.00">created_at </text>
<text text-anchor="start" x="1738.24" y="-1176.2" font-family="Arial" font-size="14.00" fill="#666666">[timestamp with time zone]</text>
<polygon fill="none" stroke="black" points="1661.19,-1133.2 1661.19,-1164 1960.13,-1164 1960.13,-1133.2 1661.19,-1133.2"/>
<text text-anchor="start" x="1668.19" y="-1145.4" font-family="Arial" font-size="14.00">parent_comment_id </text>
<text text-anchor="start" x="1795.82" y="-1145.4" font-family="Arial" font-size="14.00" fill="#666666">[uuid]</text>
</g>
<!-- api.recipes_comments&#45;&gt;public.users -->
<g id="edge6" class="edge">
<title>api.recipes_comments:user_id&#45;&gt;public.users:user_id</title>
<path fill="none" stroke="black" d="M1650.02,-1240.27C1595.05,-1231.61 1643.28,-1148 1609.66,-1090 1470.6,-850.05 1428.14,-773.68 1194.66,-624 1028.16,-517.26 966.92,-493.8 769.15,-493.8"/>
<polygon fill="black" stroke="black" points="1649.89,-1240.26 1659.54,-1245.46 1655.21,-1240.64 1659.53,-1240.95 1659.53,-1240.95 1659.53,-1240.95 1655.21,-1240.64 1660.18,-1236.49 1649.89,-1240.26"/>
</g>
<!-- api.recipes_comments&#45;&gt;api.recipes -->
<g id="edge7" class="edge">
<title>api.recipes_comments:recipe_id&#45;&gt;api.recipes:recipe_id</title>
<path fill="none" stroke="black" d="M1649.93,-1271.08C1584.34,-1260.92 1666.26,-1146.67 1609.66,-1090 1600.16,-1080.49 1156.99,-959.8 1143.55,-959.8"/>
<polygon fill="black" stroke="black" points="1649.89,-1271.07 1659.54,-1276.27 1655.21,-1271.45 1659.53,-1271.75 1659.53,-1271.75 1659.53,-1271.75 1655.21,-1271.45 1660.18,-1267.29 1649.89,-1271.07"/>
</g>
<!-- api.recipes_comments&#45;&gt;api.recipes_comments -->
<g id="edge8" class="edge">
<title>api.recipes_comments:parent_comment_id&#45;&gt;api.recipes_comments:comment_id</title>
<path fill="none" stroke="black" d="M1812.4,-1174.36C1819.62,-1301.68 1819.04,-1575.9 1810.66,-1575.9 1802.07,-1575.9 1801.68,-1427.7 1809.5,-1317.83"/>
<polygon fill="black" stroke="black" points="1812.39,-1174.3 1816.28,-1164.05 1812.07,-1168.98 1811.81,-1164.65 1811.81,-1164.65 1811.81,-1164.65 1812.07,-1168.98 1807.3,-1164.59 1812.39,-1174.3"/>
</g>
<!-- api.notifications -->
<g id="node6" class="node">
<title>api.notifications</title>
<polygon fill="#efefef" stroke="none" points="293.18,-1691.6 293.18,-1727.2 548.14,-1727.2 548.14,-1691.6 293.18,-1691.6"/>
<polygon fill="none" stroke="black" points="293.18,-1691.6 293.18,-1727.2 548.14,-1727.2 548.14,-1691.6 293.18,-1691.6"/>
<text text-anchor="start" x="300.18" y="-1705" font-family="Arial Bold" font-size="18.00">api.notifications</text>
<text text-anchor="start" x="416.65" y="-1705" font-family="Arial" font-size="14.00">    </text>
<text text-anchor="start" x="447.77" y="-1705" font-family="Arial" font-size="14.00" fill="#666666">[BASE TABLE]</text>
<polygon fill="none" stroke="black" points="293.18,-1660.8 293.18,-1691.6 548.14,-1691.6 548.14,-1660.8 293.18,-1660.8"/>
<text text-anchor="start" x="300.18" y="-1673" font-family="Arial" font-size="14.00">notification_id </text>
<text text-anchor="start" x="389.68" y="-1673" font-family="Arial" font-size="14.00" fill="#666666">[uuid]</text>
<polygon fill="none" stroke="black" points="293.18,-1630 293.18,-1660.8 548.14,-1660.8 548.14,-1630 293.18,-1630"/>
<text text-anchor="start" x="300.18" y="-1642.2" font-family="Arial" font-size="14.00">user_id </text>
<text text-anchor="start" x="349.99" y="-1642.2" font-family="Arial" font-size="14.00" fill="#666666">[uuid]</text>
<polygon fill="none" stroke="black" points="293.18,-1599.2 293.18,-1630 548.14,-1630 548.14,-1599.2 293.18,-1599.2"/>
<text text-anchor="start" x="300.18" y="-1611.4" font-family="Arial" font-size="14.00">type </text>
<text text-anchor="start" x="330.53" y="-1611.4" font-family="Arial" font-size="14.00" fill="#666666">[api.notification_type]</text>
<polygon fill="none" stroke="black" points="293.18,-1568.4 293.18,-1599.2 548.14,-1599.2 548.14,-1568.4 293.18,-1568.4"/>
<text text-anchor="start" x="300.18" y="-1580.6" font-family="Arial" font-size="14.00">created_at </text>
<text text-anchor="start" x="370.23" y="-1580.6" font-family="Arial" font-size="14.00" fill="#666666">[timestamp with time zone]</text>
<polygon fill="none" stroke="black" points="293.18,-1537.6 293.18,-1568.4 548.14,-1568.4 548.14,-1537.6 293.18,-1537.6"/>
<text text-anchor="start" x="300.18" y="-1549.8" font-family="Arial" font-size="14.00">recipe_id </text>
<text text-anchor="start" x="360.88" y="-1549.8" font-family="Arial" font-size="14.00" fill="#666666">[uuid]</text>
<polygon fill="none" stroke="black" points="293.18,-1506.8 293.18,-1537.6 548.14,-1537.6 548.14,-1506.8 293.18,-1506.8"/>
<text text-anchor="start" x="300.18" y="-1519" font-family="Arial" font-size="14.00">comment_id </text>
<text text-anchor="start" x="380.32" y="-1519" font-family="Arial" font-size="14.00" fill="#666666">[uuid]</text>
<polygon fill="none" stroke="black" points="293.18,-1476 293.18,-1506.8 548.14,-1506.8 548.14,-1476 293.18,-1476"/>
<text text-anchor="start" x="300.18" y="-1488.2" font-family="Arial" font-size="14.00">actor_user_id </text>
<text text-anchor="start" x="388.9" y="-1488.2" font-family="Arial" font-size="14.00" fill="#666666">[uuid]</text>
</g>
<!-- api.notifications&#45;&gt;public.users -->
<g id="edge9" class="edge">
<title>api.notifications:actor_user_id&#45;&gt;public.users:user_id</title>
<path fill="none" stroke="black" d="M282.06,-1491.02C216.99,-1486.55 75.43,-1442.89 43.66,-1396.8 4.97,-1340.67 22.08,-1154.67 43.66,-1090 153,-762.36 196.77,-493.8 542.17,-493.8"/>
<polygon fill="black" stroke="black" points="281.85,-1491.02 291.68,-1495.88 287.18,-1491.21 291.51,-1491.38 291.51,-1491.38 291.51,-1491.38 287.18,-1491.21 292.01,-1486.89 281.85,-1491.02"/>
</g>
<!-- api.notifications&#45;&gt;public.users -->
<g id="edge10" class="edge">
<title>api.notifications:user_id&#45;&gt;public.users:user_id</title>
<path fill="none" stroke="black" d="M282.18,-1645.28C125.45,-1641.36 82.29,-1544.42 16.66,-1396.8 -31.81,-1287.78 39.93,-640.48 53.66,-624 125.59,-537.69 429.83,-493.8 542.17,-493.8"/>
<polygon fill="black" stroke="black" points="281.85,-1645.27 291.79,-1649.9 287.18,-1645.34 291.51,-1645.39 291.51,-1645.39 291.51,-1645.39 287.18,-1645.34 291.9,-1640.9 281.85,-1645.27"/>
</g>
<!-- api.notifications&#45;&gt;api.recipes -->
<g id="edge11" class="edge">
<title>api.notifications:recipe_id&#45;&gt;api.recipes:recipe_id</title>
<path fill="none" stroke="black" d="M559.26,-1552.9C681.76,-1550.51 728.79,-1503.73 796.66,-1396.8 870.29,-1280.8 798.24,-1222.48 834.66,-1090 851.41,-1029.07 828.59,-959.8 891.78,-959.8"/>
<polygon fill="black" stroke="black" points="559.48,-1552.9 549.43,-1548.5 554.14,-1552.95 549.81,-1552.99 549.81,-1552.99 549.81,-1552.99 554.14,-1552.95 549.52,-1557.5 559.48,-1552.9"/>
</g>
<!-- api.notifications&#45;&gt;api.recipes_comments -->
<g id="edge12" class="edge">
<title>api.notifications:comment_id&#45;&gt;api.recipes_comments:comment_id</title>
<path fill="none" stroke="black" d="M559.56,-1522.09C710.17,-1519.22 1514.09,-1461.91 1609.66,-1396.8 1648.92,-1370.05 1612.68,-1302.6 1660.19,-1302.6"/>
<polygon fill="black" stroke="black" points="559.48,-1522.09 549.43,-1517.7 554.14,-1522.15 549.81,-1522.19 549.81,-1522.19 549.81,-1522.19 554.14,-1522.15 549.52,-1526.7 559.48,-1522.09"/>
</g>
<!-- api.recipes_comments_votes -->
<g id="node7" class="node">
<title>api.recipes_comments_votes</title>
<polygon fill="#efefef" stroke="none" points="1926.7,-1630 1926.7,-1665.6 2272.63,-1665.6 2272.63,-1630 1926.7,-1630"/>
<polygon fill="none" stroke="black" points="1926.7,-1630 1926.7,-1665.6 2272.63,-1665.6 2272.63,-1630 1926.7,-1630"/>
<text text-anchor="start" x="1933.7" y="-1643.4" font-family="Arial Bold" font-size="18.00">api.recipes_comments_votes</text>
<text text-anchor="start" x="2141.14" y="-1643.4" font-family="Arial" font-size="14.00">    </text>
<text text-anchor="start" x="2172.25" y="-1643.4" font-family="Arial" font-size="14.00" fill="#666666">[BASE TABLE]</text>
<polygon fill="none" stroke="black" points="1926.7,-1599.2 1926.7,-1630 2272.63,-1630 2272.63,-1599.2 1926.7,-1599.2"/>
<text text-anchor="start" x="1933.7" y="-1611.4" font-family="Arial" font-size="14.00">user_id </text>
<text text-anchor="start" x="1983.5" y="-1611.4" font-family="Arial" font-size="14.00" fill="#666666">[uuid]</text>
<polygon fill="none" stroke="black" points="1926.7,-1568.4 1926.7,-1599.2 2272.63,-1599.2 2272.63,-1568.4 1926.7,-1568.4"/>
<text text-anchor="start" x="1933.7" y="-1580.6" font-family="Arial" font-size="14.00">comment_id </text>
<text text-anchor="start" x="2013.84" y="-1580.6" font-family="Arial" font-size="14.00" fill="#666666">[uuid]</text>
<polygon fill="none" stroke="black" points="1926.7,-1537.6 1926.7,-1568.4 2272.63,-1568.4 2272.63,-1537.6 1926.7,-1537.6"/>
<text text-anchor="start" x="1933.7" y="-1549.8" font-family="Arial" font-size="14.00">upvote </text>
<text text-anchor="start" x="1979.62" y="-1549.8" font-family="Arial" font-size="14.00" fill="#666666">[boolean]</text>
</g>
<!-- api.recipes_comments_votes&#45;&gt;public.users -->
<g id="edge13" class="edge">
<title>api.recipes_comments_votes:user_id&#45;&gt;public.users:user_id</title>
<path fill="none" stroke="black" d="M2283.9,-1614.09C2534.33,-1588.81 2346.65,-630.1 2340.66,-624 2217.91,-498.97 944.36,-493.8 769.15,-493.8"/>
<polygon fill="black" stroke="black" points="2283.95,-1614.09 2273.74,-1610.09 2278.62,-1614.35 2274.29,-1614.57 2274.29,-1614.57 2274.29,-1614.57 2278.62,-1614.35 2274.18,-1619.08 2283.95,-1614.09"/>
</g>
<!-- api.recipes_comments_votes&#45;&gt;api.recipes_comments -->
<g id="edge14" class="edge">
<title>api.recipes_comments_votes:comment_id&#45;&gt;api.recipes_comments:comment_id</title>
<path fill="none" stroke="black" d="M1915.37,-1583.04C1816.75,-1567.03 2083.28,-1302.6 1961.13,-1302.6"/>
<polygon fill="black" stroke="black" points="1915.39,-1583.04 1925.03,-1588.26 1920.71,-1583.43 1925.03,-1583.75 1925.03,-1583.75 1925.03,-1583.75 1920.71,-1583.43 1925.69,-1579.29 1915.39,-1583.04"/>
</g>
<!-- api.recipes_ingredients -->
<g id="node8" class="node">
<title>api.recipes_ingredients</title>
<polygon fill="#efefef" stroke="none" points="1252.2,-1302.6 1252.2,-1338.2 1557.12,-1338.2 1557.12,-1302.6 1252.2,-1302.6"/>
<polygon fill="none" stroke="black" points="1252.2,-1302.6 1252.2,-1338.2 1557.12,-1338.2 1557.12,-1302.6 1252.2,-1302.6"/>
<text text-anchor="start" x="1259.2" y="-1316" font-family="Arial Bold" font-size="18.00">api.recipes_ingredients</text>
<text text-anchor="start" x="1425.64" y="-1316" font-family="Arial" font-size="14.00">    </text>
<text text-anchor="start" x="1456.75" y="-1316" font-family="Arial" font-size="14.00" fill="#666666">[BASE TABLE]</text>
<polygon fill="none" stroke="black" points="1252.2,-1271.8 1252.2,-1302.6 1557.12,-1302.6 1557.12,-1271.8 1252.2,-1271.8"/>
<text text-anchor="start" x="1259.2" y="-1284" font-family="Arial" font-size="14.00">recipe_ingredient_id </text>
<text text-anchor="start" x="1389.18" y="-1284" font-family="Arial" font-size="14.00" fill="#666666">[uuid]</text>
<polygon fill="none" stroke="black" points="1252.2,-1241 1252.2,-1271.8 1557.12,-1271.8 1557.12,-1241 1252.2,-1241"/>
<text text-anchor="start" x="1259.2" y="-1253.2" font-family="Arial" font-size="14.00">recipe_id </text>
<text text-anchor="start" x="1319.9" y="-1253.2" font-family="Arial" font-size="14.00" fill="#666666">[uuid]</text>
<polygon fill="none" stroke="black" points="1252.2,-1210.2 1252.2,-1241 1557.12,-1241 1557.12,-1210.2 1252.2,-1210.2"/>
<text text-anchor="start" x="1259.2" y="-1222.4" font-family="Arial" font-size="14.00">name </text>
<text text-anchor="start" x="1298.11" y="-1222.4" font-family="Arial" font-size="14.00" fill="#666666">[text]</text>
<polygon fill="none" stroke="black" points="1252.2,-1179.4 1252.2,-1210.2 1557.12,-1210.2 1557.12,-1179.4 1252.2,-1179.4"/>
<text text-anchor="start" x="1259.2" y="-1191.6" font-family="Arial" font-size="14.00">unit </text>
<text text-anchor="start" x="1285.66" y="-1191.6" font-family="Arial" font-size="14.00" fill="#666666">[text]</text>
<polygon fill="none" stroke="black" points="1252.2,-1148.6 1252.2,-1179.4 1557.12,-1179.4 1557.12,-1148.6 1252.2,-1148.6"/>
<text text-anchor="start" x="1259.2" y="-1160.8" font-family="Arial" font-size="14.00">amount </text>
<text text-anchor="start" x="1309.78" y="-1160.8" font-family="Arial" font-size="14.00" fill="#666666">[numeric]</text>
</g>
<!-- api.recipes_ingredients&#45;&gt;api.recipes -->
<g id="edge15" class="edge">
<title>api.recipes_ingredients:recipe_id&#45;&gt;api.recipes:recipe_id</title>
<path fill="none" stroke="black" d="M1240.79,-1255.74C1178.94,-1247.28 1226.15,-1158.96 1200.66,-1090 1178.75,-1030.73 1206.74,-959.8 1143.55,-959.8"/>
<polygon fill="black" stroke="black" points="1240.88,-1255.75 1250.58,-1260.87 1246.21,-1256.08 1250.53,-1256.36 1250.53,-1256.36 1250.53,-1256.36 1246.21,-1256.08 1251.15,-1251.89 1240.88,-1255.75"/>
</g>
<!-- api.recipes_steps -->
<g id="node9" class="node">
<title>api.recipes_steps</title>
<polygon fill="#efefef" stroke="none" points="887.19,-1287.2 887.19,-1322.8 1148.13,-1322.8 1148.13,-1287.2 887.19,-1287.2"/>
<polygon fill="none" stroke="black" points="887.19,-1287.2 887.19,-1322.8 1148.13,-1322.8 1148.13,-1287.2 887.19,-1287.2"/>
<text text-anchor="start" x="894.19" y="-1300.6" font-family="Arial Bold" font-size="18.00">api.recipes_steps</text>
<text text-anchor="start" x="1016.65" y="-1300.6" font-family="Arial" font-size="14.00">    </text>
<text text-anchor="start" x="1047.76" y="-1300.6" font-family="Arial" font-size="14.00" fill="#666666">[BASE TABLE]</text>
<polygon fill="none" stroke="black" points="887.19,-1256.4 887.19,-1287.2 1148.13,-1287.2 1148.13,-1256.4 887.19,-1256.4"/>
<text text-anchor="start" x="894.19" y="-1268.6" font-family="Arial" font-size="14.00">recipe_step_id </text>
<text text-anchor="start" x="989.14" y="-1268.6" font-family="Arial" font-size="14.00" fill="#666666">[uuid]</text>
<polygon fill="none" stroke="black" points="887.19,-1225.6 887.19,-1256.4 1148.13,-1256.4 1148.13,-1225.6 887.19,-1225.6"/>
<text text-anchor="start" x="894.19" y="-1237.8" font-family="Arial" font-size="14.00">recipe_id </text>
<text text-anchor="start" x="954.89" y="-1237.8" font-family="Arial" font-size="14.00" fill="#666666">[uuid]</text>
<polygon fill="none" stroke="black" points="887.19,-1194.8 887.19,-1225.6 1148.13,-1225.6 1148.13,-1194.8 887.19,-1194.8"/>
<text text-anchor="start" x="894.19" y="-1207" font-family="Arial" font-size="14.00">step </text>
<text text-anchor="start" x="924.54" y="-1207" font-family="Arial" font-size="14.00" fill="#666666">[text]</text>
<polygon fill="none" stroke="black" points="887.19,-1164 887.19,-1194.8 1148.13,-1194.8 1148.13,-1164 887.19,-1164"/>
<text text-anchor="start" x="894.19" y="-1176.2" font-family="Arial" font-size="14.00">description </text>
<text text-anchor="start" x="965.78" y="-1176.2" font-family="Arial" font-size="14.00" fill="#666666">[text]</text>
</g>
<!-- api.recipes_steps&#45;&gt;api.recipes -->
<g id="edge16" class="edge">
<title>api.recipes_steps:recipe_id&#45;&gt;api.recipes:recipe_id</title>
<path fill="none" stroke="black" d="M1159.1,-1238.4C1210.82,-1210.05 1202.51,-959.8 1143.55,-959.8"/>
<polygon fill="black" stroke="black" points="1159.13,-1238.39 1148.32,-1236.56 1153.97,-1239.74 1149.78,-1240.83 1149.78,-1240.83 1149.78,-1240.83 1153.97,-1239.74 1150.6,-1245.27 1159.13,-1238.39"/>
</g>
<!-- api.recipes_votes -->
<g id="node10" class="node">
<title>api.recipes_votes</title>
<polygon fill="#efefef" stroke="none" points="481.19,-1271.8 481.19,-1307.4 744.13,-1307.4 744.13,-1271.8 481.19,-1271.8"/>
<polygon fill="none" stroke="black" points="481.19,-1271.8 481.19,-1307.4 744.13,-1307.4 744.13,-1271.8 481.19,-1271.8"/>
<text text-anchor="start" x="488.19" y="-1285.2" font-family="Arial Bold" font-size="18.00">api.recipes_votes</text>
<text text-anchor="start" x="612.64" y="-1285.2" font-family="Arial" font-size="14.00">    </text>
<text text-anchor="start" x="643.76" y="-1285.2" font-family="Arial" font-size="14.00" fill="#666666">[BASE TABLE]</text>
<polygon fill="none" stroke="black" points="481.19,-1241 481.19,-1271.8 744.13,-1271.8 744.13,-1241 481.19,-1241"/>
<text text-anchor="start" x="488.19" y="-1253.2" font-family="Arial" font-size="14.00">user_id </text>
<text text-anchor="start" x="538" y="-1253.2" font-family="Arial" font-size="14.00" fill="#666666">[uuid]</text>
<polygon fill="none" stroke="black" points="481.19,-1210.2 481.19,-1241 744.13,-1241 744.13,-1210.2 481.19,-1210.2"/>
<text text-anchor="start" x="488.19" y="-1222.4" font-family="Arial" font-size="14.00">recipe_id </text>
<text text-anchor="start" x="548.89" y="-1222.4" font-family="Arial" font-size="14.00" fill="#666666">[uuid]</text>
<polygon fill="none" stroke="black" points="481.19,-1179.4 481.19,-1210.2 744.13,-1210.2 744.13,-1179.4 481.19,-1179.4"/>
<text text-anchor="start" x="488.19" y="-1191.6" font-family="Arial" font-size="14.00">upvote </text>
<text text-anchor="start" x="534.11" y="-1191.6" font-family="Arial" font-size="14.00" fill="#666666">[boolean]</text>
</g>
<!-- api.recipes_votes&#45;&gt;public.users -->
<g id="edge17" class="edge">
<title>api.recipes_votes:user_id&#45;&gt;public.users:user_id</title>
<path fill="none" stroke="black" d="M469.96,-1255.84C396.77,-1247.22 472.69,-1140.34 470.66,-1054 464.76,-803.07 291.18,-493.8 542.17,-493.8"/>
<polygon fill="black" stroke="black" points="469.87,-1255.84 479.61,-1260.88 475.2,-1256.13 479.52,-1256.36 479.52,-1256.36 479.52,-1256.36 475.2,-1256.13 480.1,-1251.89 469.87,-1255.84"/>
</g>
<!-- api.recipes_votes&#45;&gt;api.recipes -->
<g id="edge18" class="edge">
<title>api.recipes_votes:recipe_id&#45;&gt;api.recipes:recipe_id</title>
<path fill="none" stroke="black" d="M755.5,-1224.78C805.3,-1216.08 766.44,-1140.38 801.66,-1090 815.18,-1070.67 826.17,-1072.62 840.66,-1054 869.91,-1016.41 844.14,-959.8 891.78,-959.8"/>
<polygon fill="black" stroke="black" points="755.43,-1224.78 745.11,-1221.09 750.12,-1225.2 745.8,-1225.55 745.8,-1225.55 745.8,-1225.55 750.12,-1225.2 745.82,-1230.06 755.43,-1224.78"/>
</g>
<!-- api.tags -->
<g id="node11" class="node">
<title>api.tags</title>
<polygon fill="#efefef" stroke="none" points="2094.67,-852 2094.67,-887.6 2288.65,-887.6 2288.65,-852 2094.67,-852"/>
<polygon fill="none" stroke="black" points="2094.67,-852 2094.67,-887.6 2288.65,-887.6 2288.65,-852 2094.67,-852"/>
<text text-anchor="start" x="2101.67" y="-865.4" font-family="Arial Bold" font-size="18.00">api.tags</text>
<text text-anchor="start" x="2157.16" y="-865.4" font-family="Arial" font-size="14.00">    </text>
<text text-anchor="start" x="2188.28" y="-865.4" font-family="Arial" font-size="14.00" fill="#666666">[BASE TABLE]</text>
<polygon fill="none" stroke="black" points="2094.67,-821.2 2094.67,-852 2288.65,-852 2288.65,-821.2 2094.67,-821.2"/>
<text text-anchor="start" x="2101.67" y="-833.4" font-family="Arial" font-size="14.00">tag_id </text>
<text text-anchor="start" x="2143.71" y="-833.4" font-family="Arial" font-size="14.00" fill="#666666">[uuid]</text>
<polygon fill="none" stroke="black" points="2094.67,-790.4 2094.67,-821.2 2288.65,-821.2 2288.65,-790.4 2094.67,-790.4"/>
<text text-anchor="start" x="2101.67" y="-802.6" font-family="Arial" font-size="14.00">name </text>
<text text-anchor="start" x="2140.58" y="-802.6" font-family="Arial" font-size="14.00" fill="#666666">[varchar(255)]</text>
</g>
<!-- api.recipes_tags -->
<g id="node12" class="node">
<title>api.recipes_tags</title>
<polygon fill="#efefef" stroke="none" points="2064.69,-1256.4 2064.69,-1292 2318.63,-1292 2318.63,-1256.4 2064.69,-1256.4"/>
<polygon fill="none" stroke="black" points="2064.69,-1256.4 2064.69,-1292 2318.63,-1292 2318.63,-1256.4 2064.69,-1256.4"/>
<text text-anchor="start" x="2071.69" y="-1269.8" font-family="Arial Bold" font-size="18.00">api.recipes_tags</text>
<text text-anchor="start" x="2187.14" y="-1269.8" font-family="Arial" font-size="14.00">    </text>
<text text-anchor="start" x="2218.26" y="-1269.8" font-family="Arial" font-size="14.00" fill="#666666">[BASE TABLE]</text>
<polygon fill="none" stroke="black" points="2064.69,-1225.6 2064.69,-1256.4 2318.63,-1256.4 2318.63,-1225.6 2064.69,-1225.6"/>
<text text-anchor="start" x="2071.69" y="-1237.8" font-family="Arial" font-size="14.00">recipe_id </text>
<text text-anchor="start" x="2132.39" y="-1237.8" font-family="Arial" font-size="14.00" fill="#666666">[uuid]</text>
<polygon fill="none" stroke="black" points="2064.69,-1194.8 2064.69,-1225.6 2318.63,-1225.6 2318.63,-1194.8 2064.69,-1194.8"/>
<text text-anchor="start" x="2071.69" y="-1207" font-family="Arial" font-size="14.00">tag_id </text>
<text text-anchor="start" x="2113.72" y="-1207" font-family="Arial" font-size="14.00" fill="#666666">[uuid]</text>
</g>
<!-- api.recipes_tags&#45;&gt;api.recipes -->
<g id="edge19" class="edge">
<title>api.recipes_tags:recipe_id&#45;&gt;api.recipes:recipe_id</title>
<path fill="none" stroke="black" d="M2053.32,-1240.08C2000.57,-1229.64 2064.02,-1132.98 2012.66,-1090 1862.89,-964.67 1338.84,-959.8 1143.55,-959.8"/>
<polygon fill="black" stroke="black" points="2053.4,-1240.09 2062.96,-1245.45 2058.71,-1240.56 2063.02,-1240.94 2063.02,-1240.94 2063.02,-1240.94 2058.71,-1240.56 2063.75,-1236.49 2053.4,-1240.09"/>
</g>
<!-- api.recipes_tags&#45;&gt;api.tags -->
<g id="edge20" class="edge">
<title>api.recipes_tags:tag_id&#45;&gt;api.tags:tag_id</title>
<path fill="none" stroke="black" d="M2191.99,-1183.64C2202.25,-1021.36 2450.89,-836.6 2289.65,-836.6"/>
<polygon fill="black" stroke="black" points="2191.99,-1183.47 2187.17,-1193.32 2191.82,-1188.8 2191.68,-1193.13 2191.68,-1193.13 2191.68,-1193.13 2191.82,-1188.8 2196.17,-1193.61 2191.99,-1183.47"/>
</g>
<!-- api.users_follows -->
<g id="node13" class="node">
<title>api.users_follows</title>
<polygon fill="#efefef" stroke="none" points="523.17,-852 523.17,-887.6 788.15,-887.6 788.15,-852 523.17,-852"/>
<polygon fill="none" stroke="black" points="523.17,-852 523.17,-887.6 788.15,-887.6 788.15,-852 523.17,-852"/>
<text text-anchor="start" x="530.17" y="-865.4" font-family="Arial Bold" font-size="18.00">api.users_follows</text>
<text text-anchor="start" x="656.66" y="-865.4" font-family="Arial" font-size="14.00">    </text>
<text text-anchor="start" x="687.78" y="-865.4" font-family="Arial" font-size="14.00" fill="#666666">[BASE TABLE]</text>
<polygon fill="none" stroke="black" points="523.17,-821.2 523.17,-852 788.15,-852 788.15,-821.2 523.17,-821.2"/>
<text text-anchor="start" x="530.17" y="-833.4" font-family="Arial" font-size="14.00">user_id </text>
<text text-anchor="start" x="579.98" y="-833.4" font-family="Arial" font-size="14.00" fill="#666666">[uuid]</text>
<polygon fill="none" stroke="black" points="523.17,-790.4 523.17,-821.2 788.15,-821.2 788.15,-790.4 523.17,-790.4"/>
<text text-anchor="start" x="530.17" y="-802.6" font-family="Arial" font-size="14.00">followed_user_id </text>
<text text-anchor="start" x="639.13" y="-802.6" font-family="Arial" font-size="14.00" fill="#666666">[uuid]</text>
</g>
<!-- api.users_follows&#45;&gt;public.users -->
<g id="edge21" class="edge">
<title>api.users_follows:followed_user_id&#45;&gt;public.users:user_id</title>
<path fill="none" stroke="black" d="M655.96,-779.24C661.48,-686.77 742.69,-683.69 768.15,-588 778.91,-547.54 811.02,-493.8 769.15,-493.8"/>
<polygon fill="black" stroke="black" points="655.96,-779.07 651.17,-788.93 655.81,-784.4 655.68,-788.73 655.68,-788.73 655.68,-788.73 655.81,-784.4 660.17,-789.2 655.96,-779.07"/>
</g>
<!-- api.users_follows&#45;&gt;public.users -->
<g id="edge22" class="edge">
<title>api.users_follows:user_id&#45;&gt;public.users:user_id</title>
<path fill="none" stroke="black" d="M799.25,-834.41C863.46,-805.22 841.88,-493.8 769.15,-493.8"/>
<polygon fill="black" stroke="black" points="799.25,-834.41 788.52,-832.13 794.03,-835.54 789.8,-836.46 789.8,-836.46 789.8,-836.46 794.03,-835.54 790.43,-840.93 799.25,-834.41"/>
</g>
</g>
</svg>
