<?xml version="1.0" encoding="UTF-8" standalone="no"?>
<!DOCTYPE svg PUBLIC "-//W3C//DTD SVG 1.1//EN"
 "http://www.w3.org/Graphics/SVG/1.1/DTD/svg11.dtd">
<!-- Generated by graphviz version 12.1.2 (20240928.0832)
 -->
<!-- Title: recipedb Pages: 1 -->
<svg width="1595pt" height="1251pt"
 viewBox="0.00 0.00 1595.19 1250.80" xmlns="http://www.w3.org/2000/svg" xmlns:xlink="http://www.w3.org/1999/xlink">
<g id="graph0" class="graph" transform="scale(1 1) rotate(0) translate(4 1246.8)">
<title>recipedb</title>
<polygon fill="white" stroke="none" points="-4,4 -4,-1246.8 1591.19,-1246.8 1591.19,4 -4,4"/>
<!-- public.users -->
<g id="node1" class="node">
<title>public.users</title>
<polygon fill="#efefef" stroke="none" points="381.04,-258.8 381.04,-294.4 606.01,-294.4 606.01,-258.8 381.04,-258.8"/>
<polygon fill="none" stroke="black" points="381.04,-258.8 381.04,-294.4 606.01,-294.4 606.01,-258.8 381.04,-258.8"/>
<text text-anchor="start" x="388.04" y="-272.2" font-family="Arial Bold" font-size="18.00">public.users</text>
<text text-anchor="start" x="474.52" y="-272.2" font-family="Arial" font-size="14.00">    </text>
<text text-anchor="start" x="505.64" y="-272.2" font-family="Arial" font-size="14.00" fill="#666666">[BASE TABLE]</text>
<polygon fill="none" stroke="black" points="381.04,-228 381.04,-258.8 606.01,-258.8 606.01,-228 381.04,-228"/>
<text text-anchor="start" x="388.04" y="-240.2" font-family="Arial" font-size="14.00">user_id </text>
<text text-anchor="start" x="437.84" y="-240.2" font-family="Arial" font-size="14.00" fill="#666666">[uuid]</text>
<polygon fill="none" stroke="black" points="381.04,-197.2 381.04,-228 606.01,-228 606.01,-197.2 381.04,-197.2"/>
<text text-anchor="start" x="388.04" y="-209.4" font-family="Arial" font-size="14.00">email </text>
<text text-anchor="start" x="425.38" y="-209.4" font-family="Arial" font-size="14.00" fill="#666666">[varchar(320)]</text>
<polygon fill="none" stroke="black" points="381.04,-166.4 381.04,-197.2 606.01,-197.2 606.01,-166.4 381.04,-166.4"/>
<text text-anchor="start" x="388.04" y="-178.6" font-family="Arial" font-size="14.00">first_name </text>
<text text-anchor="start" x="457.28" y="-178.6" font-family="Arial" font-size="14.00" fill="#666666">[varchar(255)]</text>
<polygon fill="none" stroke="black" points="381.04,-135.6 381.04,-166.4 606.01,-166.4 606.01,-135.6 381.04,-135.6"/>
<text text-anchor="start" x="388.04" y="-147.8" font-family="Arial" font-size="14.00">last_name </text>
<text text-anchor="start" x="456.52" y="-147.8" font-family="Arial" font-size="14.00" fill="#666666">[varchar(255)]</text>
<polygon fill="none" stroke="black" points="381.04,-104.8 381.04,-135.6 606.01,-135.6 606.01,-104.8 381.04,-104.8"/>
<text text-anchor="start" x="388.04" y="-117" font-family="Arial" font-size="14.00">password_hash </text>
<text text-anchor="start" x="489.99" y="-117" font-family="Arial" font-size="14.00" fill="#666666">[text]</text>
<polygon fill="none" stroke="black" points="381.04,-74 381.04,-104.8 606.01,-104.8 606.01,-74 381.04,-74"/>
<text text-anchor="start" x="388.04" y="-86.2" font-family="Arial" font-size="14.00">middle_name </text>
<text text-anchor="start" x="475.97" y="-86.2" font-family="Arial" font-size="14.00" fill="#666666">[varchar(255)]</text>
<polygon fill="none" stroke="black" points="381.04,-43.2 381.04,-74 606.01,-74 606.01,-43.2 381.04,-43.2"/>
<text text-anchor="start" x="388.04" y="-55.4" font-family="Arial" font-size="14.00">is_admin </text>
<text text-anchor="start" x="447.95" y="-55.4" font-family="Arial" font-size="14.00" fill="#666666">[boolean]</text>
</g>
<!-- api.recipes -->
<g id="node2" class="node">
<title>api.recipes</title>
<polygon fill="#efefef" stroke="none" points="564.55,-601.6 564.55,-637.2 780.5,-637.2 780.5,-601.6 564.55,-601.6"/>
<polygon fill="none" stroke="black" points="564.55,-601.6 564.55,-637.2 780.5,-637.2 780.5,-601.6 564.55,-601.6"/>
<text text-anchor="start" x="571.55" y="-615" font-family="Arial Bold" font-size="18.00">api.recipes</text>
<text text-anchor="start" x="649.01" y="-615" font-family="Arial" font-size="14.00">    </text>
<text text-anchor="start" x="680.12" y="-615" font-family="Arial" font-size="14.00" fill="#666666">[BASE TABLE]</text>
<polygon fill="none" stroke="black" points="564.55,-570.8 564.55,-601.6 780.5,-601.6 780.5,-570.8 564.55,-570.8"/>
<text text-anchor="start" x="571.55" y="-583" font-family="Arial" font-size="14.00">recipe_id </text>
<text text-anchor="start" x="632.25" y="-583" font-family="Arial" font-size="14.00" fill="#666666">[uuid]</text>
<polygon fill="none" stroke="black" points="564.55,-540 564.55,-570.8 780.5,-570.8 780.5,-540 564.55,-540"/>
<text text-anchor="start" x="571.55" y="-552.2" font-family="Arial" font-size="14.00">user_id </text>
<text text-anchor="start" x="621.36" y="-552.2" font-family="Arial" font-size="14.00" fill="#666666">[uuid]</text>
<polygon fill="none" stroke="black" points="564.55,-509.2 564.55,-540 780.5,-540 780.5,-509.2 564.55,-509.2"/>
<text text-anchor="start" x="571.55" y="-521.4" font-family="Arial" font-size="14.00">title </text>
<text text-anchor="start" x="597.22" y="-521.4" font-family="Arial" font-size="14.00" fill="#666666">[varchar(255)]</text>
<polygon fill="none" stroke="black" points="564.55,-478.4 564.55,-509.2 780.5,-509.2 780.5,-478.4 564.55,-478.4"/>
<text text-anchor="start" x="571.55" y="-490.6" font-family="Arial" font-size="14.00">content </text>
<text text-anchor="start" x="621.36" y="-490.6" font-family="Arial" font-size="14.00" fill="#666666">[text]</text>
<polygon fill="none" stroke="black" points="564.55,-447.6 564.55,-478.4 780.5,-478.4 780.5,-447.6 564.55,-447.6"/>
<text text-anchor="start" x="571.55" y="-459.8" font-family="Arial" font-size="14.00">difficulty </text>
<text text-anchor="start" x="626.01" y="-459.8" font-family="Arial" font-size="14.00" fill="#666666">[api.difficulty_level]</text>
<polygon fill="none" stroke="black" points="564.55,-416.8 564.55,-447.6 780.5,-447.6 780.5,-416.8 564.55,-416.8"/>
<text text-anchor="start" x="571.55" y="-429" font-family="Arial" font-size="14.00">thumbnail_image_hash </text>
<text text-anchor="start" x="720.2" y="-429" font-family="Arial" font-size="14.00" fill="#666666">[text]</text>
</g>
<!-- api.recipes&#45;&gt;public.users -->
<g id="edge1" class="edge">
<title>api.recipes:user_id&#45;&gt;public.users:user_id</title>
<path fill="none" stroke="black" d="M553.43,-554.76C487.04,-545.73 532.33,-443.73 564.55,-373.6 574.74,-351.42 595.77,-359.75 606.01,-337.6 623.58,-299.6 648.88,-243.4 607.01,-243.4"/>
<polygon fill="black" stroke="black" points="553.24,-554.74 562.93,-559.87 558.56,-555.08 562.88,-555.36 562.88,-555.36 562.88,-555.36 558.56,-555.08 563.5,-550.89 553.24,-554.74"/>
</g>
<!-- api.recipes_comments -->
<g id="node3" class="node">
<title>api.recipes_comments</title>
<polygon fill="#efefef" stroke="none" points="1245.06,-913.6 1245.06,-949.2 1543.99,-949.2 1543.99,-913.6 1245.06,-913.6"/>
<polygon fill="none" stroke="black" points="1245.06,-913.6 1245.06,-949.2 1543.99,-949.2 1543.99,-913.6 1245.06,-913.6"/>
<text text-anchor="start" x="1252.06" y="-927" font-family="Arial Bold" font-size="18.00">api.recipes_comments</text>
<text text-anchor="start" x="1412.5" y="-927" font-family="Arial" font-size="14.00">    </text>
<text text-anchor="start" x="1443.62" y="-927" font-family="Arial" font-size="14.00" fill="#666666">[BASE TABLE]</text>
<polygon fill="none" stroke="black" points="1245.06,-882.8 1245.06,-913.6 1543.99,-913.6 1543.99,-882.8 1245.06,-882.8"/>
<text text-anchor="start" x="1252.06" y="-895" font-family="Arial" font-size="14.00">comment_id </text>
<text text-anchor="start" x="1332.2" y="-895" font-family="Arial" font-size="14.00" fill="#666666">[uuid]</text>
<polygon fill="none" stroke="black" points="1245.06,-852 1245.06,-882.8 1543.99,-882.8 1543.99,-852 1245.06,-852"/>
<text text-anchor="start" x="1252.06" y="-864.2" font-family="Arial" font-size="14.00">recipe_id </text>
<text text-anchor="start" x="1312.76" y="-864.2" font-family="Arial" font-size="14.00" fill="#666666">[uuid]</text>
<polygon fill="none" stroke="black" points="1245.06,-821.2 1245.06,-852 1543.99,-852 1543.99,-821.2 1245.06,-821.2"/>
<text text-anchor="start" x="1252.06" y="-833.4" font-family="Arial" font-size="14.00">user_id </text>
<text text-anchor="start" x="1301.86" y="-833.4" font-family="Arial" font-size="14.00" fill="#666666">[uuid]</text>
<polygon fill="none" stroke="black" points="1245.06,-790.4 1245.06,-821.2 1543.99,-821.2 1543.99,-790.4 1245.06,-790.4"/>
<text text-anchor="start" x="1252.06" y="-802.6" font-family="Arial" font-size="14.00">parent_comment_id </text>
<text text-anchor="start" x="1379.68" y="-802.6" font-family="Arial" font-size="14.00" fill="#666666">[uuid]</text>
<polygon fill="none" stroke="black" points="1245.06,-759.6 1245.06,-790.4 1543.99,-790.4 1543.99,-759.6 1245.06,-759.6"/>
<text text-anchor="start" x="1252.06" y="-771.8" font-family="Arial" font-size="14.00">content </text>
<text text-anchor="start" x="1301.87" y="-771.8" font-family="Arial" font-size="14.00" fill="#666666">[text]</text>
</g>
<!-- api.recipes_comments&#45;&gt;public.users -->
<g id="edge2" class="edge">
<title>api.recipes_comments:user_id&#45;&gt;public.users:user_id</title>
<path fill="none" stroke="black" d="M1234.93,-831.82C1192.48,-784.98 1196.17,-409.18 1162.52,-373.6 1075.41,-281.47 733.8,-243.4 607.01,-243.4"/>
<polygon fill="black" stroke="black" points="1234.9,-831.8 1241.67,-840.43 1239.63,-834.28 1243.46,-836.29 1243.46,-836.29 1243.46,-836.29 1239.63,-834.28 1245.85,-832.46 1234.9,-831.8"/>
</g>
<!-- api.recipes_comments&#45;&gt;api.recipes -->
<g id="edge3" class="edge">
<title>api.recipes_comments:recipe_id&#45;&gt;api.recipes:recipe_id</title>
<path fill="none" stroke="black" d="M1233.68,-866.47C1180.93,-855.92 1244.83,-758.32 1192.52,-716.4 1078.09,-624.69 994.68,-747.97 864.52,-680.4 814.99,-654.69 837.3,-586.2 781.5,-586.2"/>
<polygon fill="black" stroke="black" points="1233.76,-866.48 1243.32,-871.85 1239.08,-866.95 1243.39,-867.34 1243.39,-867.34 1243.39,-867.34 1239.08,-866.95 1244.12,-862.89 1233.76,-866.48"/>
</g>
<!-- api.recipes_comments&#45;&gt;api.recipes_comments -->
<g id="edge4" class="edge">
<title>api.recipes_comments:parent_comment_id&#45;&gt;api.recipes_comments:comment_id</title>
<path fill="none" stroke="black" d="M1396.56,-831.39C1403.46,-935.65 1402.78,-1133 1394.52,-1133 1386.01,-1133 1385.55,-1005.9 1393.15,-913.56"/>
<polygon fill="black" stroke="black" points="1396.56,-831.3 1400.34,-821.01 1396.18,-825.98 1395.87,-821.66 1395.87,-821.66 1395.87,-821.66 1396.18,-825.98 1391.36,-821.64 1396.56,-831.3"/>
</g>
<!-- api.recipes_comments_votes -->
<g id="node4" class="node">
<title>api.recipes_comments_votes</title>
<polygon fill="#efefef" stroke="none" points="535.56,-1164 535.56,-1199.6 881.49,-1199.6 881.49,-1164 535.56,-1164"/>
<polygon fill="none" stroke="black" points="535.56,-1164 535.56,-1199.6 881.49,-1199.6 881.49,-1164 535.56,-1164"/>
<text text-anchor="start" x="542.56" y="-1177.4" font-family="Arial Bold" font-size="18.00">api.recipes_comments_votes</text>
<text text-anchor="start" x="750" y="-1177.4" font-family="Arial" font-size="14.00">    </text>
<text text-anchor="start" x="781.11" y="-1177.4" font-family="Arial" font-size="14.00" fill="#666666">[BASE TABLE]</text>
<polygon fill="none" stroke="black" points="535.56,-1133.2 535.56,-1164 881.49,-1164 881.49,-1133.2 535.56,-1133.2"/>
<text text-anchor="start" x="542.56" y="-1145.4" font-family="Arial" font-size="14.00">user_id </text>
<text text-anchor="start" x="592.36" y="-1145.4" font-family="Arial" font-size="14.00" fill="#666666">[uuid]</text>
<polygon fill="none" stroke="black" points="535.56,-1102.4 535.56,-1133.2 881.49,-1133.2 881.49,-1102.4 535.56,-1102.4"/>
<text text-anchor="start" x="542.56" y="-1114.6" font-family="Arial" font-size="14.00">comment_id </text>
<text text-anchor="start" x="622.7" y="-1114.6" font-family="Arial" font-size="14.00" fill="#666666">[uuid]</text>
<polygon fill="none" stroke="black" points="535.56,-1071.6 535.56,-1102.4 881.49,-1102.4 881.49,-1071.6 535.56,-1071.6"/>
<text text-anchor="start" x="542.56" y="-1083.8" font-family="Arial" font-size="14.00">upvote </text>
<text text-anchor="start" x="588.48" y="-1083.8" font-family="Arial" font-size="14.00" fill="#666666">[boolean]</text>
</g>
<!-- api.recipes_comments_votes&#45;&gt;public.users -->
<g id="edge5" class="edge">
<title>api.recipes_comments_votes:user_id&#45;&gt;public.users:user_id</title>
<path fill="none" stroke="black" d="M524.35,-1148.45C402.5,-1144.97 108.35,-1082.36 42.52,-992.4 -29.91,-893.41 5.12,-833.22 42.52,-716.4 121.28,-470.45 121.78,-243.4 380.04,-243.4"/>
<polygon fill="black" stroke="black" points="524.22,-1148.45 534.16,-1153.09 529.56,-1148.53 533.89,-1148.59 533.89,-1148.59 533.89,-1148.59 529.56,-1148.53 534.29,-1144.1 524.22,-1148.45"/>
</g>
<!-- api.recipes_comments_votes&#45;&gt;api.recipes_comments -->
<g id="edge6" class="edge">
<title>api.recipes_comments_votes:comment_id&#45;&gt;api.recipes_comments:comment_id</title>
<path fill="none" stroke="black" d="M892.64,-1116.45C923.16,-1107.12 898.89,-1051.84 933.52,-1028.4 1029.76,-963.25 1096.88,-1058.42 1192.52,-992.4 1231.8,-965.29 1196.33,-898.2 1244.06,-898.2"/>
<polygon fill="black" stroke="black" points="892.73,-1116.44 882.23,-1113.3 887.44,-1117.14 883.15,-1117.71 883.15,-1117.71 883.15,-1117.71 887.44,-1117.14 883.41,-1122.22 892.73,-1116.44"/>
</g>
<!-- api.tags -->
<g id="node5" class="node">
<title>api.tags</title>
<polygon fill="#efefef" stroke="none" points="916.54,-540 916.54,-575.6 1110.51,-575.6 1110.51,-540 916.54,-540"/>
<polygon fill="none" stroke="black" points="916.54,-540 916.54,-575.6 1110.51,-575.6 1110.51,-540 916.54,-540"/>
<text text-anchor="start" x="923.54" y="-553.4" font-family="Arial Bold" font-size="18.00">api.tags</text>
<text text-anchor="start" x="979.02" y="-553.4" font-family="Arial" font-size="14.00">    </text>
<text text-anchor="start" x="1010.14" y="-553.4" font-family="Arial" font-size="14.00" fill="#666666">[BASE TABLE]</text>
<polygon fill="none" stroke="black" points="916.54,-509.2 916.54,-540 1110.51,-540 1110.51,-509.2 916.54,-509.2"/>
<text text-anchor="start" x="923.54" y="-521.4" font-family="Arial" font-size="14.00">tag_id </text>
<text text-anchor="start" x="965.57" y="-521.4" font-family="Arial" font-size="14.00" fill="#666666">[uuid]</text>
<polygon fill="none" stroke="black" points="916.54,-478.4 916.54,-509.2 1110.51,-509.2 1110.51,-478.4 916.54,-478.4"/>
<text text-anchor="start" x="923.54" y="-490.6" font-family="Arial" font-size="14.00">name </text>
<text text-anchor="start" x="962.45" y="-490.6" font-family="Arial" font-size="14.00" fill="#666666">[varchar(255)]</text>
</g>
<!-- api.recipes_tags -->
<g id="node6" class="node">
<title>api.recipes_tags</title>
<polygon fill="#efefef" stroke="none" points="886.55,-867.4 886.55,-903 1140.49,-903 1140.49,-867.4 886.55,-867.4"/>
<polygon fill="none" stroke="black" points="886.55,-867.4 886.55,-903 1140.49,-903 1140.49,-867.4 886.55,-867.4"/>
<text text-anchor="start" x="893.55" y="-880.8" font-family="Arial Bold" font-size="18.00">api.recipes_tags</text>
<text text-anchor="start" x="1009" y="-880.8" font-family="Arial" font-size="14.00">    </text>
<text text-anchor="start" x="1040.12" y="-880.8" font-family="Arial" font-size="14.00" fill="#666666">[BASE TABLE]</text>
<polygon fill="none" stroke="black" points="886.55,-836.6 886.55,-867.4 1140.49,-867.4 1140.49,-836.6 886.55,-836.6"/>
<text text-anchor="start" x="893.55" y="-848.8" font-family="Arial" font-size="14.00">recipe_id </text>
<text text-anchor="start" x="954.25" y="-848.8" font-family="Arial" font-size="14.00" fill="#666666">[uuid]</text>
<polygon fill="none" stroke="black" points="886.55,-805.8 886.55,-836.6 1140.49,-836.6 1140.49,-805.8 886.55,-805.8"/>
<text text-anchor="start" x="893.55" y="-818" font-family="Arial" font-size="14.00">tag_id </text>
<text text-anchor="start" x="935.59" y="-818" font-family="Arial" font-size="14.00" fill="#666666">[uuid]</text>
</g>
<!-- api.recipes_tags&#45;&gt;api.recipes -->
<g id="edge7" class="edge">
<title>api.recipes_tags:recipe_id&#45;&gt;api.recipes:recipe_id</title>
<path fill="none" stroke="black" d="M875.24,-851.24C825.27,-843.19 856.63,-772.84 834.52,-716.4 811.73,-658.22 843.98,-586.2 781.5,-586.2"/>
<polygon fill="black" stroke="black" points="875.25,-851.24 884.89,-856.46 880.57,-851.63 884.88,-851.95 884.88,-851.95 884.88,-851.95 880.57,-851.63 885.55,-847.49 875.25,-851.24"/>
</g>
<!-- api.recipes_tags&#45;&gt;api.tags -->
<g id="edge8" class="edge">
<title>api.recipes_tags:tag_id&#45;&gt;api.tags:tag_id</title>
<path fill="none" stroke="black" d="M1013.84,-794.53C1019.11,-711.26 1088.7,-705.79 1110.51,-618.8 1120.69,-578.19 1153.38,-524.6 1111.51,-524.6"/>
<polygon fill="black" stroke="black" points="1013.84,-794.47 1009.04,-804.33 1013.68,-799.8 1013.54,-804.13 1013.54,-804.13 1013.54,-804.13 1013.68,-799.8 1018.03,-804.6 1013.84,-794.47"/>
</g>
<!-- api.users_recipe_votes -->
<g id="node7" class="node">
<title>api.users_recipe_votes</title>
<polygon fill="#efefef" stroke="none" points="94.56,-882.8 94.56,-918.4 396.49,-918.4 396.49,-882.8 94.56,-882.8"/>
<polygon fill="none" stroke="black" points="94.56,-882.8 94.56,-918.4 396.49,-918.4 396.49,-882.8 94.56,-882.8"/>
<text text-anchor="start" x="101.56" y="-896.2" font-family="Arial Bold" font-size="18.00">api.users_recipe_votes</text>
<text text-anchor="start" x="265" y="-896.2" font-family="Arial" font-size="14.00">    </text>
<text text-anchor="start" x="296.12" y="-896.2" font-family="Arial" font-size="14.00" fill="#666666">[BASE TABLE]</text>
<polygon fill="none" stroke="black" points="94.56,-852 94.56,-882.8 396.49,-882.8 396.49,-852 94.56,-852"/>
<text text-anchor="start" x="101.56" y="-864.2" font-family="Arial" font-size="14.00">user_id </text>
<text text-anchor="start" x="151.36" y="-864.2" font-family="Arial" font-size="14.00" fill="#666666">[uuid]</text>
<polygon fill="none" stroke="black" points="94.56,-821.2 94.56,-852 396.49,-852 396.49,-821.2 94.56,-821.2"/>
<text text-anchor="start" x="101.56" y="-833.4" font-family="Arial" font-size="14.00">recipe_id </text>
<text text-anchor="start" x="162.26" y="-833.4" font-family="Arial" font-size="14.00" fill="#666666">[uuid]</text>
<polygon fill="none" stroke="black" points="94.56,-790.4 94.56,-821.2 396.49,-821.2 396.49,-790.4 94.56,-790.4"/>
<text text-anchor="start" x="101.56" y="-802.6" font-family="Arial" font-size="14.00">upvote </text>
<text text-anchor="start" x="147.48" y="-802.6" font-family="Arial" font-size="14.00" fill="#666666">[boolean]</text>
</g>
<!-- api.users_recipe_votes&#45;&gt;public.users -->
<g id="edge9" class="edge">
<title>api.users_recipe_votes:user_id&#45;&gt;public.users:user_id</title>
<path fill="none" stroke="black" d="M407.57,-866.12C520.96,-834.93 244.97,-243.4 380.04,-243.4"/>
<polygon fill="black" stroke="black" points="407.74,-866.1 397.25,-862.89 402.45,-866.77 398.15,-867.32 398.15,-867.32 398.15,-867.32 402.45,-866.77 398.39,-871.82 407.74,-866.1"/>
</g>
<!-- api.users_recipe_votes&#45;&gt;api.recipes -->
<g id="edge10" class="edge">
<title>api.users_recipe_votes:recipe_id&#45;&gt;api.recipes:recipe_id</title>
<path fill="none" stroke="black" d="M407.83,-835.69C450.79,-827.25 419.62,-762.23 448.52,-716.4 489.71,-651.08 486.33,-586.2 563.55,-586.2"/>
<polygon fill="black" stroke="black" points="407.78,-835.69 397.43,-832.09 402.47,-836.16 398.15,-836.54 398.15,-836.54 398.15,-836.54 402.47,-836.16 398.22,-841.05 407.78,-835.69"/>
</g>
<!-- api.favorite_recipes -->
<g id="node8" class="node">
<title>api.favorite_recipes</title>
<polygon fill="#efefef" stroke="none" points="501.06,-867.4 501.06,-903 781.98,-903 781.98,-867.4 501.06,-867.4"/>
<polygon fill="none" stroke="black" points="501.06,-867.4 501.06,-903 781.98,-903 781.98,-867.4 501.06,-867.4"/>
<text text-anchor="start" x="508.06" y="-880.8" font-family="Arial Bold" font-size="18.00">api.favorite_recipes</text>
<text text-anchor="start" x="650.49" y="-880.8" font-family="Arial" font-size="14.00">    </text>
<text text-anchor="start" x="681.61" y="-880.8" font-family="Arial" font-size="14.00" fill="#666666">[BASE TABLE]</text>
<polygon fill="none" stroke="black" points="501.06,-836.6 501.06,-867.4 781.98,-867.4 781.98,-836.6 501.06,-836.6"/>
<text text-anchor="start" x="508.06" y="-848.8" font-family="Arial" font-size="14.00">user_id </text>
<text text-anchor="start" x="557.87" y="-848.8" font-family="Arial" font-size="14.00" fill="#666666">[uuid]</text>
<polygon fill="none" stroke="black" points="501.06,-805.8 501.06,-836.6 781.98,-836.6 781.98,-805.8 501.06,-805.8"/>
<text text-anchor="start" x="508.06" y="-818" font-family="Arial" font-size="14.00">recipe_id </text>
<text text-anchor="start" x="568.77" y="-818" font-family="Arial" font-size="14.00" fill="#666666">[uuid]</text>
</g>
<!-- api.favorite_recipes&#45;&gt;public.users -->
<g id="edge11" class="edge">
<title>api.favorite_recipes:user_id&#45;&gt;public.users:user_id</title>
<path fill="none" stroke="black" d="M491.7,-845.9C458.17,-802.46 396.81,-536.95 512.52,-373.6 538.26,-337.27 580.62,-374.17 606.01,-337.6 629.89,-303.21 648.88,-243.4 607.01,-243.4"/>
<polygon fill="black" stroke="black" points="491.72,-845.91 497.14,-855.44 496.03,-849.05 499.52,-851.61 499.52,-851.61 499.52,-851.61 496.03,-849.05 502.45,-848.17 491.72,-845.91"/>
</g>
<!-- api.favorite_recipes&#45;&gt;api.recipes -->
<g id="edge12" class="edge">
<title>api.favorite_recipes:recipe_id&#45;&gt;api.recipes:recipe_id</title>
<path fill="none" stroke="black" d="M640.97,-794.38C634.99,-739.92 581.64,-739.31 564.55,-680.4 552.88,-640.19 521.68,-586.2 563.55,-586.2"/>
<polygon fill="black" stroke="black" points="640.98,-794.48 637.01,-804.7 641.26,-799.81 641.49,-804.13 641.49,-804.13 641.49,-804.13 641.26,-799.81 646,-804.23 640.98,-794.48"/>
</g>
<!-- public.images -->
<g id="node9" class="node">
<title>public.images</title>
<polygon fill="#efefef" stroke="none" points="986.04,-1148.6 986.04,-1184.2 1225.01,-1184.2 1225.01,-1148.6 986.04,-1148.6"/>
<polygon fill="none" stroke="black" points="986.04,-1148.6 986.04,-1184.2 1225.01,-1184.2 1225.01,-1148.6 986.04,-1148.6"/>
<text text-anchor="start" x="993.04" y="-1162" font-family="Arial Bold" font-size="18.00">public.images</text>
<text text-anchor="start" x="1093.52" y="-1162" font-family="Arial" font-size="14.00">    </text>
<text text-anchor="start" x="1124.63" y="-1162" font-family="Arial" font-size="14.00" fill="#666666">[BASE TABLE]</text>
<polygon fill="none" stroke="black" points="986.04,-1117.8 986.04,-1148.6 1225.01,-1148.6 1225.01,-1117.8 986.04,-1117.8"/>
<text text-anchor="start" x="993.04" y="-1130" font-family="Arial" font-size="14.00">hash </text>
<text text-anchor="start" x="1027.29" y="-1130" font-family="Arial" font-size="14.00" fill="#666666">[text]</text>
<polygon fill="none" stroke="black" points="986.04,-1087 986.04,-1117.8 1225.01,-1117.8 1225.01,-1087 986.04,-1087"/>
<text text-anchor="start" x="993.04" y="-1099.2" font-family="Arial" font-size="14.00">data </text>
<text text-anchor="start" x="1024.18" y="-1099.2" font-family="Arial" font-size="14.00" fill="#666666">[bytea]</text>
</g>
</g>
</svg>
